<?xml version="1.0" encoding="UTF-8"?>
<svg width="5185px" height="2161px" viewBox="0 0 5185 2161" version="1.1" xmlns="http://www.w3.org/2000/svg" xmlns:xlink="http://www.w3.org/1999/xlink">
    <!-- Generator: Sketch 48.2 (47327) - http://www.bohemiancoding.com/sketch -->
    <title>New Logo</title>
    <desc>Created with Sketch.</desc>
    <defs></defs>
    <g id="Assets" stroke="none" stroke-width="1" fill="none" fill-rule="evenodd">
        <g id="New-Logo" transform="translate(1.000000, 0.000000)">
            <g id="New-Logo-1" transform="translate(0.000000, 4.000000)">
                <text id="bioTE" font-family="CenturyGothic, Century Gothic" font-size="1080" font-weight="normal">
                    <tspan x="1665" y="1086.05001" fill="#B70000">bio</tspan>
                    <tspan x="3325.07812" y="1086.05001" font-family="CenturyGothic-Bold, Century Gothic" font-weight="bold" fill="#0066A5">TE</tspan>
                </text>
                <polyline id="Path-3" stroke="#B70000" stroke-width="127.5" points="0 1471.79387 729.130193 1474.15534 869.472371 956.244719 1058.65346 1819.53374 1299.06803 371.550007 1492.2476 1474.15534 3371.96788 1474.15534"></polyline>
                <polyline id="Path-2" stroke="#0066A5" stroke-width="127.5" points="3367.5 1475.03643 4441.63744 1475.03643 4700.94469 926.550007"></polyline>
                <path d="M5183.68735,483.497507 L5013.70097,544.24466 L4964.79373,459.534852 L4699.93124,459.534852 L4567.5,688.912497 L4699.93124,918.290141 L4964.79373,918.290141 L5012.37283,835.880726 L5182.00654,896.501846 C5111.02334,1015.72339 4980.85227,1095.60001 4832.025,1095.60001 C4607.2313,1095.60001 4425,913.368712 4425,688.57501 C4425,463.781308 4607.2313,281.550007 4832.025,281.550007 C4982.03481,281.550007 5113.09077,362.701024 5183.68735,483.497507 Z" id="Angled-Hex" fill="#0066A5"></path>
            </g>
        </g>
    </g>
</svg>