<?xml version="1.0" encoding="UTF-8" standalone="no"?>
<svg
   xmlns:dc="http://purl.org/dc/elements/1.1/"
   xmlns:cc="http://creativecommons.org/ns#"
   xmlns:rdf="http://www.w3.org/1999/02/22-rdf-syntax-ns#"
   xmlns:svg="http://www.w3.org/2000/svg"
   xmlns="http://www.w3.org/2000/svg"
   xmlns:sodipodi="http://sodipodi.sourceforge.net/DTD/sodipodi-0.dtd"
   xmlns:inkscape="http://www.inkscape.org/namespaces/inkscape"
   width="5185px"
   height="2161px"
   viewBox="0 0 5185 2161"
   version="1.1"
   id="svg3753"
   sodipodi:docname="Biotec_Vector.svg"
   inkscape:version="0.92.3 (2405546, 2018-03-11)">
  <metadata
     id="metadata3757">
    <rdf:RDF>
      <cc:Work
         rdf:about="">
        <dc:format>image/svg+xml</dc:format>
        <dc:type
           rdf:resource="http://purl.org/dc/dcmitype/StillImage" />
        <dc:title>BioTEC2018Logo</dc:title>
      </cc:Work>
    </rdf:RDF>
  </metadata>
  <sodipodi:namedview
     pagecolor="#ffffff"
     bordercolor="#666666"
     borderopacity="1"
     objecttolerance="10"
     gridtolerance="10"
     guidetolerance="10"
     inkscape:pageopacity="0"
     inkscape:pageshadow="2"
     inkscape:window-width="1920"
     inkscape:window-height="1018"
     id="namedview3755"
     showgrid="false"
     inkscape:zoom="0.24070269"
     inkscape:cx="1745.9402"
     inkscape:cy="781.21018"
     inkscape:window-x="-8"
     inkscape:window-y="-8"
     inkscape:window-maximized="1"
     inkscape:current-layer="Assets" />
  <!-- Generator: Sketch 48.2 (47327) - http://www.bohemiancoding.com/sketch -->
  <title
     id="title3736">BioTEC2018Logo</title>
  <desc
     id="desc3738">Created with Sketch.</desc>
  <defs
     id="defs3740" />
  <g
     id="Assets"
     stroke="none"
     stroke-width="1"
     fill="none"
     fill-rule="evenodd">
    <g
       aria-label="bioTE"
       style="font-weight:normal;font-size:1080px;font-family:CenturyGothic, 'Century Gothic'"
       id="bioTE" />
    <g
       id="g3796">
      <path
         id="path3772"
         style="font-weight:normal;font-size:1080px;font-family:CenturyGothic, 'Century Gothic';fill:#b70000"
         d="M 1753.0117,1090.05 V 294.81567 h 73.3008 v 320.09766 q 46.4063,-56.95312 103.8867,-84.90234 57.4805,-28.47657 126.0352,-28.47657 121.8164,0 207.7734,88.59375 86.4844,88.06641 86.4844,214.10157 0,124.45312 -87.0117,212.51956 -87.0117,88.0664 -209.3555,88.0664 -70.1367,0 -127.0898,-30.0586 -56.9532,-30.0586 -100.7227,-90.1758 V 1090.05 Z m 295.3125,-56.4257 q 61.6992,0 113.9063,-30.0586 52.207,-30.58596 82.7929,-85.42971 31.1133,-54.84375 31.1133,-116.01563 0,-61.17187 -31.1133,-116.54297 -31.1132,-55.37109 -83.8476,-85.95703 -52.207,-31.11328 -111.7969,-31.11328 -60.6445,0 -115.4883,31.11328 -54.3164,30.58594 -83.8476,82.79297 -29.0039,52.20703 -29.0039,117.59766 0,99.66797 65.3906,166.64062 65.918,66.97269 161.8945,66.97269 z" />
      <path
         id="path3774"
         style="font-weight:normal;font-size:1080px;font-family:CenturyGothic, 'Century Gothic';fill:#b70000"
         d="m 2510.2773,280.05005 q 25.3125,0 43.2422,17.92969 17.9297,17.92968 17.9297,43.24218 0,24.78516 -17.9297,42.71485 -17.9297,17.92969 -43.2422,17.92969 -24.7851,0 -42.7148,-17.92969 -17.9297,-17.92969 -17.9297,-42.71485 0,-25.3125 17.9297,-43.24218 17.9297,-17.92969 42.7148,-17.92969 z m -36.914,236.25 h 74.3555 V 1090.05 h -74.3555 z" />
      <path
         id="path3776"
         style="font-weight:normal;font-size:1080px;font-family:CenturyGothic, 'Century Gothic';fill:#b70000"
         d="m 2973.2852,501.53442 q 132.3632,0 219.375,95.97657 79.1015,87.53906 79.1015,207.24609 0,120.23438 -83.8476,210.41012 -83.3203,89.6485 -214.6289,89.6485 -131.836,0 -215.6836,-89.6485 -83.3203,-90.17574 -83.3203,-210.41012 0,-119.17969 79.1015,-206.71875 87.0117,-96.50391 219.9024,-96.50391 z m 0,72.2461 q -91.7579,0 -157.6758,68.02734 -65.918,68.02735 -65.918,164.53125 0,62.22656 30.0586,116.01563 30.0586,53.78906 81.2109,83.32026 51.1524,29.004 112.3243,29.004 61.1718,0 112.3242,-29.004 51.1523,-29.5312 81.2109,-83.32026 30.0586,-53.78907 30.0586,-116.01563 0,-96.5039 -66.4453,-164.53125 -65.918,-68.02734 -157.1484,-68.02734 z" />
      <path
         id="path3778"
         style="font-weight:bold;font-size:1080px;font-family:CenturyGothic-Bold, 'Century Gothic';fill:#0066a5"
         d="m 3338.207,314.32739 h 428.7305 V 459.87427 H 3625.6094 V 1090.05 H 3475.8438 V 459.87427 H 3338.207 Z" />
      <path
         id="path3780"
         style="font-weight:bold;font-size:1080px;font-family:CenturyGothic-Bold, 'Century Gothic';fill:#0066a5"
         d="m 3868.7148,314.32739 h 423.4571 v 144.49219 h -276.8555 v 140.27344 h 276.8555 v 141.85547 h -276.8555 v 204.08203 h 276.8555 V 1090.05 h -423.4571 z" />
      <polyline
         transform="translate(1,4)"
         style="stroke:#b70000;stroke-width:127.5"
         points="0 1471.79387 729.130193 1474.15534 869.472371 956.244719 1058.65346 1819.53374 1299.06803 371.550007 1492.2476 1474.15534 3371.96788 1474.15534"
         id="Path-3" />
      <polyline
         transform="translate(1,4)"
         style="stroke:#0066a5;stroke-width:127.5"
         points="3367.5 1475.03643 4441.63744 1475.03643 4700.94469 926.550007"
         id="Path-2" />
      <path
         style="fill:#0066a5"
         inkscape:connector-curvature="0"
         id="Angled-Hex"
         d="m 5184.6873,487.49751 -169.9863,60.74715 -48.9073,-84.70981 H 4700.9312 L 4568.5,692.9125 4700.9312,922.29014 h 264.8625 l 47.5791,-82.40941 169.6337,60.62112 C 5112.0233,1019.7234 4981.8523,1099.6 4833.025,1099.6 4608.2313,1099.6 4426,917.36871 4426,692.57501 c 0,-224.7937 182.2313,-407.025 407.025,-407.025 150.0098,0 281.0658,81.15101 351.6623,201.9475 z" />
    </g>
  </g>
</svg>
