<!DOCTYPE svg PUBLIC "-//W3C//DTD SVG 20010904//EN" "http://www.w3.org/TR/2001/REC-SVG-20010904/DTD/svg10.dtd">
<svg version="1.0" xmlns="http://www.w3.org/2000/svg" width="1358px" height="663px" viewBox="0 0 13580 6630" preserveAspectRatio="xMidYMid meet">
<g id="layer1" fill="#5099d8" stroke="none">
 <path d="M8695 4276 c-81 -81 -87 -191 -14 -279 l31 -37 1047 2 1048 3 449 -667 c247 -367 453 -674 459 -683 7 -11 0 -25 -32 -57 -84 -87 -168 -285 -198 -468 -48 -299 27 -610 206 -852 70 -94 205 -218 302 -278 89 -55 199 -101 305 -127 93 -23 341 -23 434 0 179 44 336 129 468 254 86 81 173 186 163 197 -4 3 -250 6 -547 6 l-541 0 -159 317 -158 318 158 317 159 318 529 2 c417 2 530 6 534 16 7 23 -206 224 -298 280 -173 106 -313 145 -520 146 -162 1 -219 -9 -358 -61 -52 -19 -95 -33 -96 -31 -2 2 -195 288 -429 636 -235 348 -446 656 -469 683 -83 98 42 89 -1273 89 l-1156 0 -44 -44z"/>
 <path d="M9007 2914 c-4 -4 -7 -387 -7 -850 l0 -844 -182 -2 -183 -3 0 -200 0 -200 585 0 585 0 0 200 0 200 -187 3 -188 2 -2 848 -3 847 -206 3 c-113 1 -208 -1 -212 -4z"/>
 <path d="M10065 2908 c-3 -7 -4 -481 -3 -1053 l3 -1040 575 0 575 0 0 200 0 200 -367 3 -368 2 0 175 0 175 368 2 367 3 0 200 0 200 -367 3 -368 2 0 265 0 265 368 2 367 3 0 200 0 200 -573 3 c-453 2 -574 0 -577 -10z"/>
 </g>
<g id="layer2" fill="#d00101" stroke="none">
 <path d="M2996 6271 c-4 -6 -121 -594 -261 -1307 -139 -712 -255 -1297 -257 -1299 -2 -2 -56 145 -119 328 l-116 332 -1019 -4 c-817 -3 -1022 -6 -1033 -16 -11 -11 -12 -42 -5 -172 l9 -158 900 2 900 1 274 -786 c150 -433 277 -798 282 -811 8 -21 12 -23 23 -10 8 8 93 421 196 949 100 514 185 946 189 958 4 15 85 -481 209 -1285 111 -719 245 -1585 298 -1923 52 -338 97 -621 100 -629 3 -10 8 -11 15 -4 7 7 508 3479 509 3526 0 4 1037 7 2303 7 1267 0 2306 3 2310 6 3 3 -5 23 -18 43 -51 76 -41 184 21 246 23 24 31 37 22 40 -7 3 -1122 4 -2478 3 l-2465 -3 -111 -780 c-72 -511 -113 -770 -117 -750 -6 28 -422 2708 -504 3250 -20 132 -40 244 -44 248 -3 5 -10 4 -13 -2z"/>
 <path d="M5310 2935 c-109 -30 -215 -91 -300 -174 l-79 -77 -3 115 -3 116 -95 0 -95 0 -3 -974 c-1 -726 1 -977 9 -988 9 -10 34 -13 98 -11 l86 3 3 383 2 384 74 -70 c83 -77 174 -129 286 -163 97 -30 280 -33 380 -6 199 53 377 202 475 398 56 111 69 175 69 339 0 129 -3 154 -27 225 -39 118 -91 199 -192 300 -99 99 -166 143 -277 182 -62 22 -94 27 -213 29 -102 3 -155 0 -195 -11z m320 -203 c181 -63 294 -177 356 -357 119 -351 -149 -735 -513 -735 -124 0 -259 48 -360 128 -147 117 -222 349 -180 549 47 217 205 380 418 428 81 19 205 13 279 -13z"/>
 <path d="M7542 2931 c-245 -61 -451 -268 -523 -528 -30 -106 -30 -284 -1 -395 68 -255 280 -469 532 -535 90 -24 291 -23 380 1 208 56 375 198 475 401 153 311 71 689 -199 916 -135 114 -270 159 -470 158 -80 0 -146 -7 -194 -18z m323 -186 c246 -63 405 -270 408 -530 1 -161 -50 -290 -159 -400 -99 -101 -206 -151 -344 -161 -152 -12 -290 43 -406 161 -117 118 -172 265 -160 430 20 297 241 511 531 514 39 1 98 -6 130 -14z"/>
 <path d="M6505 2908 c-3 -7 -4 -328 -3 -713 l3 -700 100 0 100 0 0 710 0 710 -98 3 c-72 2 -99 -1 -102 -10z"/>
 <path d="M6535 1211 c-17 -10 -43 -33 -58 -50 -22 -27 -27 -42 -27 -89 0 -110 84 -178 194 -158 79 15 138 113 117 194 -11 37 -56 89 -98 111 -33 17 -94 13 -128 -8z"/>
 </g>

</svg>