<?xml version="1.0" encoding="UTF-8" standalone="no"?>
<svg
   xmlns:dc="http://purl.org/dc/elements/1.1/"
   xmlns:cc="http://creativecommons.org/ns#"
   xmlns:rdf="http://www.w3.org/1999/02/22-rdf-syntax-ns#"
   xmlns:svg="http://www.w3.org/2000/svg"
   xmlns="http://www.w3.org/2000/svg"
   viewBox="0 0 230.90668 137.60001"
   height="137.60001"
   width="230.90668"
   xml:space="preserve"
   id="svg2"
   version="1.1"><metadata
     id="metadata8"><rdf:RDF><cc:Work
         rdf:about=""><dc:format>image/svg+xml</dc:format><dc:type
           rdf:resource="http://purl.org/dc/dcmitype/StillImage" /></cc:Work></rdf:RDF></metadata><defs
     id="defs6"><clipPath
       id="clipPath20"
       clipPathUnits="userSpaceOnUse"><path
         id="path18"
         d="M 0,0 H 1732 V 1032 H 0 Z" /></clipPath><clipPath
       id="clipPath26"
       clipPathUnits="userSpaceOnUse"><path
         id="path24"
         d="m 1662.96,810.879 h -83.01 l -41.48,-71.875 41.48,-71.895 h 83.01 l 41.48,71.895 z m -157.55,135.059 h -116.86 l -58.41,-101.211 58.41,-101.235 h 116.86 l 58.41,101.235 z m -360.95,-104.219 -73.95,-128.086 73.95,-128.106 h 147.91 l 73.99,128.106 -73.99,128.086 z M 1030.08,1032.01 H 846.848 L 755.234,873.301 846.848,714.668 h 183.232 l 91.6,158.633 z" /></clipPath><linearGradient
       id="linearGradient32"
       spreadMethod="pad"
       gradientTransform="matrix(949.209,0,0,-949.209,755.234,808.768)"
       gradientUnits="userSpaceOnUse"
       y2="0"
       x2="1"
       y1="0"
       x1="0"><stop
         id="stop28"
         offset="0"
         style="stop-opacity:1;stop-color:#9cad62" /><stop
         id="stop30"
         offset="1"
         style="stop-opacity:1;stop-color:#4e650b" /></linearGradient></defs><g
     transform="matrix(1.3333333,0,0,-1.3333333,0,137.6)"
     id="g10"><g
       transform="scale(0.1)"
       id="g12"><g
         id="g14"><g
           clip-path="url(#clipPath20)"
           id="g16"><g
             clip-path="url(#clipPath26)"
             id="g22"><path
               id="path34"
               style="fill:url(#linearGradient32);fill-opacity:1;fill-rule:nonzero;stroke:none"
               d="m 1144,585 v 1 h -1 v 2 h -1 v 1 h -1 v 2 h -1 v 2 h -1 v 1 h -1 v 2 h -1 v 2 h -1 v 2 h -1 v 1 h -1 v 2 h -1 v 2 h -1 v 2 h -1 v 1 h -1 v 2 h -1 v 2 h -1 v 2 h -1 v 1 h -1 v 2 h -1 v 2 h -1 v 1 h -1 v 2 h -1 v 2 h -1 v 2 h -1 v 1 h -1 v 2 h -1 v 2 h -1 v 2 h -1 v 1 h -1 v 2 h -1 v 2 h -1 v 2 h -1 v 1 h -1 v 2 h -1 v 2 h -1 v 1 h -1 v 2 h -1 v 2 h -1 v 2 h -1 v 1 h -1 v 2 h -1 v 2 h -1 v 2 h -1 v 1 h -1 v 2 h -1 v 2 h -1 v 2 h -1 v 1 h -1 v 2 h -1 v 2 h -1 v 1 h -1 v 2 h -1 v 2 h -1 v 2 h -1 v 1 h -1 v 2 h -1 v 2 h -1 v 2 h -1 v 1 h -1 v 2 h -1 v 2 h -1 v 2 h -1 v 1 h -1 v 2 h -1 v 2 h -1 v 1 h -1 v 2 h -1 v 2 h -1 v 2 h -1 v 1 h -1 v 2 h -1 v 2 h -1 v 2 h -1 v 1 h -1 v 3 h 1 v 2 h 1 v 1 h 1 v 2 h 1 v 2 h 1 v 2 h 1 v 1 h 1 v 2 h 1 v 2 h 1 v 2 h 1 v 1 h 1 v 2 h 1 v 2 h 1 v 1 h 1 v 2 h 1 v 2 h 1 v 2 h 1 v 1 h 1 v 2 h 1 v 2 h 1 v 2 h 1 v 1 h 1 v 2 h 1 v 2 h 1 v 2 h 1 v 1 h 1 v 2 h 1 v 2 h 1 v 1 h 1 v 2 h 1 v 2 h 1 v 2 h 1 v 1 h 1 v 2 h 1 v 2 h 1 v 2 h 1 v 1 h 1 v 2 h 1 v 2 h 1 v 2 h 1 v 1 h 1 v 2 h 1 v 2 h 1 v 1 h 1 v 2 h 1 v 2 h 1 v 2 h 1 v 1 h 1 v 2 h 1 v 2 h 1 v 2 h 1 v 1 h 1 v 2 h 1 v 2 h 1 v 2 h 1 v 1 h 1 v 2 h 1 v 2 h 1 v 1 h 1 v 2 h 1 v 2 h 1 v 2 h 1 v 1 h 1 v 2 h 1 v 2 h 1 v 2 h 1 v 1 h 1 v 2 h 1 v 2 h 1 v 1 h 1 v 2 h 1 v 2 h 1 v 2 h 1 v 1 h 1 v 1 h 149 v -1 h 1 v -2 h 1 v -1 h 1 v -2 h 1 v -2 h 1 v -2 h 1 v -1 h 1 v -2 h 1 v -2 h 1 v -1 h 1 v -2 h 1 v -2 h 1 v -2 h 1 v -1 h 1 v -2 h 1 v -2 h 1 v -2 h 1 v -1 h 1 v -2 h 1 v -2 h 1 v -1 h 1 v -2 h 1 v -2 h 1 v -2 h 1 v -1 h 1 v -2 h 1 v -2 h 1 v -2 h 1 v -1 h 1 v -2 h 1 v -2 h 1 v -2 h 1 v -1 h 1 v -2 h 1 v -2 h 1 v -1 h 1 v -2 h 1 v -2 h 1 v -2 h 1 v -1 h 1 v -2 h 1 v -2 h 1 v -2 h 1 v -1 h 1 v -2 h 1 v -2 h 1 v -2 h 1 v -1 h 1 v -2 h 1 v -2 h 1 v -1 h 1 v -2 h 1 v -2 h 1 v -2 h 1 v -1 h 1 v -2 h 1 v -2 h 1 v -2 h 1 v -1 h 1 v -2 h 1 v -2 h 1 v -1 h 1 v -2 h 1 v -2 h 1 v -2 h 1 v -1 h 1 v -2 h 1 v -2 h 1 v -2 h 1 v -1 h 1 v -2 h 1 v -2 h 1 v -2 h 1 v -1 h 1 v -2 h -1 v -2 h -1 v -2 h -1 v -2 h -1 v -1 h -1 v -2 h -1 v -2 h -1 v -2 h -1 v -1 h -1 v -2 h -1 v -2 h -1 v -2 h -1 v -1 h -1 v -2 h -1 v -2 h -1 v -1 h -1 v -2 h -1 v -2 h -1 v -2 h -1 v -1 h -1 v -2 h -1 v -2 h -1 v -2 h -1 v -1 h -1 v -2 h -1 v -2 h -1 v -2 h -1 v -1 h -1 v -2 h -1 v -2 h -1 v -1 h -1 v -2 h -1 v -2 h -1 v -2 h -1 v -1 h -1 v -2 h -1 v -2 h -1 v -2 h -1 v -1 h -1 v -2 h -1 v -2 h -1 v -1 h -1 v -2 h -1 v -2 h -1 v -2 h -1 v -1 h -1 v -2 h -1 v -2 h -1 v -2 h -1 v -1 h -1 v -2 h -1 v -2 h -1 v -2 h -1 v -1 h -1 v -2 h -1 v -2 h -1 v -1 h -1 v -2 h -1 v -2 h -1 v -2 h -1 v -1 h -1 v -2 h -1 v -2 h -1 v -2 h -1 v -1 h -1 v -2 h -1 v -2 h -1 v -1 h -1 v -2 h -1 v -2 h -1 v -2 h -1 v -1 h -1 v -2 h -1 v -2 h -1 v -1 z m 435,82 v 1 h -1 v 2 h -1 v 2 h -1 v 1 h -1 v 2 h -1 v 2 h -1 v 2 h -1 v 1 h -1 v 2 h -1 v 2 h -1 v 2 h -1 v 1 h -1 v 2 h -1 v 2 h -1 v 2 h -1 v 1 h -1 v 2 h -1 v 2 h -1 v 1 h -1 v 2 h -1 v 2 h -1 v 2 h -1 v 1 h -1 v 2 h -1 v 2 h -1 v 2 h -1 v 1 h -1 v 2 h -1 v 2 h -1 v 2 h -1 v 1 h -1 v 2 h -1 v 2 h -1 v 1 h -1 v 2 h -1 v 2 h -1 v 2 h -1 v 1 h -1 v 2 h -1 v 2 h -1 v 2 h -1 v 2 h 1 v 2 h 1 v 2 h 1 v 2 h 1 v 1 h 1 v 2 h 1 v 2 h 1 v 2 h 1 v 1 h 1 v 2 h 1 v 2 h 1 v 1 h 1 v 2 h 1 v 2 h 1 v 2 h 1 v 1 h 1 v 2 h 1 v 2 h 1 v 2 h 1 v 1 h 1 v 2 h 1 v 2 h 1 v 2 h 1 v 1 h 1 v 2 h 1 v 2 h 1 v 1 h 1 v 2 h 1 v 2 h 1 v 2 h 1 v 1 h 1 v 2 h 1 v 2 h 1 v 2 h 1 v 1 h 1 v 2 h 1 v 2 h 1 v 2 h 1 v 1 h 1 v 2 h 1 v 2 h 1 v 1 h 85 v -1 h 1 v -2 h 1 v -2 h 1 v -2 h 1 v -1 h 1 v -2 h 1 v -2 h 1 v -2 h 1 v -1 h 1 v -2 h 1 v -2 h 1 v -1 h 1 v -2 h 1 v -2 h 1 v -2 h 1 v -1 h 1 v -2 h 1 v -2 h 1 v -2 h 1 v -1 h 1 v -2 h 1 v -2 h 1 v -2 h 1 v -1 h 1 v -2 h 1 v -2 h 1 v -1 h 1 v -2 h 1 v -2 h 1 v -2 h 1 v -1 h 1 v -2 h 1 v -2 h 1 v -2 h 1 v -1 h 1 v -2 h 1 v -2 h 1 v -2 h 1 v -1 h 1 v -2 h 1 v -2 h 1 v -2 h -1 v -2 h -1 v -2 h -1 v -1 h -1 v -2 h -1 v -2 h -1 v -2 h -1 v -1 h -1 v -2 h -1 v -2 h -1 v -2 h -1 v -1 h -1 v -2 h -1 v -2 h -1 v -2 h -1 v -1 h -1 v -2 h -1 v -2 h -1 v -1 h -1 v -2 h -1 v -2 h -1 v -2 h -1 v -1 h -1 v -2 h -1 v -2 h -1 v -2 h -1 v -1 h -1 v -2 h -1 v -2 h -1 v -2 h -1 v -1 h -1 v -2 h -1 v -2 h -1 v -1 h -1 v -2 h -1 v -2 h -1 v -2 h -1 v -1 h -1 v -2 h -1 v -2 h -1 v -2 h -1 v -1 z m -733,47 v 2 h -1 v 1 h -1 v 2 h -1 v 2 h -1 v 2 h -1 v 1 h -1 v 2 h -1 v 2 h -1 v 1 h -1 v 2 h -1 v 2 h -1 v 2 h -1 v 1 h -1 v 2 h -1 v 2 h -1 v 2 h -1 v 1 h -1 v 2 h -1 v 2 h -1 v 2 h -1 v 1 h -1 v 2 h -1 v 2 h -1 v 1 h -1 v 2 h -1 v 2 h -1 v 2 h -1 v 1 h -1 v 2 h -1 v 2 h -1 v 2 h -1 v 1 h -1 v 2 h -1 v 2 h -1 v 2 h -1 v 1 h -1 v 2 h -1 v 2 h -1 v 1 h -1 v 2 h -1 v 2 h -1 v 2 h -1 v 1 h -1 v 2 h -1 v 2 h -1 v 2 h -1 v 1 h -1 v 2 h -1 v 2 h -1 v 1 h -1 v 2 h -1 v 2 h -1 v 2 h -1 v 1 h -1 v 2 h -1 v 2 h -1 v 2 h -1 v 1 h -1 v 2 h -1 v 2 h -1 v 2 h -1 v 1 h -1 v 2 h -1 v 2 h -1 v 1 h -1 v 2 h -1 v 2 h -1 v 2 h -1 v 1 h -1 v 2 h -1 v 2 h -1 v 2 h -1 v 1 h -1 v 2 h -1 v 2 h -1 v 2 h -1 v 1 h -1 v 2 h -1 v 2 h -1 v 1 h -1 v 2 h -1 v 2 h -1 v 2 h -1 v 1 h -1 v 2 h -1 v 2 h -1 v 2 h -1 v 1 h -1 v 2 h -1 v 2 h -1 v 1 h -1 v 4 h 1 v 2 h 1 v 2 h 1 v 1 h 1 v 2 h 1 v 2 h 1 v 2 h 1 v 1 h 1 v 2 h 1 v 2 h 1 v 1 h 1 v 2 h 1 v 2 h 1 v 2 h 1 v 1 h 1 v 2 h 1 v 2 h 1 v 2 h 1 v 1 h 1 v 2 h 1 v 2 h 1 v 2 h 1 v 1 h 1 v 2 h 1 v 2 h 1 v 1 h 1 v 2 h 1 v 2 h 1 v 2 h 1 v 1 h 1 v 2 h 1 v 2 h 1 v 2 h 1 v 1 h 1 v 2 h 1 v 2 h 1 v 1 h 1 v 2 h 1 v 2 h 1 v 2 h 1 v 1 h 1 v 2 h 1 v 2 h 1 v 2 h 1 v 1 h 1 v 2 h 1 v 2 h 1 v 2 h 1 v 1 h 1 v 2 h 1 v 2 h 1 v 1 h 1 v 2 h 1 v 2 h 1 v 2 h 1 v 1 h 1 v 2 h 1 v 2 h 1 v 2 h 1 v 1 h 1 v 2 h 1 v 2 h 1 v 2 h 1 v 1 h 1 v 2 h 1 v 2 h 1 v 1 h 1 v 2 h 1 v 2 h 1 v 2 h 1 v 1 h 1 v 2 h 1 v 2 h 1 v 2 h 1 v 1 h 1 v 2 h 1 v 2 h 1 v 2 h 1 v 1 h 1 v 2 h 1 v 2 h 1 v 1 h 1 v 2 h 1 v 2 h 1 v 2 h 1 v 1 h 1 v 2 h 1 v 2 h 1 v 2 h 1 v 1 h 1 v 2 h 1 v 1 h 185 v -1 h 1 v -2 h 1 v -2 h 1 v -1 h 1 v -2 h 1 v -2 h 1 v -1 h 1 v -2 h 1 v -2 h 1 v -2 h 1 v -1 h 1 v -2 h 1 v -2 h 1 v -2 h 1 v -1 h 1 v -2 h 1 v -2 h 1 v -2 h 1 v -1 h 1 v -2 h 1 v -2 h 1 v -1 h 1 v -2 h 1 v -2 h 1 v -2 h 1 v -1 h 1 v -2 h 1 v -2 h 1 v -2 h 1 v -1 h 1 v -2 h 1 v -2 h 1 v -2 h 1 v -1 h 1 v -2 h 1 v -2 h 1 v -1 h 1 v -2 h 1 v -2 h 1 v -2 h 1 v -1 h 1 v -2 h 1 v -2 h 1 v -2 h 1 v -1 h 1 v -2 h 1 v -2 h 1 v -2 h 1 v -1 h 1 v -2 h 1 v -2 h 1 v -1 h 1 v -2 h 1 v -2 h 1 v -2 h 1 v -1 h 1 v -2 h 1 v -2 h 1 v -2 h 1 v -1 h 1 v -2 h 1 v -2 h 1 v -2 h 1 v -1 h 1 v -2 h 1 v -2 h 1 v -1 h 1 v -2 h 1 v -2 h 1 v -2 h 1 v -1 h 1 v -2 h 1 v -2 h 1 v -2 h 1 v -1 h 1 v -2 h 1 v -2 h 1 v -1 h 1 v -2 h 1 v -2 h 1 v -2 h 1 v -1 h 1 v -2 h 1 v -2 h 1 v -2 h 1 v -1 h 1 v -2 h 1 v -2 h 1 v -2 h 1 v -1 h 1 v -2 h 1 v -3 h -1 v -2 h -1 v -2 h -1 v -2 h -1 v -1 h -1 v -2 h -1 v -2 h -1 v -1 h -1 v -2 h -1 v -2 h -1 v -2 h -1 v -1 h -1 v -2 h -1 v -2 h -1 v -2 h -1 v -1 h -1 v -2 h -1 v -2 h -1 v -2 h -1 v -1 h -1 v -2 h -1 v -2 h -1 v -1 h -1 v -2 h -1 v -2 h -1 v -2 h -1 v -1 h -1 v -2 h -1 v -2 h -1 v -2 h -1 v -1 h -1 v -2 h -1 v -2 h -1 v -2 h -1 v -1 h -1 v -2 h -1 v -2 h -1 v -1 h -1 v -2 h -1 v -2 h -1 v -2 h -1 v -1 h -1 v -2 h -1 v -2 h -1 v -2 h -1 v -1 h -1 v -2 h -1 v -2 h -1 v -2 h -1 v -1 h -1 v -2 h -1 v -2 h -1 v -1 h -1 v -2 h -1 v -2 h -1 v -2 h -1 v -1 h -1 v -2 h -1 v -2 h -1 v -2 h -1 v -1 h -1 v -2 h -1 v -2 h -1 v -1 h -1 v -2 h -1 v -2 h -1 v -2 h -1 v -1 h -1 v -2 h -1 v -2 h -1 v -2 h -1 v -1 h -1 v -2 h -1 v -2 h -1 v -2 h -1 v -1 h -1 v -2 h -1 v -2 h -1 v -1 h -1 v -2 h -1 v -2 h -1 v -2 h -1 v -1 h -1 v -2 h -1 v -2 h -1 v -2 h -1 v -1 h -1 v -2 h -1 v -2 h -1 v -2 h -1 v -1 h -1 v -2 z m 542,29 v 1 h -1 v 2 h -1 v 1 h -1 v 2 h -1 v 2 h -1 v 2 h -1 v 1 h -1 v 2 h -1 v 2 h -1 v 2 h -1 v 1 h -1 v 2 h -1 v 2 h -1 v 1 h -1 v 2 h -1 v 2 h -1 v 2 h -1 v 1 h -1 v 2 h -1 v 2 h -1 v 2 h -1 v 1 h -1 v 2 h -1 v 2 h -1 v 2 h -1 v 1 h -1 v 2 h -1 v 2 h -1 v 1 h -1 v 2 h -1 v 2 h -1 v 2 h -1 v 1 h -1 v 2 h -1 v 2 h -1 v 2 h -1 v 1 h -1 v 2 h -1 v 2 h -1 v 2 h -1 v 1 h -1 v 2 h -1 v 2 h -1 v 1 h -1 v 2 h -1 v 2 h -1 v 2 h -1 v 1 h -1 v 2 h -1 v 2 h -1 v 2 h -1 v 1 h -1 v 2 h -1 v 2 h -1 v 2 h -1 v 1 h -1 v 2 h -1 v 2 h -1 v 4 h 1 v 1 h 1 v 2 h 1 v 2 h 1 v 2 h 1 v 1 h 1 v 2 h 1 v 2 h 1 v 2 h 1 v 1 h 1 v 2 h 1 v 2 h 1 v 2 h 1 v 1 h 1 v 2 h 1 v 2 h 1 v 1 h 1 v 2 h 1 v 2 h 1 v 2 h 1 v 1 h 1 v 2 h 1 v 2 h 1 v 2 h 1 v 1 h 1 v 2 h 1 v 2 h 1 v 1 h 1 v 2 h 1 v 2 h 1 v 2 h 1 v 1 h 1 v 2 h 1 v 2 h 1 v 2 h 1 v 1 h 1 v 2 h 1 v 2 h 1 v 2 h 1 v 1 h 1 v 2 h 1 v 2 h 1 v 1 h 1 v 2 h 1 v 2 h 1 v 2 h 1 v 1 h 1 v 2 h 1 v 2 h 1 v 2 h 1 v 1 h 1 v 2 h 1 v 2 h 1 v 2 h 1 v 1 h 1 v 2 h 1 v 2 h 1 v 1 h 1 v 1 h 118 v -1 h 1 v -1 h 1 v -2 h 1 v -2 h 1 v -2 h 1 v -1 h 1 v -2 h 1 v -2 h 1 v -1 h 1 v -2 h 1 v -2 h 1 v -2 h 1 v -1 h 1 v -2 h 1 v -2 h 1 v -2 h 1 v -1 h 1 v -2 h 1 v -2 h 1 v -2 h 1 v -1 h 1 v -2 h 1 v -2 h 1 v -1 h 1 v -2 h 1 v -2 h 1 v -2 h 1 v -1 h 1 v -2 h 1 v -2 h 1 v -2 h 1 v -1 h 1 v -2 h 1 v -2 h 1 v -1 h 1 v -2 h 1 v -2 h 1 v -2 h 1 v -1 h 1 v -2 h 1 v -2 h 1 v -2 h 1 v -1 h 1 v -2 h 1 v -2 h 1 v -2 h 1 v -1 h 1 v -2 h 1 v -2 h 1 v -1 h 1 v -2 h 1 v -2 h 1 v -2 h 1 v -1 h 1 v -2 h 1 v -2 h 1 v -2 h 1 v -1 h 1 v -4 h -1 v -2 h -1 v -2 h -1 v -1 h -1 v -2 h -1 v -2 h -1 v -2 h -1 v -1 h -1 v -2 h -1 v -2 h -1 v -2 h -1 v -1 h -1 v -2 h -1 v -2 h -1 v -1 h -1 v -2 h -1 v -2 h -1 v -2 h -1 v -1 h -1 v -2 h -1 v -2 h -1 v -2 h -1 v -1 h -1 v -2 h -1 v -2 h -1 v -2 h -1 v -1 h -1 v -2 h -1 v -2 h -1 v -1 h -1 v -2 h -1 v -2 h -1 v -2 h -1 v -1 h -1 v -2 h -1 v -2 h -1 v -2 h -1 v -1 h -1 v -2 h -1 v -2 h -1 v -2 h -1 v -1 h -1 v -2 h -1 v -2 h -1 v -1 h -1 v -2 h -1 v -2 h -1 v -2 h -1 v -1 h -1 v -2 h -1 v -2 h -1 v -2 h -1 v -1 h -1 v -2 h -1 v -2 h -1 v -2 h -1 v -1 h -1 v -2 h -1 v -1" /></g></g></g><path
         id="path36"
         style="fill:#4e650b;fill-opacity:1;fill-rule:nonzero;stroke:none"
         d="m 258.082,276.348 c -6.18,-3.028 -13.602,-5.703 -22.297,-8.067 -8.691,-2.383 -18.402,-4.511 -29.168,-6.426 -10.738,-1.875 -21.965,-2.832 -33.652,-2.832 -24.977,0 -48.043,3.551 -69.231,10.665 -21.1871,7.109 -39.4293,17.949 -54.7418,32.5 -15.3125,14.55 -27.293,32.343 -35.9844,53.378 C 4.34375,376.563 0,400.547 0,427.402 c 0,26.914 4.34375,50.836 13.0078,71.895 8.6914,20.996 20.8399,38.808 36.4649,53.359 15.625,14.532 34.3593,25.625 56.1563,33.203 21.812,7.594 45.836,11.383 72.074,11.383 20.86,0 39.91,-2.105 57.133,-6.344 17.219,-4.218 32.477,-9.335 45.766,-15.312 -2.536,-4.414 -4.579,-10.449 -6.161,-18.012 -1.582,-7.613 -2.863,-13.941 -3.8,-18.98 l -2.848,-0.938 c -3.164,3.77 -7.59,8.067 -13.273,12.789 -5.692,4.75 -12.329,9.321 -19.915,13.735 -7.593,4.453 -16.121,8.164 -25.601,11.172 -9.484,2.988 -19.922,4.511 -31.301,4.511 -18.648,0 -35.957,-3.008 -51.922,-9.023 C 109.809,564.844 95.918,555.586 84.0625,543.086 72.207,530.605 62.9531,514.805 56.3242,495.66 c -6.6367,-19.117 -9.9609,-41.812 -9.9609,-68.062 0,-26.235 3.3242,-48.926 9.9609,-68.047 6.6289,-19.145 15.8828,-34.942 27.7383,-47.442 11.8555,-12.48 25.7465,-21.742 41.7185,-27.738 15.965,-6.012 33.274,-9.019 51.922,-9.019 11.379,0 21.899,1.425 31.531,4.257 9.629,2.832 18.485,6.192 26.551,10.133 8.07,3.91 15.328,8.164 21.817,12.738 6.468,4.551 11.933,8.575 16.347,12.032 l 1.91,-1.875 -4.281,-27.989 c -2.828,-2.539 -7.34,-5.312 -13.496,-8.3" /><path
         id="path38"
         style="fill:#4e650b;fill-opacity:1;fill-rule:nonzero;stroke:none"
         d="m 372.633,472.242 c -8.031,-5.332 -14.653,-12.047 -19.856,-20.039 -5.203,-8.047 -9.121,-16.836 -11.804,-26.441 -2.68,-9.59 -4.332,-18.633 -4.957,-27.129 9.746,-0.371 19.922,-0.727 30.492,-1.059 10.535,-0.371 20.875,-0.523 30.949,-0.523 10.402,0 20.961,0.152 31.676,0.523 10.722,0.332 21.105,0.688 31.215,1.059 0,8.496 -0.723,17.437 -2.141,26.894 -1.414,9.453 -4.246,18.243 -8.496,26.446 -4.262,8.164 -10.176,14.937 -17.746,20.269 -7.555,5.371 -17.485,8.051 -29.77,8.051 -11.668,0 -21.531,-2.68 -29.562,-8.051 z m -52.125,-9.898 c 18.472,22.129 45.406,33.222 80.769,33.222 16.727,0 31.184,-2.636 43.332,-7.832 12.149,-5.234 22.34,-12.187 30.559,-20.918 8.195,-8.691 14.285,-18.886 18.238,-30.625 3.953,-11.679 5.926,-24.203 5.926,-37.5 0,-3.164 -0.098,-6.25 -0.266,-9.242 -0.195,-3.004 -0.457,-6.09 -0.785,-9.254 -17.058,0.332 -33.933,0.684 -50.66,1.051 -16.726,0.332 -33.617,0.531 -50.656,0.531 -10.406,0 -20.742,-0.199 -31.004,-0.531 -10.254,-0.367 -20.594,-0.719 -31,-1.051 -0.359,-1.582 -0.527,-3.949 -0.527,-7.109 v -6.191 c 0,-12.344 1.812,-23.907 5.433,-34.668 3.641,-10.782 8.926,-20.024 15.875,-27.793 6.946,-7.739 15.473,-13.926 25.582,-18.516 10.106,-4.609 21.797,-6.875 35.067,-6.875 6.304,0 12.773,0.859 19.41,2.598 6.637,1.738 13.105,4.16 19.429,7.144 6.301,3.031 12.231,6.582 17.762,10.703 5.531,4.125 10.336,8.559 14.453,13.34 l 2.368,-1.465 -2.86,-23.242 c -9.453,-7.594 -21.223,-14.078 -35.265,-19.449 -14.059,-5.371 -28.645,-8.067 -43.805,-8.067 -17.043,0 -32.602,2.594 -46.645,7.833 -14.058,5.195 -26.211,12.808 -36.468,22.792 -10.254,9.942 -18.161,21.715 -23.684,35.348 -5.52,13.617 -8.27,28.324 -8.27,44.121 0,38.93 9.219,69.477 27.692,91.645" /><path
         id="path40"
         style="fill:#4e650b;fill-opacity:1;fill-rule:nonzero;stroke:none"
         d="m 543.074,521.523 c -0.144,12.672 -0.379,25.157 -0.691,37.5 -0.313,12.301 -0.688,24.102 -1.153,35.332 -0.46,11.211 -1,20.801 -1.613,28.711 8.84,-1.781 15.953,-2.636 21.34,-2.636 5.367,0 12.477,0.855 21.34,2.636 -0.617,-7.91 -1.152,-17.5 -1.621,-28.711 -0.461,-11.23 -0.84,-23.031 -1.156,-35.332 -0.309,-12.343 -0.536,-24.828 -0.68,-37.5 -0.156,-12.66 -0.235,-24.335 -0.235,-35.117 v -85.859 c 0,-10.742 0.079,-22.461 0.235,-35.102 0.144,-12.652 0.371,-25.152 0.68,-37.476 0.316,-12.348 0.695,-24.043 1.156,-35.102 0.469,-11.09 1.004,-20.254 1.621,-27.515 -7.285,0.679 -14.399,1.054 -21.34,1.054 -6.969,0 -14.078,-0.375 -21.34,-1.054 0.613,7.261 1.153,16.425 1.613,27.515 0.465,11.059 0.84,22.754 1.153,35.102 0.312,12.324 0.547,24.824 0.691,37.476 0.149,12.641 0.231,24.36 0.231,35.102 v 85.859 c 0,10.782 -0.082,22.457 -0.231,35.117" /><path
         id="path42"
         style="fill:#4e650b;fill-opacity:1;fill-rule:nonzero;stroke:none"
         d="m 652.488,521.523 c -0.144,12.672 -0.379,25.157 -0.691,37.5 -0.313,12.301 -0.692,24.102 -1.152,35.332 -0.457,11.211 -1.004,20.801 -1.614,28.711 8.84,-1.781 15.957,-2.636 21.34,-2.636 5.359,0 12.481,0.855 21.34,2.636 -0.617,-7.91 -1.152,-17.5 -1.613,-28.711 -0.469,-11.23 -0.84,-23.031 -1.153,-35.332 -0.324,-12.343 -0.547,-24.828 -0.691,-37.5 -0.149,-12.66 -0.234,-24.335 -0.234,-35.117 v -85.859 c 0,-10.742 0.085,-22.461 0.234,-35.102 0.144,-12.652 0.367,-25.152 0.691,-37.476 0.313,-12.348 0.684,-24.043 1.153,-35.102 0.461,-11.09 0.996,-20.254 1.613,-27.515 -7.277,0.679 -14.398,1.054 -21.34,1.054 -6.965,0 -14.07,-0.375 -21.34,-1.054 0.61,7.261 1.157,16.425 1.614,27.515 0.46,11.059 0.839,22.754 1.152,35.102 0.312,12.324 0.547,24.824 0.691,37.476 0.149,12.641 0.239,24.36 0.239,35.102 v 85.859 c 0,10.782 -0.09,22.457 -0.239,35.117" /><path
         id="path44"
         style="fill:#231f20;fill-opacity:1;fill-rule:nonzero;stroke:none"
         d="m 764.324,309.473 c 4.25,-5.86 9.453,-11.133 15.61,-15.879 6.16,-4.746 13.336,-8.633 21.531,-11.621 8.203,-3.028 17.336,-4.512 27.43,-4.512 10.402,0 19.789,1.816 28.136,5.469 8.352,3.613 15.457,8.535 21.289,14.683 5.828,6.196 10.325,13.457 13.465,21.821 3.164,8.394 4.738,17.324 4.738,26.812 0,14.555 -3.718,26.117 -11.125,34.633 -7.41,8.531 -16.628,15.644 -27.695,21.348 -11.023,5.679 -22.945,10.918 -35.723,15.664 -12.769,4.746 -24.695,10.664 -35.742,17.793 -11.043,7.109 -20.261,16.226 -27.675,27.285 -7.418,11.074 -11.129,25.957 -11.129,44.59 0,13.3 2.371,25.386 7.078,36.304 4.746,10.903 11.593,20.317 20.586,28.227 8.984,7.91 19.804,14.101 32.441,18.496 12.649,4.449 26.875,6.656 42.676,6.656 15.168,0 28.301,-1.812 39.363,-5.406 11.067,-3.613 21.34,-9.18 30.82,-16.723 -2.871,-5.386 -5.23,-11.05 -7.105,-17.086 -1.914,-5.996 -3.813,-13.554 -5.703,-22.754 h -5.695 c -1.582,4.454 -3.719,9.258 -6.387,14.454 -2.703,5.234 -6.32,10.039 -10.918,14.453 -4.59,4.453 -10.027,8.164 -16.348,11.172 -6.316,2.988 -13.926,4.511 -22.762,4.511 -8.847,0 -16.996,-1.425 -24.425,-4.277 -7.442,-2.832 -13.907,-6.895 -19.446,-12.133 -5.523,-5.191 -9.793,-11.441 -12.781,-18.726 -3.015,-7.286 -4.512,-15.176 -4.512,-23.711 0,-14.883 3.704,-26.606 11.122,-35.137 7.414,-8.559 16.632,-15.723 27.675,-21.582 11.047,-5.879 22.973,-11.074 35.742,-15.684 12.778,-4.57 24.7,-10.215 35.723,-16.816 11.067,-6.66 20.285,-15.219 27.695,-25.664 7.415,-10.434 11.133,-24.356 11.133,-41.738 0,-14.551 -2.605,-28.325 -7.801,-41.29 -5.207,-12.992 -12.785,-24.32 -22.707,-33.949 -9.929,-9.644 -22.078,-17.086 -36.414,-22.301 -14.343,-5.238 -30.671,-7.832 -48.945,-7.832 -19.559,0 -35.398,2.594 -47.527,7.813 -12.141,5.195 -22.317,11.094 -30.532,17.734 2.856,7.285 4.829,13.828 5.93,19.668 1.106,5.86 2.117,13.36 3.074,22.539 h 5.664 c 2.54,-5.683 5.93,-11.484 10.176,-17.304" /><path
         id="path46"
         style="fill:#231f20;fill-opacity:1;fill-rule:nonzero;stroke:none"
         d="m 973.508,430.547 c 6.953,14.844 16.004,27.129 27.212,36.773 11.21,9.653 24.09,16.758 38.61,21.371 14.56,4.571 29.4,6.875 44.59,6.875 17.38,0 32.96,-2.148 46.69,-6.449 13.76,-4.297 23.64,-9.156 29.64,-14.527 -2.22,-4.746 -4.2,-9.707 -5.92,-14.942 -1.75,-5.214 -3.25,-10.664 -4.5,-16.328 h -3.8 c -2.22,4.082 -5.22,8.282 -9.01,12.539 -3.8,4.278 -8.3,8.219 -13.53,11.856 -5.2,3.648 -10.96,6.64 -17.29,9.023 -6.32,2.364 -13.28,3.555 -20.87,3.555 -14.23,0 -26.47,-2.637 -36.75,-7.832 -10.27,-5.234 -18.64,-12.426 -25.12,-21.602 -6.49,-9.203 -11.22,-20.019 -14.22,-32.5 -3,-12.519 -4.51,-26.054 -4.51,-40.605 0,-32.598 6.94,-57.188 20.87,-73.789 13.89,-16.621 34.29,-24.922 61.16,-24.922 6.33,0 12.79,0.859 19.44,2.598 6.62,1.738 13.11,4.16 19.43,7.144 6.32,3.031 12.25,6.582 17.78,10.703 5.54,4.125 10.36,8.559 14.47,13.34 l 2.37,-1.465 c -1.58,-7.554 -2.54,-15.332 -2.85,-23.242 -9.48,-7.594 -21.27,-14.078 -35.33,-19.449 -14.05,-5.371 -28.67,-8.067 -43.86,-8.067 -13.59,0 -27.25,1.969 -41,5.918 -13.75,3.965 -26.15,10.606 -37.19,19.961 -11.055,9.317 -19.961,21.422 -26.739,36.289 -6.789,14.883 -10.176,33.086 -10.176,54.59 0,20.582 3.477,38.297 10.403,53.184" /><path
         id="path48"
         style="fill:#231f20;fill-opacity:1;fill-rule:nonzero;stroke:none"
         d="m 1307.22,378.77 c -7.07,-1.25 -14.22,-2.598 -21.45,-4.004 -7.23,-1.446 -14.37,-3.262 -21.45,-5.469 -7.08,-2.246 -13.35,-5.234 -18.85,-9.024 -5.5,-3.828 -9.89,-8.554 -13.2,-14.257 -3.31,-5.703 -4.97,-12.969 -4.97,-21.86 0,-14.879 4.25,-26.109 12.75,-33.726 8.47,-7.602 17.91,-11.387 28.28,-11.387 11.92,0 22.85,3.32 32.75,9.98 9.9,6.637 17.51,14.375 22.87,23.282 l 1.87,71.25 c -5.33,-1.914 -11.53,-3.496 -18.6,-4.785 z m -59.15,111.074 c 12,3.808 24.35,5.722 36.99,5.722 11.37,0 21.8,-1.679 31.32,-5 9.48,-3.324 17.58,-8.066 24.27,-14.218 6.71,-6.192 11.96,-13.614 15.8,-22.325 3.81,-8.71 5.73,-18.285 5.73,-28.73 0,-18.027 -0.35,-35.977 -1.06,-53.867 -0.69,-17.871 -1.05,-36.797 -1.05,-56.723 0,-3.824 0.08,-7.848 0.24,-12.129 0.15,-4.273 0.88,-8.062 2.13,-11.383 1.27,-3.324 3.1,-6.093 5.46,-8.3 2.37,-2.231 5.93,-3.321 10.67,-3.321 1.59,0 3.23,0.059 4.97,0.235 1.75,0.156 3.39,0.683 4.98,1.64 V 271.07 c -3.48,-1.582 -7.83,-2.871 -13.04,-3.789 -5.21,-0.957 -11.05,-1.402 -17.52,-1.402 -10.09,0 -17.81,2.598 -23.17,7.793 -5.38,5.234 -8.54,11.949 -9.49,20.152 -11.33,-11.383 -22.53,-19.781 -33.52,-25.152 -11.03,-5.371 -24.56,-8.067 -40.64,-8.067 -7.86,0 -15.56,1.114 -23.14,3.321 -7.54,2.207 -14.24,5.84 -20.07,10.894 -5.83,5.082 -10.56,11.172 -14.17,18.285 -3.62,7.11 -5.44,15.235 -5.44,24.43 0,18.988 5.91,33.676 17.72,44.121 11.82,10.434 28.12,17.422 48.93,20.879 16.98,2.856 30.29,5.293 39.9,7.367 9.62,2.047 16.7,4.176 21.27,6.383 4.58,2.207 7.33,4.848 8.26,7.832 0.96,3.012 1.42,6.899 1.42,11.645 0,7.89 -0.95,15.508 -2.82,22.769 -1.92,7.289 -4.91,13.598 -9.03,18.969 -4.12,5.406 -9.48,9.742 -16.12,13.086 -6.63,3.277 -14.7,4.961 -24.18,4.961 -12.64,0 -24.41,-2.871 -35.33,-8.535 -10.9,-5.688 -19.03,-13.594 -24.4,-23.692 h -5.22 v 24.625 c 14.23,10.805 27.34,18.071 39.35,21.899" /><path
         id="path50"
         style="fill:#231f20;fill-opacity:1;fill-rule:nonzero;stroke:none"
         d="m 1433.33,521.523 c -0.17,12.672 -0.39,25.157 -0.69,37.5 -0.32,12.301 -0.7,24.102 -1.16,35.332 -0.45,11.211 -1,20.801 -1.61,28.711 8.86,-1.781 15.97,-2.636 21.34,-2.636 5.36,0 12.48,0.855 21.34,2.636 -0.63,-7.91 -1.15,-17.5 -1.62,-28.711 -0.46,-11.23 -0.85,-23.031 -1.15,-35.332 -0.32,-12.343 -0.54,-24.828 -0.69,-37.5 -0.16,-12.66 -0.23,-24.335 -0.23,-35.117 v -85.859 c 0,-10.742 0.07,-22.461 0.23,-35.102 0.15,-12.652 0.37,-25.152 0.69,-37.476 0.3,-12.348 0.69,-24.043 1.15,-35.102 0.47,-11.09 0.99,-20.254 1.62,-27.515 -7.28,0.679 -14.4,1.054 -21.34,1.054 -6.95,0 -14.06,-0.375 -21.34,-1.054 0.61,7.261 1.16,16.425 1.61,27.515 0.46,11.059 0.84,22.754 1.16,35.102 0.3,12.324 0.52,24.824 0.69,37.476 0.15,12.641 0.23,24.36 0.23,35.102 v 85.859 c 0,10.782 -0.08,22.457 -0.23,35.117" /><path
         id="path52"
         style="fill:#231f20;fill-opacity:1;fill-rule:nonzero;stroke:none"
         d="m 1591.2,472.242 c -8.04,-5.332 -14.66,-12.047 -19.86,-20.039 -5.2,-8.047 -9.13,-16.836 -11.8,-26.441 -2.7,-9.59 -4.34,-18.633 -4.97,-27.129 9.76,-0.371 19.91,-0.727 30.49,-1.059 10.55,-0.371 20.87,-0.523 30.97,-0.523 10.39,0 20.95,0.152 31.66,0.523 10.73,0.332 21.12,0.688 31.21,1.059 0,8.496 -0.73,17.437 -2.14,26.894 -1.42,9.453 -4.25,18.243 -8.5,26.446 -4.25,8.164 -10.17,14.937 -17.73,20.269 -7.55,5.371 -17.5,8.051 -29.78,8.051 -11.66,0 -21.52,-2.68 -29.55,-8.051 z m -52.13,-9.898 c 18.48,22.129 45.39,33.222 80.75,33.222 16.75,0 31.19,-2.636 43.35,-7.832 12.15,-5.234 22.35,-12.187 30.54,-20.918 8.22,-8.691 14.3,-18.886 18.24,-30.625 3.96,-11.679 5.93,-24.203 5.93,-37.5 0,-3.164 -0.1,-6.25 -0.26,-9.242 -0.18,-3.004 -0.44,-6.09 -0.79,-9.254 -17.04,0.332 -33.92,0.684 -50.64,1.051 -16.73,0.332 -33.62,0.531 -50.67,0.531 -10.41,0 -20.75,-0.199 -30.99,-0.531 -10.27,-0.367 -20.61,-0.719 -31.01,-1.051 -0.37,-1.582 -0.53,-3.949 -0.53,-7.109 v -6.191 c 0,-12.344 1.8,-23.907 5.45,-34.668 3.63,-10.782 8.91,-20.024 15.87,-27.793 6.94,-7.739 15.46,-13.926 25.56,-18.516 10.11,-4.609 21.8,-6.875 35.07,-6.875 6.32,0 12.77,0.859 19.43,2.598 6.62,1.738 13.1,4.16 19.43,7.144 6.3,3.031 12.21,6.582 17.74,10.703 5.53,4.125 10.34,8.559 14.46,13.34 l 2.37,-1.465 -2.85,-23.242 c -9.47,-7.594 -21.22,-14.078 -35.29,-19.449 -14.04,-5.371 -28.64,-8.067 -43.78,-8.067 -17.07,0 -32.6,2.594 -46.66,7.833 -14.05,5.195 -26.22,12.808 -36.45,22.792 -10.27,9.942 -18.17,21.715 -23.69,35.348 -5.52,13.617 -8.28,28.324 -8.28,44.121 0,38.93 9.24,69.477 27.7,91.645" /><path
         id="path54"
         style="fill:#231f20;fill-opacity:1;fill-rule:nonzero;stroke:none"
         d="m 105.199,101.324 c -1.297,3.989 -2.976,7.328 -5.066,10.024 -2.0978,2.695 -4.5119,4.746 -7.2619,6.132 -2.7695,1.407 -5.6016,2.11 -8.5313,2.11 -3.4921,0 -6.8437,-0.645 -10.0585,-1.914 -3.2071,-1.328 -6.0079,-3.438 -8.3633,-6.43 -2.3672,-2.965 -4.25,-6.851 -5.6641,-11.5976 -1.3984,-4.7656 -2.1055,-10.6445 -2.1055,-17.5976 0,-22.5625 8.2149,-33.8516 24.6641,-33.8516 3.4844,0 6.6992,0.9414 9.6289,2.793 2.9297,1.8359 5.5,4.5156 7.6916,7.9922 2.187,3.457 3.914,7.6328 5.148,12.4609 1.239,4.8399 1.864,10.1953 1.864,16.1524 0,5.1757 -0.641,9.7461 -1.946,13.7263 z m 13.746,-32.1443 c -1.972,-5.3945 -4.672,-10.0234 -8.117,-13.9063 -3.433,-3.8867 -7.488,-6.875 -12.1678,-8.9648 -4.6719,-2.0703 -9.711,-3.1094 -15.1094,-3.1094 -5.4024,0 -10.2735,1.1563 -14.6016,3.4414 -4.332,2.3047 -7.6211,5.1172 -9.875,8.3555 C 55.0195,51.7578 51.25,48.4922 47.7578,45.2344 h -3.039 c 0.2617,2.6953 0.4921,5.957 0.6875,9.7617 0.1992,3.8281 0.3593,7.9102 0.4921,12.2305 0.1329,4.3359 0.2344,8.75 0.2969,13.2422 0.0664,4.4921 0.0977,8.6484 0.0977,12.4765 v 30.5077 c 0,3.828 -0.0313,7.973 -0.0977,12.485 -0.0625,4.492 -0.164,8.925 -0.2969,13.3 -0.1328,4.395 -0.2929,8.59 -0.4921,12.578 -0.1954,3.985 -0.4258,7.379 -0.6875,10.196 3.1406,-0.528 5.6757,-0.782 7.5859,-0.782 1.25,0 2.5351,0.079 3.8867,0.235 1.3477,0.137 2.832,0.332 4.3945,0.547 -0.3125,-2.246 -0.5742,-5.801 -0.7929,-10.727 -0.211,-4.859 -0.3789,-10.332 -0.4766,-16.324 -0.1133,-6.016 -0.2148,-12.207 -0.3281,-18.574 -0.1016,-6.328 -0.1992,-12.071 -0.3125,-17.246 h 0.3476 c 3.8204,6.054 8.0313,10.527 12.6407,13.339 4.5976,2.833 9.9453,4.215 16,4.215 5.8476,0 10.9023,-1.09 15.1839,-3.257 4.261,-2.208 7.8,-5.118 10.621,-8.696 2.808,-3.629 4.922,-7.808 6.316,-12.574 1.403,-4.7852 2.11,-9.8242 2.11,-15.0977 0,-6.543 -0.989,-12.5 -2.95,-17.8906" /><path
         id="path56"
         style="fill:#231f20;fill-opacity:1;fill-rule:nonzero;stroke:none"
         d="m 161.355,109.531 c -0.164,5.567 -0.527,10.762 -1.066,15.582 3.109,-0.562 5.609,-0.836 7.504,-0.836 1.879,0 4.379,0.274 7.512,0.836 -0.563,-4.82 -0.91,-10.015 -1.071,-15.582 -0.168,-5.566 -0.25,-10.8591 -0.25,-15.9372 V 76.0703 c 0,-5.0547 0.082,-10.3711 0.25,-15.9336 0.161,-5.5469 0.508,-10.5859 1.071,-15.1015 -2.571,0.1992 -5.075,0.2773 -7.512,0.2773 -2.449,0 -4.957,-0.0781 -7.504,-0.2773 0.539,4.5156 0.902,9.5546 1.066,15.1015 0.168,5.5625 0.247,10.8789 0.247,15.9336 v 17.5235 c 0,5.0781 -0.079,10.3712 -0.247,15.9372 z m 0.399,51.016 c 1.68,1.68 3.684,2.519 6.039,2.519 2.34,0 4.363,-0.839 6.047,-2.519 1.68,-1.684 2.515,-3.692 2.515,-6.059 0,-2.34 -0.835,-4.351 -2.515,-6.035 -1.684,-1.676 -3.707,-2.515 -6.047,-2.515 -2.355,0 -4.359,0.839 -6.039,2.515 -1.68,1.684 -2.52,3.695 -2.52,6.035 0,2.367 0.84,4.375 2.52,6.059" /><path
         id="path58"
         style="fill:#231f20;fill-opacity:1;fill-rule:nonzero;stroke:none"
         d="m 228.676,71.1523 c 0.84,-4.3945 2.293,-8.2851 4.332,-11.7421 2.043,-3.418 4.758,-6.1485 8.144,-8.1641 3.411,-2.0273 7.594,-3.0469 12.578,-3.0469 4.993,0 9.192,1.0196 12.579,3.0469 3.41,2.0156 6.129,4.7461 8.168,8.1641 2.043,3.457 3.472,7.3476 4.332,11.7421 0.839,4.3946 1.265,8.9454 1.265,13.668 0,4.7305 -0.426,9.2813 -1.265,13.6719 -0.86,4.3988 -2.289,8.2848 -4.332,11.7418 -2.039,3.418 -4.758,6.153 -8.168,8.164 -3.387,2.032 -7.586,3.047 -12.579,3.047 -4.984,0 -9.167,-1.015 -12.578,-3.047 -3.386,-2.011 -6.101,-4.746 -8.144,-8.164 -2.039,-3.457 -3.492,-7.343 -4.332,-11.7418 -0.856,-4.3906 -1.281,-8.9414 -1.281,-13.6719 0,-4.7226 0.425,-9.2734 1.281,-13.668 z M 216.277,104.18 c 2.422,5.351 5.618,9.668 9.567,12.988 3.937,3.34 8.367,5.738 13.265,7.242 4.911,1.528 9.782,2.285 14.621,2.285 4.977,0 9.864,-0.757 14.723,-2.285 4.836,-1.504 9.235,-3.902 13.188,-7.242 3.949,-3.32 7.129,-7.637 9.547,-12.988 2.433,-5.3558 3.636,-11.8362 3.636,-19.4769 0,-7.6523 -1.203,-14.1562 -3.636,-19.4883 -2.418,-5.332 -5.598,-9.6875 -9.547,-12.9726 -3.953,-3.3164 -8.352,-5.6641 -13.188,-7.0078 -4.859,-1.3477 -9.746,-2.0352 -14.723,-2.0352 -4.839,0 -9.71,0.6875 -14.621,2.0352 -4.898,1.3437 -9.328,3.6914 -13.265,7.0078 -3.949,3.2851 -7.145,7.6406 -9.567,12.9726 -2.422,5.3321 -3.636,11.836 -3.636,19.4883 0,7.6407 1.214,14.1211 3.636,19.4769" /><path
         id="path60"
         style="fill:#231f20;fill-opacity:1;fill-rule:nonzero;stroke:none"
         d="m 329.297,93.5313 v -17.5 c 0,-5.0547 -0.078,-10.3477 -0.258,-15.918 -0.168,-5.543 -0.527,-10.5625 -1.09,-15.0781 2.571,0.1992 5.086,0.2773 7.539,0.2773 2.457,0 4.957,-0.0781 7.539,-0.2773 -0.554,4.5156 -0.937,9.5546 -1.097,15.1015 -0.168,5.5469 -0.25,10.8789 -0.25,15.918 v 14.3125 c 0,8.75 1.75,15.5708 5.234,20.3948 3.492,4.824 8.977,7.246 16.414,7.246 2.817,0 5.551,-0.766 8.199,-2.285 2.653,-1.504 4.594,-3.321 5.828,-5.469 0.676,-1.348 1.219,-2.578 1.614,-3.691 0.394,-1.157 0.687,-2.559 0.926,-4.297 0.226,-1.758 0.359,-4.1215 0.421,-7.0902 0.055,-2.9727 0.082,-7.1094 0.082,-12.3828 0,-6.1914 -0.109,-12.4805 -0.359,-18.8672 -0.23,-6.4063 -0.641,-12.6953 -1.215,-18.8906 2.567,0.1992 5.02,0.2773 7.371,0.2773 2.34,0 4.813,-0.0781 7.379,-0.2773 -0.215,4.7304 -0.394,9.082 -0.562,13.0703 -0.145,3.9843 -0.231,8.3984 -0.231,13.2422 0,7.9687 0.051,14.2187 0.168,18.7656 0.114,4.5742 0.313,8.0859 0.59,10.6247 0.277,2.543 0.676,4.418 1.188,5.625 0.507,1.25 1.203,2.485 2.105,3.735 1.582,2.129 3.789,3.98 6.602,5.562 2.816,1.582 6.254,2.348 10.304,2.348 3.391,0 6.207,-0.528 8.465,-1.582 2.254,-1.098 4.047,-2.52 5.414,-4.317 1.352,-1.781 2.34,-3.925 2.949,-6.386 0.625,-2.485 0.938,-5.118 0.938,-7.9496 0,-15.2773 -0.215,-27.1523 -0.609,-35.7226 -0.411,-8.5195 -0.793,-14.1836 -1.133,-17.0156 1.234,0.1992 2.465,0.2773 3.699,0.2773 1.234,0 2.473,0 3.707,0 1.117,0 2.305,0 3.539,0 1.234,0 2.469,-0.0781 3.703,-0.2773 -0.23,3.2656 -0.379,6.289 -0.445,9.1211 -0.047,2.7929 -0.078,5.707 -0.078,8.7343 0,4.9375 0.051,9.2969 0.16,13.0625 0.117,3.75 0.25,7.1133 0.363,10.1016 0.117,2.9687 0.235,5.5625 0.348,7.8086 0.113,2.25 0.18,4.3359 0.18,6.2497 0,4.707 -0.661,8.75 -1.942,12.114 -1.301,3.359 -3.094,6.113 -5.398,8.242 -2.305,2.144 -5.039,3.711 -8.184,4.726 -3.164,0.996 -6.586,1.5 -10.309,1.5 -6.074,0 -11.437,-1.422 -16.117,-4.293 -4.66,-2.851 -8.343,-6.972 -11.047,-12.367 h -0.343 c -0.563,2.367 -1.633,4.574 -3.196,6.645 -1.582,2.066 -3.457,3.847 -5.664,5.293 -2.187,1.465 -4.625,2.617 -7.324,3.457 -2.699,0.855 -5.469,1.265 -8.266,1.265 -10.8,0 -19.179,-5.039 -25.136,-15.152 h -0.332 c 0,4.512 0.168,8.984 0.527,13.492 -1.449,-0.23 -2.715,-0.426 -3.769,-0.586 -1.071,-0.172 -2.043,-0.269 -2.93,-0.269 -1.91,0 -4.43,0.308 -7.559,0.855 0.563,-4.84 0.922,-10.039 1.09,-15.562 0.18,-5.567 0.258,-10.8597 0.258,-15.9417" /><path
         id="path62"
         style="fill:#231f20;fill-opacity:1;fill-rule:nonzero;stroke:none"
         d="m 521.477,85.1953 c -2.536,-0.4531 -5.106,-0.957 -7.688,-1.4492 -2.601,-0.5234 -5.156,-1.1484 -7.691,-1.9297 -2.535,-0.8242 -4.789,-1.875 -6.746,-3.2226 -1.981,-1.3907 -3.559,-3.0665 -4.743,-5.1172 -1.187,-2.0313 -1.761,-4.6289 -1.761,-7.8164 0,-5.3086 1.511,-9.336 4.558,-12.0664 3.028,-2.6954 6.422,-4.0625 10.121,-4.0625 4.286,0 8.188,1.1679 11.743,3.5742 3.558,2.3633 6.273,5.1328 8.203,8.3203 l 0.672,25.4453 c -1.93,-0.6406 -4.153,-1.2266 -6.668,-1.6758 z m -20.993,39.4927 c 4.282,1.343 8.661,2.007 13.153,2.007 4.054,0 7.754,-0.582 11.133,-1.773 3.375,-1.176 6.253,-2.871 8.625,-5.059 2.386,-2.187 4.246,-4.867 5.613,-7.953 1.367,-3.101 2.043,-6.504 2.043,-10.215 0,-6.4411 -0.133,-12.8317 -0.399,-19.1989 -0.261,-6.3633 -0.394,-13.1016 -0.394,-20.2148 0,-1.3438 0.019,-2.7696 0.086,-4.293 0.047,-1.5235 0.297,-2.875 0.754,-4.0625 0.445,-1.1914 1.09,-2.168 1.945,-2.9727 0.84,-0.7773 2.109,-1.1718 3.789,-1.1718 0.555,0 1.152,0.0234 1.777,0.082 0.61,0.0781 1.2,0.2734 1.762,0.6055 v -3.6329 c -1.234,-0.5273 -2.781,-0.9765 -4.629,-1.3086 -1.859,-0.3125 -3.949,-0.4921 -6.269,-0.4921 -3.594,0 -6.336,0.957 -8.235,2.7929 -1.906,1.8594 -3.031,4.2422 -3.355,7.168 -4.035,-4.043 -8.02,-7.0078 -11.942,-8.9023 -3.914,-1.9141 -8.738,-2.8946 -14.453,-2.8946 -2.797,0 -5.547,0.3946 -8.23,1.1719 -2.684,0.7852 -5.07,2.0937 -7.145,3.8906 -2.074,1.8125 -3.754,3.9649 -5.039,6.4805 -1.285,2.5391 -1.926,5.4336 -1.926,8.6953 0,6.7578 2.09,11.9922 6.305,15.6797 4.215,3.7109 10.027,6.1758 17.438,7.4453 6.054,0.9727 10.8,1.875 14.222,2.5938 3.422,0.7265 5.946,1.4882 7.575,2.2695 1.628,0.7773 2.617,1.7187 2.945,2.793 0.332,1.0546 0.512,2.4375 0.512,4.121 0,2.8122 -0.348,5.5082 -1.02,8.1052 -0.68,2.578 -1.75,4.84 -3.215,6.739 -1.445,1.914 -3.351,3.457 -5.726,4.644 -2.356,1.176 -5.219,1.762 -8.594,1.762 -4.492,0 -8.676,-0.996 -12.563,-3.047 -3.867,-2.012 -6.761,-4.805 -8.675,-8.422 h -1.844 v 8.789 c 5.035,3.813 9.715,6.43 13.976,7.778" /><path
         id="path64"
         style="fill:#231f20;fill-opacity:1;fill-rule:nonzero;stroke:none"
         d="m 599.855,147.52 c -0.343,-4.239 -0.585,-8.403 -0.753,-12.461 -0.184,-4.082 -0.379,-8.164 -0.594,-12.305 1.238,0 3.543,0.019 6.914,0.074 3.355,0.078 7.012,0.199 10.945,0.453 -0.105,-0.351 -0.168,-0.976 -0.168,-1.855 v -1.699 -1.86 c 0,-0.797 0.063,-1.344 0.168,-1.695 -1.465,0.074 -2.976,0.152 -4.543,0.191 -1.582,0.063 -3.261,0.063 -5.054,0.063 h -8.262 c -0.102,-0.434 -0.227,-2.246 -0.383,-5.371 -0.145,-3.164 -0.273,-6.899 -0.371,-11.2112 -0.098,-4.336 -0.188,-8.8516 -0.234,-13.5586 -0.047,-4.7227 -0.071,-8.9414 -0.071,-12.6329 0,-3.1445 0.09,-6.2304 0.254,-9.2578 0.156,-3.0468 0.703,-5.7617 1.594,-8.1836 0.906,-2.4257 2.258,-4.3554 4.055,-5.8203 1.793,-1.4453 4.375,-2.1914 7.753,-2.1914 0.907,0 2.11,0.1016 3.622,0.3164 1.511,0.1953 2.839,0.4492 3.964,0.7617 v -4.0429 c -1.906,-0.3321 -4.011,-0.7617 -6.32,-1.2696 -2.305,-0.5117 -4.527,-0.7656 -6.648,-0.7656 -7.078,0 -12.285,1.7422 -15.625,5.2188 -3.36,3.4922 -5.02,8.6328 -5.02,15.3906 0,3.0273 0.051,6.3047 0.149,9.8437 0.093,3.5508 0.222,7.4415 0.371,11.6407 0.156,4.2187 0.281,8.9023 0.379,14.0039 0.097,5.1371 0.144,10.8401 0.144,17.1291 h -5.308 c -0.911,0 -1.868,0 -2.883,-0.063 -1.004,-0.039 -2.078,-0.117 -3.196,-0.191 0.121,0.664 0.2,1.324 0.246,1.949 0.071,0.625 0.086,1.289 0.086,1.977 0,0.601 -0.015,1.148 -0.086,1.718 -0.046,0.586 -0.125,1.153 -0.246,1.739 5.051,-0.356 8.762,-0.528 11.133,-0.528 -0.105,2.207 -0.164,4.981 -0.203,8.321 -0.051,3.34 -0.168,6.773 -0.32,10.332 l 13.672,5.84 h 0.839" /><path
         id="path66"
         style="fill:#231f20;fill-opacity:1;fill-rule:nonzero;stroke:none"
         d="m 668.594,118.555 c -2.864,-1.914 -5.227,-4.317 -7.078,-7.168 -1.848,-2.871 -3.246,-6.035 -4.203,-9.453 -0.958,-3.4574 -1.543,-6.6801 -1.754,-9.7309 3.464,-0.1133 7.078,-0.2539 10.847,-0.3476 3.75,-0.1367 7.422,-0.1758 11.004,-0.1758 3.711,0 7.461,0.0391 11.281,0.1758 3.821,0.0937 7.532,0.2343 11.114,0.3476 0,3.0508 -0.262,6.2344 -0.75,9.6329 -0.52,3.379 -1.516,6.523 -3.032,9.449 -1.519,2.934 -3.621,5.356 -6.328,7.27 -2.683,1.914 -6.218,2.89 -10.601,2.89 -4.145,0 -7.656,-0.976 -10.5,-2.89 z m -18.504,-3.653 c 6.551,7.871 16.101,11.793 28.64,11.793 5.926,0 11.055,-0.933 15.364,-2.769 4.312,-1.836 7.918,-4.317 10.84,-7.383 2.91,-3.09 5.066,-6.699 6.461,-10.82 1.398,-4.16 2.113,-8.5941 2.113,-13.3011 0,-1.1133 -0.039,-2.2071 -0.07,-3.2656 -0.047,-1.0508 -0.118,-2.168 -0.196,-3.2774 -6.062,0.1133 -12.051,0.2539 -17.976,0.3516 -5.95,0.1172 -11.938,0.1758 -17.981,0.1758 -3.691,0 -7.363,-0.0586 -10.996,-0.1758 -3.644,-0.0977 -7.312,-0.2383 -10.996,-0.3516 -0.188,-0.5859 -0.266,-1.4297 -0.266,-2.5586 v -2.2265 c 0,-4.4141 0.637,-8.5977 1.926,-12.461 1.277,-3.8672 3.164,-7.207 5.637,-9.9609 2.461,-2.8125 5.496,-5.0196 9.082,-6.6602 3.57,-1.6601 7.723,-2.4804 12.43,-2.4804 2.238,0 4.543,0.3125 6.894,0.9375 2.356,0.625 4.649,1.5039 6.887,2.5976 2.234,1.0899 4.344,2.3633 6.305,3.8672 1.957,1.5039 3.671,3.1016 5.136,4.8242 l 0.844,-0.4883 -1.008,-8.2617 c -3.359,-2.7148 -7.539,-5.0195 -12.527,-6.9375 -4.973,-1.8906 -10.156,-2.8711 -15.547,-2.8711 -6.035,0 -11.555,0.9414 -16.543,2.793 -4.992,1.8359 -9.301,4.5351 -12.941,8.0859 -3.641,3.5352 -6.434,7.7383 -8.399,12.5782 -1.953,4.8085 -2.93,10.039 -2.93,15.6875 0,13.8281 3.262,24.6872 9.817,32.5582" /><path
         id="path68"
         style="fill:#231f20;fill-opacity:1;fill-rule:nonzero;stroke:none"
         d="m 782.258,112.969 c -1.633,0.547 -3.293,0.84 -4.973,0.84 -2.707,0 -5.129,-0.625 -7.246,-1.875 -2.141,-1.211 -3.934,-2.856 -5.398,-4.946 -1.465,-2.066 -2.59,-4.527 -3.379,-7.3982 -0.782,-2.871 -1.164,-5.9179 -1.164,-9.1601 V 71.9336 c 0,-7.5 0.031,-13.2422 0.097,-17.2305 0.071,-3.9804 0.293,-7.207 0.696,-9.6679 -2.278,0.1992 -4.551,0.2773 -6.821,0.2773 -2.5,0 -4.89,-0.0781 -7.144,-0.2773 0.398,3.8125 0.625,9.0273 0.691,15.5703 0.071,6.582 0.098,14.6289 0.098,24.1601 v 5.4102 c 0,4.3555 -0.027,9.414 -0.098,15.1372 -0.066,5.718 -0.293,12.285 -0.691,19.707 1.238,-0.239 2.437,-0.43 3.57,-0.61 1.137,-0.152 2.324,-0.254 3.574,-0.254 1.02,0 2.09,0.102 3.227,0.254 1.133,0.18 2.344,0.371 3.594,0.61 -0.578,-4.067 -0.891,-7.247 -0.957,-9.59 -0.071,-2.364 -0.098,-4.61 -0.098,-6.758 l 0.43,-0.156 c 6.609,12.105 14.043,18.179 22.254,18.179 1.003,0 1.875,-0.039 2.597,-0.172 0.742,-0.097 1.668,-0.39 2.781,-0.878 -0.554,-1.368 -0.906,-3.403 -1.003,-6.172 -0.11,-2.754 -0.165,-5.278 -0.165,-7.539 l -1.183,-0.84 c -0.559,0.683 -1.66,1.308 -3.289,1.875" /><path
         id="path70"
         style="fill:#231f20;fill-opacity:1;fill-rule:nonzero;stroke:none"
         d="M 822.781,93.5938 V 76.0703 c 0,-5.0547 -0.078,-10.3711 -0.242,-15.9336 -0.168,-5.5469 -0.527,-10.5859 -1.062,-15.1015 2.546,0.1992 5.046,0.2773 7.5,0.2773 2.441,0 4.941,-0.0781 7.507,-0.2773 -0.554,4.5156 -0.91,9.5546 -1.062,15.1015 -0.168,5.5625 -0.254,10.8789 -0.254,15.9336 v 17.5235 c 0,5.0781 0.086,10.3712 0.254,15.9372 0.152,5.567 0.508,10.762 1.062,15.582 -3.125,-0.562 -5.625,-0.836 -7.507,-0.836 -1.899,0 -4.399,0.274 -7.5,0.836 0.535,-4.82 0.894,-10.015 1.062,-15.582 0.164,-5.566 0.242,-10.8591 0.242,-15.9372 z m -2.359,60.8942 c 0,-2.34 0.84,-4.351 2.516,-6.035 1.679,-1.676 3.683,-2.515 6.039,-2.515 2.339,0 4.363,0.839 6.043,2.515 1.679,1.684 2.519,3.695 2.519,6.035 0,2.367 -0.84,4.375 -2.519,6.059 -1.68,1.68 -3.704,2.519 -6.043,2.519 -2.356,0 -4.36,-0.839 -6.039,-2.519 -1.676,-1.684 -2.516,-3.692 -2.516,-6.059" /><path
         id="path72"
         style="fill:#231f20;fill-opacity:1;fill-rule:nonzero;stroke:none"
         d="m 917.473,85.1953 c -2.539,-0.4531 -5.09,-0.957 -7.7,-1.4492 -2.578,-0.5234 -5.144,-1.1484 -7.664,-1.9297 -2.539,-0.8242 -4.796,-1.875 -6.765,-3.2226 -1.965,-1.3907 -3.535,-3.0665 -4.731,-5.1172 -1.179,-2.0313 -1.773,-4.6289 -1.773,-7.8164 0,-5.3086 1.531,-9.336 4.558,-12.0664 3.047,-2.6954 6.426,-4.0625 10.149,-4.0625 4.273,0 8.172,1.1679 11.734,3.5742 3.535,2.3633 6.274,5.1328 8.176,8.3203 l 0.684,25.4453 C 922.227,86.2305 920,85.6445 917.473,85.1953 Z m -20.981,39.4927 c 4.27,1.343 8.664,2.007 13.156,2.007 4.036,0 7.754,-0.582 11.133,-1.773 3.367,-1.176 6.25,-2.871 8.621,-5.059 2.383,-2.187 4.25,-4.867 5.618,-7.953 1.347,-3.101 2.023,-6.504 2.023,-10.215 0,-6.4411 -0.129,-12.8317 -0.395,-19.1989 -0.261,-6.3633 -0.398,-13.1016 -0.398,-20.2148 0,-1.3438 0.039,-2.7696 0.09,-4.293 0.055,-1.5235 0.308,-2.875 0.75,-4.0625 0.461,-1.1914 1.101,-2.168 1.941,-2.9727 0.84,-0.7773 2.114,-1.1718 3.813,-1.1718 0.554,0 1.148,0.0234 1.758,0.082 0.625,0.0781 1.218,0.2734 1.777,0.6055 v -3.6329 c -1.234,-0.5273 -2.785,-0.9765 -4.641,-1.3086 -1.867,-0.3125 -3.957,-0.4921 -6.277,-0.4921 -3.566,0 -6.32,0.957 -8.227,2.7929 -1.89,1.8594 -3.015,4.2422 -3.355,7.168 -4.043,-4.043 -8.012,-7.0078 -11.926,-8.9023 -3.933,-1.9141 -8.738,-2.8946 -14.453,-2.8946 -2.805,0 -5.547,0.3946 -8.23,1.1719 -2.707,0.7852 -5.071,2.0937 -7.153,3.8906 -2.066,1.8125 -3.75,3.9649 -5.039,6.4805 -1.297,2.5391 -1.941,5.4336 -1.941,8.6953 0,6.7578 2.109,11.9922 6.328,15.6797 4.199,3.7109 10.012,6.1758 17.414,7.4453 6.062,0.9727 10.801,1.875 14.226,2.5938 3.426,0.7265 5.958,1.4882 7.586,2.2695 1.633,0.7773 2.61,1.7187 2.954,2.793 0.332,1.0546 0.496,2.4375 0.496,4.121 0,2.8122 -0.332,5.5082 -1.004,8.1052 -0.676,2.578 -1.75,4.84 -3.215,6.739 -1.465,1.914 -3.379,3.457 -5.734,4.644 -2.352,1.176 -5.211,1.762 -8.59,1.762 -4.493,0 -8.696,-0.996 -12.563,-3.047 -3.887,-2.012 -6.765,-4.805 -8.672,-8.422 H 882.5 v 8.789 c 5.059,3.813 9.719,6.43 13.992,7.778" /><path
         id="path74"
         style="fill:#231f20;fill-opacity:1;fill-rule:nonzero;stroke:none"
         d="m 984.883,135.977 c -0.059,4.468 -0.149,8.925 -0.266,13.3 -0.097,4.375 -0.222,8.551 -0.387,12.539 -0.167,3.985 -0.363,7.379 -0.597,10.196 3.183,-0.528 5.73,-0.782 7.637,-0.782 1.933,0 4.484,0.254 7.648,0.782 -0.266,-2.817 -0.5,-6.211 -0.695,-10.196 -0.196,-3.988 -0.364,-8.164 -0.496,-12.539 -0.129,-4.375 -0.227,-8.832 -0.293,-13.3 -0.071,-4.473 -0.098,-8.657 -0.098,-12.446 V 93.0469 c 0,-3.8281 0.027,-7.9727 0.098,-12.461 0.066,-4.5156 0.164,-8.9296 0.293,-13.3203 0.132,-4.375 0.3,-8.5351 0.496,-12.4609 0.195,-3.9063 0.429,-7.168 0.695,-9.7695 -2.609,0.1992 -5.141,0.2773 -7.648,0.2773 -2.481,0 -5.032,-0.0781 -7.637,-0.2773 0.234,2.6015 0.43,5.8632 0.597,9.7695 0.165,3.9258 0.29,8.0859 0.387,12.4609 0.117,4.3907 0.207,8.8047 0.266,13.3203 0.051,4.4883 0.066,8.6329 0.066,12.461 v 30.4841 c 0,3.789 -0.015,7.973 -0.066,12.446" /><path
         id="path76"
         style="fill:#231f20;fill-opacity:1;fill-rule:nonzero;stroke:none"
         d="m 1044.84,56.9102 c 1.18,-1.3438 2.55,-2.5938 4.18,-3.7891 1.62,-1.1719 3.45,-2.168 5.52,-2.9453 2.06,-0.8047 4.27,-1.1719 6.6,-1.1719 2.13,0 4.15,0.3516 6.12,0.9922 1.93,0.7031 3.67,1.6602 5.18,2.8711 1.5,1.25 2.7,2.8164 3.59,4.7305 0.88,1.914 1.33,4.0976 1.33,6.5586 0,3.5 -0.97,6.1562 -2.93,8.0117 -1.94,1.875 -4.38,3.3789 -7.27,4.5703 -2.9,1.1523 -6.1,2.207 -9.55,3.1055 -3.46,0.8945 -6.64,2.1679 -9.53,3.789 -2.92,1.6406 -5.35,3.8086 -7.3,6.5039 -1.94,2.6914 -2.93,6.3867 -2.93,11.1093 0,3.715 0.63,7.113 1.85,10.199 1.23,3.086 3.01,5.758 5.34,8.004 2.34,2.27 5.24,4.004 8.7,5.332 3.46,1.289 7.42,1.914 11.89,1.914 4.11,0 7.6,-0.562 10.44,-1.675 2.86,-1.157 5.57,-2.192 8.16,-3.11 -0.91,-1.695 -1.75,-3.789 -2.54,-6.25 -0.79,-2.476 -1.28,-4.375 -1.51,-5.738 h -2.03 c -0.88,2.715 -2.6,5.113 -5.13,7.246 -2.56,2.148 -5.71,3.223 -9.48,3.223 -1.66,0 -3.31,-0.293 -4.97,-0.84 -1.66,-0.567 -3.16,-1.43 -4.47,-2.539 -1.34,-1.114 -2.44,-2.578 -3.33,-4.375 -0.89,-1.797 -1.33,-3.926 -1.33,-6.391 0,-3.633 0.99,-6.3827 2.93,-8.3788 1.96,-1.9492 4.38,-3.4727 7.29,-4.6055 2.9,-1.1523 6.07,-2.1094 9.53,-2.9492 3.47,-0.8633 6.66,-2.0312 9.55,-3.5547 2.9,-1.5234 5.33,-3.6367 7.28,-6.3125 1.96,-2.6914 2.94,-6.4023 2.94,-11.1094 0,-3.2656 -0.7,-6.4687 -2.1,-9.6093 -1.4,-3.1485 -3.42,-5.9961 -6.04,-8.4961 -2.64,-2.5391 -5.8,-4.5117 -9.5,-5.918 -3.69,-1.4062 -7.89,-2.1133 -12.6,-2.1133 -5.15,0 -9.44,0.5117 -12.92,1.5274 -3.48,1.0351 -6.39,2.207 -8.74,3.5937 0.67,1.4453 1.37,3.457 2.09,5.9961 0.72,2.5195 1.08,4.6289 1.08,6.3281 h 2.02 c 0.55,-1.1328 1.42,-2.3828 2.59,-3.7343" /><path
         id="path78"
         style="fill:#231f20;fill-opacity:1;fill-rule:nonzero;stroke:none"
         d="m 1201.69,147.52 c -0.33,-4.239 -0.59,-8.403 -0.75,-12.461 -0.17,-4.082 -0.36,-8.164 -0.6,-12.305 1.23,0 3.54,0.019 6.92,0.074 3.37,0.078 7.03,0.199 10.96,0.453 -0.11,-0.351 -0.18,-0.976 -0.18,-1.855 v -1.699 -1.86 c 0,-0.797 0.07,-1.344 0.18,-1.695 -1.46,0.074 -2.98,0.152 -4.56,0.191 -1.56,0.063 -3.26,0.063 -5.06,0.063 h -8.26 c -0.1,-0.434 -0.23,-2.246 -0.38,-5.371 -0.15,-3.164 -0.26,-6.899 -0.36,-11.2112 -0.1,-4.336 -0.18,-8.8516 -0.23,-13.5586 -0.05,-4.7227 -0.08,-8.9414 -0.08,-12.6329 0,-3.1445 0.08,-6.2304 0.26,-9.2578 0.17,-3.0468 0.69,-5.7617 1.6,-8.1836 0.89,-2.4257 2.24,-4.3554 4.05,-5.8203 1.79,-1.4453 4.38,-2.1914 7.75,-2.1914 0.89,0 2.11,0.1016 3.62,0.3164 1.52,0.1953 2.83,0.4492 3.97,0.7617 v -4.0429 c -1.91,-0.3321 -4.02,-0.7617 -6.32,-1.2696 -2.31,-0.5117 -4.52,-0.7656 -6.67,-0.7656 -7.06,0 -12.28,1.7422 -15.63,5.2188 -3.34,3.4922 -5.02,8.6328 -5.02,15.3906 0,3.0273 0.05,6.3047 0.16,9.8437 0.1,3.5508 0.23,7.4415 0.37,11.6407 0.15,4.2187 0.28,8.9023 0.38,14.0039 0.1,5.1371 0.15,10.8401 0.15,17.1291 h -5.31 c -0.91,0 -1.87,0 -2.87,-0.063 -1.02,-0.039 -2.07,-0.117 -3.21,-0.191 0.11,0.664 0.2,1.324 0.27,1.949 0.04,0.625 0.07,1.289 0.07,1.977 0,0.601 -0.03,1.148 -0.07,1.718 -0.07,0.586 -0.16,1.153 -0.27,1.739 5.07,-0.356 8.77,-0.528 11.13,-0.528 -0.08,2.207 -0.15,4.981 -0.2,8.321 -0.03,3.34 -0.15,6.773 -0.33,10.332 l 13.68,5.84 h 0.84" /><path
         id="path80"
         style="fill:#231f20;fill-opacity:1;fill-rule:nonzero;stroke:none"
         d="m 1270.43,118.555 c -2.87,-1.914 -5.21,-4.317 -7.07,-7.168 -1.86,-2.871 -3.24,-6.035 -4.19,-9.453 -0.96,-3.4574 -1.55,-6.6801 -1.79,-9.7309 3.48,-0.1133 7.1,-0.2539 10.85,-0.3476 3.77,-0.1367 7.44,-0.1758 11.04,-0.1758 3.7,0 7.46,0.0391 11.28,0.1758 3.8,0.0937 7.5,0.2343 11.09,0.3476 0,3.0508 -0.24,6.2344 -0.76,9.6329 -0.49,3.379 -1.51,6.523 -3.03,9.449 -1.51,2.934 -3.62,5.356 -6.3,7.27 -2.68,1.914 -6.23,2.89 -10.6,2.89 -4.15,0 -7.66,-0.976 -10.52,-2.89 z m -18.5,-3.653 c 6.56,7.871 16.09,11.793 28.64,11.793 5.94,0 11.06,-0.933 15.38,-2.769 4.3,-1.836 7.92,-4.317 10.83,-7.383 2.91,-3.09 5.07,-6.699 6.47,-10.82 1.4,-4.16 2.09,-8.5941 2.09,-13.3011 0,-1.1133 -0.02,-2.2071 -0.07,-3.2656 -0.04,-1.0508 -0.09,-2.168 -0.19,-3.2774 -6.05,0.1133 -12.04,0.2539 -17.98,0.3516 -5.93,0.1172 -11.92,0.1758 -17.97,0.1758 -3.7,0 -7.35,-0.0586 -11,-0.1758 -3.63,-0.0977 -7.3,-0.2383 -11.01,-0.3516 -0.16,-0.5859 -0.26,-1.4297 -0.26,-2.5586 v -2.2265 c 0,-4.4141 0.64,-8.5977 1.94,-12.461 1.29,-3.8672 3.16,-7.207 5.63,-9.9609 2.47,-2.8125 5.48,-5.0196 9.08,-6.6602 3.58,-1.6601 7.73,-2.4804 12.44,-2.4804 2.24,0 4.53,0.3125 6.9,0.9375 2.34,0.625 4.64,1.5039 6.88,2.5976 2.24,1.0899 4.34,2.3633 6.31,3.8672 1.96,1.5039 3.67,3.1016 5.11,4.8242 l 0.86,-0.4883 -1.02,-8.2617 c -3.35,-2.7148 -7.52,-5.0195 -12.51,-6.9375 -4.99,-1.8906 -10.18,-2.8711 -15.54,-2.8711 -6.06,0 -11.56,0.9414 -16.54,2.793 -4.99,1.8359 -9.31,4.5351 -12.95,8.0859 -3.64,3.5352 -6.44,7.7383 -8.39,12.5782 -1.96,4.8085 -2.95,10.039 -2.95,15.6875 0,13.8281 3.27,24.6872 9.82,32.5582" /><path
         id="path82"
         style="fill:#231f20;fill-opacity:1;fill-rule:nonzero;stroke:none"
         d="m 1350.49,56.9102 c 1.17,-1.3438 2.55,-2.5938 4.18,-3.7891 1.61,-1.1719 3.44,-2.168 5.52,-2.9453 2.06,-0.8047 4.25,-1.1719 6.6,-1.1719 2.12,0 4.15,0.3516 6.1,0.9922 1.94,0.7031 3.67,1.6602 5.19,2.8711 1.5,1.25 2.7,2.8164 3.59,4.7305 0.89,1.914 1.33,4.0976 1.33,6.5586 0,3.5 -0.97,6.1562 -2.93,8.0117 -1.94,1.875 -4.38,3.3789 -7.28,4.5703 -2.9,1.1523 -6.09,2.207 -9.55,3.1055 -3.45,0.8945 -6.63,2.1679 -9.53,3.789 -2.91,1.6406 -5.33,3.8086 -7.29,6.5039 -1.94,2.6914 -2.93,6.3867 -2.93,11.1093 0,3.715 0.62,7.113 1.84,10.199 1.24,3.086 3.02,5.758 5.35,8.004 2.34,2.27 5.24,4.004 8.7,5.332 3.45,1.289 7.43,1.914 11.88,1.914 4.12,0 7.61,-0.562 10.46,-1.675 2.85,-1.157 5.57,-2.192 8.14,-3.11 -0.9,-1.695 -1.73,-3.789 -2.53,-6.25 -0.79,-2.476 -1.29,-4.375 -1.51,-5.738 h -2.03 c -0.89,2.715 -2.6,5.113 -5.14,7.246 -2.55,2.148 -5.69,3.223 -9.46,3.223 -1.66,0 -3.31,-0.293 -4.97,-0.84 -1.66,-0.567 -3.17,-1.43 -4.48,-2.539 -1.33,-1.114 -2.44,-2.578 -3.32,-4.375 -0.89,-1.797 -1.34,-3.926 -1.34,-6.391 0,-3.633 0.98,-6.3827 2.93,-8.3788 1.96,-1.9492 4.38,-3.4727 7.29,-4.6055 2.9,-1.1523 6.08,-2.1094 9.53,-2.9492 3.46,-0.8633 6.65,-2.0312 9.55,-3.5547 2.91,-1.5234 5.34,-3.6367 7.28,-6.3125 1.96,-2.6914 2.93,-6.4023 2.93,-11.1094 0,-3.2656 -0.69,-6.4687 -2.09,-9.6093 -1.4,-3.1485 -3.43,-5.9961 -6.04,-8.4961 -2.63,-2.5391 -5.8,-4.5117 -9.5,-5.918 -3.69,-1.4062 -7.89,-2.1133 -12.59,-2.1133 -5.16,0 -9.46,0.5117 -12.92,1.5274 -3.48,1.0351 -6.4,2.207 -8.75,3.5937 0.68,1.4453 1.36,3.457 2.09,5.9961 0.73,2.5195 1.09,4.6289 1.09,6.3281 h 2 c 0.57,-1.1328 1.44,-2.3828 2.61,-3.7343" /><path
         id="path84"
         style="fill:#231f20;fill-opacity:1;fill-rule:nonzero;stroke:none"
         d="m 1444.95,147.52 c -0.33,-4.239 -0.58,-8.403 -0.75,-12.461 -0.17,-4.082 -0.36,-8.164 -0.58,-12.305 1.23,0 3.52,0.019 6.9,0.074 3.38,0.078 7.03,0.199 10.96,0.453 -0.11,-0.351 -0.16,-0.976 -0.16,-1.855 v -1.699 -1.86 c 0,-0.797 0.05,-1.344 0.16,-1.695 -1.46,0.074 -2.97,0.152 -4.56,0.191 -1.56,0.063 -3.26,0.063 -5.05,0.063 h -8.25 c -0.11,-0.434 -0.23,-2.246 -0.38,-5.371 -0.14,-3.164 -0.28,-6.899 -0.38,-11.2112 -0.1,-4.336 -0.17,-8.8516 -0.22,-13.5586 -0.05,-4.7227 -0.07,-8.9414 -0.07,-12.6329 0,-3.1445 0.08,-6.2304 0.24,-9.2578 0.17,-3.0468 0.72,-5.7617 1.6,-8.1836 0.9,-2.4257 2.26,-4.3554 4.05,-5.8203 1.79,-1.4453 4.38,-2.1914 7.75,-2.1914 0.91,0 2.11,0.1016 3.62,0.3164 1.52,0.1953 2.84,0.4492 3.97,0.7617 v -4.0429 c -1.91,-0.3321 -4.01,-0.7617 -6.32,-1.2696 -2.3,-0.5117 -4.52,-0.7656 -6.67,-0.7656 -7.06,0 -12.27,1.7422 -15.62,5.2188 -3.34,3.4922 -5,8.6328 -5,15.3906 0,3.0273 0.04,6.3047 0.14,9.8437 0.1,3.5508 0.22,7.4415 0.38,11.6407 0.15,4.2187 0.27,8.9023 0.36,14.0039 0.1,5.1371 0.17,10.8401 0.17,17.1291 h -5.33 c -0.89,0 -1.85,0 -2.87,-0.063 -1,-0.039 -2.07,-0.117 -3.2,-0.191 0.1,0.664 0.19,1.324 0.26,1.949 0.05,0.625 0.08,1.289 0.08,1.977 0,0.601 -0.03,1.148 -0.08,1.718 -0.07,0.586 -0.16,1.153 -0.26,1.739 5.06,-0.356 8.76,-0.528 11.14,-0.528 -0.1,2.207 -0.17,4.981 -0.2,8.321 -0.05,3.34 -0.16,6.773 -0.33,10.332 l 13.66,5.84 h 0.84" /><path
         id="path86"
         style="fill:#231f20;fill-opacity:1;fill-rule:nonzero;stroke:none"
         d="m 1496.19,109.531 c -0.16,5.567 -0.52,10.762 -1.07,15.582 3.11,-0.562 5.61,-0.836 7.51,-0.836 1.89,0 4.39,0.274 7.5,0.836 -0.54,-4.82 -0.9,-10.015 -1.07,-15.582 -0.16,-5.566 -0.24,-10.8591 -0.24,-15.9372 V 76.0703 c 0,-5.0547 0.08,-10.3711 0.24,-15.9336 0.17,-5.5469 0.53,-10.5859 1.07,-15.1015 -2.55,0.1992 -5.05,0.2773 -7.5,0.2773 -2.44,0 -4.94,-0.0781 -7.51,-0.2773 0.55,4.5156 0.91,9.5546 1.07,15.1015 0.16,5.5625 0.25,10.8789 0.25,15.9336 v 17.5235 c 0,5.0781 -0.09,10.3712 -0.25,15.9372 z m 0.39,51.016 c 1.68,1.68 3.7,2.519 6.05,2.519 2.35,0 4.35,-0.839 6.03,-2.519 1.68,-1.684 2.52,-3.692 2.52,-6.059 0,-2.34 -0.84,-4.351 -2.52,-6.035 -1.68,-1.676 -3.68,-2.515 -6.03,-2.515 -2.35,0 -4.37,0.839 -6.05,2.515 -1.68,1.684 -2.52,3.695 -2.52,6.035 0,2.367 0.84,4.375 2.52,6.059" /><path
         id="path88"
         style="fill:#231f20;fill-opacity:1;fill-rule:nonzero;stroke:none"
         d="m 1604.55,111.504 c -3.26,4.355 -7.75,6.504 -13.49,6.504 -7.85,0 -13.61,-2.422 -17.25,-7.246 -3.65,-4.824 -5.48,-11.6448 -5.48,-20.3948 V 76.0547 c 0,-5.0391 0.08,-10.3711 0.26,-15.918 0.17,-5.5469 0.53,-10.5859 1.09,-15.1015 -2.57,0.1992 -5.09,0.2773 -7.54,0.2773 -2.45,0 -4.95,-0.0781 -7.54,-0.2773 0.56,4.5156 0.94,9.5351 1.1,15.0781 0.17,5.5703 0.25,10.8633 0.25,15.918 v 17.5 c 0,5.082 -0.08,10.3747 -0.25,15.9417 -0.16,5.523 -0.54,10.722 -1.1,15.562 3.14,-0.547 5.66,-0.855 7.56,-0.855 0.89,0 1.87,0.097 2.93,0.269 1.06,0.16 2.32,0.356 3.77,0.586 -0.35,-4.508 -0.53,-8.98 -0.53,-13.492 h 0.34 c 3.17,4.844 6.94,8.555 11.35,11.191 4.39,2.633 9.65,3.961 15.75,3.961 3.17,0 6.34,-0.425 9.57,-1.343 3.2,-0.903 6.12,-2.446 8.71,-4.629 2.6,-2.207 4.72,-5.157 6.35,-8.907 1.65,-3.769 2.46,-8.578 2.46,-14.3941 0,-4.8477 -0.14,-9.8242 -0.4,-14.9258 -0.26,-5.0938 -0.39,-10.5078 -0.39,-16.2266 v -10.957 c 0,-1.7812 0.03,-3.5547 0.06,-5.3164 0.05,-1.7148 0.12,-3.3789 0.2,-4.9609 -2.24,0.1992 -4.6,0.2773 -7.07,0.2773 -2.35,0 -4.65,-0.0781 -6.89,-0.2773 0.19,5.8632 0.43,11.8593 0.67,18.0312 0.27,6.1914 0.38,12.5391 0.38,19.043 v 10.3125 c 0,8.3791 -1.63,14.7811 -4.87,19.0821" /><path
         id="path90"
         style="fill:#231f20;fill-opacity:1;fill-rule:nonzero;stroke:none"
         d="m 1705.14,116.387 c -3.37,3.711 -7.82,5.586 -13.33,5.586 -6.1,0 -10.82,-2.071 -14.19,-6.172 -3.4,-4.106 -5.08,-9.59 -5.08,-16.4455 0,-7.1133 1.55,-12.6992 4.65,-16.7813 3.09,-4.1211 7.9,-6.1875 14.43,-6.1875 3.28,0 6.07,0.6446 8.37,1.9336 2.3,1.3086 4.21,3.0664 5.74,5.2344 1.52,2.207 2.65,4.7461 3.38,7.6172 0.74,2.8515 1.1,5.8594 1.1,9.0041 0,7.105 -1.69,12.519 -5.07,16.211 z m 8.37,-75.1175 c -3.96,2.7149 -10.51,4.043 -19.65,4.043 -8.48,0 -15.01,-1.3672 -19.64,-4.1406 -4.64,-2.7539 -6.94,-7.7344 -6.94,-14.9024 0,-3.8281 0.64,-7.0898 1.94,-9.789 1.3,-2.6914 3.05,-4.9024 5.25,-6.58206 2.2,-1.67969 4.83,-2.92969 7.86,-3.72656 3.05,-0.76172 6.33,-1.15235 9.84,-1.15235 3.37,0 6.72,0.42969 9.99,1.35156 3.28,0.89063 6.17,2.23829 8.71,4.01951 2.55,1.8203 4.61,4.0782 6.19,6.8477 1.58,2.7617 2.37,6.0234 2.37,9.8515 0,6.7344 -1.98,11.4805 -5.92,14.1797 z m -51.61,70.1955 c 1.68,3.418 4.03,6.25 7.01,8.515 2.99,2.223 6.41,3.907 10.3,5.04 3.89,1.113 8.02,1.675 12.41,1.675 2.14,0 4.2,-0.039 6.16,-0.117 1.98,-0.094 4.48,-0.215 7.52,-0.406 2.59,-0.254 4.9,-0.449 6.92,-0.586 2.03,-0.141 3.67,-0.195 4.91,-0.195 6.3,0 10.86,0.254 13.68,0.781 -0.12,-0.551 -0.2,-1.137 -0.26,-1.762 -0.05,-0.625 -0.09,-1.211 -0.09,-1.773 0,-0.547 0.04,-1.153 0.09,-1.739 0.06,-0.625 0.14,-1.23 0.26,-1.781 -3.28,0.238 -6.45,0.453 -9.55,0.766 -3.1,0.254 -6.16,0.445 -9.19,0.586 l -0.34,-0.332 c 3.48,-1.914 6.3,-4.864 8.44,-8.852 2.14,-3.98 3.21,-8.14 3.21,-12.3787 0,-8.4375 -2.84,-15.0586 -8.53,-19.8282 -5.69,-4.7812 -13.32,-7.1679 -22.9,-7.1679 -1.58,0 -3.12,0.0625 -4.64,0.1406 -1.53,0.0781 -3.08,0.1367 -4.64,0.1367 -2.04,0 -3.92,-0.7422 -5.67,-2.1914 -1.74,-1.4648 -2.62,-3.3398 -2.62,-5.5625 0,-2.9102 0.72,-5.0391 2.11,-6.3867 1.42,-1.3672 4.04,-2.0938 7.86,-2.2071 3.16,-0.1015 6.26,-0.2187 9.28,-0.2539 3.05,-0.0586 6.15,-0.1562 9.3,-0.2734 5.18,-0.0977 9.6,-0.7227 13.25,-1.8594 3.66,-1.1093 6.64,-2.6328 8.97,-4.5273 2.3,-1.9141 3.98,-4.1211 5.05,-6.6055 1.07,-2.457 1.61,-5.1523 1.61,-8.082 0,-3.9297 -0.76,-7.9102 -2.29,-11.957 -1.51,-4.0625 -3.89,-7.711 -7.1,-10.9727 -3.2,-3.25782 -7.33,-5.95704 -12.41,-8.08985 C 1704.94,1.07031 1698.87,0 1691.77,0 c -10.91,0 -19.54,2.17188 -25.84,6.5 -6.31,4.3594 -9.46,10.2813 -9.46,17.8516 0,2.9297 0.53,5.6289 1.61,8.1093 1.06,2.461 2.45,4.668 4.14,6.5821 1.68,1.9101 3.59,3.4531 5.73,4.5703 2.14,1.1133 4.34,1.9726 6.6,2.539 v 0.211 c -3.52,1 -6.17,2.7148 -7.99,5.082 -1.8,2.3789 -2.71,5.211 -2.71,8.4766 0,1.8945 0.36,3.6719 1.1,5.2539 0.72,1.582 1.66,2.9844 2.8,4.2187 1.14,1.25 2.44,2.2852 3.9,3.0664 1.47,0.7774 2.88,1.2852 4.25,1.5235 v 0.332 c -5.17,2.2617 -9.22,5.4258 -12.15,9.5078 -2.91,4.1055 -4.37,9.2422 -4.37,15.4336 0,4.7072 0.83,8.7892 2.52,12.2072" /></g></g></svg>