<?xml version="1.0" encoding="utf-8"?>
<!-- Generator: Adobe Illustrator 18.0.0, SVG Export Plug-In . SVG Version: 6.00 Build 0)  -->
<!DOCTYPE svg PUBLIC "-//W3C//DTD SVG 1.1//EN" "http://www.w3.org/Graphics/SVG/1.1/DTD/svg11.dtd">
<svg version="1.1" id="Layer_1" xmlns="http://www.w3.org/2000/svg" xmlns:xlink="http://www.w3.org/1999/xlink" x="0px" y="0px"
	 viewBox="0 0 362.6 189.7" enable-background="new 0 0 362.6 189.7" xml:space="preserve">
<g display="none">
	<g display="inline">
		<g enable-background="new    ">
			<g>
				<rect x="-64.4" y="15" fill="#2C1930" width="492" height="154"/>
			</g>
			<g>
				<rect x="427.6" y="15" fill="#2C1930" width="0" height="154"/>
			</g>
			<g>
				<polygon fill="#2C1930" points="-64.3,15 -64.2,15 428.1,15 428,15 				"/>
			</g>
		</g>
	</g>
</g>
<g>
	<g>
		<g>
			<defs>
				<rect id="SVGID_1_" x="50.2" y="125.6" width="1.5" height="10.2"/>
			</defs>
			<clipPath id="SVGID_2_">
				<use xlink:href="#SVGID_1_"  overflow="visible"/>
			</clipPath>
			<rect x="38.5" y="114" clip-path="url(#SVGID_2_)" fill="#070609" width="24.8" height="33.5"/>
		</g>
	</g>
	<g>
		<g>
			<defs>
				<polyline id="SVGID_3_" points="77.4,133.1 71.4,125.6 70.1,125.6 70.1,135.8 71.6,135.8 71.6,128.1 77.8,135.8 78.9,135.8 
					78.9,125.6 77.4,125.6 77.4,133.1 				"/>
			</defs>
			<clipPath id="SVGID_4_">
				<use xlink:href="#SVGID_3_"  overflow="visible"/>
			</clipPath>
			<rect x="58.4" y="114" clip-path="url(#SVGID_4_)" fill="#070609" width="32.1" height="33.5"/>
		</g>
	</g>
	<g>
		<g>
			<defs>
				<polyline id="SVGID_5_" points="96.5,127 99.9,127 99.9,135.8 101.4,135.8 101.4,127 104.7,127 104.7,125.6 96.5,125.6 
					96.5,127 				"/>
			</defs>
			<clipPath id="SVGID_6_">
				<use xlink:href="#SVGID_5_"  overflow="visible"/>
			</clipPath>
			<rect x="84.9" y="114" clip-path="url(#SVGID_6_)" fill="#070609" width="31.6" height="33.5"/>
		</g>
	</g>
	<g>
		<g>
			<defs>
				<polyline id="SVGID_7_" points="123.9,131.4 129.4,131.4 129.4,130 123.9,130 123.9,127 130,127 130,125.6 122.4,125.6 
					122.4,135.8 130.1,135.8 130.1,134.4 123.9,134.4 123.9,131.4 				"/>
			</defs>
			<clipPath id="SVGID_8_">
				<use xlink:href="#SVGID_7_"  overflow="visible"/>
			</clipPath>
			<rect x="110.7" y="114" clip-path="url(#SVGID_8_)" fill="#070609" width="31.1" height="33.5"/>
		</g>
	</g>
	<g>
		<g>
			<defs>
				<path id="SVGID_9_" d="M149.3,127h2.9c0.8,0,1.4,0.2,1.8,0.5c0.4,0.3,0.6,0.7,0.6,1.3c0,0.3-0.1,0.5-0.2,0.7
					c-0.1,0.2-0.3,0.4-0.5,0.6c-0.2,0.2-0.5,0.3-0.8,0.4c-0.3,0.1-0.6,0.1-1,0.1h-2.9V127z M154.2,131.5c0.4-0.2,0.7-0.4,1-0.6
					c0.3-0.3,0.5-0.6,0.7-0.9c0.2-0.4,0.2-0.8,0.2-1.2c0-0.4-0.1-0.8-0.2-1.1c-0.1-0.3-0.4-0.6-0.6-0.9c-0.3-0.3-0.8-0.6-1.3-0.8
					c-0.5-0.2-1.1-0.3-1.7-0.3h-4.4v10.2h1.5v-3.9h2.6l3.1,3.9h1.9l-3.3-4.2C153.8,131.6,154,131.5,154.2,131.5z"/>
			</defs>
			<clipPath id="SVGID_10_">
				<use xlink:href="#SVGID_9_"  overflow="visible"/>
			</clipPath>
			<rect x="136.2" y="114" clip-path="url(#SVGID_10_)" fill="#070609" width="32.4" height="33.5"/>
		</g>
	</g>
	<g>
		<g>
			<defs>
				<path id="SVGID_11_" d="M176.4,131.8l1.9-4.2l1.9,4.2H176.4z M177.8,125.6l-4.8,10.2h1.6l1.2-2.6h5.2l1.2,2.6h1.6l-4.8-10.2
					H177.8z"/>
			</defs>
			<clipPath id="SVGID_12_">
				<use xlink:href="#SVGID_11_"  overflow="visible"/>
			</clipPath>
			<rect x="161.3" y="113.9" clip-path="url(#SVGID_12_)" fill="#070609" width="34.2" height="33.6"/>
		</g>
	</g>
	<g>
		<g>
			<defs>
				<path id="SVGID_13_" d="M208.9,133.2c-0.5,0.4-0.9,0.8-1.4,1c-0.5,0.2-1,0.3-1.6,0.3c-0.5,0-1-0.1-1.4-0.3
					c-0.4-0.2-0.8-0.5-1.2-0.8c-0.3-0.3-0.6-0.8-0.8-1.2c-0.2-0.5-0.3-1-0.3-1.6c0-0.5,0.1-1.1,0.3-1.5c0.2-0.5,0.5-0.9,0.8-1.2
					c0.3-0.3,0.7-0.6,1.2-0.8c0.7-0.3,1.6-0.4,2.4-0.2c0.3,0.1,0.5,0.2,0.8,0.3c0.2,0.1,0.5,0.2,0.7,0.4c0.2,0.2,0.4,0.3,0.6,0.5
					l0.3,0.3l1-1.1l-0.3-0.3c-0.3-0.2-0.5-0.5-0.8-0.6c-0.3-0.2-0.6-0.4-0.9-0.5c-0.3-0.1-0.7-0.3-1.1-0.3c-0.4-0.1-0.8-0.1-1.3-0.1
					c-0.8,0-1.5,0.1-2.1,0.4c-0.6,0.3-1.2,0.7-1.6,1.1c-0.5,0.5-0.8,1-1.1,1.7c-0.3,0.6-0.4,1.3-0.4,2c0,0.7,0.1,1.4,0.4,2
					c0.3,0.6,0.6,1.2,1.1,1.7c0.5,0.5,1,0.8,1.6,1.1c0.6,0.3,1.3,0.4,2.1,0.4c0.5,0,0.9,0,1.3-0.1c0.4-0.1,0.7-0.2,1.1-0.4
					c0.3-0.2,0.6-0.3,0.9-0.6c0.3-0.2,0.6-0.4,0.8-0.7l0.3-0.3l-1-1L208.9,133.2"/>
			</defs>
			<clipPath id="SVGID_14_">
				<use xlink:href="#SVGID_13_"  overflow="visible"/>
			</clipPath>
			<rect x="189" y="113.8" clip-path="url(#SVGID_14_)" fill="#070609" width="32.9" height="33.9"/>
		</g>
	</g>
	<g>
		<g>
			<defs>
				<polyline id="SVGID_15_" points="226.8,127 230.2,127 230.2,135.8 231.7,135.8 231.7,127 235,127 235,125.6 226.8,125.6 
					226.8,127 				"/>
			</defs>
			<clipPath id="SVGID_16_">
				<use xlink:href="#SVGID_15_"  overflow="visible"/>
			</clipPath>
			<rect x="215.1" y="114" clip-path="url(#SVGID_16_)" fill="#070609" width="31.6" height="33.5"/>
		</g>
	</g>
	<g>
		<g>
			<defs>
				<rect id="SVGID_17_" x="252.8" y="125.6" width="1.5" height="10.2"/>
			</defs>
			<clipPath id="SVGID_18_">
				<use xlink:href="#SVGID_17_"  overflow="visible"/>
			</clipPath>
			<rect x="241.1" y="114" clip-path="url(#SVGID_18_)" fill="#070609" width="24.9" height="33.5"/>
		</g>
	</g>
	<g>
		<g>
			<defs>
				<polyline id="SVGID_19_" points="276.8,133.7 273.3,125.6 271.6,125.6 276.2,135.9 277.4,135.9 281.9,125.6 280.3,125.6 
					276.8,133.7 				"/>
			</defs>
			<clipPath id="SVGID_20_">
				<use xlink:href="#SVGID_19_"  overflow="visible"/>
			</clipPath>
			<rect x="260" y="114" clip-path="url(#SVGID_20_)" fill="#070609" width="33.6" height="33.6"/>
		</g>
	</g>
	<g>
		<g>
			<defs>
				<polyline id="SVGID_21_" points="300.7,134.4 300.7,131.4 306.2,131.4 306.2,130 300.7,130 300.7,127 306.8,127 306.8,125.6 
					299.2,125.6 299.2,135.8 306.9,135.8 306.9,134.4 300.7,134.4 				"/>
			</defs>
			<clipPath id="SVGID_22_">
				<use xlink:href="#SVGID_21_"  overflow="visible"/>
			</clipPath>
			<rect x="287.5" y="114" clip-path="url(#SVGID_22_)" fill="#070609" width="31.1" height="33.5"/>
		</g>
	</g>
	<g id="b_x5F_red">
		<g>
			<defs>
				<path id="SVGID_23_" d="M207.6,51.6H187v47.5h21.8c11.5,0,18-4.5,18-12.5v-0.1c0-5.7-4.3-10.2-10.9-11.7c5.1-1.7,8.2-5.8,8.2-11
					v-0.1c0-3.3-1.1-5.9-3.3-8C218,53,213.5,51.6,207.6,51.6 M189.3,74.1V53.7h18.3c8.8,0,14.3,3.9,14.3,10.1v0.1
					c0,7.5-6.8,10.1-13.1,10.1H189.3 M189.3,97V76.1h20.7c7.2,0,14.5,3.2,14.5,10.5v0.1c0,6.6-5.7,10.3-15.7,10.3H189.3"/>
			</defs>
			<use xlink:href="#SVGID_23_"  overflow="visible" fill-rule="evenodd" clip-rule="evenodd" fill="#D70D37"/>
			<clipPath id="SVGID_24_">
				<use xlink:href="#SVGID_23_"  overflow="visible"/>
			</clipPath>
			<rect x="175.3" y="39.9" clip-path="url(#SVGID_24_)" fill="#D70D37" width="63.2" height="70.9"/>
		</g>
	</g>
	<g id="b_x5F_white_1_" display="none">
		<g display="inline">
			<defs>
				<path id="SVGID_25_" d="M207.6,51.6H187v47.5h21.8c11.5,0,18-4.5,18-12.5v-0.1c0-5.7-4.3-10.2-10.9-11.7c5.1-1.7,8.2-5.8,8.2-11
					v-0.1c0-3.3-1.1-5.9-3.3-8C218,53,213.5,51.6,207.6,51.6 M189.3,74.1V53.7h18.3c8.8,0,14.3,3.9,14.3,10.1v0.1
					c0,7.5-6.8,10.1-13.1,10.1H189.3 M189.3,97V76.1h20.7c7.2,0,14.5,3.2,14.5,10.5v0.1c0,6.6-5.7,10.3-15.7,10.3H189.3"/>
			</defs>
			<clipPath id="SVGID_26_">
				<use xlink:href="#SVGID_25_"  overflow="visible"/>
			</clipPath>
			<rect x="175.3" y="39.9" clip-path="url(#SVGID_26_)" width="63.2" height="70.9"/>
		</g>
	</g>
	<g>
		<g>
			<defs>
				<polyline id="SVGID_27_" points="34.3,80.3 13,51.6 10.9,51.6 10.9,99.1 13.2,99.1 13.2,55.6 33.9,83.5 34.1,83.7 34.5,83.7 
					55.3,55.6 55.3,99.1 57.7,99.1 57.7,51.6 55.7,51.6 34.3,80.3 				"/>
			</defs>
			<clipPath id="SVGID_28_">
				<use xlink:href="#SVGID_27_"  overflow="visible"/>
			</clipPath>
			<rect x="-0.8" y="39.9" clip-path="url(#SVGID_28_)" fill="#070609" width="70.1" height="70.9"/>
		</g>
	</g>
	<g>
		<g>
			<defs>
				<path id="SVGID_29_" d="M139.3,75.4v0.1c0,12.7-9.7,22.4-22.6,22.4C102.5,97.9,94,86.4,94,75.4v-0.1c0-12.7,9.7-22.4,22.6-22.4
					C130.8,52.9,139.3,64.3,139.3,75.4z M116.7,50.8c-14.2,0-25,10.5-25,24.5v0.1c0,14,10.7,24.5,25,24.5c14.2,0,25-10.5,25-24.5
					v-0.1C141.7,61.3,130.9,50.8,116.7,50.8z"/>
			</defs>
			<clipPath id="SVGID_30_">
				<use xlink:href="#SVGID_29_"  overflow="visible"/>
			</clipPath>
			<rect x="80" y="39.1" clip-path="url(#SVGID_30_)" fill="#070609" width="73.3" height="72.5"/>
		</g>
	</g>
	<g>
		<g>
			<defs>
				<path id="SVGID_31_" d="M178.8,76.1h20.7c7.2,0,14.5,3.2,14.5,10.5v0.1c0,6.6-5.7,10.3-15.7,10.3h-19.5V76.1z M178.8,74.1V53.7
					h18.3c8.8,0,14.3,3.9,14.3,10.1v0.1c0,7.5-6.8,10.1-13.1,10.1H178.8z M205.5,74.8c5.1-1.7,8.2-5.8,8.2-11v-0.1
					c0-3.3-1.1-5.9-3.3-8c-2.8-2.7-7.4-4.1-13.3-4.1h-20.7v47.5h21.8c11.5,0,18.1-4.5,18.1-12.5v-0.1
					C216.3,80.8,212,76.3,205.5,74.8z"/>
			</defs>
			<clipPath id="SVGID_32_">
				<use xlink:href="#SVGID_31_"  overflow="visible"/>
			</clipPath>
			<rect x="164.8" y="39.9" clip-path="url(#SVGID_32_)" fill="#070609" width="63.2" height="70.9"/>
		</g>
	</g>
	<g>
		<g>
			<defs>
				<rect id="SVGID_33_" x="259.1" y="51.6" width="2.3" height="47.5"/>
			</defs>
			<clipPath id="SVGID_34_">
				<use xlink:href="#SVGID_33_"  overflow="visible"/>
			</clipPath>
			<rect x="247.5" y="39.9" clip-path="url(#SVGID_34_)" fill="#070609" width="25.7" height="70.9"/>
		</g>
	</g>
	<g>
		<g>
			<defs>
				<path id="SVGID_35_" d="M344.4,75.4v0.1c0,12.7-9.7,22.4-22.6,22.4c-14.2,0-22.7-11.4-22.7-22.5v-0.1c0-12.7,9.7-22.4,22.6-22.4
					C335.9,52.9,344.4,64.3,344.4,75.4z"/>
			</defs>
			<defs>
				<path id="SVGID_36_" d="M321.8,50.8c-14.2,0-25,10.5-25,24.5v0.1c0,14,10.7,24.5,25,24.5c14.2,0,25-10.5,25-24.5v-0.1
					C346.7,61.3,336,50.8,321.8,50.8z"/>
			</defs>
			<clipPath id="SVGID_37_">
				<use xlink:href="#SVGID_35_"  overflow="visible"/>
			</clipPath>
			<clipPath id="SVGID_38_" clip-path="url(#SVGID_37_)">
				<use xlink:href="#SVGID_36_"  overflow="visible"/>
			</clipPath>
			<rect x="285.1" y="39.1" clip-path="url(#SVGID_38_)" fill="#070609" width="73.3" height="72.5"/>
		</g>
	</g>
</g>
</svg>
