<?xml version="1.0" encoding="UTF-8" standalone="no"?>
<svg
   xmlns:dc="http://purl.org/dc/elements/1.1/"
   xmlns:cc="http://creativecommons.org/ns#"
   xmlns:rdf="http://www.w3.org/1999/02/22-rdf-syntax-ns#"
   xmlns:svg="http://www.w3.org/2000/svg"
   xmlns="http://www.w3.org/2000/svg"
   viewBox="0 0 286.17334 159.66667"
   height="159.66667"
   width="286.17334"
   xml:space="preserve"
   id="svg2"
   version="1.1"><metadata
     id="metadata8"><rdf:RDF><cc:Work
         rdf:about=""><dc:format>image/svg+xml</dc:format><dc:type
           rdf:resource="http://purl.org/dc/dcmitype/StillImage" /></cc:Work></rdf:RDF></metadata><defs
     id="defs6" /><g
     transform="matrix(1.3333333,0,0,-1.3333333,0,159.66667)"
     id="g10"><g
       transform="scale(0.1)"
       id="g12"><path
         id="path14"
         style="fill:#3d1a61;fill-opacity:1;fill-rule:nonzero;stroke:none"
         d="m 890.984,980.531 c -4.988,-46.148 18.762,-120.176 26.516,-141.633 -21.113,19.915 -99.641,99.645 -138.516,105.993 -44.187,-15.532 -75.031,-34.121 -123.671,-84.282 8.64,31.739 15,51.871 22.46,70.211 7.637,17.809 16.067,34.149 28.321,57.91 -34.114,19.88 -55.117,32.55 -108.301,48.25 28.645,6.04 54.141,10.31 80.547,13.22 26.445,2.93 53.855,4.39 86.777,4.89 26.336,25.02 75.653,62.52 139.746,82.93 -17.019,-29.04 -21.054,-59.06 -22.859,-87.25 52.129,0 131.836,-28.37 164.516,-48.5 -82.907,7.38 -123.739,-4.891 -155.536,-21.739 z m 278.936,-2.976 c -42.52,28.245 -80.37,50.265 -116.66,66.745 -36.69,16.8 -72.506,27.72 -111.104,33.45 1.977,36.35 9.836,67.35 31.242,112.31 2.969,7.92 1.399,8.48 -7.597,6.3 -29.539,-7.9 -78.906,-20.95 -133.731,-48.37 -29.882,-14.96 -61.445,-34.2 -92.285,-59.68 -114.355,-10.92 -171.594,-29.6 -254.055,-55.97 -4.949,-1.54 -7.41,-3.23 -7.917,-4.52 v -1.09 c 0.507,-1.66 4.05,-3.26 10.273,-4.95 51.902,-11.68 104.031,-25.753 156.102,-54.225 -13.817,-33.957 -24.098,-71.981 -32.293,-113.235 -8.372,-40.953 -15.223,-84.957 -21.457,-131.632 -1.012,-10.024 6.515,-10.024 11.117,-1.598 25.84,48.836 59.988,91.187 92.859,122.359 32.852,31.571 64.07,51.903 83.059,57.262 12.754,-7.016 28.816,-16.508 54.597,-35.492 4.832,-3.574 10,-7.305 15.664,-11.715 35,-26.535 85.274,-68.359 160.986,-135.926 6.46,-5.473 10,-4.328 5.62,5.668 -22.973,53.192 -39.887,103.383 -50.949,144.102 -10.84,41.511 -15.786,73.082 -14.614,87.398 18.606,13.317 58.883,19.207 101.453,20.024 42.12,1.152 86.88,-2.383 114.87,-7.778 7.01,-1.125 10.82,-0.562 11.34,1.879 v 0.785 c -0.23,1.946 -2.42,4.668 -6.52,7.899" /><path
         id="path16"
         style="fill:#231f20;fill-opacity:1;fill-rule:nonzero;stroke:none"
         d="m 1574.56,380.086 c 21.35,-11.43 57.4,-24.43 92,-24.43 49.59,0 78.75,22.301 78.75,51.813 0,30.25 -25.23,46.82 -75.6,64.094 -69.2,23.109 -101.39,56.898 -101.39,98.656 0,56.168 50.33,102.226 131.21,102.226 38.59,0 72.39,-9.406 92.78,-21.566 l -16.5,-45.383 c -14.83,7.945 -42.47,20.106 -77.74,20.106 -41,0 -66.44,-21.481 -66.44,-47.516 0,-29.52 25.44,-42.438 75.03,-59.766 65.26,-22.347 99.87,-52.547 99.87,-105.09 0,-61.898 -52.57,-105.117 -141.55,-105.117 -41.67,0 -80.25,10.11 -106.99,24.547 l 16.57,47.426" /><path
         id="path18"
         style="fill:#231f20;fill-opacity:1;fill-rule:nonzero;stroke:none"
         d="m 520,355.656 v -43.64 c -21.395,-2.524 -38.816,-3.903 -52.461,-3.903 -67.684,0 -101.445,35.891 -101.445,107.758 v 350.828 h 53.761 v -83.945 h 88.524 V 629.926 H 419.855 V 406.742 c 0,-36.254 19.09,-54.398 57.176,-54.398 11.961,0 26.348,1.121 42.969,3.312" /><path
         id="path20"
         style="fill:#231f20;fill-opacity:1;fill-rule:nonzero;stroke:none"
         d="m 1488.22,317.801 h -55.49 v 331.617 h 55.49 V 317.801" /><path
         id="path22"
         style="fill:#231f20;fill-opacity:1;fill-rule:nonzero;stroke:none"
         d="m 2146.29,317.801 h -55.43 v 215.406 c 0,30.691 -2.42,52.152 -7.31,64.281 -4.71,11.711 -12.75,21.207 -23.99,28.485 -11.28,7.269 -23.92,10.832 -37.63,10.832 -26.45,0 -49.54,-11.34 -69.25,-34.032 -19.44,-22.554 -29.15,-53.812 -29.15,-93.859 V 317.801 h -55.27 v 479.871 h 55.27 V 607.316 c 12.41,23.004 25.04,40.051 37.92,51.086 19.65,16.153 43.31,24.239 70.87,24.239 40.89,0 71.9,-15.559 92.86,-46.758 8.65,-13.145 14.43,-26.207 17.01,-39.262 2.63,-12.973 4.1,-34.043 4.1,-63.414 V 317.801" /><path
         id="path24"
         style="fill:#231f20;fill-opacity:1;fill-rule:nonzero;stroke:none"
         d="m 17.5781,392.332 c 29.7657,-17.941 72.5117,-31.648 118.3519,-31.648 67.781,0 111.597,33.113 111.597,82.765 0,44.735 -31.558,71.36 -100.996,95.793 -83.8552,28.844 -131.5896,70.551 -131.5896,138.235 0,75.546 62.1094,131.796 162.0976,131.796 51.848,0 90.82,-11.601 112.895,-23.843 l -18.246,-51.086 c -16.075,9.355 -50.321,23 -96.954,23 -70.261,0 -96.8902,-39.512 -96.8902,-72.653 0,-45.386 31.2892,-67.738 102.2342,-93.691 87.051,-32.348 130.586,-71.25 130.586,-142.441 0,-74.957 -58.086,-140.446 -179.394,-140.446 -49.6606,0 -103.6997,14.407 -131.27,31.676 l 17.5781,52.543" /><path
         id="path26"
         style="fill:#231f20;fill-opacity:1;fill-rule:nonzero;stroke:none"
         d="m 1067.64,678.313 c -29.1,0 -52.64,-10.387 -70.433,-31.34 -9.836,-11.657 -20.117,-28.871 -30.613,-51 v 77.039 h -5.332 -48.371 V 317.801 h 53.703 1.57 V 500.57 c 1.016,24.86 5.899,45.891 14.774,63.024 20.782,40.527 51.852,60.769 92.902,60.769 3.32,0 7.19,-0.136 11.9,-0.359 v 52.742 c -8.76,1.063 -15.39,1.567 -20.1,1.567" /><path
         id="path28"
         style="fill:#231f20;fill-opacity:1;fill-rule:nonzero;stroke:none"
         d="m 770.176,391.328 c -21.738,-27.074 -50.606,-40.64 -86.895,-40.64 -24.492,0 -43.308,6.511 -56.34,19.488 -12.183,11.855 -18.25,26.543 -18.25,43.953 0,21.652 7.579,38.867 22.801,51.871 24.211,20.84 63.801,31.313 118.906,31.313 9.153,0 24.778,-0.672 46.907,-2.102 l 0.949,-22.441 c 0,-30.809 -9.438,-57.938 -28.078,-81.442 z m 79.258,177.207 c 0,56.082 -61.512,103.91 -142.676,103.91 -38.633,0 -93.008,-14.211 -113.399,-26.402 l 16.512,-45.41 c 14.942,7.922 62.961,24.969 98.399,24.969 49.828,0 88.41,-25.614 88.41,-51.559 0,-12.785 0.625,-7.672 0.625,-36.652 -18.985,0.957 -34.27,1.379 -45.938,1.379 -62.527,0 -110.144,-8.625 -142.898,-25.954 -18.086,-9.437 -32.473,-22.89 -43.254,-40.437 -10.781,-17.586 -16.055,-36.453 -16.055,-56.649 0,-26.035 8.137,-48.812 24.485,-68.246 22.07,-26.285 55.039,-39.371 99.082,-39.371 33.867,0 61.714,7.75 83.523,23.282 14.492,10.109 27.969,26.507 40.43,49.121 v -62.715 h 53.758 v 68.746 32.051 118.793 c 0,11.343 -1.004,21.711 -1.004,31.144" /><path
         id="path30"
         style="fill:#231f20;fill-opacity:1;fill-rule:nonzero;stroke:none"
         d="m 1409.08,750.41 h -158.55 c -27.14,0 -40.79,-12.894 -40.79,-38.762 V 594.316 h 140.04 V 541.52 H 1209.74 V 317.801 h -58.47 v 404.832 c 0,51.195 23.98,76.863 72.29,76.863 h 185.52 v -48.555" /><path
         id="path32"
         style="fill:#3d1a61;fill-opacity:1;fill-rule:nonzero;stroke:none"
         d="m 1301.03,179.602 v 25.359 h -103.58 c -8.09,0 -14.62,-6.633 -14.62,-14.66 V 18.1094 c 0,-8.1094 6.53,-14.71096 14.62,-14.71096 h 103.58 V 28.9297 h -89.38 v 66.2812 h 67.85 v 25.4371 h -67.85 v 58.954 h 89.38" /><path
         id="path34"
         style="fill:#3d1a61;fill-opacity:1;fill-rule:nonzero;stroke:none"
         d="M 1580.96,3.39844 V 194.512 c 0,5.703 -4.67,10.449 -10.44,10.449 h -7.81 c -5.85,0 -10.68,-4.746 -10.68,-10.449 V 3.39844 h 28.93" /><path
         id="path36"
         style="fill:#3d1a61;fill-opacity:1;fill-rule:nonzero;stroke:none"
         d="m 1769.85,171.738 c -12.75,7.524 -26.85,11.321 -41.68,11.321 -46.45,0 -77.34,-33.508 -77.34,-78.899 0,-47.2616 34.04,-78.7108 76.01,-78.7108 14.36,0 33.75,3.6992 43.75,9.7696 l 1.84,-28.02739 C 1757.1,0.871094 1738.23,0 1726.6,0 c -63.97,0 -106.38,41 -106.38,105.121 0,62.039 45.04,103.352 106.62,103.352 15.49,0 30.76,-2.309 45.26,-8.739 l -2.25,-27.996" /><path
         id="path38"
         style="fill:#3d1a61;fill-opacity:1;fill-rule:nonzero;stroke:none"
         d="m 1892.01,177.828 -40.1,-99.8983 h 80.22 z m -14.15,27.133 h 30.33 L 1993.34,3.39844 h -31.45 l -20.56,50.86326 h -98.68 L 1822.09,3.39844 h -30.28 l 86.05,201.56256" /><path
         id="path40"
         style="fill:#3d1a61;fill-opacity:1;fill-rule:nonzero;stroke:none"
         d="M 2022.22,18.1094 V 204.961 h 28.92 V 28.9297 h 92.96 V 3.39844 h -107.28 c -8.03,0 -14.6,6.60156 -14.6,14.71096" /><path
         id="path42"
         style="fill:#3d1a61;fill-opacity:1;fill-rule:nonzero;stroke:none"
         d="M 1100.56,159.039 1047.3,21.1211 c -2.52,-8.7422 -10.5,-15.05079 -20.22,-15.05079 -8.59,0 -16.06,5.28129 -19.32,12.71879 L 953.391,159.039 c -0.332,1.66 -1.848,2.871 -3.586,2.871 -2.032,0 -3.66,-1.64 -3.66,-3.711 V 3.39844 H 916.094 V 188.41 c 0,9.031 7.48,16.551 16.574,16.551 h 21.687 c 5.333,0 10.047,-3.094 12.344,-7.672 l 60.381,-159.7695 60.21,159.7695 c 2.26,4.578 7.03,7.672 12.42,7.672 h 20.5 c 9.11,0 16.52,-7.52 16.52,-16.551 V 3.39844 h -28.87 V 158.199 c 0,2.071 -1.64,3.711 -3.66,3.711 -1.74,0 -3.25,-1.211 -3.64,-2.871" /><path
         id="path44"
         style="fill:#3d1a61;fill-opacity:1;fill-rule:nonzero;stroke:none"
         d="m 1402.96,28.9297 h -30.38 V 179.602 h 33.75 c 41.63,0 73.64,-27.75 73.64,-74.731 0,-52.0116 -27.41,-75.9413 -77.01,-75.9413 z m 0.11,176.0313 h -44.65 c -8.14,0 -14.72,-6.633 -14.72,-14.66 V 18.1094 c 0,-8.1094 6.58,-14.71096 14.72,-14.71096 h 44.65 c 66.45,0 107.51,34.88286 107.51,102.51156 0,62.059 -47.63,99.051 -107.51,99.051" /></g></g></svg>