<?xml version="1.0" encoding="UTF-8" standalone="no"?>
<svg
   xmlns:dc="http://purl.org/dc/elements/1.1/"
   xmlns:cc="http://creativecommons.org/ns#"
   xmlns:rdf="http://www.w3.org/1999/02/22-rdf-syntax-ns#"
   xmlns:svg="http://www.w3.org/2000/svg"
   xmlns="http://www.w3.org/2000/svg"
   viewBox="0 0 540.69336 147.85333"
   height="147.85333"
   width="540.69336"
   xml:space="preserve"
   id="svg2"
   version="1.1"><metadata
     id="metadata8"><rdf:RDF><cc:Work
         rdf:about=""><dc:format>image/svg+xml</dc:format><dc:type
           rdf:resource="http://purl.org/dc/dcmitype/StillImage" /></cc:Work></rdf:RDF></metadata><defs
     id="defs6" /><g
     transform="matrix(1.3333333,0,0,-1.3333333,0,147.85333)"
     id="g10"><g
       transform="scale(0.1)"
       id="g12"><path
         id="path14"
         style="fill:#231f20;fill-opacity:1;fill-rule:nonzero;stroke:none"
         d="m 991.465,731.223 v 73.058 h 28.125 v -72.324 c 0,-20.824 10.41,-31.602 27.58,-31.602 17.17,0 27.58,10.411 27.58,30.684 v 73.242 h 28.13 v -72.144 c 0,-38.719 -21.74,-57.715 -56.07,-57.715 -34.34,0 -55.345,19.176 -55.345,56.801" /><path
         id="path16"
         style="fill:#231f20;fill-opacity:1;fill-rule:nonzero;stroke:none"
         d="m 1131.6,804.281 h 25.93 l 59.91,-78.722 v 78.722 h 27.77 V 676.43 h -23.93 l -61.92,81.277 V 676.43 h -27.76 v 127.851" /><path
         id="path18"
         style="fill:#231f20;fill-opacity:1;fill-rule:nonzero;stroke:none"
         d="m 1277.21,804.281 h 28.13 V 676.43 h -28.13 v 127.851" /><path
         id="path20"
         style="fill:#231f20;fill-opacity:1;fill-rule:nonzero;stroke:none"
         d="m 1326.36,804.281 h 31.05 l 33.42,-90.047 33.43,90.047 h 30.32 l -51.69,-128.765 h -24.84 l -51.69,128.765" /><path
         id="path22"
         style="fill:#231f20;fill-opacity:1;fill-rule:nonzero;stroke:none"
         d="m 1474.35,804.281 h 96.44 v -25.019 h -68.5 v -25.938 h 60.28 v -25.023 h -60.28 v -26.848 h 69.41 V 676.43 h -97.35 v 127.851" /><path
         id="path24"
         style="fill:#231f20;fill-opacity:1;fill-rule:nonzero;stroke:none"
         d="m 1653.38,742.18 c 13.7,0 21.56,7.304 21.56,18.082 v 0.367 c 0,12.055 -8.41,18.266 -22.1,18.266 h -27.95 V 742.18 Z m -56.62,62.101 h 58.45 c 16.25,0 28.86,-4.566 37.26,-12.965 7.12,-7.125 10.96,-17.171 10.96,-29.222 v -0.367 c 0,-20.641 -11.14,-33.61 -27.4,-39.633 l 31.24,-45.664 h -32.88 l -27.4,40.914 h -22.1 V 676.43 h -28.13 v 127.851" /><path
         id="path26"
         style="fill:#231f20;fill-opacity:1;fill-rule:nonzero;stroke:none"
         d="m 1720.09,695.059 16.62,19.91 c 11.51,-9.496 23.56,-15.528 38.18,-15.528 11.5,0 18.44,4.567 18.44,12.055 v 0.367 c 0,7.125 -4.38,10.778 -25.75,16.254 -25.75,6.578 -42.37,13.696 -42.37,39.086 v 0.367 c 0,23.196 18.62,38.535 44.75,38.535 18.62,0 34.51,-5.843 47.48,-16.253 l -14.61,-21.188 c -11.33,7.856 -22.46,12.602 -33.24,12.602 -10.78,0 -16.44,-4.93 -16.44,-11.141 v -0.359 c 0,-8.407 5.48,-11.145 27.58,-16.809 25.94,-6.758 40.55,-16.074 40.55,-38.355 v -0.368 c 0,-25.382 -19.36,-39.632 -46.94,-39.632 -19.36,0 -38.91,6.757 -54.25,20.457" /><path
         id="path28"
         style="fill:#231f20;fill-opacity:1;fill-rule:nonzero;stroke:none"
         d="m 1847.07,804.281 h 28.13 V 676.43 h -28.13 v 127.851" /><path
         id="path30"
         style="fill:#231f20;fill-opacity:1;fill-rule:nonzero;stroke:none"
         d="m 1936.95,778.348 h -38.9 v 25.933 h 105.93 v -25.933 h -38.9 V 676.43 h -28.13 v 101.918" /><path
         id="path32"
         style="fill:#231f20;fill-opacity:1;fill-rule:nonzero;stroke:none"
         d="m 2061.56,726.84 -49.13,77.441 h 32.87 l 30.51,-51.324 31.04,51.324 h 31.96 l -49.13,-76.894 V 676.43 h -28.12 v 50.41" /><path
         id="path34"
         style="fill:#231f20;fill-opacity:1;fill-rule:nonzero;stroke:none"
         d="m 2312.03,739.988 v 0.367 c 0,21.918 -16.08,40.184 -38.72,40.184 -22.65,0 -38.36,-17.898 -38.36,-39.816 v -0.368 c 0,-21.921 16.07,-40.179 38.73,-40.179 22.64,0 38.35,17.898 38.35,39.812 z m -106.49,0 v 0.367 c 0,36.348 28.68,66.118 68.14,66.118 39.44,0 67.75,-29.407 67.75,-65.75 v -0.368 c 0,-36.347 -28.67,-66.121 -68.12,-66.121 -39.46,0 -67.77,29.411 -67.77,65.754" /><path
         id="path36"
         style="fill:#231f20;fill-opacity:1;fill-rule:nonzero;stroke:none"
         d="m 2366.51,804.281 h 97.35 v -25.566 h -69.23 v -27.219 h 61.01 v -25.57 h -61.01 V 676.43 h -28.12 v 127.851" /><path
         id="path38"
         style="fill:#231f20;fill-opacity:1;fill-rule:nonzero;stroke:none"
         d="m 2531.31,804.281 h 30.14 l 26.48,-86.574 28.68,86.938 h 24.11 l 28.68,-86.938 26.48,86.574 h 29.41 l -43.65,-128.765 h -24.48 l -28.86,83.652 -28.86,-83.652 h -24.47 l -43.66,128.765" /><path
         id="path40"
         style="fill:#231f20;fill-opacity:1;fill-rule:nonzero;stroke:none"
         d="m 2803.16,729.945 -16.99,41.457 -16.99,-41.457 z m -29.59,75.246 h 25.94 L 2854.3,676.43 h -29.41 l -11.69,28.675 h -54.06 l -11.69,-28.675 h -28.68 l 54.8,128.761" /><path
         id="path42"
         style="fill:#231f20;fill-opacity:1;fill-rule:nonzero;stroke:none"
         d="m 2887.41,778.348 h -38.91 v 25.933 h 105.94 v -25.933 h -38.91 V 676.43 h -28.12 v 101.918" /><path
         id="path44"
         style="fill:#231f20;fill-opacity:1;fill-rule:nonzero;stroke:none"
         d="m 2976.01,804.281 h 96.44 v -25.019 h -68.49 v -25.938 h 60.27 v -25.023 h -60.27 v -26.848 h 69.4 V 676.43 h -97.35 v 127.851" /><path
         id="path46"
         style="fill:#231f20;fill-opacity:1;fill-rule:nonzero;stroke:none"
         d="m 3155.05,742.18 c 13.7,0 21.56,7.304 21.56,18.082 v 0.367 c 0,12.055 -8.4,18.266 -22.1,18.266 h -27.95 V 742.18 Z m -56.62,62.101 h 58.45 c 16.26,0 28.86,-4.566 37.27,-12.965 7.11,-7.125 10.95,-17.171 10.95,-29.222 v -0.367 c 0,-20.641 -11.14,-33.61 -27.4,-39.633 l 31.23,-45.664 h -32.87 l -27.4,40.914 h -22.1 V 676.43 h -28.13 v 127.851" /><path
         id="path48"
         style="fill:#231f20;fill-opacity:1;fill-rule:nonzero;stroke:none"
         d="m 3230.52,804.281 h 28.13 V 702 h 63.75 v -25.57 h -91.88 v 127.851" /><path
         id="path50"
         style="fill:#231f20;fill-opacity:1;fill-rule:nonzero;stroke:none"
         d="m 3437.13,739.988 v 0.367 c 0,21.918 -16.07,40.184 -38.72,40.184 -22.64,0 -38.36,-17.898 -38.36,-39.816 v -0.368 c 0,-21.921 16.08,-40.179 38.73,-40.179 22.65,0 38.35,17.898 38.35,39.812 z m -106.48,0 v 0.367 c 0,36.348 28.68,66.118 68.13,66.118 39.45,0 67.76,-29.407 67.76,-65.75 v -0.368 c 0,-36.347 -28.67,-66.121 -68.13,-66.121 -39.45,0 -67.76,29.411 -67.76,65.754" /><path
         id="path52"
         style="fill:#231f20;fill-opacity:1;fill-rule:nonzero;stroke:none"
         d="m 3592.44,739.988 v 0.367 c 0,21.918 -16.08,40.184 -38.72,40.184 -22.65,0 -38.36,-17.898 -38.36,-39.816 v -0.368 c 0,-21.921 16.07,-40.179 38.73,-40.179 22.64,0 38.35,17.898 38.35,39.812 z m -106.49,0 v 0.367 c 0,36.348 28.68,66.118 68.14,66.118 39.44,0 67.75,-29.407 67.75,-65.75 v -0.368 c 0,-36.347 -28.67,-66.121 -68.12,-66.121 -39.46,0 -67.77,29.411 -67.77,65.754" /><path
         id="path54"
         style="fill:#231f20;fill-opacity:1;fill-rule:nonzero;stroke:none"
         d="m 992.563,610.461 h 83.557 v -17.965 h -63.83 v -30.629 h 56.61 V 543.91 h -56.61 v -45.703 h -19.727 v 112.254" /><path
         id="path56"
         style="fill:#231f20;fill-opacity:1;fill-rule:nonzero;stroke:none"
         d="m 1152.15,542.785 -19.4,44.903 -19.25,-44.903 z m -28.22,68.477 h 18.28 l 49.39,-113.055 h -20.84 l -11.39,27.098 h -53.09 l -11.54,-27.098 h -20.21 l 49.4,113.055" /><path
         id="path58"
         style="fill:#231f20;fill-opacity:1;fill-rule:nonzero;stroke:none"
         d="m 1198.85,554.012 v 0.316 c 0,31.914 23.89,58.059 57.89,58.059 20.69,0 33.2,-7.219 43.94,-17.481 l -12.67,-14.597 c -8.98,8.339 -18.6,13.953 -31.43,13.953 -21.33,0 -37.04,-17.637 -37.04,-39.61 v -0.324 c 0,-21.961 15.55,-39.773 37.04,-39.773 13.79,0 22.61,5.457 32.23,14.433 l 12.67,-12.824 c -11.7,-12.195 -24.53,-19.891 -45.54,-19.891 -32.72,0 -57.09,25.508 -57.09,57.739" /><path
         id="path60"
         style="fill:#231f20;fill-opacity:1;fill-rule:nonzero;stroke:none"
         d="m 1320.43,545.832 v 64.629 h 19.73 v -63.828 c 0,-20.848 10.74,-31.914 28.38,-31.914 17.49,0 28.23,10.422 28.23,31.113 v 64.629 h 19.72 v -63.664 c 0,-33.524 -18.92,-50.359 -48.27,-50.359 -29.18,0 -47.79,16.835 -47.79,49.394" /><path
         id="path62"
         style="fill:#231f20;fill-opacity:1;fill-rule:nonzero;stroke:none"
         d="m 1443.62,610.461 h 19.73 v -94.297 h 59.01 v -17.957 h -78.74 v 112.254" /><path
         id="path64"
         style="fill:#231f20;fill-opacity:1;fill-rule:nonzero;stroke:none"
         d="m 1554.46,592.176 h -35.6 v 18.285 h 91.09 v -18.285 h -35.6 v -93.969 h -19.89 v 93.969" /><path
         id="path66"
         style="fill:#231f20;fill-opacity:1;fill-rule:nonzero;stroke:none"
         d="m 1663.85,542.465 -44.58,67.996 h 23.41 l 31.28,-49.555 31.75,49.555 h 22.61 l -44.58,-67.52 v -44.734 h -19.89 v 44.258" /><path
         id="path68"
         style="fill:#231f20;fill-opacity:1;fill-rule:nonzero;stroke:none"
         d="m 1879.1,554.012 v 0.316 c 0,21.813 -15.88,39.934 -38.17,39.934 -22.29,0 -37.84,-17.797 -37.84,-39.61 v -0.324 c 0,-21.805 15.87,-39.773 38.16,-39.773 22.29,0 37.85,17.644 37.85,39.457 z m -96.7,0 v 0.316 c 0,31.598 24.37,58.059 58.85,58.059 34.48,0 58.54,-26.145 58.54,-57.735 v -0.324 c 0,-31.59 -24.38,-58.055 -58.86,-58.055 -34.48,0 -58.53,26.141 -58.53,57.739" /><path
         id="path70"
         style="fill:#231f20;fill-opacity:1;fill-rule:nonzero;stroke:none"
         d="m 1923.71,610.461 h 83.56 v -17.965 h -63.83 v -30.629 h 56.61 V 543.91 h -56.61 v -45.703 h -19.73 v 112.254" /><path
         id="path72"
         style="fill:#231f20;fill-opacity:1;fill-rule:nonzero;stroke:none"
         d="m 2069.52,514.555 11.87,14.121 c 10.74,-9.309 21.64,-14.59 35.44,-14.59 12.19,0 19.88,5.762 19.88,14.102 v 0.32 c 0,8.019 -4.49,12.355 -25.34,17.164 -23.89,5.769 -37.36,12.828 -37.36,33.516 v 0.324 c 0,19.242 16.03,32.551 38.33,32.551 16.36,0 29.34,-4.969 40.73,-14.11 l -10.58,-14.918 c -10.1,7.539 -20.21,11.547 -30.47,11.547 -11.55,0 -18.28,-5.934 -18.28,-13.309 v -0.324 c 0,-8.656 5.12,-12.504 26.77,-17.636 23.74,-5.778 35.93,-14.278 35.93,-32.879 v -0.313 c 0,-21.016 -16.52,-33.516 -40.1,-33.516 -17.16,0 -33.35,5.926 -46.82,17.95" /><path
         id="path74"
         style="fill:#231f20;fill-opacity:1;fill-rule:nonzero;stroke:none"
         d="m 2173.14,554.012 v 0.316 c 0,31.914 23.9,58.059 57.89,58.059 20.69,0 33.2,-7.219 43.95,-17.481 l -12.68,-14.597 c -8.97,8.339 -18.59,13.953 -31.43,13.953 -21.32,0 -37.05,-17.637 -37.05,-39.61 v -0.324 c 0,-21.961 15.56,-39.773 37.05,-39.773 13.79,0 22.61,5.457 32.24,14.433 l 12.67,-12.824 c -11.71,-12.195 -24.54,-19.891 -45.55,-19.891 -32.72,0 -57.09,25.508 -57.09,57.739" /><path
         id="path76"
         style="fill:#231f20;fill-opacity:1;fill-rule:nonzero;stroke:none"
         d="m 2296,610.461 h 19.73 V 498.207 H 2296 v 112.254" /><path
         id="path78"
         style="fill:#231f20;fill-opacity:1;fill-rule:nonzero;stroke:none"
         d="m 2345.73,610.461 h 83.23 V 592.82 h -63.51 v -29.187 h 56.29 v -17.645 h -56.29 v -30.144 h 64.31 v -17.637 h -84.03 v 112.254" /><path
         id="path80"
         style="fill:#231f20;fill-opacity:1;fill-rule:nonzero;stroke:none"
         d="m 2453.2,610.461 h 18.28 l 60.14,-77.625 v 77.625 h 19.4 V 498.207 h -16.51 l -61.91,79.856 v -79.856 h -19.4 v 112.254" /><path
         id="path82"
         style="fill:#231f20;fill-opacity:1;fill-rule:nonzero;stroke:none"
         d="m 2574.15,554.012 v 0.316 c 0,31.914 23.89,58.059 57.89,58.059 20.69,0 33.2,-7.219 43.94,-17.481 l -12.67,-14.597 c -8.98,8.339 -18.6,13.953 -31.43,13.953 -21.33,0 -37.05,-17.637 -37.05,-39.61 v -0.324 c 0,-21.961 15.56,-39.773 37.05,-39.773 13.79,0 22.61,5.457 32.24,14.433 l 12.66,-12.824 c -11.71,-12.195 -24.54,-19.891 -45.54,-19.891 -32.72,0 -57.09,25.508 -57.09,57.739" /><path
         id="path84"
         style="fill:#231f20;fill-opacity:1;fill-rule:nonzero;stroke:none"
         d="m 2697.5,610.461 h 83.23 V 592.82 h -63.51 v -29.187 h 56.29 v -17.645 h -56.29 v -30.144 h 64.31 v -17.637 h -84.03 v 112.254" /><path
         id="path86"
         style="fill:#231f20;fill-opacity:1;fill-rule:nonzero;stroke:none"
         d="m 1006.67,420.531 v -88.847 h 26.31 c 28.38,0 46.5,19.238 46.5,44.101 v 0.32 c 0,24.856 -18.12,44.426 -46.5,44.426 z m -12.662,11.699 h 38.972 c 35.28,0 59.65,-24.21 59.65,-55.8 v -0.325 c 0,-31.589 -24.37,-56.132 -59.65,-56.132 H 994.008 V 432.23" /><path
         id="path88"
         style="fill:#231f20;fill-opacity:1;fill-rule:nonzero;stroke:none"
         d="m 1171.72,366 c -1.28,15.078 -9.94,28.223 -26.46,28.223 -14.43,0 -25.33,-12.024 -26.94,-28.223 z m -65.9,-4.816 v 0.324 c 0,23.894 16.83,43.144 39.77,43.144 24.53,0 38.64,-19.57 38.64,-43.781 0,-1.609 0,-2.566 -0.16,-4.012 h -65.75 c 1.77,-17.961 14.43,-28.066 29.19,-28.066 11.39,0 19.4,4.648 26.14,11.707 l 7.7,-6.895 c -8.34,-9.304 -18.44,-15.554 -34.16,-15.554 -22.78,0 -41.37,17.48 -41.37,43.133" /><path
         id="path90"
         style="fill:#231f20;fill-opacity:1;fill-rule:nonzero;stroke:none"
         d="m 1276.95,361.184 v 0.324 c 0,19.57 -13.47,32.078 -29.19,32.078 -15.39,0 -29.99,-12.996 -29.99,-31.914 v -0.32 c 0,-19.25 14.6,-32.082 29.99,-32.082 16.04,0 29.19,11.875 29.19,31.914 z m -71.04,41.699 h 12.35 v -16.68 c 6.73,9.942 16.51,18.449 31.75,18.449 19.88,0 39.61,-15.722 39.61,-42.98 v -0.32 c 0,-27.102 -19.57,-43.145 -39.61,-43.145 -15.4,0 -25.34,8.34 -31.75,17.645 V 294.32 h -12.35 v 108.563" /><path
         id="path92"
         style="fill:#231f20;fill-opacity:1;fill-rule:nonzero;stroke:none"
         d="m 1367.26,350.441 v 8.02 c -6.09,1.766 -14.27,3.535 -24.37,3.535 -15.56,0 -24.22,-6.738 -24.22,-17.168 v -0.312 c 0,-10.43 9.62,-16.524 20.85,-16.524 15.23,0 27.74,9.305 27.74,22.449 z m -61.1,-6.414 v 0.321 c 0,17.48 14.44,26.789 35.44,26.789 10.59,0 18.12,-1.446 25.5,-3.535 v 2.89 c 0,14.91 -9.14,22.606 -24.7,22.606 -9.78,0 -17.48,-2.559 -25.17,-6.094 l -3.69,10.109 c 9.14,4.168 18.12,6.895 30.15,6.895 11.71,0 20.69,-3.047 26.78,-9.141 5.61,-5.617 8.5,-13.633 8.5,-24.219 v -50.675 h -11.87 v 12.511 c -5.77,-7.539 -15.4,-14.277 -29.99,-14.277 -15.4,0 -30.95,8.828 -30.95,25.82" /><path
         id="path94"
         style="fill:#231f20;fill-opacity:1;fill-rule:nonzero;stroke:none"
         d="m 1405.29,402.883 h 12.35 v -21.649 c 6.1,13.789 18.12,23.739 33.84,23.094 V 391.02 h -0.97 c -18.12,0 -32.87,-12.989 -32.87,-38.008 v -33.039 h -12.35 v 82.91" /><path
         id="path96"
         style="fill:#231f20;fill-opacity:1;fill-rule:nonzero;stroke:none"
         d="m 1477.79,341.945 v 50.032 h -11.54 v 10.906 h 11.54 v 25.019 h 12.35 v -25.019 h 26.31 v -10.906 h -26.31 v -48.43 c 0,-10.106 5.62,-13.789 13.96,-13.789 4.17,0 7.69,0.801 12.02,2.883 v -10.586 c -4.33,-2.239 -8.98,-3.528 -14.91,-3.528 -13.31,0 -23.42,6.575 -23.42,23.418" /><path
         id="path98"
         style="fill:#231f20;fill-opacity:1;fill-rule:nonzero;stroke:none"
         d="m 1538.27,402.883 h 12.35 V 388.93 c 5.45,8.183 12.83,15.722 26.78,15.722 13.47,0 22.13,-7.218 26.62,-16.523 5.94,9.141 14.75,16.523 29.19,16.523 19.08,0 30.79,-12.832 30.79,-33.359 v -51.32 h -12.35 v 48.429 c 0,16.043 -8.02,25.02 -21.49,25.02 -12.51,0 -22.77,-9.297 -22.77,-25.656 v -47.793 h -12.35 v 48.75 c 0,15.558 -8.18,24.699 -21.33,24.699 -13.15,0 -23.09,-10.899 -23.09,-26.145 v -47.304 h -12.35 v 82.91" /><path
         id="path100"
         style="fill:#231f20;fill-opacity:1;fill-rule:nonzero;stroke:none"
         d="m 1751.59,366 c -1.28,15.078 -9.94,28.223 -26.46,28.223 -14.43,0 -25.34,-12.024 -26.94,-28.223 z m -65.91,-4.816 v 0.324 c 0,23.894 16.84,43.144 39.77,43.144 24.54,0 38.65,-19.57 38.65,-43.781 0,-1.609 0,-2.566 -0.16,-4.012 h -65.75 c 1.77,-17.961 14.43,-28.066 29.19,-28.066 11.38,0 19.4,4.648 26.14,11.707 l 7.7,-6.895 c -8.34,-9.304 -18.45,-15.554 -34.16,-15.554 -22.78,0 -41.38,17.48 -41.38,43.133" /><path
         id="path102"
         style="fill:#231f20;fill-opacity:1;fill-rule:nonzero;stroke:none"
         d="m 1785.78,402.883 h 12.35 v -14.434 c 5.44,8.985 14.11,16.203 28.38,16.203 20.04,0 31.75,-13.476 31.75,-33.203 v -51.476 h -12.35 v 48.429 c 0,15.399 -8.34,25.02 -22.93,25.02 -14.27,0 -24.85,-10.422 -24.85,-25.977 v -47.472 h -12.35 v 82.91" /><path
         id="path104"
         style="fill:#231f20;fill-opacity:1;fill-rule:nonzero;stroke:none"
         d="m 1888.91,341.945 v 50.032 h -11.54 v 10.906 h 11.54 v 25.019 h 12.35 v -25.019 h 26.3 v -10.906 h -26.3 v -48.43 c 0,-10.106 5.62,-13.789 13.95,-13.789 4.17,0 7.7,0.801 12.03,2.883 v -10.586 c -4.33,-2.239 -8.98,-3.528 -14.91,-3.528 -13.31,0 -23.42,6.575 -23.42,23.418" /><path
         id="path106"
         style="fill:#231f20;fill-opacity:1;fill-rule:nonzero;stroke:none"
         d="m 2066.15,361.027 v 0.325 c 0,17.8 -13.31,32.39 -30.79,32.39 -17.97,0 -30.32,-14.59 -30.32,-32.07 v -0.32 c 0,-17.805 13.15,-32.239 30.63,-32.239 17.97,0 30.48,14.434 30.48,31.914 z m -73.77,0 v 0.325 c 0,23.406 18.28,43.3 43.29,43.3 24.86,0 43.14,-19.57 43.14,-42.98 v -0.32 c 0,-23.418 -18.44,-43.301 -43.45,-43.301 -24.86,0 -42.98,19.558 -42.98,42.976" /><path
         id="path108"
         style="fill:#231f20;fill-opacity:1;fill-rule:nonzero;stroke:none"
         d="m 2099.36,391.977 h -11.39 v 10.75 h 11.39 v 7.218 c 0,9.461 2.57,16.68 7.22,21.328 4.17,4.168 10.26,6.415 17.8,6.415 5.77,0 9.62,-0.645 13.63,-2.09 v -10.743 c -4.49,1.282 -7.86,2.083 -12.03,2.083 -9.62,0 -14.43,-5.774 -14.43,-17.637 v -6.738 h 26.3 v -10.586 h -26.15 v -72.004 h -12.34 v 72.004" /><path
         id="path110"
         style="fill:#231f20;fill-opacity:1;fill-rule:nonzero;stroke:none"
         d="m 2248.52,370.969 h -35.44 v -39.61 h 37.69 c 17,0 27.57,7.539 27.57,20.051 v 0.32 c 0,12.188 -10.26,19.239 -29.82,19.239 z m 23.57,31.594 c 0,11.062 -8.81,18.281 -24.85,18.281 h -34.16 v -38.645 h 33.19 c 15.24,0 25.82,6.895 25.82,20.039 z m -71.52,29.667 h 47.78 c 12.84,0 22.94,-3.683 29.36,-9.941 4.65,-4.805 7.22,-10.742 7.22,-17.961 v -0.32 c 0,-14.59 -8.99,-22.129 -17.81,-25.977 13.31,-4.015 24.06,-11.711 24.06,-27.109 v -0.313 c 0,-19.25 -16.19,-30.636 -40.74,-30.636 h -49.87 V 432.23" /><path
         id="path112"
         style="fill:#231f20;fill-opacity:1;fill-rule:nonzero;stroke:none"
         d="m 2315.42,402.883 h 12.35 v -82.91 h -12.35 z m -0.81,31.758 h 14.12 v -13.633 h -14.12 v 13.633" /><path
         id="path114"
         style="fill:#231f20;fill-opacity:1;fill-rule:nonzero;stroke:none"
         d="m 2425.12,361.027 v 0.325 c 0,17.8 -13.31,32.39 -30.79,32.39 -17.96,0 -30.31,-14.59 -30.31,-32.07 v -0.32 c 0,-17.805 13.15,-32.239 30.63,-32.239 17.96,0 30.47,14.434 30.47,31.914 z m -73.77,0 v 0.325 c 0,23.406 18.28,43.3 43.3,43.3 24.86,0 43.14,-19.57 43.14,-42.98 v -0.32 c 0,-23.418 -18.44,-43.301 -43.46,-43.301 -24.86,0 -42.98,19.558 -42.98,42.976" /><path
         id="path116"
         style="fill:#231f20;fill-opacity:1;fill-rule:nonzero;stroke:none"
         d="m 2461.23,437.043 h 12.35 v -117.07 h -12.35 v 117.07" /><path
         id="path118"
         style="fill:#231f20;fill-opacity:1;fill-rule:nonzero;stroke:none"
         d="m 2570.93,361.027 v 0.325 c 0,17.8 -13.31,32.39 -30.79,32.39 -17.96,0 -30.31,-14.59 -30.31,-32.07 v -0.32 c 0,-17.805 13.15,-32.239 30.63,-32.239 17.96,0 30.47,14.434 30.47,31.914 z m -73.77,0 v 0.325 c 0,23.406 18.28,43.3 43.3,43.3 24.86,0 43.14,-19.57 43.14,-42.98 v -0.32 c 0,-23.418 -18.44,-43.301 -43.46,-43.301 -24.86,0 -42.98,19.558 -42.98,42.976" /><path
         id="path120"
         style="fill:#231f20;fill-opacity:1;fill-rule:nonzero;stroke:none"
         d="m 2672.95,365.355 v 0.321 c 0,17.004 -14.75,28.066 -30.47,28.066 -15.72,0 -28.71,-10.906 -28.71,-27.898 v -0.324 c 0,-16.68 13.31,-28.223 28.71,-28.223 15.72,0 30.47,11.387 30.47,28.058 z m -67.99,-59.816 5.61,9.621 c 9.45,-6.894 20.04,-10.586 31.91,-10.586 18.29,0 30.15,10.106 30.15,29.512 v 9.785 c -7.21,-9.621 -17.32,-17.48 -32.56,-17.48 -19.88,0 -38.96,14.91 -38.96,38.808 v 0.321 c 0,24.218 19.24,39.132 38.96,39.132 15.56,0 25.67,-7.695 32.4,-16.679 v 14.91 h 12.35 v -68.477 c 0,-12.832 -3.85,-22.617 -10.59,-29.343 -7.37,-7.383 -18.44,-11.067 -31.59,-11.067 -13.79,0 -26.62,3.848 -37.68,11.543" /><path
         id="path122"
         style="fill:#231f20;fill-opacity:1;fill-rule:nonzero;stroke:none"
         d="m 2774.49,402.883 h 13.14 l -34.79,-85.633 c -7.06,-17.16 -15.08,-23.418 -27.59,-23.418 -6.9,0 -12.03,1.445 -17.64,4.168 l 4.17,9.785 c 4.01,-2.09 7.7,-3.047 12.99,-3.047 7.37,0 12.02,3.848 16.99,15.559 l -37.68,82.586 h 13.63 l 30.16,-69.121 26.62,69.121" /><path
         id="path124"
         style="fill:#ffffff;fill-opacity:1;fill-rule:nonzero;stroke:none"
         d="m 646.723,286.535 -5.496,2.559 c -61.129,28.281 -110.457,69.355 -142.672,118.808 -77.266,118.547 -79.828,241.016 -82.516,370.653 -0.199,9.851 -0.434,19.683 -0.664,29.566 l -0.316,13.395 h 463.07 l -0.316,-13.395 c -0.258,-9.933 -0.469,-19.867 -0.665,-29.75 -2.73,-129.574 -5.289,-251.98 -82.519,-370.469 -32.156,-49.363 -81.391,-90.418 -142.402,-118.808 l -5.504,-2.559" /><path
         id="path126"
         style="fill:#fcd634;fill-opacity:1;fill-rule:nonzero;stroke:none"
         d="M 825.852,514.242 646.676,649.543 468.984,509.477 c -33,93.789 -31.726,191.394 -34.171,291.562 H 858.355 C 855.973,702.582 857.148,606.59 825.852,514.242" /><path
         id="path128"
         style="fill:#fcd634;fill-opacity:1;fill-rule:nonzero;stroke:none"
         d="m 801.324,456.281 c -6.445,-12.488 -13.613,-24.851 -21.64,-37.187 -32.286,-49.571 -80.254,-86.231 -132.981,-110.731 -52.957,24.5 -100.89,61.16 -133.195,110.731 -6.945,10.636 -13.235,21.281 -18.934,32.004 L 646.676,579.313 801.324,456.281" /><path
         id="path130"
         style="fill:none;stroke:#231f20;stroke-width:8.22789001;stroke-linecap:butt;stroke-linejoin:miter;stroke-miterlimit:4;stroke-dasharray:none;stroke-opacity:1"
         d="m 646.703,308.363 c -52.957,24.5 -100.89,61.16 -133.195,110.731 -78.719,120.812 -75.457,249.129 -78.695,381.945 H 858.355 C 855.098,668.223 858.406,539.906 779.684,419.094 747.398,369.523 699.43,332.863 646.703,308.363 Z" /><path
         id="path132"
         style="fill:#cf113f;fill-opacity:1;fill-rule:nonzero;stroke:none"
         d="m 522.793,728.48 c -21.461,4.551 -40.551,20.469 -35.938,40.727 0.055,0.199 -0.832,5.254 -2.667,5.934 -0.149,0.078 -0.454,0.629 -0.782,0.714 -0.816,0.204 -1.488,0.559 -2.179,1.063 -0.235,0.187 -1.227,0.512 -1.227,0.887 -0.406,-0.832 -0.316,-1.629 -0.875,-2.348 -0.207,-0.277 -0.52,-0.719 -0.84,-0.863 -0.379,-0.184 -0.414,-0.567 -0.703,-0.817 -1.613,-1.632 -0.746,-4.082 -0.496,-5.929 0.082,-0.465 0.273,-1.051 -0.305,-1.145 -0.683,-0.144 -0.136,0.199 -0.926,0.68 -0.171,0.121 -0.46,0.414 -0.66,0.519 -0.34,0.157 -1.672,0.336 -1.898,0.68 -0.231,0.348 -0.133,0.449 -0.461,0.746 -0.742,0.668 -0.816,1.985 -1.359,3.36 -0.106,0.226 -0.309,1.445 -0.309,1.722 0,1.36 -3.512,3.531 -2.148,2.403 0.476,-0.348 -0.055,0.593 -1.942,1.035 -1.176,0.304 -2.551,0.25 -3.879,0.058 -0.273,-0.011 -0.543,-0.222 -0.726,-0.375 -1.36,-1.066 -2.637,-2.351 -4.414,-2.429 0.304,0.195 0.453,-0.153 0.609,-0.325 0.844,-1.097 0.215,-2.422 0.719,-3.621 0.508,-1.191 1.359,-2.07 2.367,-2.918 0.973,-0.734 2.676,0.27 3.437,-1.066 0,0.031 1.582,-0.375 0.008,-1.934 -2.879,-2.925 -6.078,-0.593 -8.5,-5.953 3.637,1.547 4.047,-3.984 5.59,-4.172 6.906,-0.933 12.164,-2.144 15.957,-9.187 2.317,-4.262 -4.137,-4.461 1.703,-5.465 2.985,-0.5 4.969,-2.027 6.473,-4.102 1.57,-2.214 1.777,-5.199 3.484,-7.265 1.223,-1.457 1.68,-1.766 3.153,-3 0.671,-0.539 2.796,-1.117 3.613,-1.297 0.789,-0.242 1.266,-0.645 2.012,-0.91 0.812,-0.289 1.668,-0.578 2.347,-1.133 0.59,-0.488 2.051,-0.992 2.375,-1.637 0.614,-1.191 0.114,-2.394 0.758,-3.57 0.188,-0.332 1.106,-0.035 1.477,-0.164 0.367,-0.129 1.183,-0.184 1.41,-0.129 1.41,0.312 1.742,0.398 2.785,0.539 1.605,0.176 1.426,-0.332 3.488,-0.227 0.449,0 0.617,-0.312 1.207,-0.312 0.403,0 1.106,-0.43 1.215,-0.074 0.641,1.968 1.656,3.867 2.813,5.797 1.164,1.898 1.058,2.097 2.531,4.101 -0.172,-0.043 1.89,1.383 1.703,1.402" /><path
         id="path134"
         style="fill:#cf113f;fill-opacity:1;fill-rule:nonzero;stroke:none"
         d="m 469.27,725.953 c 6.296,-3.344 5.449,-11.703 11.089,-14.418 10.079,-4.777 22.102,-8.086 32.817,-2.82 -2.391,-7.422 0.242,-13.688 -0.781,-14.52 -3.368,-2.703 -13.586,0.516 -20.145,3.118 -4.512,1.777 -8.168,-4.899 -13.148,-4.321 0.25,0.578 0.824,2.285 0.492,3.356 -0.789,2.433 -1.43,3.117 -5.461,2.644 -2.606,-0.289 -1.52,-2.402 -5.406,-4.359 -1.555,0.922 -4.836,1.957 -5.325,-0.957 -0.226,-1.383 -2.964,4.734 -2.394,5.769 2.551,4.575 3.055,5.657 2.883,6.633 -0.317,1.504 -5.832,3.535 -6.547,2.246 -1.723,-2.98 -6.813,9.746 8.176,8.93 -4.02,2.582 -3.567,3.027 -2.625,6.09 0.117,0.433 -1.395,2.019 -2.426,0.941 -0.332,1.184 0.469,2.449 1.394,2.574 2.485,0.364 4.895,0.508 7.407,-0.906" /><path
         id="path136"
         style="fill:#cf113f;fill-opacity:1;fill-rule:nonzero;stroke:none"
         d="m 499.043,756.813 c 9.078,-2.09 22.668,9.625 30.551,-4.192 -5.817,2.137 -23.035,-7.086 -30.551,4.192" /><path
         id="path138"
         style="fill:#cf113f;fill-opacity:1;fill-rule:nonzero;stroke:none"
         d="m 575.012,736.723 c -0.176,-11.813 -12.438,-24.586 -2.489,-35.883 -4.078,0.051 -8.89,1.465 -11.718,3.758 -1.582,1.269 -1.231,-5.641 -1.008,-7.067 0.176,-1.199 -7.551,7.289 -10.445,5.239 -8.215,-5.918 -11.77,-8.336 -23.965,-8.79 -3.383,-0.121 -5.153,-2.855 -6.106,-5.804 -2.758,5.656 -0.722,18.492 0.871,24.199 4.313,15.648 20.047,20.277 32.657,27.801 9.027,5.359 12.898,15.89 12.441,26.125 6.422,-8.039 9.906,-19.512 9.762,-29.578" /><path
         id="path140"
         style="fill:#cf113f;fill-opacity:1;fill-rule:nonzero;stroke:none"
         d="m 517.305,603.473 c 1.527,-0.364 0.39,-1.633 -0.219,-2.024 -1.242,-0.832 -2.121,-1.855 -2.902,-3.078 -0.598,-0.957 -1.039,-1.937 -0.789,-3.113 0.136,-0.836 0.429,-1.563 0.75,-2.403 0.195,-0.449 0.636,-0.695 0.992,-1.085 0.168,-0.165 0.707,-0.844 0.726,-0.918 -0.336,1.203 1.348,2.371 1.711,2.16 7.821,-4.543 8.281,4.668 12.957,7.781 1.996,1.34 6.473,-0.219 5.328,-4.273 4.668,2.515 6.032,8.738 9.664,12.687 8.036,8.695 19.29,14.516 29.973,19.223 -3.875,4.101 -9.558,7.574 -12.437,12.269 -1.434,2.324 -3.137,6.899 0.031,6.051 13.137,-3.426 20.5,4.57 21.945,14.906 19.445,-2.504 24.531,15.895 27.149,29.77 1.254,6.75 4.961,7.355 0.925,18.82 -1.699,4.805 8.606,6.379 6.868,14.676 -0.489,2.301 -3.332,4.601 -4.993,4.859 1.586,-4.488 -5.898,-5.586 -6.726,-7.437 -1.25,-2.864 -3.106,-5.145 -3.352,-8.133 -6.332,8.766 -1.207,19.332 4.739,27.539 8.683,11.93 26.683,5.656 34.261,-2.031 0.153,3.867 -2.851,8.773 -5.316,11.125 7.086,0.941 14.765,-3.395 24.453,1.73 5.574,2.985 11.199,5.543 13.812,12.106 -11.867,-1.625 -27.953,7.496 -38.636,9.379 -19.938,3.472 -33.313,-10.125 -40.446,-26.356 -7.113,-16.176 -2.558,-28.293 5.157,-40.39 1.941,-3.051 -6.844,-1.079 -10.317,-2.864 -3.359,-1.73 -4.754,-5.89 -3.965,-9.562 4.223,4.558 15.508,1.758 16.52,-6.086 1.387,-10.524 -9.238,-25.863 -19.504,-21.278 -10.992,4.946 -17.23,16.536 -20.851,29.555 -9.418,-8.074 -26.778,-1.383 -34.852,-9.293 -7.66,-7.519 11.973,-12.601 19.602,-16.152 2.816,-1.324 5.628,-4.18 5.167,-7.762 -11.96,7.051 -26.378,-0.914 -25.691,-13.719 0.555,-9.554 12.246,-15.496 21.992,-16.297 4.047,-0.355 6.508,-4.847 1.551,-7.945 -8.633,-5.402 -18.289,-11.433 -27.605,-1.652 -1.559,1.613 -7.157,0.59 -8.258,-2.387 -0.524,-1.441 -0.707,-3.664 -0.485,-5.101 0.508,0.871 1.106,2.132 1.887,2.054 0.91,-0.152 2.031,-1.109 1.906,-1.808 -0.804,-4.778 -7.101,-1.68 -9.058,-5.399 -0.028,-0.097 -0.133,-0.164 -0.192,-0.258 -0.113,-0.296 -0.273,-0.554 -0.425,-0.839 -1.274,-2.52 -3.016,-4.129 0.113,-6.079 -0.078,0.446 1.562,-2.046 1.527,-2.48 0.141,2.312 2.539,2.281 2.539,2.281 l 1.407,-0.168 1.367,-0.601" /><path
         id="path142"
         style="fill:#cf113f;fill-opacity:1;fill-rule:nonzero;stroke:none"
         d="m 476.781,648.5 c -1.222,0.363 -2.519,-0.082 -3.738,-0.645 -0.793,-0.328 -1.742,0.043 -2.191,-0.75 -0.289,-0.488 -0.481,-1.011 -0.305,-1.57 0.062,-0.316 0.183,-0.82 0.449,-1.019 -1.656,0.144 -3.183,1.254 -4.449,2.382 -0.395,0.368 -0.656,0.801 -1.043,1.165 -0.27,0.265 -0.223,0.753 -0.387,1.109 -0.179,0.402 -0.113,0.816 -0.113,1.234 -0.039,1.141 -0.066,2.297 0.434,3.34 0.246,0.481 0.464,0.957 0.828,1.367 0.265,0.348 0.543,0.614 0.843,0.926 0.829,0.801 1.762,1.391 2.887,1.738 1.609,0.489 3.383,0.34 4.91,-0.347 1.231,-0.524 2.715,-0.453 4.012,-0.801 0.676,-0.191 1.973,1.781 1.047,2.027 -4.098,0.985 -4.07,2.071 -5.594,6.227 -0.719,0.789 -1.644,-0.133 -2.043,-0.543 -0.023,7.898 9.367,8.422 13.309,5.281 5.801,-4.656 1.441,-13.828 8.586,-16.351 3.715,-1.305 7.648,-2.317 11.5,-0.7 6.898,2.926 0.007,9.875 2.23,15.719 4.524,11.879 14.492,12.465 26.383,1.078 -10.641,-3.504 -15.609,-17.609 -9.801,-26.902 -9.375,3.707 -21.191,-2.492 -27.781,-6.703 6.137,6.136 -2.469,11.066 -4.649,10.008 l -2.597,-1.832 c -1.254,-1.583 -1.363,-3.215 -2.899,-4.754 -0.882,-0.797 -1.355,-0.957 -2.488,-1.266 -1.558,-0.402 -2.527,-0.277 -3.918,0.609 -0.254,0.157 -1.078,-0.183 -1.25,-0.386 -0.762,-0.922 -0.015,-1.379 -0.035,-1.703 -0.152,0.089 -1.129,0.871 -1.266,0.992 -0.898,0.656 -1.914,1.254 -2.457,2.168 -0.554,0.863 -0.933,3.179 -0.308,4.457 0.636,1.215 1.867,1.629 2.695,2.461 0.777,0.781 -0.144,2.023 -1.105,2.16" /><path
         id="path144"
         style="fill:#cf113f;fill-opacity:1;fill-rule:nonzero;stroke:none"
         d="m 705,753.02 c 0.867,-0.555 -0.043,-2.071 -1.02,-2.332 -1.148,-0.348 -2.746,0.156 -3.73,-0.258 -4.469,-1.649 -4.484,-12.649 -3.879,-11.344 0.672,1.398 3.977,0.477 6.106,0.07 3.453,-0.722 6.062,6.313 8.336,6.102 5.371,-0.488 10.386,-7.172 12.445,-11.574 0.363,-0.793 -2.25,-0.84 -2.442,-3.5 7.321,0.679 13.508,-4.075 18.789,-8.422 2.579,4.472 5.168,7.254 8.098,10.144 -10.98,10.723 -32.867,14.02 -29.496,33.555 0.449,2.492 -2.387,4.703 -3.629,5.937 -1.426,1.36 -4.68,1.457 -6.668,1.934 2.094,-4.355 -1.68,-4.75 -1.133,-11.644 0,-0.211 -0.629,-0.055 -0.847,0.015 -1.325,0.586 -2.45,1.406 -3.703,2.168 -1.122,0.711 -2.188,0.531 -3.442,0.356 -0.758,-0.102 -1.449,-0.446 -2.09,-0.903 -1.035,-0.765 -1.566,-1.726 -2.304,-2.769 -0.145,-0.211 -0.289,-0.403 -0.446,-0.625 -0.218,-0.219 -0.691,-0.942 -0.742,-1.325 0.598,0.071 2.348,-0.085 2.66,-0.535 0.508,-0.8 0.528,-1.722 1.145,-2.492 0.746,-0.976 1.371,-0.984 2.484,-1.465 1.699,-0.711 3.223,-1.043 5.102,-0.883" /><path
         id="path146"
         style="fill:#cf113f;fill-opacity:1;fill-rule:nonzero;stroke:none"
         d="m 733.457,760.867 c 6.875,0.496 13.672,5.762 21.27,-3.129 -1.391,0.68 -3.039,0.91 -3.875,0.207 -8.411,-6.75 -18.602,-4.465 -23.997,3.922 2.188,0.344 4.833,-1.137 6.602,-1" /><path
         id="path148"
         style="fill:#cf113f;fill-opacity:1;fill-rule:nonzero;stroke:none"
         d="m 763.18,735.926 c 11.285,5.726 22.711,10.308 27.34,24.328 0.906,2.723 3,-4.066 3.152,-4.465 5.953,-17.074 -5.942,-34.082 -3.492,-51.492 -3.989,2.445 -8.461,4.094 -12.813,4.219 -15.492,0.453 -19.164,-8.95 -20.058,-8.094 -4.239,4.316 -16.446,7.969 -15.547,7.16 -7.266,6.691 13.648,24.395 21.418,28.344" /><path
         id="path150"
         style="fill:#cf113f;fill-opacity:1;fill-rule:nonzero;stroke:none"
         d="m 732.336,622.219 c 1.547,-2.403 -0.52,1.34 1.238,-2.703 8.188,3.418 16.629,7.312 25.668,3.675 -4.008,18.352 9.418,22.825 10.485,25.594 1.691,4.399 -7.262,13.172 -14.024,10.703 -8.625,-3.05 -5.023,-13.953 -6.664,-21.57 -0.879,-4.215 -6.109,-7.285 -10.434,-5.797 -7.14,2.457 -10.007,9.113 -11.75,16.574 -1.175,4.95 -10.847,5.551 -12.949,1.481 -5.926,-11.516 3.551,1.371 2.93,-7.418 -0.106,-1.473 -6.938,-0.383 -8.469,-5.539 -1.031,-3.547 2.332,-5.934 6.531,-7.145 0.786,-0.246 -0.816,1.754 0.258,2.192 0.762,0.265 3.864,-1.379 3.492,-1.555 -4.07,-2.523 -5.109,-8.281 2.168,-10.789 0.036,0 -0.546,2.09 0,2.488 5.676,4.246 11.618,-0.32 11.618,-0.191" /><path
         id="path152"
         style="fill:#cf113f;fill-opacity:1;fill-rule:nonzero;stroke:none"
         d="m 609.43,506.027 c 6.804,-3.164 8.984,0.227 17.929,1.653 1.25,0.215 6.27,-3.078 7.743,-4.727 -8.957,-1.406 -19.86,-9.199 -25.672,3.074" /><path
         id="path154"
         style="fill:#cf113f;fill-opacity:1;fill-rule:nonzero;stroke:none"
         d="m 605.82,498.859 c -0.433,0.469 -1.047,0.657 -1.582,0.852 -0.543,0.262 -1.136,0.449 -1.797,0.555 -0.152,0.05 -1.265,0.304 -1.445,0.363 -0.051,-0.43 0.473,-1.477 0.18,-1.699 -0.707,-0.684 -0.957,-0.508 -1.547,-1.379 -0.211,-0.34 -0.441,-0.692 -0.508,-1.024 -0.152,-0.839 -0.512,-1.691 -0.609,-2.597 -0.028,-0.45 0.172,-1.524 0.273,-1.946 0.043,-0.203 0.528,-1.16 0.664,-1.414 0,0 1.086,-1.183 1.02,-1.132 1.273,-1.262 0.246,-0.52 1.781,-2.051 0.797,-0.762 -0.359,-2.071 -1.117,-1.848 -5.254,1.516 -5.992,7.609 -10.778,9.504 -3.468,1.328 -8.492,-1.367 -9.027,-6.699 1.176,0.371 2.395,-0.117 2.621,-1.094 1.301,-5.344 9.137,-2.141 9.309,-5.918 0.156,-2.422 -5.871,0.438 -8.238,-1.113 -3.122,-2.11 -3.559,-8.125 -0.79,-11.641 2.856,2.735 6.399,-1.262 9.184,0.742 1.93,1.375 2.609,3.348 4.594,4.2 6.012,2.664 7.812,-2.891 6.472,-8.45 3.239,1.516 10.891,3.067 12.637,3.575 3.176,0.851 3.321,8.175 7.203,10.859 -5.504,0.051 -12.312,2.402 -13.851,7.793 -0.149,0.558 0.246,1.242 0.297,1.887 0.152,2.05 -0.051,4.023 -0.828,5.898 -0.059,0.234 -0.27,0.43 -0.434,0.684 -0.203,0.293 -0.395,0.625 -0.602,0.957 -0.55,0.742 -1.367,1.093 -2.144,1.621 -0.348,0.164 -0.781,0.254 -1.028,0.586" /><path
         id="path156"
         style="fill:#cf113f;fill-opacity:1;fill-rule:nonzero;stroke:none"
         d="m 565.352,460.949 c 2.398,-4.676 -9.461,2.766 -13.911,-4.121 -1.441,-2.234 -0.664,-7.246 -0.664,-10.047 2.723,2.461 5.453,-2.246 10.536,2.227 0.562,-0.488 1.167,-0.813 0.398,-1.602 -1.887,-1.894 -2.934,-4.238 -1.938,-6.523 0.622,-1.477 4.852,-4.453 4.868,-4.25 0.441,3.097 5.656,0 6.468,6.027 0.36,2.5 1.082,6.582 4.676,5.098 3.274,-1.34 3.949,-5.051 3.176,-8.723 5.219,1.711 14.375,7.051 19.852,3.086 7.355,-5.332 19.429,-7.488 28.027,-10.183 -5.707,3.984 -7.524,14.343 -6.563,21.062 -13.539,-2.664 -27.777,-2.195 -40.336,3.613 -3.433,1.575 -2.972,5.559 -4.011,8.828 -1.149,3.672 -5.801,7.063 -10,6.77 -2.262,-0.156 -7.692,-4.941 -6.649,-5.148 -0.343,0.05 -0.332,-0.704 -0.527,-1.043 1.019,0.644 2.32,0 2.773,-1.114 0.325,-0.734 0.657,-1.601 1.289,-2.218 0.778,-0.762 2.11,-0.938 2.536,-1.739" /><path
         id="path158"
         style="fill:#cf113f;fill-opacity:1;fill-rule:nonzero;stroke:none"
         d="m 597.844,386.887 c 2.605,3.222 4.785,1.515 5.941,1.504 2.746,-0.125 2.57,-3.973 2.285,-6.465 10.778,5.226 21.039,12.637 33.688,9.922 -7.375,7.734 -4.77,24.269 5.637,26.289 0.035,0 -6.704,1.113 -7.415,1.523 -9.05,5.754 -20.113,11.231 -26.195,-0.801 -3.019,-5.945 2.528,-10.789 6.688,-15.73 0.738,-0.899 -0.477,-1.406 -1.43,-1.691 -9.91,-2.52 -28.121,-4.012 -28.957,10.792 -0.09,1.504 -3.906,2.735 -6.375,2.665 -7.324,-0.223 -7.215,-9.551 -6.395,-8.926 1.625,1.23 6.52,0.801 5.938,-2.977 -0.551,-3.476 -7.402,1.875 -10.106,-1.652 -2.285,-2.93 -2.23,-7.742 -0.601,-11.024 -0.309,1.2 1.047,2.09 1.801,2.235 7.593,1.269 8.035,-1.375 5.781,-8.758 -0.176,-0.578 2.23,-5.188 3.836,-5.625 -0.129,0.059 -0.102,1.082 0.125,1.414 0.211,0.363 0.57,0.625 0.969,0.742 0.82,0.305 1.644,0.235 2.488,0.442 0.394,0.136 0.703,0.379 1.074,0.625 0.598,0.351 1.008,0.886 1.442,1.425 1.765,2.247 3.324,5.086 6.289,5.36 1.394,0.148 2.273,-0.488 3.445,-1.231" /><path
         id="path160"
         style="fill:#cf113f;fill-opacity:1;fill-rule:nonzero;stroke:none"
         d="m 676.441,352.551 c 6.938,6.906 11.957,16.105 19.387,22.832 -8.137,4.805 -18.226,9.816 -19.308,20.558 -0.079,0.711 1.148,1.532 1.414,1.426 11.328,-6.387 26.613,-6.855 34.765,4.688 6.594,9.343 9.442,24.539 22.297,25.371 -4.273,8.25 0.539,17.734 7.582,22.051 -2.379,0.906 -5.437,2.878 -8.105,2.351 -3.239,-0.555 -4.637,-4.941 -8.34,-5.652 5.824,19.629 -5.418,47.031 -27.016,46.543 -4.051,-0.078 -9.289,-3.332 -10.621,-7.766 -1.246,-4.18 -1.879,-9.433 1.113,-13.008 7.086,-8.476 12.192,-17.695 9.957,-28.906 5.039,4.367 9.688,10.774 9.52,17.598 -0.027,1.718 3.059,0.488 3.531,1.183 5.903,8.672 -3.754,14.012 -8.855,19.481 -1.426,1.476 2.179,3.762 2.64,3.566 18.516,-5.519 20.278,-28.32 12.332,-43.164 -2.109,2.645 -9.949,1.758 -12.605,2.676 8.672,-4.348 6.43,-4.973 6.043,-6.438 -0.641,-2.597 -8.41,-1.464 -9.922,-3.378 -2.586,-3.321 -4.555,-4.805 -4.754,-15.84 3.582,3.898 8.301,9.785 13.406,7.14 10.899,-5.586 -0.535,-24.433 -10.824,-27.57 -8.793,-2.645 -16.914,0.117 -22.344,7.812 -7.879,11.075 -2.175,24.454 -7.746,35.696 -4.679,-1.145 -3.609,-7.238 -6.019,-6.153 -8.563,3.965 -13.426,13.114 -19.637,20.809 -2.578,-0.957 -3.707,-3.301 -6.184,-3.203 -3.679,0.156 -10.582,1.289 -12.062,-0.555 -1.711,-2.14 -2.949,-17.695 12.184,-23.34 10.285,-3.847 18.414,-7.238 24.875,-15.265 -4.336,-0.36 -5.844,1.758 -9.379,1.886 -3.508,0.137 -5.715,-1.261 -8.336,-2.597 -2.532,-1.309 -5.485,-6.25 -4.969,-10.195 2.355,-18.86 24.48,-19.063 34.66,-31.016 1.75,-1.992 -2.672,-10.188 -6.836,-13.516 -3.551,-2.832 -12.058,4.285 -10.687,10.313 1.129,4.785 -10.493,7.988 -14.539,2.5 1.605,0.156 2.015,-0.891 1.863,-1.633 -0.723,-4.461 4.785,-4.617 4.609,-6.863 -0.261,-3.118 -2.933,1.308 -5.078,1.687 -4.664,0.957 -9.348,-0.672 -12.082,-4.433 -0.816,-1.133 -2.664,-2.957 -1.859,-4.852 3.593,1.738 5.461,-3.828 8.789,-2.129 2.047,1.043 3.695,2.852 6.16,2.227 0.961,-0.246 1.965,-1.563 1.082,-2.16 -6.523,-4.168 -11.746,-10.059 -7.031,-16.727 0.133,1.59 1.355,2.664 2.375,2.949 1.883,0.516 4.418,-0.773 6.273,-0.156 3.024,0.984 1.465,4.031 2.621,6.172 1.801,3.418 7.969,9.051 11.442,4.929 0.648,-0.73 0.144,-3.445 -1.711,-3.535 1.898,0.09 3.621,-1.804 5.254,-1.445 0.457,0.051 0.929,0.051 1.367,0.266 0.363,0.175 0.781,0.254 1.043,0.574 0.773,0.781 1.66,1.562 1.789,2.805 1.383,-0.129 3.156,-0.266 4.082,0.937 0.891,1.18 1.988,2.137 2.98,3.027" /><path
         id="path162"
         style="fill:#cf113f;fill-opacity:1;fill-rule:nonzero;stroke:none"
         d="m 644.883,488.781 c 12.133,3.371 25.613,9.719 28.519,23.184 3.676,-2.215 4.84,-7.274 4.864,-10.34 0.285,-16.887 -7.106,-31.465 -3.52,-49.172 0.399,-2 4.047,-8.262 2.399,-7.519 -2.024,0.89 -6.301,4.914 -8.637,3.066 -2.934,-2.312 -2.742,-5.957 -4.172,-5.098 -5.32,3.215 -10.961,8.02 -13.555,14.2 -0.98,2.316 -0.578,7.343 -1.238,6.613 -4.047,-4.395 -12.348,-5.344 -18.484,-6.262 1.398,1.25 2.652,6.25 2.414,7.297 -4.828,2.43 -11.762,-5.84 -11.657,-4.797 0.258,2.668 0.543,3.508 0.813,4.25 3.609,10.547 10.391,21.328 22.254,24.578" /><path
         id="path164"
         style="fill:#cf113f;fill-opacity:1;fill-rule:nonzero;stroke:none"
         d="m 546.137,769.887 c 0.508,0.222 0.765,0.574 0.703,0.633 -4.395,6.171 -9.692,5.543 -11.934,0.043 -1.523,-3.7 7.336,-2.504 11.231,-0.676 m 8.593,6.527 c 3.153,0.094 5.465,2.035 7.489,4.16 -0.172,-1.765 2.422,-4.277 1.469,-6.164 -1.208,-2.367 -4.25,-3.812 -4.817,-5.988 -1.269,-4.488 2.359,-8.91 -0.297,-13.363 -7.781,-13.207 -24.785,-8.864 -36.394,-11.735 0.8,1.395 -0.188,3.512 -1.082,4.082 5.156,-0.617 12.031,0.477 13.41,4.379 1.668,4.809 2.539,8.367 0.262,12.305 -3.696,6.543 -11.43,3.496 -17.235,1.215 -0.914,4.058 2.891,6.531 5.082,7.086 6.145,1.601 11.719,4.281 17.457,6.418 5.008,1.886 9.535,-2.512 14.656,-2.395" /><path
         id="path166"
         style="fill:#cf113f;fill-opacity:1;fill-rule:nonzero;stroke:none"
         d="m 771.445,772.234 c 0.481,0.262 -0.394,-0.398 0.004,0.008 -4.804,2.395 -11.062,5.563 -13.246,-0.844 -1.617,-4.714 9.067,-1.433 13.242,0.836 m 7.692,-20.648 c -1.66,-1.422 -4.434,-1.379 -6.309,-2.672 -1.152,-0.82 -2.187,-1.637 -3.39,-2.387 -0.559,-0.332 -2.215,-1.058 -2.829,-1.234 -1.703,-0.418 -1.339,-0.227 -2.91,-0.418 -0.922,-0.156 -1.351,-0.176 -2.297,-0.176 -0.929,0 -3.804,-0.105 -4.714,-0.066 -2.211,0.035 -2.586,-0.121 -4.809,0.242 -1.266,0.191 -2.481,0.516 -3.68,0.957 -0.801,0.246 -1.656,0.402 -2.496,0.402 0.078,0.903 0.192,1.86 0.895,2.469 0.925,0.77 1.105,0.07 2.441,0.172 0.055,0.02 1.918,-0.148 1.981,-0.148 0.304,0.046 0.668,0.046 1.015,0.054 0.567,0.094 1.063,0.215 1.582,0.461 0.668,0.332 1.387,0.524 1.985,1 0.203,0.188 0.457,0.321 0.668,0.586 0.445,0.383 1.035,0.57 1.441,1.082 1.242,1.57 2.199,3.059 2.332,5.039 0.133,1.469 0.238,2.973 -0.016,4.492 -0.047,0.227 -0.101,0.457 -0.117,0.7 -0.07,1.183 -0.668,2.261 -1.234,3.32 -3.36,6.418 -11.449,0.141 -16.996,0.445 0,1.199 -0.121,3.473 0.504,4.258 3.961,5.133 10.074,2.594 13.242,4.938 10.664,7.89 13.496,2.214 24.64,-0.844 3.329,-0.957 8.137,1.156 11.289,2.523 0.778,0.324 0.758,-4.738 0.375,-5.738 -1.324,-3.539 -4.992,-3.352 -6.265,-6.539 -1.875,-4.645 -2.168,-11.191 -7.086,-13.52" /><path
         id="path168"
         style="fill:#cf113f;fill-opacity:1;fill-rule:nonzero;stroke:none"
         d="m 645.547,514.555 c 1.902,-0.703 7.566,2.422 9.609,3.574 0.496,0.273 0.856,0.742 1.25,1.172 0.02,0.039 -0.043,0.164 -0.129,0.164 -1.629,0.332 -3.097,0.461 -4.679,0.644 -1.176,0.157 -2.067,0.93 -3.274,1.164 -0.301,0.079 -0.597,0.02 -0.906,-0.078 -0.465,-0.195 -0.621,-0.507 -0.996,-0.703 -0.567,-0.226 -1.371,-0.226 -1.906,-0.695 -0.528,-0.496 -0.985,-0.957 -1.133,-1.649 -0.231,-0.773 -0.039,-1.914 0.5,-2.597 0.426,-0.528 1.074,-0.801 1.664,-0.996 m 14.656,8.621 c 4.934,-1.16 10.324,-1.309 13.508,3.008 1.57,-6.7 -4.563,-7.528 -5.688,-10.789 -1.73,-4.961 -1.613,-9.961 -6.437,-12.532 -9.59,-5.117 -21.602,-11.277 -32.606,-12.136 0.09,1.347 -0.832,3.816 0.926,3.906 3.848,0.156 6.856,3.027 7.735,5.32 1.183,3.195 -0.176,10.871 -3.051,12.375 -3.317,1.738 -6.223,-0.937 -9.281,-2.277 -1.262,3.359 4,8.965 12.246,8.476 -0.215,0.012 4.093,4.7 3.886,4.563 5.379,3.711 11.297,1.844 18.762,0.086" /><path
         id="path170"
         style="fill:#cf113f;fill-opacity:1;fill-rule:nonzero;stroke:none"
         d="m 809.871,569.949 c -0.152,1.621 3.902,6.469 3.992,10.028 0.371,12.078 7.664,17.781 7.891,30.683 0.039,3.352 -13.91,6.5 -14.496,13.778 -0.301,3.593 -1.504,8.796 2.113,8.73 4.637,-0.07 9.141,0.73 12.442,3.617 14.57,12.848 2.246,30.399 0.496,45.899 -0.395,3.386 5.906,10.699 5.711,13.089 -0.993,13.161 -3.43,25.153 1.253,38.075 -3.675,-3.285 -4.781,-8.711 -7.855,-11.504 -1.496,-1.34 -2.234,1.676 -2.125,2.176 1.84,11.363 6.375,21.312 11.613,32.085 6.242,12.801 3.114,23.215 -8.402,26.997 -10.539,3.531 -20.731,-6.286 -21.879,-16.399 -1.051,-9.25 1.82,-20.344 4.027,-27.933 0.618,-2.211 0.243,-4.715 0.7,-6.629 1.906,7.629 2.097,15.609 1.988,23.707 -0.043,1.992 1.543,4.625 3.562,5.207 6.856,1.992 10.414,-2.95 9.942,-6.797 -1.512,-12.149 -3.949,-21.414 -6.836,-33.449 -3.309,-13.786 1.613,-27.434 3.055,-40.786 -5.278,3.094 -11.016,3.239 -13.047,-4.964 -1.129,-4.379 2.824,-8.973 4.047,-12.821 0.105,5.246 5.082,12.426 9.89,9.207 5.902,-3.914 6.106,-22.773 4.813,-25.289 -2.86,-5.468 -7.575,-9.375 -14.129,-7.433 -3.696,1.078 -2.192,6.547 -4.407,8.84 -11.757,12.167 -17.128,26.703 -18.125,43.531 -0.148,2.457 1.125,8.906 0.786,9.054 -15.407,6.352 -22.477,0.02 -28.871,-9.054 -1.11,2.754 -6.969,6.582 -7.454,5.719 -2.89,-5.407 -2.05,-15.219 2.309,-19.036 11.871,-10.265 23.625,-17.14 30.301,-31.804 -7.129,-0.938 -14.098,-3.004 -16.821,-10.426 -2.855,-7.774 -1.882,-18.574 6.321,-21.727 6.703,-2.558 18.183,0.313 20.687,-0.019 7.121,-0.922 15.055,-7.043 13.934,-13.77 -0.039,-0.328 -3.024,-16.031 -9.824,-12.148 -3.672,2.109 -1.621,10.742 -7.223,12.047 -7.539,1.859 -9.387,-8.688 -8.449,-7.782 2.414,2.274 4.09,-1.476 8.75,-4.089 -15.805,3.445 -10.883,-11.016 -10.324,-9.454 0.82,2.274 3.691,-0.089 9.343,0.297 0.2,0 -1.218,-1.168 -1.308,-1.289 -0.879,-1.468 -1.321,-2.172 -1.957,-3.742 -0.332,-0.687 -0.274,-1.488 -0.176,-2.242 0.062,-0.77 0.34,-1.461 0.762,-2.145 0.074,-0.156 0.211,-0.261 0.39,-0.363 0.063,0 0.293,-0.394 0.332,-0.394 0.336,0 -0.304,1.132 0.61,1.211 0.23,0 0.886,0.113 1.058,0.054 0.43,-0.144 0.969,-0.445 1.407,-0.543 0.406,-0.121 0.816,-0.199 1.281,-0.277 1.082,-0.129 1.433,-0.156 2.386,0.156 0.817,0.297 1.614,0.442 2.36,0.996 -1.012,-0.699 1.113,1.039 1.035,0.832 0.973,2.086 1.59,1.496 1.805,1.848 1.675,3.199 3.136,3.516 6.828,3.082 0.375,-0.055 1.055,-0.832 1.285,-1.145 0.258,-0.41 1.02,-2.41 0.887,-1.656 0.254,-1.48 1.187,-2.426 1.316,-3.836" /><path
         id="path172"
         style="fill:#cf113f;fill-opacity:1;fill-rule:nonzero;stroke:none"
         d="m 695.902,715.406 c -0.945,0.625 -1.269,2.106 -1.941,2.696 -0.184,0.23 -0.371,0.468 -0.566,0.711 -0.348,0.335 -0.5,0.816 -0.625,1.277 -0.657,2.242 -0.309,4.941 1.722,6.422 0.082,0.054 0.063,0.176 0.098,0.258 0.098,0.21 0.414,0.308 0.461,0.507 0.078,0.192 0.394,0.192 0.297,0.45 0.125,-0.079 0.132,0.121 0.199,0.168 0.406,0.511 0.437,1.472 -0.348,1.734 0.653,-0.055 1.305,0 1.957,-0.211 0.266,-0.051 0.539,-0.105 0.782,-0.137 2.488,-0.312 5.625,-1.445 6.296,-3.988 l 0.871,-0.957 c 2.598,-6.074 1.715,-20.918 16.188,-24.469 7.52,-1.855 15.102,-4.199 22.812,-4.094 -1.859,-7.5 -1.835,-17.074 4.125,-22.511 -8.664,4.734 -14.453,3.75 -22.015,10.902 -3.36,3.156 -11.195,7.52 -14.988,6.895 -1.559,-0.297 2.168,4.996 -1.309,6.019 -2.285,0.699 -8.375,0.531 -9.414,-1.023 -5.024,-7.539 -10.274,-7.508 -12.035,-8.992 2.035,1.738 -8.188,10.07 4.511,14.566 1.208,0.445 1.653,3.238 0.149,3.91 -2.484,1.156 -4.539,-0.574 -7.008,-1.976 -2.805,-1.68 -3.441,4.437 -7.855,2.167 -0.926,13.051 10.703,14.161 17.636,6.02 0.489,-0.609 2.434,0.141 1.633,0.836 l -1.633,2.82" /><path
         id="path174"
         style="fill:#231f20;fill-opacity:1;fill-rule:nonzero;stroke:none"
         d="M 466.492,519.309 646.676,662.613 827.148,523.246 819.75,500.93 646.676,632.992 475.258,495.637 l -8.766,23.672" /><path
         id="path176"
         style="fill:#231f20;fill-opacity:1;fill-rule:nonzero;stroke:none"
         d="M 489.516,460.395 646.676,589.047 804.652,467.074 793.871,445.402 646.676,558.492 500.535,439.809 489.516,460.395" /></g></g></svg>