<?xml version="1.0" encoding="UTF-8" standalone="no"?>
<svg
   xmlns:dc="http://purl.org/dc/elements/1.1/"
   xmlns:cc="http://creativecommons.org/ns#"
   xmlns:rdf="http://www.w3.org/1999/02/22-rdf-syntax-ns#"
   xmlns:svg="http://www.w3.org/2000/svg"
   xmlns="http://www.w3.org/2000/svg"
   viewBox="0 0 540.69336 169.73334"
   height="169.73334"
   width="540.69336"
   xml:space="preserve"
   id="svg2"
   version="1.1"><metadata
     id="metadata8"><rdf:RDF><cc:Work
         rdf:about=""><dc:format>image/svg+xml</dc:format><dc:type
           rdf:resource="http://purl.org/dc/dcmitype/StillImage" /></cc:Work></rdf:RDF></metadata><defs
     id="defs6" /><g
     transform="matrix(1.3333333,0,0,-1.3333333,0,169.73333)"
     id="g10"><g
       transform="scale(0.1)"
       id="g12"><path
         id="path14"
         style="fill:#231f20;fill-opacity:1;fill-rule:nonzero;stroke:none"
         d="m 991.465,895.32 v 73.055 h 28.125 v -72.324 c 0,-20.824 10.41,-31.602 27.58,-31.602 17.17,0 27.58,10.41 27.58,30.684 v 73.242 h 28.13 V 896.23 c 0,-38.718 -21.74,-57.714 -56.07,-57.714 -34.34,0 -55.345,19.175 -55.345,56.804" /><path
         id="path16"
         style="fill:#231f20;fill-opacity:1;fill-rule:nonzero;stroke:none"
         d="m 1131.6,968.375 h 25.93 l 59.91,-78.719 v 78.719 h 27.77 V 840.523 h -23.93 l -61.92,81.282 v -81.282 h -27.76 v 127.852" /><path
         id="path18"
         style="fill:#231f20;fill-opacity:1;fill-rule:nonzero;stroke:none"
         d="m 1277.21,968.375 h 28.13 V 840.523 h -28.13 v 127.852" /><path
         id="path20"
         style="fill:#231f20;fill-opacity:1;fill-rule:nonzero;stroke:none"
         d="m 1326.36,968.375 h 31.05 l 33.42,-90.043 33.43,90.043 h 30.32 l -51.69,-128.766 h -24.84 l -51.69,128.766" /><path
         id="path22"
         style="fill:#231f20;fill-opacity:1;fill-rule:nonzero;stroke:none"
         d="m 1474.35,968.375 h 96.44 v -25.02 h -68.5 v -25.937 h 60.28 v -25.023 h -60.28 v -26.848 h 69.41 v -25.024 h -97.35 v 127.852" /><path
         id="path24"
         style="fill:#231f20;fill-opacity:1;fill-rule:nonzero;stroke:none"
         d="m 1653.38,906.277 c 13.7,0 21.56,7.301 21.56,18.078 v 0.368 c 0,12.054 -8.41,18.265 -22.1,18.265 h -27.95 v -36.711 z m -56.62,62.098 h 58.45 c 16.25,0 28.86,-4.566 37.26,-12.965 7.12,-7.125 10.96,-17.172 10.96,-29.222 v -0.368 c 0,-20.636 -11.14,-33.605 -27.4,-39.632 l 31.24,-45.665 h -32.88 l -27.4,40.915 h -22.1 v -40.915 h -28.13 v 127.852" /><path
         id="path26"
         style="fill:#231f20;fill-opacity:1;fill-rule:nonzero;stroke:none"
         d="m 1720.09,859.152 16.62,19.911 c 11.51,-9.497 23.56,-15.528 38.18,-15.528 11.5,0 18.44,4.567 18.44,12.059 v 0.363 c 0,7.125 -4.38,10.777 -25.75,16.258 -25.75,6.574 -42.37,13.695 -42.37,39.086 v 0.363 c 0,23.195 18.62,38.535 44.75,38.535 18.62,0 34.51,-5.844 47.48,-16.254 l -14.61,-21.183 c -11.33,7.855 -22.46,12.601 -33.24,12.601 -10.78,0 -16.44,-4.933 -16.44,-11.144 v -0.36 c 0,-8.406 5.48,-11.144 27.58,-16.808 25.94,-6.758 40.55,-16.074 40.55,-38.352 v -0.367 c 0,-25.387 -19.36,-39.633 -46.94,-39.633 -19.36,0 -38.91,6.754 -54.25,20.453" /><path
         id="path28"
         style="fill:#231f20;fill-opacity:1;fill-rule:nonzero;stroke:none"
         d="m 1847.07,968.375 h 28.13 V 840.523 h -28.13 v 127.852" /><path
         id="path30"
         style="fill:#231f20;fill-opacity:1;fill-rule:nonzero;stroke:none"
         d="m 1936.95,942.441 h -38.9 v 25.934 h 105.93 v -25.934 h -38.9 V 840.523 h -28.13 v 101.918" /><path
         id="path32"
         style="fill:#231f20;fill-opacity:1;fill-rule:nonzero;stroke:none"
         d="m 2061.56,890.934 -49.13,77.441 h 32.87 l 30.51,-51.324 31.04,51.324 h 31.96 l -49.13,-76.895 v -50.957 h -28.12 v 50.411" /><path
         id="path34"
         style="fill:#231f20;fill-opacity:1;fill-rule:nonzero;stroke:none"
         d="m 2312.03,904.082 v 0.367 c 0,21.918 -16.08,40.188 -38.72,40.188 -22.65,0 -38.36,-17.903 -38.36,-39.821 v -0.367 c 0,-21.918 16.07,-40.179 38.73,-40.179 22.64,0 38.35,17.898 38.35,39.812 z m -106.49,0 v 0.367 c 0,36.348 28.68,66.117 68.14,66.117 39.44,0 67.75,-29.402 67.75,-65.75 v -0.367 c 0,-36.347 -28.67,-66.117 -68.12,-66.117 -39.46,0 -67.77,29.41 -67.77,65.75" /><path
         id="path36"
         style="fill:#231f20;fill-opacity:1;fill-rule:nonzero;stroke:none"
         d="m 2366.51,968.375 h 97.35 v -25.566 h -69.23 v -27.215 h 61.01 V 890.02 h -61.01 v -49.497 h -28.12 v 127.852" /><path
         id="path38"
         style="fill:#231f20;fill-opacity:1;fill-rule:nonzero;stroke:none"
         d="m 2531.31,968.375 h 30.14 l 26.48,-86.57 28.68,86.937 h 24.11 l 28.68,-86.937 26.48,86.57 h 29.41 l -43.65,-128.766 h -24.48 l -28.86,83.653 -28.86,-83.653 h -24.47 l -43.66,128.766" /><path
         id="path40"
         style="fill:#231f20;fill-opacity:1;fill-rule:nonzero;stroke:none"
         d="m 2803.16,894.039 -16.99,41.461 -16.99,-41.461 z m -29.59,75.25 h 25.94 l 54.79,-128.766 h -29.41 l -11.69,28.676 h -54.06 l -11.69,-28.676 h -28.68 l 54.8,128.766" /><path
         id="path42"
         style="fill:#231f20;fill-opacity:1;fill-rule:nonzero;stroke:none"
         d="m 2887.41,942.441 h -38.91 v 25.934 h 105.94 v -25.934 h -38.91 V 840.523 h -28.12 v 101.918" /><path
         id="path44"
         style="fill:#231f20;fill-opacity:1;fill-rule:nonzero;stroke:none"
         d="m 2976.01,968.375 h 96.44 v -25.02 h -68.49 v -25.937 h 60.27 v -25.023 h -60.27 v -26.848 h 69.4 v -25.024 h -97.35 v 127.852" /><path
         id="path46"
         style="fill:#231f20;fill-opacity:1;fill-rule:nonzero;stroke:none"
         d="m 3155.05,906.277 c 13.7,0 21.56,7.301 21.56,18.078 v 0.368 c 0,12.054 -8.4,18.265 -22.1,18.265 h -27.95 v -36.711 z m -56.62,62.098 h 58.45 c 16.26,0 28.86,-4.566 37.27,-12.965 7.11,-7.125 10.95,-17.172 10.95,-29.222 v -0.368 c 0,-20.636 -11.14,-33.605 -27.4,-39.632 l 31.23,-45.665 h -32.87 l -27.4,40.915 h -22.1 v -40.915 h -28.13 v 127.852" /><path
         id="path48"
         style="fill:#231f20;fill-opacity:1;fill-rule:nonzero;stroke:none"
         d="m 3230.52,968.375 h 28.13 V 866.094 h 63.75 v -25.571 h -91.88 v 127.852" /><path
         id="path50"
         style="fill:#231f20;fill-opacity:1;fill-rule:nonzero;stroke:none"
         d="m 3437.13,904.082 v 0.367 c 0,21.918 -16.07,40.188 -38.72,40.188 -22.64,0 -38.36,-17.903 -38.36,-39.821 v -0.367 c 0,-21.918 16.08,-40.179 38.73,-40.179 22.65,0 38.35,17.898 38.35,39.812 z m -106.48,0 v 0.367 c 0,36.348 28.68,66.117 68.13,66.117 39.45,0 67.76,-29.402 67.76,-65.75 v -0.367 c 0,-36.347 -28.67,-66.117 -68.13,-66.117 -39.45,0 -67.76,29.41 -67.76,65.75" /><path
         id="path52"
         style="fill:#231f20;fill-opacity:1;fill-rule:nonzero;stroke:none"
         d="m 3592.44,904.082 v 0.367 c 0,21.918 -16.08,40.188 -38.72,40.188 -22.65,0 -38.36,-17.903 -38.36,-39.821 v -0.367 c 0,-21.918 16.07,-40.179 38.73,-40.179 22.64,0 38.35,17.898 38.35,39.812 z m -106.49,0 v 0.367 c 0,36.348 28.68,66.117 68.14,66.117 39.44,0 67.75,-29.402 67.75,-65.75 v -0.367 c 0,-36.347 -28.67,-66.117 -68.12,-66.117 -39.46,0 -67.77,29.41 -67.77,65.75" /><path
         id="path54"
         style="fill:#231f20;fill-opacity:1;fill-rule:nonzero;stroke:none"
         d="m 992.563,774.559 h 83.557 v -17.965 h -63.83 v -30.629 h 56.61 V 708 h -56.61 v -45.703 h -19.727 v 112.262" /><path
         id="path56"
         style="fill:#231f20;fill-opacity:1;fill-rule:nonzero;stroke:none"
         d="m 1152.15,706.875 -19.4,44.906 -19.25,-44.906 z m -28.22,68.484 h 18.28 l 49.39,-113.062 h -20.84 l -11.39,27.098 h -53.09 l -11.54,-27.098 h -20.21 l 49.4,113.062" /><path
         id="path58"
         style="fill:#231f20;fill-opacity:1;fill-rule:nonzero;stroke:none"
         d="m 1198.85,718.105 v 0.321 c 0,31.914 23.89,58.054 57.89,58.054 20.69,0 33.2,-7.214 43.94,-17.48 l -12.67,-14.594 c -8.98,8.34 -18.6,13.949 -31.43,13.949 -21.33,0 -37.04,-17.636 -37.04,-39.609 v -0.32 c 0,-21.969 15.55,-39.774 37.04,-39.774 13.79,0 22.61,5.45 32.23,14.434 l 12.67,-12.832 c -11.7,-12.188 -24.53,-19.883 -45.54,-19.883 -32.72,0 -57.09,25.5 -57.09,57.734" /><path
         id="path60"
         style="fill:#231f20;fill-opacity:1;fill-rule:nonzero;stroke:none"
         d="m 1320.43,709.93 v 64.629 h 19.73 V 710.73 c 0,-20.847 10.74,-31.921 28.38,-31.921 17.49,0 28.23,10.429 28.23,31.121 v 64.629 h 19.72 v -63.668 c 0,-33.528 -18.92,-50.364 -48.27,-50.364 -29.18,0 -47.79,16.836 -47.79,49.403" /><path
         id="path62"
         style="fill:#231f20;fill-opacity:1;fill-rule:nonzero;stroke:none"
         d="m 1443.62,774.559 h 19.73 v -94.305 h 59.01 v -17.957 h -78.74 v 112.262" /><path
         id="path64"
         style="fill:#231f20;fill-opacity:1;fill-rule:nonzero;stroke:none"
         d="m 1554.46,756.27 h -35.6 v 18.289 h 91.09 V 756.27 h -35.6 v -93.973 h -19.89 v 93.973" /><path
         id="path66"
         style="fill:#231f20;fill-opacity:1;fill-rule:nonzero;stroke:none"
         d="m 1663.85,706.563 -44.58,67.996 h 23.41 l 31.28,-49.559 31.75,49.559 h 22.61 l -44.58,-67.528 v -44.734 h -19.89 v 44.266" /><path
         id="path68"
         style="fill:#231f20;fill-opacity:1;fill-rule:nonzero;stroke:none"
         d="m 1878.3,718.105 v 0.321 c 0,21.808 -15.88,39.929 -38.17,39.929 -22.3,0 -37.85,-17.796 -37.85,-39.609 v -0.32 c 0,-21.805 15.87,-39.774 38.16,-39.774 22.3,0 37.86,17.637 37.86,39.453 z m -96.71,0 v 0.321 c 0,31.594 24.38,58.054 58.85,58.054 34.49,0 58.54,-26.14 58.54,-57.734 v -0.32 c 0,-31.59 -24.38,-58.055 -58.85,-58.055 -34.49,0 -58.54,26.133 -58.54,57.734" /><path
         id="path70"
         style="fill:#231f20;fill-opacity:1;fill-rule:nonzero;stroke:none"
         d="m 1922.91,774.559 h 83.55 v -17.965 h -63.83 v -30.629 h 56.61 V 708 h -56.61 v -45.703 h -19.72 v 112.262" /><path
         id="path72"
         style="fill:#231f20;fill-opacity:1;fill-rule:nonzero;stroke:none"
         d="m 2076.25,774.559 h 83.23 v -17.645 h -63.51 v -29.187 h 56.29 v -17.641 h -56.29 v -30.145 h 64.32 v -17.644 h -84.04 v 112.262" /><path
         id="path74"
         style="fill:#231f20;fill-opacity:1;fill-rule:nonzero;stroke:none"
         d="m 2183.73,774.559 h 18.28 l 60.13,-77.625 v 77.625 h 19.41 V 662.297 h -16.52 l -61.9,79.863 v -79.863 h -19.4 v 112.262" /><path
         id="path76"
         style="fill:#231f20;fill-opacity:1;fill-rule:nonzero;stroke:none"
         d="m 2305.47,718.105 v 0.321 c 0,31.433 24.06,58.054 57.89,58.054 19.57,0 31.6,-5.453 43.15,-15.234 L 2394,746.328 c -8.66,7.379 -17.16,12.027 -31.44,12.027 -20.68,0 -36.4,-18.121 -36.4,-39.609 v -0.32 c 0,-23.094 15.23,-40.094 38.17,-40.094 10.59,0 20.21,3.367 27.1,8.504 v 21.008 h -28.71 V 725 h 47.79 v -47.148 c -11.06,-9.461 -26.94,-17.481 -46.82,-17.481 -35.12,0 -58.22,25.02 -58.22,57.734" /><path
         id="path78"
         style="fill:#231f20;fill-opacity:1;fill-rule:nonzero;stroke:none"
         d="m 2437.33,774.559 h 19.73 V 662.297 h -19.73 v 112.262" /><path
         id="path80"
         style="fill:#231f20;fill-opacity:1;fill-rule:nonzero;stroke:none"
         d="m 2487.06,774.559 h 18.28 l 60.13,-77.625 v 77.625 h 19.41 V 662.297 h -16.52 l -61.9,79.863 v -79.863 h -19.4 v 112.262" /><path
         id="path82"
         style="fill:#231f20;fill-opacity:1;fill-rule:nonzero;stroke:none"
         d="m 2613.77,774.559 h 83.24 v -17.645 h -63.51 v -29.187 h 56.29 v -17.641 h -56.29 v -30.145 h 64.31 v -17.644 h -84.04 v 112.262" /><path
         id="path84"
         style="fill:#231f20;fill-opacity:1;fill-rule:nonzero;stroke:none"
         d="m 2721.25,774.559 h 83.23 v -17.645 h -63.51 v -29.187 h 56.29 v -17.641 h -56.29 v -30.145 h 64.31 v -17.644 h -84.03 v 112.262" /><path
         id="path86"
         style="fill:#231f20;fill-opacity:1;fill-rule:nonzero;stroke:none"
         d="m 2877.31,718.906 c 14.11,0 23.1,7.379 23.1,18.766 v 0.316 c 0,12.032 -8.67,18.606 -23.27,18.606 h -28.7 v -37.688 z m -48.59,55.653 h 50.03 c 14.12,0 25.18,-4.172 32.4,-11.227 5.93,-6.098 9.29,-14.434 9.29,-24.219 v -0.324 c 0,-18.441 -11.06,-29.508 -26.62,-33.992 l 30.32,-42.5 h -23.42 l -27.58,39.129 h -24.7 v -39.129 h -19.72 v 112.262" /><path
         id="path88"
         style="fill:#231f20;fill-opacity:1;fill-rule:nonzero;stroke:none"
         d="m 2945.82,774.559 h 19.72 V 662.297 h -19.72 v 112.262" /><path
         id="path90"
         style="fill:#231f20;fill-opacity:1;fill-rule:nonzero;stroke:none"
         d="m 2995.54,774.559 h 18.28 l 60.14,-77.625 v 77.625 h 19.4 V 662.297 h -16.51 l -61.9,79.863 v -79.863 h -19.41 v 112.262" /><path
         id="path92"
         style="fill:#231f20;fill-opacity:1;fill-rule:nonzero;stroke:none"
         d="m 3117.29,718.105 v 0.321 c 0,31.433 24.05,58.054 57.89,58.054 19.57,0 31.59,-5.453 43.15,-15.234 l -12.51,-14.918 c -8.67,7.379 -17.16,12.027 -31.44,12.027 -20.68,0 -36.41,-18.121 -36.41,-39.609 v -0.32 c 0,-23.094 15.24,-40.094 38.18,-40.094 10.58,0 20.2,3.367 27.1,8.504 v 21.008 h -28.71 V 725 h 47.79 v -47.148 c -11.07,-9.461 -26.94,-17.481 -46.83,-17.481 -35.11,0 -58.21,25.02 -58.21,57.734" /><path
         id="path94"
         style="fill:#231f20;fill-opacity:1;fill-rule:nonzero;stroke:none"
         d="m 1006.67,584.629 v -88.848 h 26.31 c 28.38,0 46.5,19.239 46.5,44.102 v 0.312 c 0,24.864 -18.12,44.434 -46.5,44.434 z m -12.662,11.699 h 38.972 c 35.28,0 59.65,-24.219 59.65,-55.801 v -0.332 c 0,-31.582 -24.37,-56.132 -59.65,-56.132 h -38.972 v 112.265" /><path
         id="path96"
         style="fill:#231f20;fill-opacity:1;fill-rule:nonzero;stroke:none"
         d="m 1171.72,530.098 c -1.28,15.078 -9.94,28.222 -26.46,28.222 -14.43,0 -25.33,-12.031 -26.94,-28.222 z m -65.9,-4.825 v 0.332 c 0,23.887 16.83,43.145 39.77,43.145 24.53,0 38.64,-19.57 38.64,-43.789 0,-1.602 0,-2.559 -0.16,-4.004 h -65.75 c 1.77,-17.969 14.43,-28.066 29.19,-28.066 11.39,0 19.4,4.648 26.14,11.699 l 7.7,-6.895 c -8.34,-9.297 -18.44,-15.547 -34.16,-15.547 -22.78,0 -41.37,17.481 -41.37,43.125" /><path
         id="path98"
         style="fill:#231f20;fill-opacity:1;fill-rule:nonzero;stroke:none"
         d="m 1276.95,525.273 v 0.332 c 0,19.571 -13.47,32.071 -29.19,32.071 -15.39,0 -29.99,-12.988 -29.99,-31.914 v -0.313 c 0,-19.258 14.6,-32.09 29.99,-32.09 16.04,0 29.19,11.875 29.19,31.914 z m -71.04,41.7 h 12.35 v -16.68 c 6.73,9.941 16.51,18.457 31.75,18.457 19.88,0 39.61,-15.723 39.61,-42.988 v -0.313 c 0,-27.109 -19.57,-43.144 -39.61,-43.144 -15.4,0 -25.34,8.34 -31.75,17.636 v -41.523 h -12.35 v 108.555" /><path
         id="path100"
         style="fill:#231f20;fill-opacity:1;fill-rule:nonzero;stroke:none"
         d="m 1367.26,514.531 v 8.028 c -6.09,1.757 -14.27,3.535 -24.37,3.535 -15.56,0 -24.22,-6.739 -24.22,-17.168 v -0.313 c 0,-10.429 9.62,-16.523 20.85,-16.523 15.23,0 27.74,9.297 27.74,22.441 z m -61.1,-6.406 v 0.313 c 0,17.48 14.44,26.796 35.44,26.796 10.59,0 18.12,-1.445 25.5,-3.535 v 2.891 c 0,14.902 -9.14,22.598 -24.7,22.598 -9.78,0 -17.48,-2.559 -25.17,-6.094 l -3.69,10.117 c 9.14,4.16 18.12,6.894 30.15,6.894 11.71,0 20.69,-3.046 26.78,-9.14 5.61,-5.625 8.5,-13.633 8.5,-24.219 v -50.683 h -11.87 v 12.519 c -5.77,-7.539 -15.4,-14.277 -29.99,-14.277 -15.4,0 -30.95,8.828 -30.95,25.82" /><path
         id="path102"
         style="fill:#231f20;fill-opacity:1;fill-rule:nonzero;stroke:none"
         d="m 1405.29,566.973 h 12.35 v -21.641 c 6.1,13.789 18.12,23.731 33.84,23.086 v -13.301 h -0.97 c -18.12,0 -32.87,-12.988 -32.87,-38.008 v -33.046 h -12.35 v 82.91" /><path
         id="path104"
         style="fill:#231f20;fill-opacity:1;fill-rule:nonzero;stroke:none"
         d="m 1477.79,506.035 v 50.039 h -11.54 v 10.899 h 11.54 v 25.019 h 12.35 v -25.019 h 26.31 v -10.899 h -26.31 v -48.437 c 0,-10.098 5.62,-13.789 13.96,-13.789 4.17,0 7.69,0.8 12.02,2.89 v -10.586 c -4.33,-2.246 -8.98,-3.535 -14.91,-3.535 -13.31,0 -23.42,6.582 -23.42,23.418" /><path
         id="path106"
         style="fill:#231f20;fill-opacity:1;fill-rule:nonzero;stroke:none"
         d="m 1538.27,566.973 h 12.35 v -13.946 c 5.45,8.184 12.83,15.723 26.78,15.723 13.47,0 22.13,-7.227 26.62,-16.523 5.94,9.14 14.75,16.523 29.19,16.523 19.08,0 30.79,-12.832 30.79,-33.359 v -51.328 h -12.35 V 532.5 c 0,16.035 -8.02,25.02 -21.49,25.02 -12.51,0 -22.77,-9.297 -22.77,-25.665 v -47.792 h -12.35 v 48.75 c 0,15.566 -8.18,24.707 -21.33,24.707 -13.15,0 -23.09,-10.899 -23.09,-26.153 v -47.304 h -12.35 v 82.91" /><path
         id="path108"
         style="fill:#231f20;fill-opacity:1;fill-rule:nonzero;stroke:none"
         d="m 1751.59,530.098 c -1.28,15.078 -9.94,28.222 -26.46,28.222 -14.43,0 -25.34,-12.031 -26.94,-28.222 z m -65.91,-4.825 v 0.332 c 0,23.887 16.84,43.145 39.77,43.145 24.54,0 38.65,-19.57 38.65,-43.789 0,-1.602 0,-2.559 -0.16,-4.004 h -65.75 c 1.77,-17.969 14.43,-28.066 29.19,-28.066 11.38,0 19.4,4.648 26.14,11.699 l 7.7,-6.895 c -8.34,-9.297 -18.45,-15.547 -34.16,-15.547 -22.78,0 -41.38,17.481 -41.38,43.125" /><path
         id="path110"
         style="fill:#231f20;fill-opacity:1;fill-rule:nonzero;stroke:none"
         d="m 1785.78,566.973 h 12.35 v -14.434 c 5.44,8.984 14.11,16.211 28.38,16.211 20.04,0 31.75,-13.477 31.75,-33.203 v -51.484 h -12.35 V 532.5 c 0,15.391 -8.34,25.02 -22.93,25.02 -14.27,0 -24.85,-10.43 -24.85,-25.977 v -47.48 h -12.35 v 82.91" /><path
         id="path112"
         style="fill:#231f20;fill-opacity:1;fill-rule:nonzero;stroke:none"
         d="m 1888.91,506.035 v 50.039 h -11.54 v 10.899 h 11.54 v 25.019 h 12.35 v -25.019 h 26.3 v -10.899 h -26.3 v -48.437 c 0,-10.098 5.62,-13.789 13.95,-13.789 4.17,0 7.7,0.8 12.03,2.89 v -10.586 c -4.33,-2.246 -8.98,-3.535 -14.91,-3.535 -13.31,0 -23.42,6.582 -23.42,23.418" /><path
         id="path114"
         style="fill:#231f20;fill-opacity:1;fill-rule:nonzero;stroke:none"
         d="m 2066.15,525.117 v 0.332 c 0,17.793 -13.31,32.383 -30.79,32.383 -17.97,0 -30.32,-14.59 -30.32,-32.07 v -0.313 c 0,-17.812 13.15,-32.246 30.63,-32.246 17.97,0 30.48,14.434 30.48,31.914 z m -73.77,0 v 0.332 c 0,23.399 18.28,43.301 43.29,43.301 24.86,0 43.14,-19.57 43.14,-42.988 v -0.313 c 0,-23.418 -18.44,-43.301 -43.45,-43.301 -24.86,0 -42.98,19.551 -42.98,42.969" /><path
         id="path116"
         style="fill:#231f20;fill-opacity:1;fill-rule:nonzero;stroke:none"
         d="m 2099.36,556.074 h -11.39 v 10.742 h 11.39 v 7.227 c 0,9.453 2.57,16.68 7.22,21.328 4.17,4.16 10.26,6.406 17.8,6.406 5.77,0 9.62,-0.644 13.63,-2.089 v -10.743 c -4.49,1.289 -7.86,2.09 -12.03,2.09 -9.62,0 -14.43,-5.781 -14.43,-17.637 v -6.738 h 26.3 v -10.586 h -26.15 v -72.011 h -12.34 v 72.011" /><path
         id="path118"
         style="fill:#231f20;fill-opacity:1;fill-rule:nonzero;stroke:none"
         d="m 2193.19,500.43 7.86,9.297 c 11.71,-10.586 22.93,-15.879 38.49,-15.879 15.07,0 25.02,8.027 25.02,19.082 v 0.332 c 0,10.41 -5.62,16.347 -29.19,21.328 -25.82,5.605 -37.69,13.945 -37.69,32.383 v 0.332 c 0,17.636 15.56,30.625 36.89,30.625 16.35,0 28.06,-4.649 39.45,-13.789 l -7.37,-9.786 c -10.43,8.497 -20.85,12.188 -32.41,12.188 -14.59,0 -23.88,-8.027 -23.88,-18.125 v -0.313 c 0,-10.585 5.77,-16.523 30.47,-21.816 25,-5.449 36.56,-14.59 36.56,-31.758 v -0.312 c 0,-19.239 -16.04,-31.758 -38.33,-31.758 -17.81,0 -32.39,5.937 -45.87,17.969" /><path
         id="path120"
         style="fill:#231f20;fill-opacity:1;fill-rule:nonzero;stroke:none"
         d="m 2357.59,566.973 h 13.15 l -34.8,-85.625 c -7.06,-17.168 -15.08,-23.418 -27.59,-23.418 -6.89,0 -12.03,1.445 -17.63,4.16 l 4.17,9.785 c 4,-2.09 7.69,-3.047 12.99,-3.047 7.37,0 12.02,3.848 16.99,15.567 l -37.69,82.578 h 13.64 l 30.15,-69.121 26.62,69.121" /><path
         id="path122"
         style="fill:#231f20;fill-opacity:1;fill-rule:nonzero;stroke:none"
         d="m 2377.01,494.648 6.26,8.829 c 8.97,-6.739 18.91,-10.586 28.7,-10.586 9.94,0 17.16,5.136 17.16,13.144 v 0.332 c 0,8.34 -9.78,11.543 -20.69,14.59 -12.99,3.691 -27.42,8.184 -27.42,23.418 v 0.313 c 0,14.277 11.87,23.73 28.22,23.73 10.11,0 21.33,-3.516 29.83,-9.141 l -5.61,-9.297 c -7.7,4.961 -16.52,8.008 -24.54,8.008 -9.78,0 -16.03,-5.117 -16.03,-12.011 v -0.332 c 0,-7.852 10.26,-10.899 21.32,-14.278 12.84,-3.847 26.62,-8.808 26.62,-23.73 v -0.313 c 0,-15.722 -12.98,-24.863 -29.51,-24.863 -11.86,0 -25.01,4.648 -34.31,12.187" /><path
         id="path124"
         style="fill:#231f20;fill-opacity:1;fill-rule:nonzero;stroke:none"
         d="m 2466.52,506.035 v 50.039 h -11.55 v 10.899 h 11.55 v 25.019 h 12.34 v -25.019 h 26.3 v -10.899 h -26.3 v -48.437 c 0,-10.098 5.62,-13.789 13.96,-13.789 4.17,0 7.69,0.8 12.03,2.89 v -10.586 c -4.34,-2.246 -8.99,-3.535 -14.92,-3.535 -13.31,0 -23.41,6.582 -23.41,23.418" /><path
         id="path126"
         style="fill:#231f20;fill-opacity:1;fill-rule:nonzero;stroke:none"
         d="m 2585.36,530.098 c -1.28,15.078 -9.94,28.222 -26.46,28.222 -14.43,0 -25.34,-12.031 -26.94,-28.222 z m -65.91,-4.825 v 0.332 c 0,23.887 16.83,43.145 39.76,43.145 24.54,0 38.66,-19.57 38.66,-43.789 0,-1.602 0,-2.559 -0.16,-4.004 h -65.75 c 1.76,-17.969 14.43,-28.066 29.18,-28.066 11.38,0 19.41,4.648 26.14,11.699 l 7.7,-6.895 c -8.33,-9.297 -18.44,-15.547 -34.15,-15.547 -22.78,0 -41.38,17.481 -41.38,43.125" /><path
         id="path128"
         style="fill:#231f20;fill-opacity:1;fill-rule:nonzero;stroke:none"
         d="m 2619.54,566.973 h 12.35 v -13.946 c 5.45,8.184 12.83,15.723 26.78,15.723 13.47,0 22.13,-7.227 26.62,-16.523 5.94,9.14 14.75,16.523 29.19,16.523 19.08,0 30.79,-12.832 30.79,-33.359 v -51.328 h -12.35 V 532.5 c 0,16.035 -8.02,25.02 -21.49,25.02 -12.51,0 -22.77,-9.297 -22.77,-25.665 v -47.792 h -12.35 v 48.75 c 0,15.566 -8.18,24.707 -21.32,24.707 -13.16,0 -23.1,-10.899 -23.1,-26.153 v -47.304 h -12.35 v 82.91" /><path
         id="path130"
         style="fill:#231f20;fill-opacity:1;fill-rule:nonzero;stroke:none"
         d="m 2761.99,494.648 6.26,8.829 c 8.97,-6.739 18.91,-10.586 28.7,-10.586 9.94,0 17.16,5.136 17.16,13.144 v 0.332 c 0,8.34 -9.78,11.543 -20.69,14.59 -12.99,3.691 -27.42,8.184 -27.42,23.418 v 0.313 c 0,14.277 11.87,23.73 28.22,23.73 10.11,0 21.33,-3.516 29.83,-9.141 l -5.61,-9.297 c -7.7,4.961 -16.52,8.008 -24.54,8.008 -9.78,0 -16.03,-5.117 -16.03,-12.011 v -0.332 c 0,-7.852 10.26,-10.899 21.32,-14.278 12.84,-3.847 26.63,-8.808 26.63,-23.73 v -0.313 c 0,-15.722 -12.99,-24.863 -29.52,-24.863 -11.86,0 -25.01,4.648 -34.31,12.187" /><path
         id="path132"
         style="fill:#231f20;fill-opacity:1;fill-rule:nonzero;stroke:none"
         d="m 1006.67,406.387 v -88.848 h 26.31 c 28.38,0 46.5,19.238 46.5,44.102 v 0.332 c 0,24.843 -18.12,44.414 -46.5,44.414 z m -12.662,11.699 h 38.972 c 35.28,0 59.65,-24.199 59.65,-55.801 v -0.312 c 0,-31.602 -24.37,-56.133 -59.65,-56.133 h -38.972 v 112.246" /><path
         id="path134"
         style="fill:#231f20;fill-opacity:1;fill-rule:nonzero;stroke:none"
         d="m 1174.93,351.855 c -1.28,15.079 -9.94,28.223 -26.46,28.223 -14.43,0 -25.34,-12.012 -26.94,-28.223 z m -65.91,-4.804 v 0.312 c 0,23.907 16.84,43.145 39.77,43.145 24.54,0 38.65,-19.57 38.65,-43.77 0,-1.621 0,-2.578 -0.16,-4.023 h -65.75 c 1.77,-17.949 14.43,-28.067 29.19,-28.067 11.38,0 19.4,4.649 26.14,11.719 l 7.7,-6.894 c -8.34,-9.317 -18.45,-15.567 -34.16,-15.567 -22.78,0 -41.38,17.481 -41.38,43.145" /><path
         id="path136"
         style="fill:#231f20;fill-opacity:1;fill-rule:nonzero;stroke:none"
         d="m 1202.22,316.426 6.25,8.808 c 8.98,-6.738 18.93,-10.586 28.71,-10.586 9.94,0 17.16,5.137 17.16,13.165 v 0.312 c 0,8.34 -9.78,11.543 -20.69,14.59 -12.99,3.691 -27.42,8.183 -27.42,23.418 v 0.312 c 0,14.278 11.87,23.75 28.22,23.75 10.11,0 21.33,-3.535 29.83,-9.14 l -5.61,-9.317 c -7.7,4.981 -16.52,8.028 -24.54,8.028 -9.78,0 -16.03,-5.137 -16.03,-12.032 v -0.312 c 0,-7.871 10.26,-10.918 21.32,-14.277 12.84,-3.848 26.62,-8.829 26.62,-23.731 v -0.332 c 0,-15.703 -12.98,-24.844 -29.5,-24.844 -11.87,0 -25.02,4.649 -34.32,12.188" /><path
         id="path138"
         style="fill:#231f20;fill-opacity:1;fill-rule:nonzero;stroke:none"
         d="m 1290.12,388.75 h 12.35 v -82.91 h -12.35 z m -0.8,31.758 h 14.11 v -13.633 h -14.11 v 13.633" /><path
         id="path140"
         style="fill:#231f20;fill-opacity:1;fill-rule:nonzero;stroke:none"
         d="m 1398.21,351.211 v 0.332 c 0,16.992 -14.75,28.066 -30.47,28.066 -15.71,0 -28.7,-10.918 -28.7,-27.91 v -0.312 c 0,-16.68 13.31,-28.223 28.7,-28.223 15.72,0 30.47,11.387 30.47,28.047 z m -67.99,-59.805 5.61,9.61 c 9.46,-6.895 20.04,-10.567 31.91,-10.567 18.29,0 30.16,10.098 30.16,29.492 v 9.786 c -7.22,-9.61 -17.33,-17.481 -32.56,-17.481 -19.89,0 -38.97,14.922 -38.97,38.809 v 0.332 c 0,24.218 19.24,39.121 38.97,39.121 15.55,0 25.66,-7.695 32.39,-16.68 v 14.922 h 12.35 v -68.477 c 0,-12.832 -3.85,-22.617 -10.58,-29.355 -7.38,-7.383 -18.45,-11.055 -31.59,-11.055 -13.8,0 -26.63,3.848 -37.69,11.543" /><path
         id="path142"
         style="fill:#231f20;fill-opacity:1;fill-rule:nonzero;stroke:none"
         d="m 1437.69,388.75 h 12.35 v -14.434 c 5.45,8.985 14.11,16.192 28.38,16.192 20.05,0 31.76,-13.477 31.76,-33.203 V 305.84 h -12.35 v 48.418 c 0,15.41 -8.34,25.019 -22.94,25.019 -14.27,0 -24.85,-10.41 -24.85,-25.976 V 305.84 h -12.35 v 82.91" /><path
         id="path144"
         style="fill:#231f20;fill-opacity:1;fill-rule:nonzero;stroke:none"
         d="m 1586.7,418.086 h 81.15 v -11.543 h -68.48 v -38.32 h 61.26 V 356.68 h -61.26 v -39.297 h 69.28 V 305.84 h -81.95 v 112.246" /><path
         id="path146"
         style="fill:#231f20;fill-opacity:1;fill-rule:nonzero;stroke:none"
         d="m 1692.09,388.75 h 12.35 v -14.434 c 5.45,8.985 14.11,16.192 28.38,16.192 20.05,0 31.76,-13.477 31.76,-33.203 V 305.84 h -12.35 v 48.418 c 0,15.41 -8.34,25.019 -22.94,25.019 -14.27,0 -24.85,-10.41 -24.85,-25.976 V 305.84 h -12.35 v 82.91" /><path
         id="path148"
         style="fill:#231f20;fill-opacity:1;fill-rule:nonzero;stroke:none"
         d="m 1857.93,351.211 v 0.332 c 0,16.992 -14.75,28.066 -30.47,28.066 -15.72,0 -28.71,-10.918 -28.71,-27.91 v -0.312 c 0,-16.68 13.32,-28.223 28.71,-28.223 15.72,0 30.47,11.387 30.47,28.047 z m -67.99,-59.805 5.61,9.61 c 9.46,-6.895 20.04,-10.567 31.91,-10.567 18.28,0 30.15,10.098 30.15,29.492 v 9.786 c -7.21,-9.61 -17.32,-17.481 -32.56,-17.481 -19.88,0 -38.97,14.922 -38.97,38.809 v 0.332 c 0,24.218 19.25,39.121 38.97,39.121 15.56,0 25.66,-7.695 32.4,-16.68 v 14.922 h 12.35 v -68.477 c 0,-12.832 -3.85,-22.617 -10.59,-29.355 -7.37,-7.383 -18.44,-11.055 -31.59,-11.055 -13.79,0 -26.62,3.848 -37.68,11.543" /><path
         id="path150"
         style="fill:#231f20;fill-opacity:1;fill-rule:nonzero;stroke:none"
         d="m 1898.53,388.75 h 12.34 v -82.91 h -12.34 z m -0.81,31.758 h 14.12 v -13.633 h -14.12 v 13.633" /><path
         id="path152"
         style="fill:#231f20;fill-opacity:1;fill-rule:nonzero;stroke:none"
         d="m 1939.59,388.75 h 12.35 v -14.434 c 5.45,8.985 14.11,16.192 28.38,16.192 20.05,0 31.76,-13.477 31.76,-33.203 V 305.84 h -12.35 v 48.418 c 0,15.41 -8.34,25.019 -22.94,25.019 -14.27,0 -24.85,-10.41 -24.85,-25.976 V 305.84 h -12.35 v 82.91" /><path
         id="path154"
         style="fill:#231f20;fill-opacity:1;fill-rule:nonzero;stroke:none"
         d="m 2095.97,351.855 c -1.29,15.079 -9.94,28.223 -26.46,28.223 -14.44,0 -25.34,-12.012 -26.95,-28.223 z m -65.91,-4.804 v 0.312 c 0,23.907 16.83,43.145 39.77,43.145 24.53,0 38.65,-19.57 38.65,-43.77 0,-1.621 0,-2.578 -0.16,-4.023 h -65.76 c 1.77,-17.949 14.44,-28.067 29.19,-28.067 11.39,0 19.41,4.649 26.15,11.719 l 7.69,-6.894 c -8.34,-9.317 -18.45,-15.567 -34.16,-15.567 -22.77,0 -41.37,17.481 -41.37,43.145" /><path
         id="path156"
         style="fill:#231f20;fill-opacity:1;fill-rule:nonzero;stroke:none"
         d="m 2187.71,351.855 c -1.28,15.079 -9.94,28.223 -26.46,28.223 -14.43,0 -25.34,-12.012 -26.94,-28.223 z m -65.91,-4.804 v 0.312 c 0,23.907 16.84,43.145 39.77,43.145 24.54,0 38.65,-19.57 38.65,-43.77 0,-1.621 0,-2.578 -0.16,-4.023 h -65.75 c 1.76,-17.949 14.44,-28.067 29.18,-28.067 11.39,0 19.42,4.649 26.14,11.719 l 7.7,-6.894 c -8.33,-9.317 -18.44,-15.567 -34.15,-15.567 -22.77,0 -41.38,17.481 -41.38,43.145" /><path
         id="path158"
         style="fill:#231f20;fill-opacity:1;fill-rule:nonzero;stroke:none"
         d="m 2221.89,388.75 h 12.35 v -21.66 c 6.1,13.789 18.12,23.75 33.84,23.105 v -13.32 h -0.97 c -18.11,0 -32.87,-12.988 -32.87,-38.008 V 305.84 h -12.35 v 82.91" /><path
         id="path160"
         style="fill:#231f20;fill-opacity:1;fill-rule:nonzero;stroke:none"
         d="m 2287.97,388.75 h 12.36 v -82.91 h -12.36 z m -0.8,31.758 h 14.11 v -13.633 h -14.11 v 13.633" /><path
         id="path162"
         style="fill:#231f20;fill-opacity:1;fill-rule:nonzero;stroke:none"
         d="m 2329.04,388.75 h 12.35 v -14.434 c 5.45,8.985 14.11,16.192 28.38,16.192 20.05,0 31.76,-13.477 31.76,-33.203 V 305.84 h -12.36 v 48.418 c 0,15.41 -8.33,25.019 -22.92,25.019 -14.27,0 -24.86,-10.41 -24.86,-25.976 V 305.84 h -12.35 v 82.91" /><path
         id="path164"
         style="fill:#231f20;fill-opacity:1;fill-rule:nonzero;stroke:none"
         d="m 2491.68,351.211 v 0.332 c 0,16.992 -14.75,28.066 -30.47,28.066 -15.72,0 -28.71,-10.918 -28.71,-27.91 v -0.312 c 0,-16.68 13.32,-28.223 28.71,-28.223 15.72,0 30.47,11.387 30.47,28.047 z m -67.99,-59.805 5.61,9.61 c 9.45,-6.895 20.04,-10.567 31.91,-10.567 18.29,0 30.15,10.098 30.15,29.492 v 9.786 c -7.21,-9.61 -17.32,-17.481 -32.56,-17.481 -19.88,0 -38.96,14.922 -38.96,38.809 v 0.332 c 0,24.218 19.24,39.121 38.96,39.121 15.56,0 25.67,-7.695 32.4,-16.68 v 14.922 h 12.35 v -68.477 c 0,-12.832 -3.85,-22.617 -10.59,-29.355 -7.37,-7.383 -18.44,-11.055 -31.59,-11.055 -13.79,0 -26.62,3.848 -37.68,11.543" /><path
         id="path166"
         style="fill:#ffffff;fill-opacity:1;fill-rule:nonzero;stroke:none"
         d="m 646.723,450.625 -5.496,2.559 c -61.129,28.281 -110.457,69.355 -142.672,118.808 -77.266,118.555 -79.828,241.028 -82.516,370.656 -0.199,9.852 -0.434,19.688 -0.664,29.571 l -0.316,13.398 h 463.07 l -0.316,-13.398 c -0.258,-9.934 -0.469,-19.864 -0.665,-29.746 -2.73,-129.582 -5.289,-251.985 -82.519,-370.481 -32.156,-49.355 -81.391,-90.41 -142.402,-118.808 l -5.504,-2.559" /><path
         id="path168"
         style="fill:#fcd634;fill-opacity:1;fill-rule:nonzero;stroke:none"
         d="M 825.852,678.34 646.676,813.645 468.984,673.574 c -33,93.789 -31.726,191.399 -34.171,291.563 H 858.355 C 855.973,866.68 857.148,770.684 825.852,678.34" /><path
         id="path170"
         style="fill:#fcd634;fill-opacity:1;fill-rule:nonzero;stroke:none"
         d="m 801.324,620.371 c -6.445,-12.48 -13.613,-24.844 -21.64,-37.187 -32.286,-49.571 -80.254,-86.231 -132.981,-110.723 -52.957,24.492 -100.89,61.152 -133.195,110.723 -6.945,10.644 -13.235,21.289 -18.934,32.011 L 646.676,743.41 801.324,620.371" /><path
         id="path172"
         style="fill:none;stroke:#231f20;stroke-width:8.22789001;stroke-linecap:butt;stroke-linejoin:miter;stroke-miterlimit:4;stroke-dasharray:none;stroke-opacity:1"
         d="m 646.703,472.461 c -52.957,24.492 -100.89,61.152 -133.195,110.723 -78.719,120.82 -75.457,249.132 -78.695,381.953 H 858.355 C 855.098,832.316 858.406,704.004 779.684,583.184 747.398,533.613 699.43,496.953 646.703,472.461 Z" /><path
         id="path174"
         style="fill:#cf113f;fill-opacity:1;fill-rule:nonzero;stroke:none"
         d="m 522.793,892.578 c -21.461,4.551 -40.551,20.469 -35.938,40.723 0.055,0.207 -0.832,5.254 -2.667,5.937 -0.149,0.078 -0.454,0.625 -0.782,0.715 -0.816,0.203 -1.488,0.555 -2.179,1.063 -0.235,0.187 -1.227,0.507 -1.227,0.89 -0.406,-0.84 -0.316,-1.633 -0.875,-2.355 -0.207,-0.274 -0.52,-0.711 -0.84,-0.86 -0.379,-0.183 -0.414,-0.566 -0.703,-0.82 -1.613,-1.629 -0.746,-4.082 -0.496,-5.926 0.082,-0.468 0.273,-1.054 -0.305,-1.144 -0.683,-0.145 -0.136,0.195 -0.926,0.676 -0.171,0.125 -0.46,0.418 -0.66,0.527 -0.34,0.156 -1.672,0.332 -1.898,0.672 -0.231,0.351 -0.133,0.449 -0.461,0.754 -0.742,0.664 -0.816,1.98 -1.359,3.359 -0.106,0.223 -0.309,1.445 -0.309,1.719 0,1.355 -3.512,3.535 -2.148,2.402 0.476,-0.351 -0.055,0.594 -1.942,1.035 -1.176,0.301 -2.551,0.254 -3.879,0.059 -0.273,-0.012 -0.543,-0.227 -0.726,-0.371 -1.36,-1.074 -2.637,-2.356 -4.414,-2.434 0.304,0.196 0.453,-0.156 0.609,-0.32 0.844,-1.106 0.215,-2.422 0.719,-3.625 0.508,-1.191 1.359,-2.07 2.367,-2.918 0.973,-0.734 2.676,0.273 3.437,-1.066 0,0.031 1.582,-0.379 0.008,-1.934 -2.879,-2.93 -6.078,-0.594 -8.5,-5.957 3.637,1.555 4.047,-3.984 5.59,-4.168 6.906,-0.938 12.164,-2.148 15.957,-9.191 2.317,-4.258 -4.137,-4.461 1.703,-5.457 2.985,-0.508 4.969,-2.032 6.473,-4.102 1.57,-2.219 1.777,-5.207 3.484,-7.266 1.223,-1.465 1.68,-1.769 3.153,-3.007 0.671,-0.54 2.796,-1.114 3.613,-1.29 0.789,-0.246 1.266,-0.644 2.012,-0.918 0.812,-0.285 1.668,-0.578 2.347,-1.132 0.59,-0.489 2.051,-0.989 2.375,-1.633 0.614,-1.192 0.114,-2.391 0.758,-3.574 0.188,-0.332 1.106,-0.028 1.477,-0.164 0.367,-0.129 1.183,-0.176 1.41,-0.129 1.41,0.312 1.742,0.402 2.785,0.539 1.605,0.176 1.426,-0.332 3.488,-0.227 0.449,0 0.617,-0.312 1.207,-0.312 0.403,0 1.106,-0.43 1.215,-0.067 0.641,1.961 1.656,3.867 2.813,5.789 1.164,1.907 1.058,2.102 2.531,4.102 -0.172,-0.039 1.89,1.387 1.703,1.406" /><path
         id="path176"
         style="fill:#cf113f;fill-opacity:1;fill-rule:nonzero;stroke:none"
         d="m 469.27,890.051 c 6.296,-3.34 5.449,-11.699 11.089,-14.414 10.079,-4.785 22.102,-8.086 32.817,-2.824 -2.391,-7.422 0.242,-13.692 -0.781,-14.52 -3.368,-2.707 -13.586,0.516 -20.145,3.113 -4.512,1.778 -8.168,-4.89 -13.148,-4.316 0.25,0.578 0.824,2.285 0.492,3.351 -0.789,2.442 -1.43,3.125 -5.461,2.645 -2.606,-0.281 -1.52,-2.402 -5.406,-4.356 -1.555,0.918 -4.836,1.954 -5.325,-0.957 -0.226,-1.386 -2.964,4.739 -2.394,5.774 2.551,4.57 3.055,5.652 2.883,6.629 -0.317,1.504 -5.832,3.535 -6.547,2.246 -1.723,-2.977 -6.813,9.746 8.176,8.926 -4.02,2.59 -3.567,3.027 -2.625,6.093 0.117,0.43 -1.395,2.024 -2.426,0.938 -0.332,1.184 0.469,2.453 1.394,2.578 2.485,0.363 4.895,0.508 7.407,-0.906" /><path
         id="path178"
         style="fill:#cf113f;fill-opacity:1;fill-rule:nonzero;stroke:none"
         d="m 499.043,920.91 c 9.078,-2.09 22.668,9.629 30.551,-4.191 -5.817,2.14 -23.035,-7.09 -30.551,4.191" /><path
         id="path180"
         style="fill:#cf113f;fill-opacity:1;fill-rule:nonzero;stroke:none"
         d="m 575.012,900.82 c -0.176,-11.816 -12.438,-24.59 -2.489,-35.886 -4.078,0.058 -8.89,1.464 -11.718,3.757 -1.582,1.27 -1.231,-5.632 -1.008,-7.058 0.176,-1.203 -7.551,7.285 -10.445,5.234 -8.215,-5.918 -11.77,-8.34 -23.965,-8.789 -3.383,-0.117 -5.153,-2.851 -6.106,-5.801 -2.758,5.653 -0.722,18.485 0.871,24.2 4.313,15.644 20.047,20.273 32.657,27.793 9.027,5.359 12.898,15.898 12.441,26.132 6.422,-8.047 9.906,-19.511 9.762,-29.582" /><path
         id="path182"
         style="fill:#cf113f;fill-opacity:1;fill-rule:nonzero;stroke:none"
         d="m 517.305,767.57 c 1.527,-0.363 0.39,-1.632 -0.219,-2.023 -1.242,-0.828 -2.121,-1.856 -2.902,-3.074 -0.598,-0.957 -1.039,-1.946 -0.789,-3.118 0.136,-0.839 0.429,-1.562 0.75,-2.402 0.195,-0.449 0.636,-0.691 0.992,-1.082 0.168,-0.168 0.707,-0.851 0.726,-0.918 -0.336,1.199 1.348,2.363 1.711,2.156 7.821,-4.539 8.281,4.668 12.957,7.786 1.996,1.335 6.473,-0.227 5.328,-4.278 4.668,2.52 6.032,8.738 9.664,12.684 8.036,8.703 19.29,14.523 29.973,19.23 -3.875,4.102 -9.558,7.567 -12.437,12.266 -1.434,2.324 -3.137,6.894 0.031,6.055 13.137,-3.43 20.5,4.57 21.945,14.902 19.445,-2.5 24.531,15.898 27.149,29.766 1.254,6.757 4.961,7.363 0.925,18.828 -1.699,4.804 8.606,6.375 6.868,14.668 -0.489,2.304 -3.332,4.609 -4.993,4.863 1.586,-4.492 -5.898,-5.586 -6.726,-7.441 -1.25,-2.864 -3.106,-5.137 -3.352,-8.125 -6.332,8.757 -1.207,19.324 4.739,27.539 8.683,11.921 26.683,5.652 34.261,-2.032 0.153,3.868 -2.851,8.77 -5.316,11.121 7.086,0.938 14.765,-3.398 24.453,1.731 5.574,2.988 11.199,5.547 13.812,12.109 -11.867,-1.633 -27.953,7.489 -38.636,9.375 -19.938,3.477 -33.313,-10.129 -40.446,-26.359 -7.113,-16.172 -2.558,-28.289 5.157,-40.391 1.941,-3.047 -6.844,-1.074 -10.317,-2.859 -3.359,-1.731 -4.754,-5.891 -3.965,-9.563 4.223,4.563 15.508,1.758 16.52,-6.082 1.387,-10.527 -9.238,-25.871 -19.504,-21.281 -10.992,4.942 -17.23,16.535 -20.851,29.551 -9.418,-8.074 -26.778,-1.375 -34.852,-9.285 -7.66,-7.52 11.973,-12.61 19.602,-16.153 2.816,-1.328 5.628,-4.179 5.167,-7.765 -11.96,7.051 -26.378,-0.918 -25.691,-13.719 0.555,-9.551 12.246,-15.5 21.992,-16.301 4.047,-0.351 6.508,-4.844 1.551,-7.937 -8.633,-5.41 -18.289,-11.438 -27.605,-1.66 -1.559,1.621 -7.157,0.593 -8.258,-2.383 -0.524,-1.446 -0.707,-3.664 -0.485,-5.098 0.508,0.867 1.106,2.129 1.887,2.051 0.91,-0.156 2.031,-1.113 1.906,-1.809 -0.804,-4.773 -7.101,-1.679 -9.058,-5.398 -0.028,-0.098 -0.133,-0.168 -0.192,-0.254 -0.113,-0.305 -0.273,-0.559 -0.425,-0.84 -1.274,-2.519 -3.016,-4.133 0.113,-6.086 -0.078,0.449 1.562,-2.039 1.527,-2.48 0.141,2.316 2.539,2.285 2.539,2.285 l 1.407,-0.164 1.367,-0.606" /><path
         id="path184"
         style="fill:#cf113f;fill-opacity:1;fill-rule:nonzero;stroke:none"
         d="m 476.781,812.598 c -1.222,0.363 -2.519,-0.086 -3.738,-0.645 -0.793,-0.332 -1.742,0.039 -2.191,-0.75 -0.289,-0.488 -0.481,-1.015 -0.305,-1.574 0.062,-0.313 0.183,-0.82 0.449,-1.016 -1.656,0.149 -3.183,1.25 -4.449,2.383 -0.395,0.363 -0.656,0.801 -1.043,1.164 -0.27,0.262 -0.223,0.75 -0.387,1.113 -0.179,0.399 -0.113,0.809 -0.113,1.231 -0.039,1.141 -0.066,2.293 0.434,3.34 0.246,0.476 0.464,0.957 0.828,1.367 0.265,0.352 0.543,0.613 0.843,0.926 0.829,0.801 1.762,1.386 2.887,1.738 1.609,0.488 3.383,0.344 4.91,-0.352 1.231,-0.515 2.715,-0.449 4.012,-0.8 0.676,-0.184 1.973,1.789 1.047,2.031 -4.098,0.988 -4.07,2.07 -5.594,6.223 -0.719,0.789 -1.644,-0.129 -2.043,-0.539 -0.023,7.902 9.367,8.417 13.309,5.285 5.801,-4.66 1.441,-13.828 8.586,-16.36 3.715,-1.297 7.648,-2.312 11.5,-0.691 6.898,2.918 0.007,9.871 2.23,15.711 4.524,11.887 14.492,12.472 26.383,1.086 -10.641,-3.508 -15.609,-17.617 -9.801,-26.906 -9.375,3.703 -21.191,-2.489 -27.781,-6.708 6.137,6.141 -2.469,11.075 -4.649,10.008 l -2.597,-1.824 c -1.254,-1.582 -1.363,-3.223 -2.899,-4.758 -0.882,-0.801 -1.355,-0.957 -2.488,-1.269 -1.558,-0.399 -2.527,-0.274 -3.918,0.617 -0.254,0.156 -1.078,-0.188 -1.25,-0.391 -0.762,-0.918 -0.015,-1.379 -0.035,-1.699 -0.152,0.086 -1.129,0.867 -1.266,0.984 -0.898,0.657 -1.914,1.262 -2.457,2.168 -0.554,0.872 -0.933,3.184 -0.308,4.465 0.636,1.211 1.867,1.621 2.695,2.461 0.777,0.781 -0.144,2.02 -1.105,2.156" /><path
         id="path186"
         style="fill:#cf113f;fill-opacity:1;fill-rule:nonzero;stroke:none"
         d="m 705,917.121 c 0.867,-0.558 -0.043,-2.07 -1.02,-2.336 -1.148,-0.351 -2.746,0.156 -3.73,-0.262 -4.469,-1.64 -4.484,-12.648 -3.879,-11.339 0.672,1.398 3.977,0.48 6.106,0.07 3.453,-0.723 6.062,6.309 8.336,6.101 5.371,-0.488 10.386,-7.175 12.445,-11.57 0.363,-0.801 -2.25,-0.84 -2.442,-3.508 7.321,0.684 13.508,-4.07 18.789,-8.418 2.579,4.473 5.168,7.258 8.098,10.149 -10.98,10.722 -32.867,14.012 -29.496,33.555 0.449,2.488 -2.387,4.695 -3.629,5.937 -1.426,1.355 -4.68,1.453 -6.668,1.934 2.094,-4.356 -1.68,-4.758 -1.133,-11.653 0,-0.203 -0.629,-0.047 -0.847,0.02 -1.325,0.586 -2.45,1.406 -3.703,2.168 -1.122,0.715 -2.188,0.527 -3.442,0.351 -0.758,-0.097 -1.449,-0.437 -2.09,-0.898 -1.035,-0.77 -1.566,-1.727 -2.304,-2.774 -0.145,-0.203 -0.289,-0.398 -0.446,-0.625 -0.218,-0.214 -0.691,-0.937 -0.742,-1.316 0.598,0.066 2.348,-0.09 2.66,-0.539 0.508,-0.801 0.528,-1.727 1.145,-2.488 0.746,-0.977 1.371,-0.989 2.484,-1.465 1.699,-0.715 3.223,-1.047 5.102,-0.891" /><path
         id="path188"
         style="fill:#cf113f;fill-opacity:1;fill-rule:nonzero;stroke:none"
         d="m 733.457,924.961 c 6.875,0.5 13.672,5.762 21.27,-3.125 -1.391,0.676 -3.039,0.91 -3.875,0.207 -8.411,-6.75 -18.602,-4.465 -23.997,3.926 2.188,0.34 4.833,-1.145 6.602,-1.008" /><path
         id="path190"
         style="fill:#cf113f;fill-opacity:1;fill-rule:nonzero;stroke:none"
         d="m 763.18,900.02 c 11.285,5.734 22.711,10.312 27.34,24.328 0.906,2.722 3,-4.063 3.152,-4.465 5.953,-17.07 -5.942,-34.082 -3.492,-51.492 -3.989,2.449 -8.461,4.101 -12.813,4.218 -15.492,0.457 -19.164,-8.945 -20.058,-8.086 -4.239,4.317 -16.446,7.969 -15.547,7.157 -7.266,6.691 13.648,24.394 21.418,28.34" /><path
         id="path192"
         style="fill:#cf113f;fill-opacity:1;fill-rule:nonzero;stroke:none"
         d="m 732.336,786.32 c 1.547,-2.402 -0.52,1.336 1.238,-2.707 8.188,3.418 16.629,7.317 25.668,3.672 -4.008,18.352 9.418,22.824 10.485,25.598 1.691,4.394 -7.262,13.172 -14.024,10.703 -8.625,-3.047 -5.023,-13.957 -6.664,-21.574 -0.879,-4.207 -6.109,-7.285 -10.434,-5.789 -7.14,2.449 -10.007,9.109 -11.75,16.57 -1.175,4.953 -10.847,5.547 -12.949,1.477 -5.926,-11.516 3.551,1.375 2.93,-7.415 -0.106,-1.472 -6.938,-0.378 -8.469,-5.535 -1.031,-3.554 2.332,-5.937 6.531,-7.148 0.786,-0.246 -0.816,1.758 0.258,2.187 0.762,0.274 3.864,-1.379 3.492,-1.554 -4.07,-2.52 -5.109,-8.282 2.168,-10.789 0.036,0 -0.546,2.089 0,2.488 5.676,4.25 11.618,-0.32 11.618,-0.184" /><path
         id="path194"
         style="fill:#cf113f;fill-opacity:1;fill-rule:nonzero;stroke:none"
         d="m 609.43,670.129 c 6.804,-3.164 8.984,0.223 17.929,1.648 1.25,0.215 6.27,-3.074 7.743,-4.726 -8.957,-1.406 -19.86,-9.199 -25.672,3.078" /><path
         id="path196"
         style="fill:#cf113f;fill-opacity:1;fill-rule:nonzero;stroke:none"
         d="m 605.82,662.961 c -0.433,0.469 -1.047,0.652 -1.582,0.848 -0.543,0.265 -1.136,0.449 -1.797,0.558 -0.152,0.047 -1.265,0.301 -1.445,0.36 -0.051,-0.43 0.473,-1.473 0.18,-1.7 -0.707,-0.683 -0.957,-0.507 -1.547,-1.375 -0.211,-0.343 -0.441,-0.695 -0.508,-1.027 -0.152,-0.84 -0.512,-1.687 -0.609,-2.598 -0.028,-0.449 0.172,-1.523 0.273,-1.941 0.043,-0.207 0.528,-1.164 0.664,-1.418 0,0 1.086,-1.18 1.02,-1.133 1.273,-1.258 0.246,-0.515 1.781,-2.051 0.797,-0.761 -0.359,-2.07 -1.117,-1.843 -5.254,1.511 -5.992,7.605 -10.778,9.5 -3.468,1.328 -8.492,-1.368 -9.027,-6.7 1.176,0.372 2.395,-0.117 2.621,-1.093 1.301,-5.34 9.137,-2.137 9.309,-5.918 0.156,-2.422 -5.871,0.441 -8.238,-1.114 -3.122,-2.109 -3.559,-8.125 -0.79,-11.64 2.856,2.734 6.399,-1.258 9.184,0.742 1.93,1.379 2.609,3.352 4.594,4.199 6.012,2.668 7.812,-2.89 6.472,-8.445 3.239,1.512 10.891,3.066 12.637,3.574 3.176,0.848 3.321,8.172 7.203,10.859 -5.504,0.047 -12.312,2.403 -13.851,7.793 -0.149,0.555 0.246,1.239 0.297,1.883 0.152,2.051 -0.051,4.024 -0.828,5.899 -0.059,0.234 -0.27,0.429 -0.434,0.683 -0.203,0.293 -0.395,0.625 -0.602,0.957 -0.55,0.743 -1.367,1.094 -2.144,1.621 -0.348,0.168 -0.781,0.254 -1.028,0.586" /><path
         id="path198"
         style="fill:#cf113f;fill-opacity:1;fill-rule:nonzero;stroke:none"
         d="m 565.352,625.039 c 2.398,-4.668 -9.461,2.774 -13.911,-4.121 -1.441,-2.227 -0.664,-7.246 -0.664,-10.039 2.723,2.461 5.453,-2.246 10.536,2.226 0.562,-0.488 1.167,-0.82 0.398,-1.601 -1.887,-1.895 -2.934,-4.238 -1.938,-6.524 0.622,-1.484 4.852,-4.453 4.868,-4.257 0.441,3.105 5.656,0 6.468,6.035 0.36,2.5 1.082,6.582 4.676,5.097 3.274,-1.347 3.949,-5.058 3.176,-8.73 5.219,1.719 14.375,7.051 19.852,3.086 7.355,-5.332 19.429,-7.481 28.027,-10.176 -5.707,3.985 -7.524,14.336 -6.563,21.055 -13.539,-2.656 -27.777,-2.188 -40.336,3.613 -3.433,1.582 -2.972,5.567 -4.011,8.84 -1.149,3.672 -5.801,7.059 -10,6.766 -2.262,-0.157 -7.692,-4.942 -6.649,-5.145 -0.343,0.047 -0.332,-0.703 -0.527,-1.047 1.019,0.645 2.32,0 2.773,-1.113 0.325,-0.731 0.657,-1.602 1.289,-2.215 0.778,-0.773 2.11,-0.949 2.536,-1.75" /><path
         id="path200"
         style="fill:#cf113f;fill-opacity:1;fill-rule:nonzero;stroke:none"
         d="m 597.844,550.977 c 2.605,3.222 4.785,1.523 5.941,1.503 2.746,-0.117 2.57,-3.964 2.285,-6.464 10.778,5.234 21.039,12.636 33.688,9.922 -7.375,7.734 -4.77,24.277 5.637,26.289 0.035,0 -6.704,1.113 -7.415,1.523 -9.05,5.762 -20.113,11.23 -26.195,-0.801 -3.019,-5.937 2.528,-10.781 6.688,-15.722 0.738,-0.899 -0.477,-1.407 -1.43,-1.7 -9.91,-2.519 -28.121,-4.004 -28.957,10.801 -0.09,1.504 -3.906,2.735 -6.375,2.656 -7.324,-0.214 -7.215,-9.55 -6.395,-8.925 1.625,1.23 6.52,0.8 5.938,-2.969 -0.551,-3.477 -7.402,1.875 -10.106,-1.66 -2.285,-2.93 -2.23,-7.735 -0.601,-11.016 -0.309,1.191 1.047,2.09 1.801,2.227 7.593,1.269 8.035,-1.368 5.781,-8.75 -0.176,-0.586 2.23,-5.196 3.836,-5.625 -0.129,0.058 -0.102,1.074 0.125,1.406 0.211,0.371 0.57,0.625 0.969,0.742 0.82,0.313 1.644,0.234 2.488,0.449 0.394,0.137 0.703,0.371 1.074,0.625 0.598,0.352 1.008,0.879 1.442,1.426 1.765,2.246 3.324,5.078 6.289,5.352 1.394,0.156 2.273,-0.489 3.445,-1.231" /><path
         id="path202"
         style="fill:#cf113f;fill-opacity:1;fill-rule:nonzero;stroke:none"
         d="m 676.441,516.641 c 6.938,6.914 11.957,16.113 19.387,22.832 -8.137,4.804 -18.226,9.824 -19.308,20.566 -0.079,0.703 1.148,1.524 1.414,1.426 11.328,-6.387 26.613,-6.856 34.765,4.687 6.594,9.336 9.442,24.532 22.297,25.371 -4.273,8.243 0.539,17.735 7.582,22.051 -2.379,0.899 -5.437,2.871 -8.105,2.344 -3.239,-0.547 -4.637,-4.941 -8.34,-5.645 5.824,19.629 -5.418,47.032 -27.016,46.543 -4.051,-0.078 -9.289,-3.328 -10.621,-7.761 -1.246,-4.18 -1.879,-9.434 1.113,-13.008 7.086,-8.477 12.192,-17.707 9.957,-28.918 5.039,4.375 9.688,10.781 9.52,17.598 -0.027,1.718 3.059,0.488 3.531,1.191 5.903,8.672 -3.754,14.016 -8.855,19.484 -1.426,1.473 2.179,3.758 2.64,3.563 18.516,-5.516 20.278,-28.32 12.332,-43.164 -2.109,2.637 -9.949,1.758 -12.605,2.676 8.672,-4.356 6.43,-4.981 6.043,-6.446 -0.641,-2.597 -8.41,-1.465 -9.922,-3.379 -2.586,-3.32 -4.555,-4.804 -4.754,-15.839 3.582,3.906 8.301,9.785 13.406,7.148 10.899,-5.586 -0.535,-24.434 -10.824,-27.578 -8.793,-2.637 -16.914,0.117 -22.344,7.812 -7.879,11.075 -2.175,24.453 -7.746,35.703 -4.679,-1.152 -3.609,-7.246 -6.019,-6.152 -8.563,3.965 -13.426,13.106 -19.637,20.801 -2.578,-0.957 -3.707,-3.301 -6.184,-3.203 -3.679,0.156 -10.582,1.289 -12.062,-0.547 -1.711,-2.149 -2.949,-17.695 12.184,-23.34 10.285,-3.848 18.414,-7.246 24.875,-15.273 -4.336,-0.352 -5.844,1.757 -9.379,1.894 -3.508,0.137 -5.715,-1.269 -8.336,-2.598 -2.532,-1.308 -5.485,-6.25 -4.969,-10.195 2.355,-18.867 24.48,-19.062 34.66,-31.015 1.75,-1.993 -2.672,-10.196 -6.836,-13.516 -3.551,-2.832 -12.058,4.277 -10.687,10.312 1.129,4.786 -10.493,7.989 -14.539,2.5 1.605,0.157 2.015,-0.898 1.863,-1.64 -0.723,-4.453 4.785,-4.61 4.609,-6.856 -0.261,-3.125 -2.933,1.309 -5.078,1.68 -4.664,0.957 -9.348,-0.664 -12.082,-4.434 -0.816,-1.132 -2.664,-2.949 -1.859,-4.843 3.593,1.738 5.461,-3.828 8.789,-2.129 2.047,1.035 3.695,2.851 6.16,2.226 0.961,-0.254 1.965,-1.562 1.082,-2.168 -6.523,-4.16 -11.746,-10.058 -7.031,-16.718 0.133,1.582 1.355,2.656 2.375,2.949 1.883,0.508 4.418,-0.781 6.273,-0.156 3.024,0.976 1.465,4.023 2.621,6.171 1.801,3.418 7.969,9.043 11.442,4.922 0.648,-0.722 0.144,-3.437 -1.711,-3.535 1.898,0.098 3.621,-1.797 5.254,-1.445 0.457,0.058 0.929,0.058 1.367,0.273 0.363,0.176 0.781,0.254 1.043,0.567 0.773,0.781 1.66,1.562 1.789,2.812 1.383,-0.137 3.156,-0.273 4.082,0.938 0.891,1.172 1.988,2.129 2.98,3.027" /><path
         id="path204"
         style="fill:#cf113f;fill-opacity:1;fill-rule:nonzero;stroke:none"
         d="m 644.883,652.883 c 12.133,3.367 25.613,9.715 28.519,23.183 3.676,-2.218 4.84,-7.277 4.864,-10.343 0.285,-16.883 -7.106,-31.465 -3.52,-49.18 0.399,-1.992 4.047,-8.262 2.399,-7.52 -2.024,0.899 -6.301,4.922 -8.637,3.067 -2.934,-2.305 -2.742,-5.957 -4.172,-5.098 -5.32,3.223 -10.961,8.028 -13.555,14.199 -0.98,2.325 -0.578,7.356 -1.238,6.622 -4.047,-4.395 -12.348,-5.352 -18.484,-6.27 1.398,1.25 2.652,6.262 2.414,7.305 -4.828,2.433 -11.762,-5.84 -11.657,-4.805 0.258,2.676 0.543,3.516 0.813,4.258 3.609,10.547 10.391,21.328 22.254,24.582" /><path
         id="path206"
         style="fill:#cf113f;fill-opacity:1;fill-rule:nonzero;stroke:none"
         d="m 546.137,933.984 c 0.508,0.227 0.765,0.579 0.703,0.637 -4.395,6.172 -9.692,5.535 -11.934,0.039 -1.523,-3.703 7.336,-2.5 11.231,-0.676 m 8.593,6.524 c 3.153,0.097 5.465,2.043 7.489,4.16 -0.172,-1.766 2.422,-4.277 1.469,-6.16 -1.208,-2.363 -4.25,-3.809 -4.817,-5.988 -1.269,-4.493 2.359,-8.915 -0.297,-13.368 -7.781,-13.203 -24.785,-8.859 -36.394,-11.73 0.8,1.398 -0.188,3.508 -1.082,4.082 5.156,-0.613 12.031,0.48 13.41,4.375 1.668,4.816 2.539,8.371 0.262,12.305 -3.696,6.543 -11.43,3.496 -17.235,1.222 -0.914,4.051 2.891,6.524 5.082,7.078 6.145,1.602 11.719,4.289 17.457,6.418 5.008,1.895 9.535,-2.511 14.656,-2.394" /><path
         id="path208"
         style="fill:#cf113f;fill-opacity:1;fill-rule:nonzero;stroke:none"
         d="m 771.445,936.328 c 0.481,0.266 -0.394,-0.398 0.004,0.012 -4.804,2.39 -11.062,5.566 -13.246,-0.84 -1.617,-4.719 9.067,-1.437 13.242,0.828 m 7.692,-20.644 c -1.66,-1.426 -4.434,-1.375 -6.309,-2.676 -1.152,-0.82 -2.187,-1.629 -3.39,-2.383 -0.559,-0.332 -2.215,-1.062 -2.829,-1.238 -1.703,-0.41 -1.339,-0.227 -2.91,-0.41 -0.922,-0.157 -1.351,-0.176 -2.297,-0.176 -0.929,0 -3.804,-0.11 -4.714,-0.071 -2.211,0.032 -2.586,-0.125 -4.809,0.247 -1.266,0.183 -2.481,0.507 -3.68,0.957 -0.801,0.242 -1.656,0.398 -2.496,0.398 0.078,0.898 0.192,1.856 0.895,2.473 0.925,0.761 1.105,0.066 2.441,0.164 0.055,0.019 1.918,-0.145 1.981,-0.145 0.304,0.047 0.668,0.047 1.015,0.059 0.567,0.086 1.063,0.215 1.582,0.457 0.668,0.332 1.387,0.519 1.985,0.996 0.203,0.187 0.457,0.324 0.668,0.586 0.445,0.383 1.035,0.578 1.441,1.086 1.242,1.57 2.199,3.055 2.332,5.039 0.133,1.465 0.238,2.969 -0.016,4.492 -0.047,0.223 -0.101,0.457 -0.117,0.703 -0.07,1.18 -0.668,2.254 -1.234,3.321 -3.36,6.414 -11.449,0.136 -16.996,0.437 0,1.203 -0.121,3.477 0.504,4.258 3.961,5.137 10.074,2.597 13.242,4.941 10.664,7.891 13.496,2.219 24.64,-0.847 3.329,-0.957 8.137,1.16 11.289,2.527 0.778,0.324 0.758,-4.734 0.375,-5.742 -1.324,-3.535 -4.992,-3.348 -6.265,-6.532 -1.875,-4.648 -2.168,-11.191 -7.086,-13.527" /><path
         id="path210"
         style="fill:#cf113f;fill-opacity:1;fill-rule:nonzero;stroke:none"
         d="m 645.547,678.652 c 1.902,-0.703 7.566,2.422 9.609,3.575 0.496,0.273 0.856,0.742 1.25,1.171 0.02,0.04 -0.043,0.168 -0.129,0.168 -1.629,0.332 -3.097,0.457 -4.679,0.645 -1.176,0.156 -2.067,0.926 -3.274,1.16 -0.301,0.078 -0.597,0.02 -0.906,-0.078 -0.465,-0.195 -0.621,-0.508 -0.996,-0.703 -0.567,-0.223 -1.371,-0.223 -1.906,-0.692 -0.528,-0.5 -0.985,-0.957 -1.133,-1.652 -0.231,-0.769 -0.039,-1.914 0.5,-2.598 0.426,-0.527 1.074,-0.8 1.664,-0.996 m 14.656,8.625 c 4.934,-1.164 10.324,-1.308 13.508,3.008 1.57,-6.699 -4.563,-7.531 -5.688,-10.793 -1.73,-4.961 -1.613,-9.961 -6.437,-12.527 -9.59,-5.117 -21.602,-11.281 -32.606,-12.141 0.09,1.348 -0.832,3.821 0.926,3.906 3.848,0.157 6.856,3.028 7.735,5.325 1.183,3.191 -0.176,10.867 -3.051,12.371 -3.317,1.738 -6.223,-0.938 -9.281,-2.274 -1.262,3.36 4,8.965 12.246,8.477 -0.215,0.008 4.093,4.695 3.886,4.559 5.379,3.71 11.297,1.847 18.762,0.089" /><path
         id="path212"
         style="fill:#cf113f;fill-opacity:1;fill-rule:nonzero;stroke:none"
         d="m 809.871,734.043 c -0.152,1.621 3.902,6.477 3.992,10.031 0.371,12.078 7.664,17.781 7.891,30.684 0.039,3.347 -13.91,6.504 -14.496,13.777 -0.301,3.594 -1.504,8.801 2.113,8.731 4.637,-0.067 9.141,0.734 12.442,3.613 14.57,12.851 2.246,30.402 0.496,45.898 -0.395,3.391 5.906,10.703 5.711,13.098 -0.993,13.152 -3.43,25.145 1.253,38.066 -3.675,-3.281 -4.781,-8.711 -7.855,-11.503 -1.496,-1.34 -2.234,1.679 -2.125,2.175 1.84,11.367 6.375,21.321 11.613,32.09 6.242,12.805 3.114,23.215 -8.402,26.992 -10.539,3.535 -20.731,-6.277 -21.879,-16.394 -1.051,-9.25 1.82,-20.344 4.027,-27.93 0.618,-2.219 0.243,-4.719 0.7,-6.633 1.906,7.629 2.097,15.606 1.988,23.703 -0.043,1.993 1.543,4.629 3.562,5.215 6.856,1.992 10.414,-2.949 9.942,-6.797 -1.512,-12.148 -3.949,-21.418 -6.836,-33.457 -3.309,-13.781 1.613,-27.433 3.055,-40.781 -5.278,3.094 -11.016,3.242 -13.047,-4.961 -1.129,-4.387 2.824,-8.976 4.047,-12.824 0.105,5.246 5.082,12.422 9.89,9.211 5.902,-3.918 6.106,-22.774 4.813,-25.293 -2.86,-5.469 -7.575,-9.375 -14.129,-7.434 -3.696,1.075 -2.192,6.543 -4.407,8.84 -11.757,12.168 -17.128,26.699 -18.125,43.535 -0.148,2.45 1.125,8.907 0.786,9.051 -15.407,6.348 -22.477,0.02 -28.871,-9.051 -1.11,2.754 -6.969,6.582 -7.454,5.711 -2.89,-5.398 -2.05,-15.215 2.309,-19.031 11.871,-10.266 23.625,-17.141 30.301,-31.809 -7.129,-0.937 -14.098,-2.996 -16.821,-10.418 -2.855,-7.773 -1.882,-18.574 6.321,-21.73 6.703,-2.559 18.183,0.312 20.687,-0.02 7.121,-0.925 15.055,-7.039 13.934,-13.769 -0.039,-0.332 -3.024,-16.035 -9.824,-12.149 -3.672,2.11 -1.621,10.743 -7.223,12.043 -7.539,1.864 -9.387,-8.683 -8.449,-7.773 2.414,2.266 4.09,-1.484 8.75,-4.094 -15.805,3.449 -10.883,-11.015 -10.324,-9.453 0.82,2.277 3.691,-0.086 9.343,0.293 0.2,0 -1.218,-1.16 -1.308,-1.289 -0.879,-1.465 -1.321,-2.168 -1.957,-3.738 -0.332,-0.684 -0.274,-1.485 -0.176,-2.246 0.062,-0.762 0.34,-1.457 0.762,-2.141 0.074,-0.156 0.211,-0.262 0.39,-0.359 0.063,0 0.293,-0.403 0.332,-0.403 0.336,0 -0.304,1.133 0.61,1.211 0.23,0 0.886,0.117 1.058,0.059 0.43,-0.145 0.969,-0.449 1.407,-0.547 0.406,-0.117 0.816,-0.195 1.281,-0.273 1.082,-0.125 1.433,-0.157 2.386,0.156 0.817,0.293 1.614,0.441 2.36,0.996 -1.012,-0.703 1.113,1.035 1.035,0.832 0.973,2.09 1.59,1.492 1.805,1.844 1.675,3.203 3.136,3.515 6.828,3.086 0.375,-0.059 1.055,-0.829 1.285,-1.141 0.258,-0.41 1.02,-2.414 0.887,-1.66 0.254,-1.485 1.187,-2.422 1.316,-3.84" /><path
         id="path214"
         style="fill:#cf113f;fill-opacity:1;fill-rule:nonzero;stroke:none"
         d="m 695.902,879.504 c -0.945,0.625 -1.269,2.109 -1.941,2.695 -0.184,0.235 -0.371,0.469 -0.566,0.711 -0.348,0.332 -0.5,0.813 -0.625,1.281 -0.657,2.235 -0.309,4.942 1.722,6.414 0.082,0.059 0.063,0.176 0.098,0.266 0.098,0.203 0.414,0.301 0.461,0.508 0.078,0.184 0.394,0.184 0.297,0.449 0.125,-0.078 0.132,0.117 0.199,0.164 0.406,0.508 0.437,1.477 -0.348,1.731 0.653,-0.051 1.305,0 1.957,-0.207 0.266,-0.047 0.539,-0.106 0.782,-0.137 2.488,-0.313 5.625,-1.445 6.296,-3.992 l 0.871,-0.957 c 2.598,-6.075 1.715,-20.918 16.188,-24.465 7.52,-1.856 15.102,-4.199 22.812,-4.09 -1.859,-7.5 -1.835,-17.082 4.125,-22.52 -8.664,4.735 -14.453,3.75 -22.015,10.907 -3.36,3.156 -11.195,7.519 -14.988,6.894 -1.559,-0.301 2.168,4.992 -1.309,6.016 -2.285,0.703 -8.375,0.539 -9.414,-1.024 -5.024,-7.539 -10.274,-7.5 -12.035,-8.984 2.035,1.738 -8.188,10.066 4.511,14.559 1.208,0.449 1.653,3.242 0.149,3.918 -2.484,1.152 -4.539,-0.578 -7.008,-1.985 -2.805,-1.679 -3.441,4.446 -7.855,2.168 -0.926,13.059 10.703,14.16 17.636,6.028 0.489,-0.618 2.434,0.136 1.633,0.828 l -1.633,2.824" /><path
         id="path216"
         style="fill:#231f20;fill-opacity:1;fill-rule:nonzero;stroke:none"
         d="M 466.492,683.41 646.676,826.711 827.148,687.344 819.75,665.031 646.676,797.09 475.258,659.738 466.492,683.41" /><path
         id="path218"
         style="fill:#231f20;fill-opacity:1;fill-rule:nonzero;stroke:none"
         d="M 489.516,624.492 646.676,753.145 804.652,631.172 793.871,609.492 646.676,722.59 500.535,603.906 489.516,624.492" /></g></g></svg>