<?xml version="1.0" encoding="UTF-8"?>
<svg width="3734px" height="1091px" viewBox="0 0 3734 1091" version="1.1" xmlns="http://www.w3.org/2000/svg" xmlns:xlink="http://www.w3.org/1999/xlink">
    <!-- Generator: Sketch 57 (83077) - https://sketch.com -->
    <title>ap_5c_pos</title>
    <desc>Created with Sketch.</desc>
    <defs>
        <polygon id="path-1" points="0 3661 5182 3661 5182 0 0 0"></polygon>
    </defs>
    <g id="Social-Media-2019" stroke="none" stroke-width="1" fill="none" fill-rule="evenodd">
        <g id="Gold-Sponsor---Anton-Paar" transform="translate(-689.000000, -2142.000000)">
            <g id="ap_5c_pos" transform="translate(-31.000000, 848.000000)">
                <g id="g10" transform="translate(2591.000000, 1830.500000) scale(-1, 1) rotate(-180.000000) translate(-2591.000000, -1830.500000) ">
                    <g id="g12">
                        <g id="g14-Clipped">
                            <mask id="mask-2" fill="white">
                                <use xlink:href="#path-1"></use>
                            </mask>
                            <g id="path16"></g>
                            <g id="g14" mask="url(#mask-2)">
                                <g transform="translate(719.837221, 1275.899338)">
                                    <g id="g20" transform="translate(0.166599, 312.983277)">
                                        <path d="M960.085511,0 L962.153387,4.94081176 C967.920055,18.7049412 973.009739,31.2200235 979.102589,47.5683882 L979.293375,48.0852353 L979.718029,48.4298 C1061.07297,114.321647 1094.96522,175.703388 1075.13576,221.259765 C1054.57393,268.5082 977.243962,294.522835 857.399442,294.522835 C722.17509,294.522835 552.941556,261.869176 380.858537,202.567129 C260.275489,161.016318 129.716169,100.963612 31.6089691,41.9384471 L31.1412352,41.6615647 L0.886232779,41.6123412 L6.42518765,45.2733412 C112.736195,115.552235 249.419138,180.435 401.697316,232.913435 C590.889551,298.11 782.765102,335.501424 928.113432,335.501424 C1054.85087,335.501424 1136.98742,307.154824 1159.38942,255.679318 C1174.34459,221.327447 1165.09454,178.023047 1133.34402,133.728024 C1098.71324,85.4212824 1040.4619,40.0002706 964.879784,2.38734118 L960.085511,0 Z" id="path22" fill="#FFFFFF" fill-rule="nonzero"></path>
                                    </g>
                                    <g id="g24" transform="translate(244.584676, 180.376934)">
                                        <path d="M0,246.117647 C0,246.117647 152.825919,331.588153 390.256297,374.431082 C390.256297,374.431082 440.956197,246.517588 477.057874,40.3940588 C477.057874,40.3940588 336.651523,-45.5748353 168.704257,34.3580235 C168.704257,34.3580235 38.4465012,99.3269294 1.63706888,240.955329 L0,246.117647 Z" id="path26" fill="#FFFFFF"></path>
                                    </g>
                                    <g id="g28" transform="translate(375.515429, 97.335496)">
                                        <path d="M358.992882,38.2640237 C306.145098,12.7231649 251.469459,0.0973295662 188.836188,0.0973295662 C118.737637,0.0973295662 57.3844803,19.9836354 0.00706220454,51.517459 L54.6088484,79.7656119 C95.8248271,62.8942472 141.478124,52.8218825 188.774644,52.8218825 C249.241568,52.8218825 301.480067,66.3337413 351.226036,93.1236472 L358.992882,38.2640237 Z" id="path30" fill="#FFFFFF"></path>
                                    </g>
                                    <g id="g32" transform="translate(784.957112, 169.875019)">
                                        <path d="M0,58.3250354 L9.29928979,0.819647162 C116.804249,72.9628825 181.413081,190.311777 181.413081,329.485153 C181.413081,354.515318 178.729765,381.022188 174.360145,404.778694 L122.392439,411.116224 C128.392974,385.323094 132.184081,360.668259 132.184081,333.047706 C132.184081,219.581318 83.2197197,122.85093 0,58.3250354" id="path34" fill="#FFFFFF"></path>
                                    </g>
                                    <g id="g36" transform="translate(225.130381, 635.775800)">
                                        <path d="M404.587674,-1.70530257e-13 L403.615279,2.44271765 C316.856783,220.441424 209.979572,361.300706 131.338721,361.300706 C125.387422,361.300706 119.565365,360.476212 114.038719,358.851835 C69.634764,345.789141 42.9677735,280.777165 36.9056951,170.848718 L36.8379968,169.636588 L35.9640728,168.799788 C25.0954124,158.395165 15.3406975,146.273871 6.73069985,135.580059 L1.54869985,129.144082 L1.25328892,137.401329 C-5.11650918,317.910165 28.4741749,432.397941 93.4276523,451.502824 C99.9759279,453.428694 106.844232,454.407012 113.823315,454.407012 C207.517814,454.407012 331.633484,279.694247 430.023785,9.3094 L431.223892,6.02372941 L404.587674,-1.70530257e-13 Z" id="path38" fill="#FFFFFF" fill-rule="nonzero"></path>
                                    </g>
                                    <g id="g40" transform="translate(559.683978, 819.799773)">
                                        <path d="M25.9649214,35.3154589 C74.6338715,32.6573883 122.373508,20.9052706 163.374083,0.723623581 L213.076971,22.9542001 C152.6839,59.2011765 80.2282159,81.4932824 4.66456273,81.4932824 C3.14442734,81.4932824 1.62429195,81.4871295 0.110310952,81.4686706 L25.9649214,35.3154589 Z" id="path42" fill="#FFFFFF"></path>
                                    </g>
                                    <g id="g44" transform="translate(161.754382, 479.142644)">
                                        <path d="M309.067059,411.126802 C132.294392,368.84379 0.571890525,209.876402 0.571890525,20.218143 C0.571890525,13.2530136 0.0364582208,7.20467237 0.381104302,0.33183708 L49.8131993,23.7806959 C49.8131993,196.782943 174.870491,338.460566 339.205128,368.499225 L309.067059,411.126802 Z" id="path46" fill="#FFFFFF"></path>
                                    </g>
                                    <g id="g48" transform="translate(1393.043272, 478.025464)">
                                        <path d="M0,0 L80.087133,0 L98.9565059,53.6598 L203.359651,53.6598 L221.810525,0 L303.153154,0 L191.198568,299.309824 L111.948432,299.309824 L0,0 Z M150.948829,216.306647 L151.785827,216.306647 L184.908777,111.5036 L116.982727,111.5036 L150.948829,216.306647 Z" id="path50" fill="#FFFFFF"></path>
                                    </g>
                                    <g id="g52" transform="translate(1715.761246, 478.025464)">
                                        <path d="M0,0 L71.2801948,0 L71.2801948,118.628706 C71.2801948,142.526729 83.0227791,165.1634 109.855938,165.1634 C148.850181,165.1634 145.496036,134.977071 145.496036,105.215294 L145.496036,0 L216.77623,0 L216.77623,139.591776 C216.77623,171.033306 210.904938,223.850153 138.369247,223.850153 C112.373086,223.850153 83.0227791,210.018341 70.0246983,187.800071 L69.1877007,187.800071 L69.1877007,217.561847 L0,217.561847 L0,0 Z" id="path54" fill="#FFFFFF"></path>
                                    </g>
                                    <g id="g56" transform="translate(1958.824486, 475.686078)">
                                        <path d="M152.257507,219.903694 L108.235125,219.903694 L108.235125,285.715553 L36.9549303,285.715553 L36.9549303,219.903694 L0.89017966,219.903694 L0.89017966,173.7874 L36.9549303,173.7874 L36.9549303,76.9585648 C36.9549303,17.8472589 52.4640039,0.237541228 113.263265,0.237541228 C126.261346,0.237541228 139.259427,1.91114123 152.257507,2.34184711 L152.257507,54.7341412 C145.967716,54.7341412 139.677926,53.8973412 133.806633,53.8973412 C118.291405,53.8973412 108.235125,57.6752471 108.235125,74.8604118 L108.235125,173.7874 L152.257507,173.7874 L152.257507,219.903694 Z" id="path58" fill="#FFFFFF"></path>
                                    </g>
                                    <g id="g60" transform="translate(2132.357735, 471.290416)">
                                        <path d="M0,115.303694 C0,49.9163883 46.9641829,0.446741228 114.471734,0.446741228 C181.979285,0.446741228 229.361967,49.9163883 229.361967,115.303694 C229.361967,180.697153 181.979285,230.5852 114.471734,230.5852 C46.9641829,230.5852 0,180.697153 0,115.303694 M71.2801948,115.303694 C71.2801948,142.973471 81.3487838,176.0886 114.471734,176.0886 C147.594684,176.0886 158.081772,142.973471 158.081772,115.303694 C158.081772,87.6339177 147.594684,54.9433412 114.471734,54.9433412 C81.3487838,54.9433412 71.2801948,87.6339177 71.2801948,115.303694" id="path62" fill="#FFFFFF"></path>
                                    </g>
                                    <g id="g64" transform="translate(2398.895936, 478.025464)">
                                        <path d="M0,0 L71.2801948,0 L71.2801948,118.628706 C71.2801948,142.526729 83.0227791,165.1634 109.862093,165.1634 C148.856335,165.1634 145.50219,134.977071 145.50219,105.215294 L145.50219,0 L216.782385,0 L216.782385,139.591776 C216.782385,171.033306 210.917247,223.850153 138.369247,223.850153 C112.373086,223.850153 83.0227791,210.018341 70.0246983,187.800071 L69.1877007,187.800071 L69.1877007,217.561847 L0,217.561847 L0,0 Z" id="path66" fill="#FFFFFF"></path>
                                    </g>
                                    <g id="g68" transform="translate(2797.534879, 477.629598)">
                                        <path d="M78.4047759,237.242261 L130.821752,237.242261 C154.713111,237.242261 172.75164,225.927002 172.75164,197.838825 C172.75164,170.587449 155.143918,160.52739 130.821752,160.52739 L78.4047759,160.52739 L78.4047759,237.242261 Z M0.416291299,0.397095955 L78.4047759,0.397095955 L78.4047759,100.160884 L142.558182,100.160884 C208.385583,100.160884 250.740125,129.085861 250.740125,203.284178 C250.740125,274.135296 198.323149,299.700767 142.558182,299.700767 L0.416291299,299.700767 L0.416291299,0.397095955 Z" id="path70" fill="#FFFFFF"></path>
                                    </g>
                                    <g id="g72" transform="translate(3070.246016, 471.263150)">
                                        <path d="M75.6819934,157.254025 C79.0361383,175.700543 91.6157202,184.499249 111.322091,184.499249 C126.000321,184.499249 145.712846,178.210943 145.712846,161.862578 C145.712846,148.449167 138.998402,144.259014 126.843473,141.742461 C77.362143,131.682402 0.20450171,137.127755 0.20450171,66.2827901 C0.20450171,21.4278489 32.9151074,0.470931249 74.426497,0.470931249 C100.422658,0.470931249 127.680471,8.01443713 146.125191,27.2977548 C146.962188,20.1726489 147.80534,13.4597901 150.322487,6.76539007 L222.015027,6.76539007 C213.638896,23.9444018 213.638896,44.0706724 213.638896,62.5110371 L213.638896,157.672425 C213.638896,219.294131 163.739067,230.60939 112.165243,230.60939 C87.4245777,230.60939 62.2654138,226.419237 42.9836965,215.522378 C23.6958248,204.200967 10.2730908,185.760602 9.01759435,157.254025 L75.6819934,157.254025 Z M71.4908509,69.223896 C71.4908509,86.4090607 84.9135848,93.1157665 100.841157,96.8875195 C116.356385,101.077672 134.807259,102.339025 144.869694,108.627331 C146.549844,63.7662371 135.225758,44.4829195 101.259656,44.4829195 C85.3259293,44.4829195 71.4908509,51.6141783 71.4908509,69.223896 L71.4908509,69.223896 Z" id="path74" fill="#FFFFFF"></path>
                                    </g>
                                    <g id="g76" transform="translate(3318.765381, 471.263150)">
                                        <path d="M75.6819934,157.254025 C79.0361383,175.700543 91.6218746,184.499249 111.322091,184.499249 C126.000321,184.499249 145.706692,178.210943 145.706692,161.862578 C145.706692,148.449167 138.998402,144.259014 126.837319,141.742461 C77.3559886,131.682402 0.20450171,137.127755 0.20450171,66.2827901 C0.20450171,21.4278489 32.9151074,0.470931249 74.426497,0.470931249 C100.422658,0.470931249 127.674316,8.01443713 146.125191,27.2977548 C146.962188,20.1726489 147.80534,13.4597901 150.316333,6.76539007 L222.021181,6.76539007 C213.632742,23.9444018 213.632742,44.0706724 213.632742,62.5110371 L213.632742,157.672425 C213.632742,219.294131 163.739067,230.60939 112.165243,230.60939 C87.4184233,230.60939 62.2592594,226.419237 42.9775421,215.522378 C23.6896704,204.200967 10.2669364,185.760602 9.01759435,157.254025 L75.6819934,157.254025 Z M71.4846965,69.223896 C71.4846965,86.4090607 84.9074305,93.1157665 100.841157,96.8875195 C116.356385,101.077672 134.801105,102.339025 144.86354,108.627331 C146.543689,63.7662371 135.225758,44.4829195 101.259656,44.4829195 C85.3259293,44.4829195 71.4846965,51.6141783 71.4846965,69.223896 L71.4846965,69.223896 Z" id="path78" fill="#FFFFFF"></path>
                                    </g>
                                    <g id="g80" transform="translate(3581.747749, 478.025464)">
                                        <path d="M0,0 L71.2801948,0 L71.2801948,107.731847 C71.2801948,134.977071 89.7310689,159.293494 124.952667,159.293494 C134.596603,159.293494 142.978888,157.619894 152.204325,155.103341 L152.204325,220.0784 C146.757686,221.3336 140.892549,221.758153 135.433601,221.758153 C104.827798,221.758153 80.5056318,207.083388 70.0246983,179.413612 L69.1877007,179.413612 L69.1877007,217.561847 L0,217.561847 L0,0 Z" id="path82" fill="#FFFFFF"></path>
                                    </g>
                                    <g id="g84" transform="translate(657.269256, 0.400135)">
                                        <path d="M131.071542,11.1856253 C126.806547,143.153908 101.838169,296.300614 58.8743426,454.062025 C48.7749815,491.145802 38.6510029,524.863919 26.0529578,563.412096 L26.0221858,563.492084 C17.393725,562.230731 8.7406466,560.895543 0.0629506411,559.474214 L0.672235677,557.769849 C17.7814518,509.32159 31.7703901,464.663543 44.6884637,417.236672 C78.6914922,292.393496 103.992207,147.485578 112.374492,29.6136841 L112.436036,28.8014959 L131.422343,0.448742962 L131.071542,11.1856253 Z" id="path86" fill="#FFFFFF" fill-rule="nonzero"></path>
                                    </g>
                                </g>
                            </g>
                        </g>
                    </g>
                </g>
            </g>
        </g>
    </g>
</svg>