<?xml version="1.0" encoding="UTF-8"?>
<svg width="3102px" height="1637px" viewBox="0 0 3102 1637" version="1.1" xmlns="http://www.w3.org/2000/svg" xmlns:xlink="http://www.w3.org/1999/xlink">
    <!-- Generator: Sketch 57 (83077) - https://sketch.com -->
    <title>BDC_Logo_Horiz_K_web (1)</title>
    <desc>Created with Sketch.</desc>
    <g id="Social-Media-2019" stroke="none" stroke-width="1" fill="none" fill-rule="evenodd" opacity="0.949893043">
        <g id="Pitch---BDC" transform="translate(-1009.000000, -1489.000000)" fill="#FFFFFF" fill-rule="nonzero">
            <g id="BDC_Logo_Horiz_K_web-(1)" transform="translate(1009.000000, 1489.000000)">
                <g id="Group" transform="translate(1551.000000, 818.500000) scale(-1, 1) rotate(-180.000000) translate(-1551.000000, -818.500000) ">
                    <path d="M2485.58422,1632.38062 C2483.30752,1630.67311 2481.6,1566.92603 2481.6,1490.6572 C2481.6,1414.95754 2479.89248,1348.93378 2478.18495,1343.81125 C2471.35486,1326.73613 2444.0345,1334.70452 2339.8756,1383.084 C2282.38899,1409.83501 2232.87083,1431.46348 2228.88661,1431.46348 C2219.21064,1430.89431 2117.89761,1207.77953 2125.29688,1202.65699 C2128.71193,1200.38031 2176.52257,1177.6135 2231.1633,1152.00083 C2329.63046,1105.89803 2344.99817,1096.22213 2344.99817,1079.14702 C2344.99817,1074.59366 2305.15596,1030.76754 2256.77615,981.81889 L2168.55413,893.028312 L2258.48367,804.237734 L2347.84404,714.877986 L2438.91193,802.530223 C2488.99927,850.909705 2534.53321,890.18246 2539.65578,890.751631 C2544.77835,890.751631 2553.31596,886.767438 2557.86936,881.644905 C2565.8378,874.24569 2566.97615,853.186386 2566.97615,739.352312 L2566.97615,606.166445 L2612.51009,606.166445 L2658.04404,606.166445 L2658.04404,739.352312 C2658.04404,853.186386 2659.18239,874.24569 2667.15083,881.644905 C2671.70422,886.767438 2680.24183,890.751631 2685.3644,890.751631 C2690.48697,890.751631 2735.45174,850.340534 2784.40073,801.391882 L2874.33028,711.462964 L2962.55229,799.684371 C3010.93211,848.063853 3050.77431,890.18246 3050.77431,893.597482 C3050.77431,896.443334 3012.07046,937.992771 2964.25982,985.803083 C2882.86789,1067.19445 2877.74532,1073.45532 2882.86789,1087.11541 C2887.42128,1099.63716 2907.34239,1111.02056 2990.44183,1150.29332 C3046.22092,1176.47516 3094.03156,1198.10363 3096.87743,1198.10363 C3107.12257,1198.10363 3100.86165,1214.0404 3051.91266,1320.47526 C3008.65541,1412.68086 2999.54862,1428.61763 2989.30349,1427.47929 C2983.04257,1426.91012 2932.95523,1405.28165 2878.3145,1380.23815 C2824.24294,1355.19465 2772.44807,1334.70452 2763.91046,1334.70452 C2753.09615,1334.70452 2747.4044,1338.68871 2743.42018,1349.50295 C2740.00514,1357.47133 2737.72844,1425.20261 2737.72844,1500.3331 L2737.72844,1636.36482 L2613.64844,1636.36482 C2545.34752,1636.36482 2487.29174,1634.65731 2485.58422,1632.38062 Z" id="Path"></path>
                    <path d="M3.98422018,1040.44344 C1.70752294,1038.73593 0,806.514416 0,525.344252 L0,14.2292593 L105.297248,14.2292593 L210.594495,14.2292593 L210.594495,30.7352 C210.594495,54.6403556 217.424587,56.3478667 245.883303,39.841926 C290.848073,13.6600889 338.658716,2.27668148 401.26789,2.27668148 C505.995963,2.84585185 574.296881,30.7352 646.582018,102.450667 C726.835596,182.134519 754.155963,257.834178 750.171743,389.881704 C747.895046,454.197956 745.049174,473.549749 733.096514,508.269141 C700.084404,599.905571 640.321101,669.913527 561.205872,708.617112 C501.442569,738.213971 458.754495,748.459038 398.422018,748.459038 C343.781284,748.459038 298.247339,738.213971 256.12844,717.154667 C207.17945,692.680342 210.594495,680.727764 210.594495,873.676519 L210.594495,1044.42763 L109.281468,1044.42763 C53.5023853,1044.42763 5.69174312,1042.72012 3.98422018,1040.44344 Z M441.110092,546.972727 C476.398899,530.466786 507.703486,498.024075 524.778716,461.028001 C543.561468,420.616904 543.561468,326.134623 525.917064,286.861867 C496.32,222.545615 442.24844,187.826222 372.809174,188.395393 C350.042202,188.395393 324.429358,192.379585 312.476697,197.502119 C282.310459,210.593037 245.883303,245.31243 228.808073,278.324311 C214.578716,305.075319 213.440367,313.043704 213.440367,372.806593 C213.440367,430.2928 215.14789,441.676208 227.10055,466.150534 C266.942752,547.541897 363.133211,583.968801 441.110092,546.972727 Z" id="Shape"></path>
                    <path d="M1330.72954,1041.01261 C1327.88367,1038.73593 1326.17615,961.897927 1326.17615,870.830668 C1326.17615,779.763408 1324.46862,702.925408 1322.7611,701.217897 C1320.4844,699.510386 1308.53174,703.494579 1295.44073,711.462964 C1282.9189,718.862179 1253.32183,730.245586 1230.55486,737.07563 C1173.06826,754.719912 1086.55376,751.30489 1025.65211,729.676416 C859.453211,671.051867 766.677798,508.269141 790.583119,315.889556 C799.120734,248.727452 816.195963,202.055482 850.346422,151.399319 C916.939817,54.0711852 1021.09872,0.569170371 1144.04037,1.1338458 C1202.66532,1.70751111 1249.90679,13.6600889 1295.44073,40.4110963 C1319.34606,54.6403556 1319.91523,54.6403556 1325.60697,43.2569482 C1329.02202,36.9960741 1331.86789,27.8893482 1331.86789,22.1976445 C1331.86789,13.0909185 1338.12881,12.5217482 1404.7222,15.9367704 C1444.5644,18.2134519 1490.66752,19.920963 1507.17358,19.920963 L1536.77064,19.920963 L1536.77064,529.328445 L1536.77064,1038.73593 L1478.14569,1038.73593 C1445.70275,1038.73593 1400.16881,1040.44344 1376.83266,1042.15095 C1353.49651,1043.85846 1333.00624,1043.85846 1330.72954,1041.01261 Z M1221.44807,550.956919 C1239.66165,544.696045 1259.01358,531.605127 1278.93468,512.253334 C1317.63853,472.980578 1335.28294,421.755245 1330.16037,358.008163 C1322.19193,253.849985 1257.87523,187.826222 1163.96147,188.391742 C1113.30495,188.391742 1080.29284,203.193822 1045.00404,242.466578 C1011.99193,279.462652 999.470092,316.458726 999.470092,375.652445 C1000.60844,458.182149 1042.72734,528.759275 1104.76734,550.956919 C1138.34862,562.909497 1186.72844,562.909497 1221.44807,550.956919 Z" id="Shape"></path>
                    <path d="M1852.66239,739.352312 C1718.90642,706.909601 1613.04,600.474741 1578.88954,463.873852 C1564.66018,408.095156 1569.78275,303.367808 1589.70385,248.727452 C1638.08367,110.419052 1757.0411,17.6442815 1903.88807,2.84585185 C2029.10642,-9.67589631 2138.95706,26.7510074 2224.90239,109.849882 L2261.89872,145.707615 L2192.45945,215.1464 L2123.58936,284.016015 L2092.28477,253.849985 C2074.64037,237.913215 2046.18165,217.423082 2028.53725,209.454697 C2000.07853,196.363778 1991.54092,195.225437 1947.7145,197.502119 C1890.79706,200.347971 1864.61505,211.162208 1832.17211,245.8816 C1794.03743,285.154356 1784.36147,311.336193 1784.36147,372.806593 C1784.36147,437.122845 1795.17578,466.150534 1832.74128,503.715778 C1866.89174,537.866001 1900.47303,551.526089 1952.26789,551.526089 C2004.63193,552.09526 2035.93651,539.004341 2077.48624,500.300756 L2106.51413,473.549749 L2173.10752,538.435171 C2209.53468,574.292904 2239.70092,606.735615 2239.70092,610.719808 C2239.70092,623.241556 2155.46312,691.542001 2114.48257,711.462964 C2092.85394,722.846371 2056.99596,735.368119 2034.79817,739.921482 C1984.71083,750.166549 1897.62716,750.166549 1852.66239,739.352312 Z" id="Path"></path>
                </g>
            </g>
        </g>
    </g>
</svg>