<svg width="795" height="249" viewBox="0 0 795 249" fill="none" xmlns="http://www.w3.org/2000/svg">
<path d="M234.602 145.54V39.5088H244.375V82.1885C248.5 77.126 253.117 73.3525 258.227 70.8682C263.336 68.3369 268.938 67.0713 275.031 67.0713C285.859 67.0713 295.094 71.0088 302.734 78.8838C310.422 86.7119 314.266 96.2275 314.266 107.431C314.266 118.493 310.398 127.938 302.664 135.767C294.93 143.595 285.625 147.509 274.75 147.509C268.516 147.509 262.867 146.173 257.805 143.501C252.742 140.829 248.266 136.821 244.375 131.478V145.54H234.602ZM273.977 138.017C279.461 138.017 284.523 136.681 289.164 134.009C293.805 131.29 297.484 127.493 300.203 122.618C302.969 117.743 304.352 112.587 304.352 107.149C304.352 101.712 302.969 96.5322 300.203 91.6104C297.438 86.6885 293.711 82.8682 289.023 80.1494C284.383 77.3838 279.414 76.001 274.117 76.001C268.727 76.001 263.594 77.3838 258.719 80.1494C253.891 82.8682 250.164 86.5479 247.539 91.1885C244.961 95.8291 243.672 101.056 243.672 106.868C243.672 115.728 246.578 123.134 252.391 129.087C258.25 135.04 265.445 138.017 273.977 138.017ZM335.711 37.54C337.961 37.54 339.883 38.3369 341.477 39.9307C343.07 41.5244 343.867 43.4463 343.867 45.6963C343.867 47.8994 343.07 49.7979 341.477 51.3916C339.883 52.9854 337.961 53.7822 335.711 53.7822C333.508 53.7822 331.609 52.9854 330.016 51.3916C328.422 49.7979 327.625 47.8994 327.625 45.6963C327.625 43.4463 328.422 41.5244 330.016 39.9307C331.609 38.3369 333.508 37.54 335.711 37.54ZM330.789 69.04H340.703V145.54H330.789V69.04ZM397.305 67.0713C409.07 67.0713 418.82 71.3369 426.555 79.8682C433.586 87.6494 437.102 96.8604 437.102 107.501C437.102 118.188 433.375 127.54 425.922 135.556C418.516 143.524 408.977 147.509 397.305 147.509C385.586 147.509 376 143.524 368.547 135.556C361.141 127.54 357.438 118.188 357.438 107.501C357.438 96.9072 360.953 87.7197 367.984 79.9385C375.719 71.3604 385.492 67.0713 397.305 67.0713ZM397.305 76.7041C389.148 76.7041 382.141 79.7275 376.281 85.7744C370.422 91.8213 367.492 99.1338 367.492 107.712C367.492 113.243 368.828 118.399 371.5 123.181C374.172 127.962 377.781 131.665 382.328 134.29C386.875 136.868 391.867 138.157 397.305 138.157C402.742 138.157 407.734 136.868 412.281 134.29C416.828 131.665 420.438 127.962 423.109 123.181C425.781 118.399 427.117 113.243 427.117 107.712C427.117 99.1338 424.164 91.8213 418.258 85.7744C412.398 79.7275 405.414 76.7041 397.305 76.7041ZM446.102 42.1104H503.266V61.5166H484.422V145.54H464.453V61.5166H446.102V42.1104ZM516.836 42.1104H573.297V61.376H536.383V80.0791H573.297V98.9932H536.383V126.204H573.297V145.54H516.836V42.1104Z" fill="white"/>
<path d="M1 200.239L98.2174 200.554L116.93 131.499L142.154 246.605L174.209 53.54L199.966 200.554H450.596" stroke="white" stroke-width="17"/>
<path d="M450 200.672H593.218L627.793 127.54" stroke="white" stroke-width="17"/>
<path fill-rule="evenodd" clip-rule="evenodd" d="M691.934 123.534C682.47 139.43 665.114 150.08 645.27 150.08C615.298 150.08 591 125.783 591 95.81C591 65.8375 615.298 41.54 645.27 41.54C665.271 41.54 682.745 52.3602 692.158 68.4664L669.493 76.566L662.972 65.2714H627.657L610 95.855L627.658 126.439H662.972L669.316 115.451L691.934 123.534Z" fill="white"/>
<path d="M670.864 205.896C671.675 205.896 672.293 206.131 672.72 206.6C673.147 207.069 673.317 207.688 673.232 208.456L672.656 213H643.28L643.6 210.472C643.664 209.96 643.824 209.427 644.08 208.872C644.357 208.296 644.773 207.773 645.328 207.304L659.856 193.128C661.285 191.763 662.523 190.483 663.568 189.288C664.635 188.072 665.52 186.888 666.224 185.736C666.928 184.563 667.451 183.379 667.792 182.184C668.155 180.989 668.336 179.709 668.336 178.344C668.336 176.488 667.877 175.08 666.96 174.12C666.043 173.16 664.763 172.68 663.12 172.68C662.288 172.68 661.499 172.819 660.752 173.096C660.027 173.373 659.355 173.757 658.736 174.248C658.139 174.739 657.605 175.325 657.136 176.008C656.688 176.669 656.325 177.395 656.048 178.184C655.579 179.144 655.045 179.784 654.448 180.104C653.851 180.403 653.04 180.467 652.016 180.296L648.08 179.592C648.656 177.395 649.467 175.464 650.512 173.8C651.579 172.115 652.816 170.717 654.224 169.608C655.653 168.499 657.221 167.667 658.928 167.112C660.656 166.536 662.469 166.248 664.368 166.248C666.181 166.248 667.813 166.525 669.264 167.08C670.736 167.613 671.984 168.381 673.008 169.384C674.032 170.387 674.821 171.592 675.376 173C675.931 174.408 676.208 175.965 676.208 177.672C676.208 179.613 675.92 181.395 675.344 183.016C674.789 184.616 674.021 186.141 673.04 187.592C672.08 189.021 670.949 190.419 669.648 191.784C668.368 193.128 667.003 194.504 665.552 195.912L654.352 206.92C655.419 206.621 656.475 206.376 657.52 206.184C658.587 205.992 659.568 205.896 660.464 205.896H670.864ZM715.165 184.808C715.165 189.651 714.653 193.875 713.629 197.48C712.626 201.064 711.261 204.051 709.533 206.44C707.805 208.808 705.789 210.579 703.485 211.752C701.181 212.925 698.738 213.512 696.157 213.512C694.216 213.512 692.434 213.128 690.813 212.36C689.213 211.592 687.837 210.44 686.685 208.904C685.533 207.347 684.637 205.405 683.997 203.08C683.357 200.755 683.037 198.045 683.037 194.952C683.037 190.109 683.538 185.896 684.541 182.312C685.544 178.707 686.898 175.72 688.605 173.352C690.312 170.963 692.306 169.181 694.589 168.008C696.893 166.835 699.346 166.248 701.949 166.248C703.89 166.248 705.661 166.632 707.261 167.4C708.882 168.168 710.28 169.331 711.453 170.888C712.626 172.424 713.533 174.355 714.173 176.68C714.834 179.005 715.165 181.715 715.165 184.808ZM707.325 184.424C707.325 182.205 707.154 180.349 706.813 178.856C706.493 177.341 706.045 176.125 705.469 175.208C704.914 174.269 704.264 173.597 703.517 173.192C702.792 172.787 702.013 172.584 701.181 172.584C700.328 172.584 699.474 172.755 698.621 173.096C697.789 173.416 696.989 173.939 696.221 174.664C695.453 175.389 694.738 176.339 694.077 177.512C693.416 178.685 692.84 180.125 692.349 181.832C691.88 183.517 691.506 185.48 691.229 187.72C690.973 189.96 690.845 192.52 690.845 195.4C690.845 197.597 691.005 199.453 691.325 200.968C691.666 202.461 692.114 203.667 692.669 204.584C693.224 205.501 693.864 206.163 694.589 206.568C695.336 206.973 696.114 207.176 696.925 207.176C698.205 207.176 699.464 206.803 700.701 206.056C701.938 205.309 703.048 204.051 704.029 202.28C705.01 200.509 705.8 198.173 706.397 195.272C707.016 192.371 707.325 188.755 707.325 184.424ZM747.114 205.896C747.925 205.896 748.543 206.131 748.97 206.6C749.397 207.069 749.567 207.688 749.482 208.456L748.906 213H719.53L719.85 210.472C719.914 209.96 720.074 209.427 720.33 208.872C720.607 208.296 721.023 207.773 721.578 207.304L736.106 193.128C737.535 191.763 738.773 190.483 739.818 189.288C740.885 188.072 741.77 186.888 742.474 185.736C743.178 184.563 743.701 183.379 744.042 182.184C744.405 180.989 744.586 179.709 744.586 178.344C744.586 176.488 744.127 175.08 743.21 174.12C742.293 173.16 741.013 172.68 739.37 172.68C738.538 172.68 737.749 172.819 737.002 173.096C736.277 173.373 735.605 173.757 734.986 174.248C734.389 174.739 733.855 175.325 733.386 176.008C732.938 176.669 732.575 177.395 732.298 178.184C731.829 179.144 731.295 179.784 730.698 180.104C730.101 180.403 729.29 180.467 728.266 180.296L724.33 179.592C724.906 177.395 725.717 175.464 726.762 173.8C727.829 172.115 729.066 170.717 730.474 169.608C731.903 168.499 733.471 167.667 735.178 167.112C736.906 166.536 738.719 166.248 740.618 166.248C742.431 166.248 744.063 166.525 745.514 167.08C746.986 167.613 748.234 168.381 749.258 169.384C750.282 170.387 751.071 171.592 751.626 173C752.181 174.408 752.458 175.965 752.458 177.672C752.458 179.613 752.17 181.395 751.594 183.016C751.039 184.616 750.271 186.141 749.29 187.592C748.33 189.021 747.199 190.419 745.898 191.784C744.618 193.128 743.253 194.504 741.802 195.912L730.602 206.92C731.669 206.621 732.725 206.376 733.77 206.184C734.837 205.992 735.818 205.896 736.714 205.896H747.114ZM791.415 184.808C791.415 189.651 790.903 193.875 789.879 197.48C788.876 201.064 787.511 204.051 785.783 206.44C784.055 208.808 782.039 210.579 779.735 211.752C777.431 212.925 774.988 213.512 772.407 213.512C770.466 213.512 768.684 213.128 767.063 212.36C765.463 211.592 764.087 210.44 762.935 208.904C761.783 207.347 760.887 205.405 760.247 203.08C759.607 200.755 759.287 198.045 759.287 194.952C759.287 190.109 759.788 185.896 760.791 182.312C761.794 178.707 763.148 175.72 764.855 173.352C766.562 170.963 768.556 169.181 770.839 168.008C773.143 166.835 775.596 166.248 778.199 166.248C780.14 166.248 781.911 166.632 783.511 167.4C785.132 168.168 786.53 169.331 787.703 170.888C788.876 172.424 789.783 174.355 790.423 176.68C791.084 179.005 791.415 181.715 791.415 184.808ZM783.575 184.424C783.575 182.205 783.404 180.349 783.063 178.856C782.743 177.341 782.295 176.125 781.719 175.208C781.164 174.269 780.514 173.597 779.767 173.192C779.042 172.787 778.263 172.584 777.431 172.584C776.578 172.584 775.724 172.755 774.871 173.096C774.039 173.416 773.239 173.939 772.471 174.664C771.703 175.389 770.988 176.339 770.327 177.512C769.666 178.685 769.09 180.125 768.599 181.832C768.13 183.517 767.756 185.48 767.479 187.72C767.223 189.96 767.095 192.52 767.095 195.4C767.095 197.597 767.255 199.453 767.575 200.968C767.916 202.461 768.364 203.667 768.919 204.584C769.474 205.501 770.114 206.163 770.839 206.568C771.586 206.973 772.364 207.176 773.175 207.176C774.455 207.176 775.714 206.803 776.951 206.056C778.188 205.309 779.298 204.051 780.279 202.28C781.26 200.509 782.05 198.173 782.647 195.272C783.266 192.371 783.575 188.755 783.575 184.424Z" fill="white"/>
</svg>
