<?xml version="1.0" encoding="UTF-8"?>
<svg width="482px" height="291px" viewBox="0 0 482 291" version="1.1" xmlns="http://www.w3.org/2000/svg" xmlns:xlink="http://www.w3.org/1999/xlink">
    <!-- Generator: Sketch 57 (83077) - https://sketch.com -->
    <title>BioTalent_Logo_black_NoTag</title>
    <desc>Created with Sketch.</desc>
    <defs>
        <polygon id="path-1" points="0.06 0.724 49.581 0.724 49.581 56.682 0.06 56.682"></polygon>
        <polygon id="path-3" points="0.618281115 0.741 311.888129 0.741 311.888129 198.18387 0.618281115 198.18387"></polygon>
    </defs>
    <g id="Pamphlet-2019" stroke="none" stroke-width="1" fill="none" fill-rule="evenodd">
        <g id="BioTalent_Logo_black_NoTag">
            <g id="Group-3" transform="translate(0.000000, 189.000000)">
                <mask id="mask-2" fill="white">
                    <use xlink:href="#path-1"></use>
                </mask>
                <g id="Clip-2"></g>
                <path d="M20.468,52.739 C25.251,52.739 26.842,52.404 28.856,50.976 C31.376,49.215 32.719,45.862 32.719,41.412 C32.719,37.221 31.627,34.199 29.364,32.353 C27.265,30.508 25.166,30.001 20.3,30.001 L16.273,30.001 L16.273,52.739 L20.468,52.739 Z M20.3,26.228 C28.357,26.228 31.712,23.041 31.712,15.488 C31.712,7.852 28.357,4.664 20.218,4.664 L16.273,4.664 L16.273,26.228 L20.3,26.228 Z M31.712,28.155 C35.988,28.408 38.002,28.744 40.772,29.751 C46.476,31.849 49.581,36.125 49.581,41.834 C49.581,47.874 46.059,52.826 40.35,54.839 C36.324,56.263 32.297,56.682 23.405,56.682 L0,56.682 L0,0.724 L24.33,0.724 C40.436,0.724 48.071,5.086 48.071,14.23 C48.071,22.537 42.784,26.813 31.712,27.57 L31.712,28.155 L31.712,28.155 Z" id="Fill-1" fill="#FFFFFF" mask="url(#mask-2)"></path>
            </g>
            <polygon id="Fill-4" fill="#FFFFFF" points="55.956 245.682 71.313 245.682 71.313 207.928 55.956 207.928"></polygon>
            <path d="M92.787,226.805 C92.787,238.384 94.972,242.914 100.504,242.914 C106.044,242.914 108.226,238.384 108.226,226.973 C108.226,215.142 106.129,210.699 100.504,210.699 C94.972,210.699 92.787,215.31 92.787,226.805 Z M124.248,227.226 C124.248,239.558 115.44,246.856 100.504,246.856 C85.319,246.856 76.763,239.64 76.763,226.805 C76.763,213.887 85.319,206.754 100.839,206.754 C108.393,206.754 114.768,208.852 118.88,212.711 C122.571,216.235 124.248,220.682 124.248,227.226 Z" id="Fill-5" fill="#FFFFFF"></path>
            <polygon id="Fill-6" fill="#FFFFFF" points="124.192 204.238 124.192 190.875 183.253 190.875 183.253 204.238 165.26 204.238 165.26 245.682 142.186 245.682 142.186 204.238"></polygon>
            <path d="M211.492,229.668 C202.838,229.668 199.498,231.563 199.498,234.751 C199.498,236.952 201.395,239.078 205.266,239.078 C210.809,239.078 214.3,235.435 214.3,230.882 L214.3,229.668 L211.492,229.668 Z M180.369,218.584 C180.669,213.648 184.313,210.538 189.401,208.638 C194.489,206.742 200.942,206.134 206.787,206.134 C226.746,206.134 235.702,210.308 235.702,222.453 L235.702,240.597 C235.702,242.04 235.859,243.556 236.236,245.682 L216.35,245.682 L215.971,240.218 C211.718,245.53 205.795,247.124 197.976,247.124 C193.197,247.124 188.417,246.898 185.226,245.682 C181.355,244.24 178.09,241.053 178.09,235.965 C178.09,224.581 192.288,222.38 208.152,222.38 L214.3,222.38 L214.3,220.253 C214.3,217.066 212.705,214.179 207.77,214.179 C202.612,214.179 201.017,216.231 200.638,218.584 L180.369,218.584 L180.369,218.584 Z" id="Fill-7" fill="#FFFFFF"></path>
            <polygon id="Fill-8" fill="#FFFFFF" points="243.661 245.682 265.978 245.682 265.978 190.875 243.661 190.875"></polygon>
            <path d="M308.777,222.38 C308.777,217.443 306.425,214.179 301.34,214.179 C296.558,214.179 293.898,217.371 293.898,222.38 L308.777,222.38 Z M293.898,229.668 C293.898,236.117 296.479,239.078 301.566,239.078 C305.892,239.078 307.64,237.105 308.248,234.678 L330.108,234.678 C329.425,241.053 321.606,247.124 301.945,247.124 C284.108,247.124 272.037,241.278 272.037,226.859 C272.037,212.056 284.486,206.134 301.34,206.134 C315.914,206.134 330.642,210.765 330.642,227.615 L330.642,229.668 L293.898,229.668 L293.898,229.668 Z" id="Fill-9" fill="#FFFFFF"></path>
            <path d="M337.788,222.532 C337.788,217.443 337.712,212.434 337.331,207.577 L359.342,207.577 L359.646,214.256 L359.805,214.256 C363.448,208.868 369.439,206.134 377.184,206.134 C384.017,206.134 395.783,208.411 395.783,222.911 L395.783,245.682 L373.467,245.682 L373.467,225.264 C373.467,219.644 371.266,217.67 367.392,217.67 C362.23,217.67 360.107,220.861 360.107,226.708 L360.107,245.682 L337.788,245.682 L337.788,222.532" id="Fill-10" fill="#FFFFFF"></path>
            <path d="M428.875,193.988 L428.875,207.577 L440.111,207.577 L440.111,218.205 L428.875,218.205 L428.875,229.285 C428.875,233.995 431.233,236.043 436.315,236.043 C437.378,236.043 438.82,235.891 440.34,235.513 L440.34,245.682 C437.608,246.288 430.545,247.124 425.158,247.124 C411.039,247.124 406.785,243.405 406.785,231.488 L406.785,218.205 L400.489,218.205 L400.489,207.577 L406.559,207.577 L406.559,200.898 L428.875,193.988" id="Fill-11" fill="#FFFFFF"></path>
            <path d="M264.208,268.85 C263.725,265.335 260.868,264.104 257.352,264.104 C251.332,264.104 248.432,268.323 248.432,274.124 C248.432,279.75 250.849,284.496 257.089,284.496 C260.604,284.496 263.813,283.265 264.12,279.398 L273.877,279.398 C273.481,288.759 265.746,291 256.166,291 C246.673,291 238.938,286.166 238.938,274.344 C238.938,262.434 246.321,257.6 257.66,257.6 C265.746,257.6 273.569,260.457 273.701,268.85 L264.208,268.85" id="Fill-12" fill="#FFFFFF"></path>
            <path d="M292.905,280.541 C287.236,280.541 286.049,282.035 286.049,283.881 C286.049,285.243 287.324,286.166 289.697,286.166 C295.19,286.166 296.421,282.826 296.421,280.541 L292.905,280.541 Z M278.622,274.607 C279.061,268.85 285.521,267.268 291.323,267.268 C299.936,267.268 304.858,269.334 304.858,276.805 L304.858,285.243 C304.858,286.869 304.902,288.539 305.034,290.165 L296.86,290.165 C296.772,289.418 296.684,287.792 296.684,286.605 L296.597,286.605 C294.575,289.945 290.796,291 287.06,291 C280.775,291 277.084,288.451 277.084,283.837 C277.084,278.606 282.006,276.233 290.268,276.233 L296.421,276.233 C296.421,272.718 294.795,271.839 291.455,271.839 C288.335,271.839 287.368,273.069 287.324,274.607 L278.622,274.607 L278.622,274.607 Z" id="Fill-13" fill="#FFFFFF"></path>
            <path d="M310.923,272.63 C310.923,271.223 310.879,269.598 310.747,268.103 L318.922,268.103 C319.01,269.422 319.098,270.74 319.098,272.058 L319.185,272.058 C321.383,269.114 324.679,267.268 328.546,267.268 C336.588,267.268 339.62,271.839 339.62,277.596 L339.62,290.165 L331.183,290.165 L331.183,278.87 C331.183,275.354 329.645,272.893 325.821,272.893 C322.35,272.893 319.361,275.574 319.361,280.453 L319.361,290.165 L310.923,290.165 L310.923,272.63" id="Fill-14" fill="#FFFFFF"></path>
            <path d="M360.407,280.541 C354.738,280.541 353.551,282.035 353.551,283.881 C353.551,285.243 354.826,286.166 357.199,286.166 C362.692,286.166 363.923,282.826 363.923,280.541 L360.407,280.541 Z M346.124,274.607 C346.563,268.85 353.023,267.268 358.825,267.268 C367.438,267.268 372.36,269.334 372.36,276.805 L372.36,285.243 C372.36,286.869 372.404,288.539 372.536,290.165 L364.362,290.165 C364.274,289.418 364.186,287.792 364.186,286.605 L364.099,286.605 C362.077,289.945 358.298,291 354.563,291 C348.277,291 344.586,288.451 344.586,283.837 C344.586,278.606 349.508,276.233 357.77,276.233 L363.923,276.233 C363.923,272.718 362.297,271.839 358.957,271.839 C355.837,271.839 354.87,273.069 354.826,274.607 L346.124,274.607 L346.124,274.607 Z" id="Fill-15" fill="#FFFFFF"></path>
            <path d="M392.137,285.902 C395.96,285.902 398.684,283.222 398.684,279.31 C398.684,275.047 395.96,272.366 392.137,272.366 C388.401,272.366 385.764,275.135 385.764,279.002 C385.764,282.562 387.786,285.902 392.137,285.902 Z M407.122,286.517 C407.122,287.88 407.166,288.978 407.298,290.165 L399.124,290.165 C398.992,288.934 398.948,287.748 398.948,286.517 C397.015,288.803 394.554,291 389.06,291 C382.072,291 376.799,286.561 376.799,279.002 C376.799,271.707 381.896,267.268 389.28,267.268 C394.158,267.268 396.971,269.246 398.684,271.004 L398.684,258.435 L407.122,258.435 L407.122,286.517 L407.122,286.517 Z" id="Fill-16" fill="#FFFFFF"></path>
            <path d="M427.909,280.541 C422.24,280.541 421.053,282.035 421.053,283.881 C421.053,285.243 422.328,286.166 424.701,286.166 C430.194,286.166 431.425,282.826 431.425,280.541 L427.909,280.541 Z M413.626,274.607 C414.065,268.85 420.525,267.268 426.327,267.268 C434.94,267.268 439.862,269.334 439.862,276.805 L439.862,285.243 C439.862,286.869 439.906,288.539 440.038,290.165 L431.864,290.165 C431.776,289.418 431.688,287.792 431.688,286.605 L431.601,286.605 C429.579,289.945 425.8,291 422.064,291 C415.779,291 412.088,288.451 412.088,283.837 C412.088,278.606 417.01,276.233 425.272,276.233 L431.425,276.233 C431.425,272.718 429.799,271.839 426.459,271.839 C423.339,271.839 422.372,273.069 422.328,274.607 L413.626,274.607 L413.626,274.607 Z" id="Fill-17" fill="#FFFFFF"></path>
            <g id="Group-21" transform="translate(47.000000, 0.000000)">
                <mask id="mask-4" fill="white">
                    <use xlink:href="#path-3"></use>
                </mask>
                <g id="Clip-19"></g>
                <path d="M44.606,119.067 C44.606,125.263 39.58,130.288 33.389,130.288 C27.189,130.288 22.163,125.263 22.163,119.067 C22.163,112.871 27.189,107.847 33.389,107.847 C39.58,107.847 44.606,112.871 44.606,119.067" id="Fill-18" fill="#FFFFFF" mask="url(#mask-4)"></path>
                <path d="M290.725,7.979 C292.084,4.301 288.689,12.682 288.121,13.959 C285.045,20.823 281.543,27.485 277.865,34.035 C266.172,54.853 251.623,73.762 234.869,90.509 C185.812,139.576 121.841,153.276 57.653,143.799 C91.338,102.744 141.026,78.082 196.078,88.898 C201.689,89.995 220.375,80.776 209.115,78.562 C144.949,65.953 82.867,93.15 41.669,140.964 C33.509,139.278 25.365,137.239 17.268,134.861 C9.687,132.631 -7.275,144.095 4.872,147.661 C13.612,150.228 22.385,152.423 31.165,154.233 C22.008,166.829 14.203,180.558 8.039,195.147 C5.744,200.565 26.021,198.254 28.664,191.997 C33.856,179.71 40.236,168.011 47.638,157.171 C115.838,167.408 183.582,153.53 239.314,106.715 C270.209,80.766 297.238,44.331 311.59,5.756 C314.619,-2.396 293.637,0.142 290.725,7.979" id="Fill-20" fill="#FFFFFF" mask="url(#mask-4)"></path>
            </g>
            <polyline id="Fill-22" fill="#FFFFFF" points="440.124 194.145 446.881 194.145 446.881 195.532 444.397 195.532 444.397 202.485 442.607 202.485 442.607 195.532 440.124 195.532 440.124 194.145"></polyline>
            <polyline id="Fill-23" fill="#FFFFFF" points="453.114 202.485 451.625 202.485 449.418 195.324 449.395 195.347 449.395 202.485 447.721 202.485 447.721 194.145 450.654 194.145 452.398 200.21 452.422 200.21 454.316 194.145 457.145 194.145 457.145 202.485 455.471 202.485 455.471 195.347 455.448 195.324 453.114 202.485"></polyline>
            <polyline id="Fill-24" fill="#FFFFFF" points="459.762 203.594 458.41 203.594 461.228 194.145 462.568 194.145 459.762 203.594"></polyline>
            <polyline id="Fill-25" fill="#FFFFFF" points="469.137 202.485 467.647 202.485 465.44 195.324 465.418 195.347 465.418 202.485 463.743 202.485 463.743 194.145 466.677 194.145 468.421 200.21 468.444 200.21 470.339 194.145 473.168 194.145 473.168 202.485 471.493 202.485 471.493 195.347 471.471 195.324 469.137 202.485"></polyline>
            <path d="M479.434,196.848 C479.445,195.971 478.914,195.266 477.84,195.266 C476.569,195.266 476.246,197.149 476.246,198.315 C476.246,199.482 476.569,201.365 477.84,201.365 C478.914,201.365 479.445,200.66 479.434,199.782 L481.34,199.782 C481.259,201.873 479.758,202.659 477.84,202.659 C475.426,202.659 474.34,200.753 474.34,198.315 C474.34,195.878 475.426,193.972 477.84,193.972 C479.758,193.972 481.259,194.758 481.34,196.848 L479.434,196.848" id="Fill-26" fill="#FFFFFF"></path>
        </g>
    </g>
</svg>