<?xml version="1.0" encoding="UTF-8"?>
<svg width="2904px" height="1213px" viewBox="0 0 2904 1213" version="1.1" xmlns="http://www.w3.org/2000/svg" xmlns:xlink="http://www.w3.org/1999/xlink">
    <!-- Generator: Sketch 57 (83077) - https://sketch.com -->
    <title>bioTE</title>
    <desc>Created with Sketch.</desc>
    <defs>
        <path d="M0.7265625,608.028006 L0.7265625,162.696756 L41.775,162.696756 L41.775,341.951443 C59.1000866,320.688837 78.4920802,304.79134 99.9515625,294.258474 C121.411045,283.725609 144.937372,278.459256 170.53125,278.459256 C216.009602,278.459256 254.842808,294.947372 287.032031,327.924099 C319.221255,360.900827 335.315625,400.91527 335.315625,447.968631 C335.315625,494.431363 319.0736,534.101279 286.589063,566.979568 C254.104525,599.857857 215.025228,616.296756 169.35,616.296756 C143.165494,616.296756 119.442294,610.685874 98.1796875,599.463943 C76.9170812,588.242012 58.1157067,571.409368 41.775,548.965506 L41.775,608.028006 L0.7265625,608.028006 Z M166.101562,576.429568 C189.136053,576.429568 210.39834,570.769468 229.889063,559.449099 C249.379785,548.12873 264.883536,532.231233 276.400781,511.756131 C287.918026,491.281028 293.676563,469.624995 293.676563,446.787381 C293.676563,423.949766 287.868808,402.195296 276.253125,381.523318 C264.637442,360.85134 249.035254,344.756969 229.446094,333.239724 C209.856933,321.722479 188.939174,315.963943 166.692187,315.963943 C144.051449,315.963943 122.543071,321.722479 102.166406,333.239724 C81.7897419,344.756969 66.1383359,360.260721 55.2117188,379.751443 C44.2851016,399.242166 38.821875,421.193509 38.821875,445.606131 C38.821875,482.815692 51.0772212,513.921631 75.5882812,538.924881 C100.099341,563.928131 130.270133,576.429568 166.101562,576.429568 Z M425.090625,154.428006 C434.540672,154.428006 442.612467,157.774847 449.30625,164.468631 C456.000033,171.162414 459.346875,179.234208 459.346875,188.684256 C459.346875,197.937427 456.000033,205.910785 449.30625,212.604568 C442.612467,219.298352 434.540672,222.645193 425.090625,222.645193 C415.837454,222.645193 407.864096,219.298352 401.170313,212.604568 C394.476529,205.910785 391.129688,197.937427 391.129688,188.684256 C391.129688,179.234208 394.476529,171.162414 401.170313,164.468631 C407.864096,157.774847 415.837454,154.428006 425.090625,154.428006 Z M404.41875,286.728006 L446.057813,286.728006 L446.057813,608.028006 L404.41875,608.028006 L404.41875,286.728006 Z M683.784375,278.459256 C733.200247,278.459256 774.149838,296.374701 806.634375,332.206131 C836.165773,364.887544 850.93125,403.573095 850.93125,448.263943 C850.93125,493.151668 835.329062,532.378619 804.124219,565.945974 C772.919375,599.51333 732.806495,616.296756 683.784375,616.296756 C634.565379,616.296756 594.354062,599.51333 563.149219,565.945974 C531.944375,532.378619 516.342187,493.151668 516.342187,448.263943 C516.342187,403.769971 531.107665,365.182857 560.639062,332.501443 C593.1236,296.473138 634.171627,278.459256 683.784375,278.459256 Z M683.784375,318.917068 C649.527954,318.917068 620.095436,331.615379 595.485938,357.012381 C570.876439,382.409383 558.571875,413.121575 558.571875,449.149881 C558.571875,472.381247 564.182756,494.03728 575.404688,514.118631 C586.626619,534.199981 601.785842,549.703732 620.882812,560.630349 C639.979783,571.556966 660.946761,577.020193 683.784375,577.020193 C706.621989,577.020193 727.588967,571.556966 746.685938,560.630349 C765.782908,549.703732 780.942131,534.199981 792.164062,514.118631 C803.385994,494.03728 808.996875,472.381247 808.996875,449.149881 C808.996875,413.121575 796.643092,382.409383 771.935156,357.012381 C747.22722,331.615379 717.84392,318.917068 683.784375,318.917068 Z" id="path-1"></path>
        <path d="M888.435935,173.623318 L1128.525,173.623318 L1128.525,255.129568 L1049.38125,255.129568 L1049.38125,608.028006 L965.512497,608.028006 L965.512497,255.129568 L888.435935,255.129568 L888.435935,173.623318 Z M1185.52031,173.623318 L1422.65625,173.623318 L1422.65625,254.538943 L1267.61718,254.538943 L1267.61718,333.092068 L1422.65625,333.092068 L1422.65625,412.531131 L1267.61718,412.531131 L1267.61718,526.817068 L1422.65625,526.817068 L1422.65625,608.028006 L1185.52031,608.028006 L1185.52031,173.623318 Z" id="path-2"></path>
    </defs>
    <g id="Final-Assets" stroke="none" stroke-width="1" fill="none" fill-rule="evenodd" opacity="0.894866071">
        <g id="Group-26" transform="translate(1.000000, 5.000000)">
            <g id="Logo-White">
                <g id="bioTE">
                    <g transform="translate(980.400000, 0.000000)" fill-rule="nonzero">
                        <g id="bio">
                            <use fill="#FFFFFF" xlink:href="#path-1"></use>
                        </g>
                        <g id="TE">
                            <use fill="#FFFFFF" xlink:href="#path-2"></use>
                        </g>
                    </g>
                    <polyline id="Path-3" stroke="#FFFFFF" stroke-width="71.4" points="-5.68434189e-13 824.204567 408.312908 825.52699 486.904528 535.497043 592.845938 1018.93889 727.478097 208.068004 835.658656 825.52699 1888.30201 825.52699"></polyline>
                    <polyline id="Path-2" stroke="#FFFFFF" stroke-width="71.4" points="1885.8 826.020401 2487.31697 826.020401 2632.52903 518.868004"></polyline>
                    <path d="M2902.86492,270.758604 L2807.67254,304.77701 L2780.28449,257.339517 L2631.96149,257.339517 L2557.8,385.790998 L2631.96149,514.242479 L2780.28449,514.242479 L2806.92878,468.093207 L2901.92366,502.041034 C2862.17307,568.805098 2789.27727,613.536006 2705.934,613.536006 C2580.04953,613.536006 2478,511.486479 2478,385.602006 C2478,259.717532 2580.04953,157.668004 2705.934,157.668004 C2789.93949,157.668004 2863.33083,203.112573 2902.86492,270.758604 Z" id="Angled-Hex" fill="#FFFFFF" fill-rule="nonzero"></path>
                </g>
            </g>
        </g>
    </g>
</svg>