<svg width="466" height="110" viewBox="0 0 466 110" fill="none" xmlns="http://www.w3.org/2000/svg">
<path d="M271.378 0.176048C271.64 0.395611 273.215 1.71297 274.964 3.11817C283.58 10.0563 289.484 18.5313 291.146 26.3916C292.983 35.2619 288.435 42.9465 278.988 46.9425L275.97 48.216L272.559 47.2499C270.722 46.7669 269.06 46.196 268.841 46.0204C268.666 45.8447 269.147 44.5713 269.891 43.1661C273.215 36.9745 271.553 27.709 265.561 19.4535C262.062 14.5792 255.502 8.43154 249.51 4.39162C246.449 2.37166 242.119 -0.0874214 243.387 0.922558C251.609 7.68504 255.852 12.4276 259.044 18.3118C262.718 25.0743 263.374 31.705 260.969 36.9745C259.307 40.5314 257.776 42.1122 256.552 41.5413C255.721 41.1461 255.677 41.1461 256.42 41.717C257.164 42.3318 257.12 42.4196 255.808 43.5174C254.146 44.9226 250.21 46.9864 247.717 47.733C246.186 48.1721 245.486 48.1282 242.469 47.2938C240.588 46.7669 238.882 46.196 238.664 46.0204C238.489 45.8447 238.97 44.5713 239.713 43.1661C242.206 38.5992 241.856 31.0024 238.97 25.206C235.69 18.707 228.911 11.2419 221.607 6.06028C217.496 3.11817 211.242 -0.658283 213.21 0.922558C223.75 9.57326 228.955 16.2918 231.36 24.3717C232.672 28.719 232.453 33.2419 230.748 36.9745C229.129 40.5314 227.599 42.1561 226.374 41.5413C225.543 41.1461 225.499 41.1461 226.243 41.717C226.986 42.3318 226.943 42.4196 225.631 43.5174C224.1 44.8347 220.732 46.6351 218.196 47.5134C216.709 48.0403 216.14 47.9964 212.335 46.9864C210.061 46.3717 208.224 45.713 208.311 45.5813C211.81 39.214 212.16 34.0763 209.449 26.9186C206.475 18.8387 195.453 7.64112 184.563 1.53733L182.158 0.219963L183.688 1.4495C196.415 11.9884 202.495 21.8248 201.97 30.9585C201.751 34.5593 200.701 37.5453 198.733 40.1361C197.771 41.4096 197.509 41.5413 196.678 41.1461C195.803 40.707 195.803 40.707 196.503 41.2779C197.203 41.8926 197.159 42.0244 195.716 43.2978C194.054 44.7469 190.774 46.5473 188.018 47.5134C186.531 48.0403 185.919 47.9964 182.42 47.0743C178.003 45.8886 171.049 43.3417 167.725 41.717C165.801 40.7948 165.669 40.7948 166.632 41.5413C167.244 42.0683 170.787 44.0004 174.504 45.8447L181.239 49.2699L179.534 49.5773C176.428 50.1042 167.506 49.9286 162.739 49.226C154.779 48.0842 145.945 45.5373 139.122 42.4196C135.536 40.7948 135.273 40.8387 137.985 42.5513C144.983 46.9864 158.06 52.0363 167.506 53.9685C171.836 54.8467 173.804 54.9785 181.72 54.9785C188.718 54.9785 191.473 54.8028 193.31 54.2759C195.541 53.6172 196.066 53.6611 200.527 54.4076C204.463 55.1102 206.781 55.198 213.428 55.0663C218.589 54.9346 222.307 54.6272 223.706 54.232C225.674 53.6611 226.374 53.6611 230.704 54.4076C234.684 55.1102 236.958 55.198 243.606 55.0663C248.067 54.9346 252.528 54.5833 253.534 54.3198C255.021 53.8807 256.289 53.9246 260.182 54.4954C266.698 55.4615 276.801 55.4176 281.656 54.4076C284.892 53.7489 285.723 53.7489 288.216 54.232C289.79 54.5393 294.82 54.8906 299.368 55.0224C306.672 55.2419 308.203 55.1541 312.052 54.3637C317.125 53.3098 322.461 50.8946 325.435 48.216C327.884 46.0643 330.114 42.0244 330.683 38.5553C332.738 26.8307 321.367 11.2419 303.305 1.01038C300.768 -0.438717 300.899 -0.30698 305.054 3.03035C315.988 11.8128 322.592 23.2299 321.673 31.705C320.624 41.6292 311.133 48.6112 297.094 49.7529L293.245 50.0603L295.52 47.8647C306.497 37.1062 299.456 18.707 279.031 4.74292C275.401 2.28384 270.503 -0.658283 271.378 0.176048Z" fill="white"/>
<path d="M79.5109 70.1283C69.408 71.4017 63.5038 76.8029 62.1042 86.0684C60.8796 94.3678 63.6787 102.272 69.2331 106.005C75.0936 109.957 85.0653 111.098 93.2875 108.815C98.8419 107.278 102.516 104.424 104.746 99.8568C108.945 91.2061 107.108 79.7011 100.635 74.5634C96.0866 70.9187 87.5145 69.1183 79.5109 70.1283ZM91.6693 77.7251C96.349 80.1402 98.1859 84.0923 97.8797 90.9426C97.6173 96.739 95.8679 99.9007 91.8005 102.009C85.765 105.082 77.4991 103.897 73.6941 99.4177C71.726 97.0903 70.8076 94.1043 70.8076 89.6253C70.8076 84.8388 71.9447 81.765 74.6563 79.3498C77.4553 76.8907 79.7296 76.276 85.0653 76.4077C88.7828 76.5394 89.7887 76.7151 91.6693 77.7251Z" fill="white"/>
<path d="M206.65 70.0837C198.296 71.1376 192.523 75.2214 189.943 81.9839C189.374 83.5208 189.199 85.3212 189.199 89.8881C189.199 96.5627 189.811 98.8022 192.611 102.667C196.59 108.068 205.6 110.922 214.872 109.692C222.307 108.726 226.855 105.696 230.004 99.5927L231.797 96.1236L230.485 95.904C229.786 95.7284 227.949 95.5088 226.374 95.3332L223.531 95.0258L222.919 96.6066C222.044 98.6705 219.42 101.481 217.583 102.403C211.679 105.17 203.326 103.325 200.002 98.4949C196.547 93.445 197.072 83.8721 201.095 79.6565C203.194 77.4609 205.425 76.5827 209.536 76.3631C215.703 76.0557 219.158 77.6366 221.607 81.94C222.263 83.0378 222.788 84.0038 222.832 84.0917C222.919 84.1795 229.436 82.95 230.398 82.6426C230.791 82.5108 230.617 81.8082 229.786 80.1396C227.336 75.2653 224.231 72.5428 219.333 71.0498C216.228 70.0837 210.323 69.6446 206.65 70.0837Z" fill="white"/>
<path d="M0 89.669L0 109.21H12.3771C25.454 109.21 28.5154 108.859 32.6703 107.014C35.2069 105.917 37.4812 103.809 38.3122 101.877C38.662 101.086 38.9244 99.4175 38.9244 98.1441C38.9244 94.5433 37.175 92.1281 33.1076 90.0203L31.4457 89.186L33.6325 87.8247C36.3441 86.1122 37.6124 83.8287 37.6124 80.667C37.6124 77.9445 36.9126 76.4954 34.6384 74.4315C30.8334 71.0064 26.0225 70.1281 10.409 70.1281H0L0 89.669ZM26.9847 77.8567C29.8712 80.0084 29.3027 82.7748 25.5852 84.6191C23.5733 85.6291 22.7861 85.7169 16.0946 85.8487L8.74707 86.0243V81.3257V76.6271L17.2317 76.8028C25.0603 76.9345 25.8476 77.0223 26.9847 77.8567ZM25.3228 93.182C29.6963 94.5433 31.4457 97.7928 29.2589 100.559C27.7719 102.491 24.8854 103.062 16.3133 103.062H8.74707L8.74707 97.5293V91.9525L15.8759 92.2159C20.7305 92.3477 23.7045 92.6551 25.3228 93.182Z" fill="white"/>
<path d="M45.922 90.1085V109.649H50.2956H54.6691V90.1085L54.6691 70.5676H50.2956H45.922L45.922 90.1085Z" fill="white"/>
<path d="M104.965 73.6411V76.715H113.056H121.147V92.9625V109.21H125.52H129.894V92.9625V76.715H137.766H145.639V73.6411V70.5673H125.302H104.965V73.6411Z" fill="white"/>
<path d="M150.012 89.8886V109.21H168.381H186.75V106.136V103.062H172.755H158.716L158.847 97.705L158.978 92.3038L168.294 92.172L177.566 92.0842V89.0104V85.9365L168.294 85.8487L158.978 85.717L158.847 81.194L158.716 76.715H171.88H185.001V73.6411V70.5673H167.506H150.012V89.8886Z" fill="white"/>
<path d="M396.68 84.4872C396.68 97.1339 396.592 98.6269 395.849 100.252C394.362 103.589 390.601 105.17 385.44 104.687C382.116 104.379 379.842 103.326 378.573 101.613C377.786 100.559 377.655 99.593 377.524 95.6848C377.393 90.064 377.961 88.3954 380.716 87.0341C382.859 85.9363 387.976 85.8485 391.125 86.8145C393.575 87.561 394.712 87.1219 394.712 85.4532C394.712 84.5311 394.187 84.1798 390.994 82.9063C384.259 80.1838 377.043 80.7107 372.144 84.2676C369.17 86.4193 368.558 88.4393 368.777 95.553C368.908 98.8465 369.127 101.876 369.301 102.316C369.608 102.93 369.17 103.282 366.765 104.423C365.015 105.258 362.872 105.872 361.254 106.004L358.63 106.268V97.7487C358.586 87.7367 358.368 86.1997 356.268 84.3115C352.201 80.5351 337.812 79.5251 329.94 82.4672C327.053 83.565 323.86 86.3754 323.379 88.2636C323.248 88.9662 323.161 89.5371 323.248 89.6249C323.336 89.7127 325.435 89.8884 327.928 90.064C332.083 90.3275 332.389 90.2836 332.389 89.5371C332.389 88.3514 334.226 86.8145 336.194 86.3315C337.112 86.1119 339.124 85.9363 340.699 85.9363C346.253 85.9363 349.446 87.3854 349.446 89.9323C349.446 91.2936 349.446 91.2936 339.911 91.8644C326.397 92.6988 320.099 96.5191 321.805 102.799C322.242 104.379 322.242 104.423 320.668 105.082C319.793 105.433 318.219 105.872 317.213 106.004C314.02 106.443 314.02 106.399 314.02 96.0361C314.02 85.3654 313.845 84.8824 309.603 82.7307C304.748 80.3155 294.82 80.096 289.747 82.3794C287.823 83.2576 287.779 83.2576 287.779 82.3794C287.779 81.589 287.429 81.5451 283.405 81.5451H279.032V92.567V103.545L276.539 104.731C275.096 105.389 272.909 105.96 271.509 106.048L268.973 106.224V96.9143C268.973 86.2437 268.754 85.2776 265.736 83.5211C261.844 81.2377 253.84 80.1838 246.755 81.062C239.845 81.8964 235.909 83.9602 234.334 87.561C233.853 88.6588 233.547 89.581 233.634 89.6249C233.678 89.7127 235.734 89.8884 238.139 90.0201L242.513 90.2836L243.169 88.8784C244.043 87.0341 245.618 86.3315 249.642 86.068C253.578 85.8045 257.776 86.551 258.957 87.7367C259.744 88.5271 260.532 90.6349 260.138 91.0301C260.007 91.1179 256.858 91.4253 253.097 91.6449C244.612 92.2157 240.195 93.0061 236.74 94.7187C233.46 96.3435 232.235 98.056 232.235 101.042C232.235 103.677 233.11 105.389 235.384 107.014C238.27 109.122 241.288 109.825 247.542 109.825C253.272 109.825 256.945 109.166 260.138 107.497C261.756 106.663 261.844 106.663 263.112 107.453C266.698 109.737 273.084 110.132 277.195 108.331C278.988 107.497 279.032 107.497 279.032 108.375C279.032 109.166 279.382 109.21 283.362 109.21H287.735L287.866 99.8125C287.997 91.1179 288.085 90.2836 288.916 89.1419C290.49 86.9902 292.765 86.1558 297.182 86.1558C301.643 86.1998 303.917 86.9902 304.792 88.8345C305.098 89.4932 305.273 92.6988 305.273 97.2217V104.511L307.154 106.355C308.378 107.497 309.821 108.419 311.221 108.815C314.414 109.737 319.006 109.473 322.111 108.244L324.735 107.19L326.922 108.156C332.651 110.791 343.498 110.527 349.183 107.585L350.933 106.707L353.775 108.068C356.312 109.254 357.099 109.429 360.379 109.429C363.66 109.385 364.578 109.21 367.989 107.761L371.882 106.18L373.675 107.19C379.098 110.351 389.376 110.878 395.28 108.331L397.117 107.497V108.639V109.781L402.059 109.561C406.52 109.385 407.264 109.21 410.675 107.761L414.393 106.136L417.454 107.673C419.422 108.639 421.696 109.385 423.796 109.693C429.219 110.527 436.829 109.517 440.721 107.497L442.34 106.707L444.964 107.936C450.081 110.308 454.323 110.088 460.708 107.058C464.863 105.082 466.656 103.457 465.782 102.403C464.951 101.393 464.076 101.569 459.396 103.809C455.81 105.477 454.629 105.828 452.442 105.872L449.818 105.916L449.6 96.2556C449.337 85.1898 449.25 84.9263 445.751 83.1259C442.602 81.5451 439.016 80.9303 432.543 80.9303C426.157 80.9303 423.271 81.4133 419.51 83.1698C416.973 84.3554 414.611 87.078 414.611 88.8784C414.611 89.8006 414.786 89.8884 416.973 89.8884C418.241 89.8884 420.166 90.0201 421.259 90.1518C423.183 90.4153 423.271 90.3714 423.708 89.098C424.364 87.2536 426.332 86.3315 430.312 86.068C436.479 85.6289 440.853 87.2976 440.853 90.1079C440.853 90.7227 440.809 91.2057 440.765 91.2057C440.678 91.2057 437.529 91.4253 433.68 91.6449C422.746 92.3475 417.454 93.7526 414.611 96.6948C413.43 97.9243 413.124 98.6269 412.949 100.603L412.774 103.018L409.538 104.379C407.789 105.082 406.17 105.697 405.908 105.697C405.558 105.697 405.427 100.296 405.427 88.1319V70.567H401.053H396.68V84.4872ZM260.138 98.7586C259.963 100.603 259.657 101.218 258.651 102.052C254.802 105.126 245.268 105.653 242.425 102.974C240.326 100.998 241.769 97.9243 245.268 97.0021C246.143 96.7387 249.904 96.563 253.622 96.5191L260.357 96.4752L260.138 98.7586ZM349.446 98.583C349.446 100.252 349.227 100.91 348.483 101.613C346.953 102.974 345.116 103.809 342.098 104.379C335.582 105.697 329.721 103.282 331.033 99.8564C331.995 97.3095 334.751 96.563 343.017 96.5191L349.446 96.4752V98.583ZM440.853 98.4073C440.853 102.359 437.091 104.511 429.919 104.555C424.408 104.599 422.527 103.677 422.221 100.823C422.046 99.4173 423.927 97.5291 425.895 97.09C426.551 96.9582 427.295 96.7826 427.513 96.6948C427.776 96.6069 430.837 96.5191 434.423 96.5191L440.853 96.4752V98.4073Z" fill="white"/>
</svg>
