<?xml version="1.0" encoding="UTF-8"?>
<svg width="2904px" height="1213px" viewBox="0 0 2904 1213" version="1.1" xmlns="http://www.w3.org/2000/svg" xmlns:xlink="http://www.w3.org/1999/xlink">
    <!-- Generator: Sketch 57 (83077) - https://sketch.com -->
    <title>Group 26</title>
    <desc>Created with Sketch.</desc>
    <defs>
        <path d="M0.7265625,608.028006 L0.7265625,162.696756 L41.775,162.696756 L41.775,341.951443 C59.1000866,320.688837 78.4920802,304.79134 99.9515625,294.258474 C121.411045,283.725609 144.937372,278.459256 170.53125,278.459256 C216.009602,278.459256 254.842808,294.947372 287.032031,327.924099 C319.221255,360.900827 335.315625,400.91527 335.315625,447.968631 C335.315625,494.431363 319.0736,534.101279 286.589063,566.979568 C254.104525,599.857857 215.025228,616.296756 169.35,616.296756 C143.165494,616.296756 119.442294,610.685874 98.1796875,599.463943 C76.9170812,588.242012 58.1157067,571.409368 41.775,548.965506 L41.775,608.028006 L0.7265625,608.028006 Z M166.101562,576.429568 C189.136053,576.429568 210.39834,570.769468 229.889063,559.449099 C249.379785,548.12873 264.883536,532.231233 276.400781,511.756131 C287.918026,491.281028 293.676563,469.624995 293.676563,446.787381 C293.676563,423.949766 287.868808,402.195296 276.253125,381.523318 C264.637442,360.85134 249.035254,344.756969 229.446094,333.239724 C209.856933,321.722479 188.939174,315.963943 166.692187,315.963943 C144.051449,315.963943 122.543071,321.722479 102.166406,333.239724 C81.7897419,344.756969 66.1383359,360.260721 55.2117188,379.751443 C44.2851016,399.242166 38.821875,421.193509 38.821875,445.606131 C38.821875,482.815692 51.0772212,513.921631 75.5882812,538.924881 C100.099341,563.928131 130.270133,576.429568 166.101562,576.429568 Z M425.090625,154.428006 C434.540672,154.428006 442.612467,157.774847 449.30625,164.468631 C456.000033,171.162414 459.346875,179.234208 459.346875,188.684256 C459.346875,197.937427 456.000033,205.910785 449.30625,212.604568 C442.612467,219.298352 434.540672,222.645193 425.090625,222.645193 C415.837454,222.645193 407.864096,219.298352 401.170313,212.604568 C394.476529,205.910785 391.129688,197.937427 391.129688,188.684256 C391.129688,179.234208 394.476529,171.162414 401.170313,164.468631 C407.864096,157.774847 415.837454,154.428006 425.090625,154.428006 Z M404.41875,286.728006 L446.057813,286.728006 L446.057813,608.028006 L404.41875,608.028006 L404.41875,286.728006 Z M683.784375,278.459256 C733.200247,278.459256 774.149838,296.374701 806.634375,332.206131 C836.165773,364.887544 850.93125,403.573095 850.93125,448.263943 C850.93125,493.151668 835.329062,532.378619 804.124219,565.945974 C772.919375,599.51333 732.806495,616.296756 683.784375,616.296756 C634.565379,616.296756 594.354062,599.51333 563.149219,565.945974 C531.944375,532.378619 516.342187,493.151668 516.342187,448.263943 C516.342187,403.769971 531.107665,365.182857 560.639062,332.501443 C593.1236,296.473138 634.171627,278.459256 683.784375,278.459256 Z M683.784375,318.917068 C649.527954,318.917068 620.095436,331.615379 595.485938,357.012381 C570.876439,382.409383 558.571875,413.121575 558.571875,449.149881 C558.571875,472.381247 564.182756,494.03728 575.404688,514.118631 C586.626619,534.199981 601.785842,549.703732 620.882812,560.630349 C639.979783,571.556966 660.946761,577.020193 683.784375,577.020193 C706.621989,577.020193 727.588967,571.556966 746.685938,560.630349 C765.782908,549.703732 780.942131,534.199981 792.164062,514.118631 C803.385994,494.03728 808.996875,472.381247 808.996875,449.149881 C808.996875,413.121575 796.643092,382.409383 771.935156,357.012381 C747.22722,331.615379 717.84392,318.917068 683.784375,318.917068 Z" id="path-1"></path>
        <path d="M888.435935,173.623318 L1128.525,173.623318 L1128.525,255.129568 L1049.38125,255.129568 L1049.38125,608.028006 L965.512497,608.028006 L965.512497,255.129568 L888.435935,255.129568 L888.435935,173.623318 Z M1185.52031,173.623318 L1422.65625,173.623318 L1422.65625,254.538943 L1267.61718,254.538943 L1267.61718,333.092068 L1422.65625,333.092068 L1422.65625,412.531131 L1267.61718,412.531131 L1267.61718,526.817068 L1422.65625,526.817068 L1422.65625,608.028006 L1185.52031,608.028006 L1185.52031,173.623318 Z" id="path-2"></path>
    </defs>
    <g id="Final-Assets" stroke="none" stroke-width="1" fill="none" fill-rule="evenodd">
        <g id="Group-26" transform="translate(1.000000, 5.000000)">
            <path d="M879.124219,1192 L879.124219,1068.40152 L881.812969,1068.40152 L963.987891,1163.01191 L963.987891,1068.40152 L976.171289,1068.40152 L976.171289,1192 L973.398516,1192 L891.895781,1098.56594 L891.895781,1192 L879.124219,1192 Z M1047.67523,1098.22984 C1061.73523,1098.22984 1073.38636,1103.32721 1082.62898,1113.52211 C1091.03137,1122.82075 1095.2325,1133.82771 1095.2325,1146.54332 C1095.2325,1159.31495 1090.79331,1170.47595 1081.91479,1180.02666 C1073.03626,1189.57737 1061.62319,1194.35266 1047.67523,1194.35266 C1033.67126,1194.35266 1022.23018,1189.57737 1013.35166,1180.02666 C1004.47314,1170.47595 1000.03395,1159.31495 1000.03395,1146.54332 C1000.03395,1133.88373 1004.23508,1122.90477 1012.63746,1113.60613 C1021.88009,1103.35522 1033.55923,1098.22984 1047.67523,1098.22984 Z M1047.67523,1109.74105 C1037.92847,1109.74105 1029.55421,1113.35403 1022.55223,1120.58008 C1015.55024,1127.80613 1012.0493,1136.54448 1012.0493,1146.79539 C1012.0493,1153.40527 1013.64573,1159.56692 1016.83863,1165.28055 C1020.03154,1170.99417 1024.3447,1175.40536 1029.77824,1178.51424 C1035.21178,1181.62312 1041.17739,1183.17754 1047.67523,1183.17754 C1054.17308,1183.17754 1060.13868,1181.62312 1065.57223,1178.51424 C1071.00577,1175.40536 1075.31893,1170.99417 1078.51184,1165.28055 C1081.70474,1159.56692 1083.30117,1153.40527 1083.30117,1146.79539 C1083.30117,1136.54448 1079.78623,1127.80613 1072.75623,1120.58008 C1065.72623,1113.35403 1057.36599,1109.74105 1047.67523,1109.74105 Z M1108.42418,1100.5825 L1120.94367,1100.5825 L1151.5282,1167.12906 L1181.86066,1100.5825 L1194.46418,1100.5825 L1152.62051,1192 L1150.51992,1192 L1108.42418,1100.5825 Z M1289.41066,1161.66754 L1299.32543,1166.87699 C1296.07651,1173.26281 1292.3235,1178.41619 1288.06629,1182.3373 C1283.80908,1186.25842 1279.01979,1189.24122 1273.69828,1191.2858 C1268.37677,1193.33038 1262.35515,1194.35266 1255.63324,1194.35266 C1240.73301,1194.35266 1229.08188,1189.46534 1220.67949,1179.69057 C1212.27711,1169.91579 1208.07598,1158.86682 1208.07598,1146.54332 C1208.07598,1134.94803 1211.63293,1124.61325 1218.74695,1115.53867 C1227.76551,1103.9994 1239.83676,1098.22984 1254.96105,1098.22984 C1270.53348,1098.22984 1282.96882,1104.13943 1292.26746,1115.95879 C1298.87734,1124.30516 1302.23824,1134.72396 1302.35027,1147.21551 L1220.17535,1147.21551 C1220.39942,1157.85853 1223.78833,1166.58288 1230.34219,1173.38881 C1236.89605,1180.19474 1244.99023,1183.59766 1254.62496,1183.59766 C1259.27428,1183.59766 1263.7975,1182.78544 1268.19475,1181.16098 C1272.59199,1179.53652 1276.331,1177.37994 1279.41188,1174.69117 C1282.49275,1172.00241 1285.82565,1167.66124 1289.41066,1161.66754 Z M1289.41066,1137.04867 C1287.84222,1130.77489 1285.5596,1125.76154 1282.56275,1122.00848 C1279.5659,1118.25541 1275.60284,1115.2306 1270.67344,1112.93395 C1265.74404,1110.63729 1260.56264,1109.48898 1255.1291,1109.48898 C1246.16656,1109.48898 1238.46449,1112.37376 1232.02266,1118.1434 C1227.31732,1122.34459 1223.76036,1128.64629 1221.35168,1137.04867 L1289.41066,1137.04867 Z M1324.19637,1100.5825 L1335.87563,1100.5825 L1335.87563,1116.37891 C1339.96479,1110.55325 1344.16592,1106.29611 1348.47914,1103.60734 C1354.41683,1100.02233 1360.66251,1098.22984 1367.21637,1098.22984 C1371.64162,1098.22984 1375.84275,1099.09808 1379.81988,1100.83457 C1383.79701,1102.57106 1387.04589,1104.88168 1389.5666,1107.7665 C1392.08732,1110.65132 1394.2719,1114.78243 1396.12043,1120.15996 C1400.04154,1112.98993 1404.94286,1107.54246 1410.82453,1103.8174 C1416.7062,1100.09234 1423.0359,1098.22984 1429.81383,1098.22984 C1436.14363,1098.22984 1441.73113,1099.82627 1446.5765,1103.01918 C1451.42188,1106.21209 1455.02085,1110.66528 1457.37352,1116.37891 C1459.72618,1122.09253 1460.9025,1130.66283 1460.9025,1142.09008 L1460.9025,1192 L1448.88715,1192 L1448.88715,1142.09008 C1448.88715,1132.28729 1448.18696,1125.55148 1446.78656,1121.88244 C1445.38616,1118.2134 1442.99152,1115.2586 1439.60256,1113.01797 C1436.2136,1110.77733 1432.16651,1109.65703 1427.46117,1109.65703 C1421.74755,1109.65703 1416.52414,1111.33748 1411.7908,1114.69844 C1407.05746,1118.05939 1403.59853,1122.5406 1401.41391,1128.14219 C1399.22929,1133.74378 1398.13699,1143.09829 1398.13699,1156.20602 L1398.13699,1192 L1386.45773,1192 L1386.45773,1145.19895 C1386.45773,1134.16381 1385.77155,1126.6718 1384.39916,1122.72268 C1383.02677,1118.77355 1380.63213,1115.6087 1377.21516,1113.22803 C1373.79819,1110.84735 1369.73709,1109.65703 1365.03176,1109.65703 C1359.59822,1109.65703 1354.51485,1111.29547 1349.7815,1114.5724 C1345.04816,1117.84933 1341.54722,1122.26052 1339.27857,1127.80609 C1337.00993,1133.35167 1335.87563,1141.83795 1335.87563,1153.2652 L1335.87563,1192 L1324.19637,1192 L1324.19637,1100.5825 Z M1486.44562,1192 L1486.44562,1065.29266 L1498.12488,1065.29266 L1498.12488,1116.29488 C1503.05428,1110.24517 1508.57177,1105.72195 1514.6775,1102.7251 C1520.78323,1099.72825 1527.47703,1098.22984 1534.7591,1098.22984 C1547.69878,1098.22984 1558.74775,1102.92111 1567.90635,1112.30377 C1577.06495,1121.68643 1581.64418,1133.0715 1581.64418,1146.4593 C1581.64418,1159.67905 1577.02294,1170.96609 1567.78031,1180.32074 C1558.53769,1189.6754 1547.4187,1194.35266 1534.42301,1194.35266 C1526.97289,1194.35266 1520.22308,1192.75623 1514.17336,1189.56332 C1508.12364,1186.37041 1502.7742,1181.58113 1498.12488,1175.19531 L1498.12488,1192 L1486.44562,1192 Z M1533.49875,1183.00949 C1540.05261,1183.00949 1546.10224,1181.39906 1551.64781,1178.17814 C1557.19339,1174.95723 1561.60457,1170.43401 1564.8815,1164.60836 C1568.15843,1158.78271 1569.79688,1152.62105 1569.79688,1146.1232 C1569.79688,1139.62536 1568.14443,1133.43569 1564.83949,1127.55402 C1561.53455,1121.67235 1557.09536,1117.09312 1551.52178,1113.81619 C1545.94819,1110.53926 1539.99659,1108.90082 1533.6668,1108.90082 C1527.22497,1108.90082 1521.10532,1110.53926 1515.30768,1113.81619 C1509.51003,1117.09312 1505.05683,1121.50431 1501.94795,1127.04988 C1498.83907,1132.59546 1497.28465,1138.84114 1497.28465,1145.78711 C1497.28465,1156.37412 1500.77159,1165.2245 1507.74557,1172.33852 C1514.71955,1179.45254 1523.30386,1183.00949 1533.49875,1183.00949 Z M1680.03562,1161.66754 L1689.95039,1166.87699 C1686.70147,1173.26281 1682.94846,1178.41619 1678.69125,1182.3373 C1674.43404,1186.25842 1669.64475,1189.24122 1664.32324,1191.2858 C1659.00173,1193.33038 1652.98011,1194.35266 1646.2582,1194.35266 C1631.35797,1194.35266 1619.70684,1189.46534 1611.30445,1179.69057 C1602.90207,1169.91579 1598.70094,1158.86682 1598.70094,1146.54332 C1598.70094,1134.94803 1602.25789,1124.61325 1609.37191,1115.53867 C1618.39047,1103.9994 1630.46172,1098.22984 1645.58602,1098.22984 C1661.15844,1098.22984 1673.59378,1104.13943 1682.89242,1115.95879 C1689.5023,1124.30516 1692.8632,1134.72396 1692.97523,1147.21551 L1610.80031,1147.21551 C1611.02438,1157.85853 1614.41329,1166.58288 1620.96715,1173.38881 C1627.52101,1180.19474 1635.61519,1183.59766 1645.24992,1183.59766 C1649.89924,1183.59766 1654.42246,1182.78544 1658.81971,1181.16098 C1663.21696,1179.53652 1666.95596,1177.37994 1670.03684,1174.69117 C1673.11771,1172.00241 1676.45061,1167.66124 1680.03562,1161.66754 Z M1680.03562,1137.04867 C1678.46718,1130.77489 1676.18457,1125.76154 1673.18771,1122.00848 C1670.19086,1118.25541 1666.2278,1115.2306 1661.2984,1112.93395 C1656.369,1110.63729 1651.18761,1109.48898 1645.75406,1109.48898 C1636.79152,1109.48898 1629.08945,1112.37376 1622.64762,1118.1434 C1617.94228,1122.34459 1614.38532,1128.64629 1611.97664,1137.04867 L1680.03562,1137.04867 Z M1710.45211,1100.5825 L1722.46746,1100.5825 L1722.46746,1113.94223 C1726.05248,1108.67673 1729.8335,1104.74167 1733.81063,1102.13693 C1737.78775,1099.53219 1741.93287,1098.22984 1746.24609,1098.22984 C1749.49502,1098.22984 1752.96795,1099.26612 1756.665,1101.33871 L1750.53129,1111.25348 C1748.06659,1110.18917 1745.99403,1109.65703 1744.31355,1109.65703 C1740.39244,1109.65703 1736.61142,1111.26746 1732.97039,1114.48838 C1729.32936,1117.70929 1726.55661,1122.70864 1724.65207,1129.48656 C1723.19566,1134.69604 1722.46746,1145.22687 1722.46746,1161.07938 L1722.46746,1192 L1710.45211,1192 L1710.45211,1100.5825 Z M1833.0423,1068.40152 L1857.32508,1068.40152 L1857.32508,1192 L1845.05766,1192 L1845.05766,1080.5009 L1825.64824,1080.5009 L1833.0423,1068.40152 Z M1959.66562,1065.29266 L1969.83246,1071.93051 L1936.47516,1122.51262 C1940.95643,1121.00019 1945.15756,1120.24398 1949.07867,1120.24398 C1958.88146,1120.24398 1967.19969,1123.78694 1974.03363,1130.87295 C1980.86757,1137.95896 1984.28449,1146.68331 1984.28449,1157.04625 C1984.28449,1164.16027 1982.63205,1170.588 1979.32711,1176.32963 C1976.02217,1182.07126 1971.33091,1186.63649 1965.25318,1190.02545 C1959.17546,1193.41441 1952.6357,1195.10887 1945.63371,1195.10887 C1938.85579,1195.10887 1932.5681,1193.47043 1926.77045,1190.1935 C1920.9728,1186.91657 1916.42158,1182.30933 1913.11664,1176.37164 C1909.8117,1170.43395 1908.15926,1164.07624 1908.15926,1157.29832 C1908.15926,1152.25689 1909.18153,1146.94946 1911.22611,1141.37588 C1913.27069,1135.8023 1916.92568,1129.09449 1922.19117,1121.25227 L1959.66562,1065.29266 Z M1946.13785,1131.08301 C1938.96782,1131.08301 1932.84817,1133.61769 1927.77873,1138.68713 C1922.70929,1143.75657 1920.17461,1149.90422 1920.17461,1157.13027 C1920.17461,1164.30031 1922.70929,1170.41996 1927.77873,1175.48939 C1932.84817,1180.55883 1938.96782,1183.09352 1946.13785,1183.09352 C1953.30789,1183.09352 1959.42753,1180.55883 1964.49697,1175.48939 C1969.56641,1170.41996 1972.10109,1164.30031 1972.10109,1157.13027 C1972.10109,1149.90422 1969.56641,1143.75657 1964.49697,1138.68713 C1959.42753,1133.61769 1953.30789,1131.08301 1946.13785,1131.08301 Z M2016.71754,1169.31367 L2028.0607,1174.69117 L2011.00395,1206.45203 L2002.68562,1202.92305 L2016.71754,1169.31367 Z M2107.12676,1107.13633 L2095.27945,1107.13633 C2095.61555,1094.92486 2099.69064,1084.89816 2107.50486,1077.05594 C2115.31908,1069.21371 2124.96768,1065.29266 2136.45094,1065.29266 C2147.82217,1065.29266 2157.02264,1068.96164 2164.05264,1076.29973 C2171.08263,1083.63781 2174.59758,1092.29214 2174.59758,1102.26297 C2174.59758,1109.26496 2172.91713,1115.83272 2169.55617,1121.96646 C2166.19522,1128.10021 2159.66946,1136.40444 2149.97871,1146.87941 L2119.22613,1180.06867 L2176.27805,1180.06867 L2176.27805,1192 L2092.33863,1192 L2139.5598,1140.99777 C2149.13852,1130.74686 2155.3702,1123.14282 2158.25502,1118.18541 C2161.13984,1113.228 2162.58223,1108.0046 2162.58223,1102.51504 C2162.58223,1095.56907 2159.99153,1089.58946 2154.81006,1084.57604 C2149.62859,1079.56261 2143.28488,1077.05594 2135.77875,1077.05594 C2127.88051,1077.05594 2121.31274,1079.68865 2116.07525,1084.95414 C2110.83777,1090.21964 2107.85496,1097.61362 2107.12676,1107.13633 Z M2188.04133,1130.24277 C2188.04133,1113.94215 2189.7918,1101.33876 2193.29279,1092.43223 C2196.79379,1083.5257 2201.73712,1076.77588 2208.12293,1072.18258 C2214.50874,1067.58927 2221.65066,1065.29266 2229.54891,1065.29266 C2237.55918,1065.29266 2244.81313,1067.60328 2251.31098,1072.22459 C2257.80882,1076.8459 2262.9482,1083.77777 2266.72928,1093.02039 C2270.51035,1102.26301 2272.40086,1114.67035 2272.40086,1130.24277 C2272.40086,1145.75918 2270.53836,1158.1105 2266.8133,1167.29711 C2263.08824,1176.48372 2257.94886,1183.41558 2251.395,1188.09291 C2244.84114,1192.77024 2237.55918,1195.10887 2229.54891,1195.10887 C2221.65066,1195.10887 2214.53675,1192.84026 2208.20695,1188.30297 C2201.87716,1183.76568 2196.93383,1177.00186 2193.37682,1168.01131 C2189.81981,1159.02076 2188.04133,1146.43137 2188.04133,1130.24277 Z M2199.72059,1130.49484 C2199.72059,1144.4428 2200.96692,1154.98764 2203.45963,1162.12967 C2205.95234,1169.2717 2209.63533,1174.69115 2214.50871,1178.3882 C2219.38209,1182.08525 2224.53548,1183.93375 2229.96902,1183.93375 C2235.45858,1183.93375 2240.58396,1182.12726 2245.34531,1178.51424 C2250.10666,1174.90121 2253.71964,1169.48175 2256.18434,1162.2557 C2259.26521,1153.46121 2260.80562,1142.87436 2260.80562,1130.49484 C2260.80562,1118.05931 2259.43326,1107.87857 2256.68848,1099.95232 C2253.9437,1092.02607 2250.14868,1086.22851 2245.3033,1082.55947 C2240.45792,1078.89043 2235.34655,1077.05594 2229.96902,1077.05594 C2224.47946,1077.05594 2219.32608,1078.89043 2214.50871,1082.55947 C2209.69134,1086.22851 2206.02236,1091.63397 2203.50164,1098.776 C2200.98092,1105.91802 2199.72059,1116.49087 2199.72059,1130.49484 Z M2309.79129,1068.40152 L2334.07406,1068.40152 L2334.07406,1192 L2321.80664,1192 L2321.80664,1080.5009 L2302.39723,1080.5009 L2309.79129,1068.40152 Z M2406.33422,1195.10887 L2396.16738,1188.55504 L2429.52469,1137.97293 C2425.04342,1139.42934 2420.84229,1140.15754 2416.92117,1140.15754 C2407.11839,1140.15754 2398.80015,1136.61459 2391.96621,1129.52857 C2385.13227,1122.44256 2381.71535,1113.71822 2381.71535,1103.35527 C2381.71535,1096.24125 2383.3678,1089.82753 2386.67273,1084.11391 C2389.97767,1078.40028 2394.66893,1073.83506 2400.74666,1070.41809 C2406.82439,1067.00112 2413.33614,1065.29266 2420.28211,1065.29266 C2427.11605,1065.29266 2433.43175,1066.9451 2439.22939,1070.25004 C2445.02704,1073.55498 2449.57826,1078.17622 2452.8832,1084.11391 C2456.18814,1090.05159 2457.84059,1096.38129 2457.84059,1103.1032 C2457.84059,1108.20065 2456.81831,1113.53609 2454.77373,1119.10967 C2452.72915,1124.68325 2449.07417,1131.39105 2443.80867,1139.23328 L2406.33422,1195.10887 Z M2419.77797,1129.31852 C2427.00402,1129.31852 2433.15167,1126.78383 2438.22111,1121.71439 C2443.29055,1116.64496 2445.82523,1110.52531 2445.82523,1103.35527 C2445.82523,1096.18524 2443.29055,1090.06559 2438.22111,1084.99615 C2433.15167,1079.92671 2427.00402,1077.39203 2419.77797,1077.39203 C2412.60793,1077.39203 2406.48829,1079.92671 2401.41885,1084.99615 C2396.34941,1090.06559 2393.81473,1096.18524 2393.81473,1103.35527 C2393.81473,1110.52531 2396.34941,1116.64496 2401.41885,1121.71439 C2406.48829,1126.78383 2412.60793,1129.31852 2419.77797,1129.31852 Z" id="November16,2019" fill="#FFFFFF" fill-rule="nonzero"></path>
            <g id="Logo-White" opacity="0.894866071">
                <g id="bioTE">
                    <g transform="translate(980.400000, 0.000000)" fill-rule="nonzero">
                        <g id="bio">
                            <use fill="#000000" xlink:href="#path-1"></use>
                            <use fill="#FFFFFF" xlink:href="#path-1"></use>
                        </g>
                        <g id="TE">
                            <use fill="#000000" xlink:href="#path-2"></use>
                            <use fill="#FFFFFF" xlink:href="#path-2"></use>
                        </g>
                    </g>
                    <polyline id="Path-3" stroke="#FFFFFF" stroke-width="71.4" points="-5.68434189e-13 824.204567 408.312908 825.52699 486.904528 535.497043 592.845938 1018.93889 727.478097 208.068004 835.658656 825.52699 1888.30201 825.52699"></polyline>
                    <polyline id="Path-2" stroke="#FFFFFF" stroke-width="71.4" points="1885.8 826.020401 2487.31697 826.020401 2632.52903 518.868004"></polyline>
                    <path d="M2902.86492,270.758604 L2807.67254,304.77701 L2780.28449,257.339517 L2631.96149,257.339517 L2557.8,385.790998 L2631.96149,514.242479 L2780.28449,514.242479 L2806.92878,468.093207 L2901.92366,502.041034 C2862.17307,568.805098 2789.27727,613.536006 2705.934,613.536006 C2580.04953,613.536006 2478,511.486479 2478,385.602006 C2478,259.717532 2580.04953,157.668004 2705.934,157.668004 C2789.93949,157.668004 2863.33083,203.112573 2902.86492,270.758604 Z" id="Angled-Hex" fill="#FFFFFF" fill-rule="nonzero"></path>
                </g>
            </g>
        </g>
    </g>
</svg>