<?xml version="1.0" encoding="UTF-8"?>
<svg width="3440px" height="1197px" viewBox="0 0 3440 1197" version="1.1" xmlns="http://www.w3.org/2000/svg" xmlns:xlink="http://www.w3.org/1999/xlink">
    <!-- Generator: Sketch 57 (83077) - https://sketch.com -->
    <title>Group 2</title>
    <desc>Created with Sketch.</desc>
    <g id="Social-Media-2019" stroke="none" stroke-width="1" fill="none" fill-rule="evenodd">
        <g id="Gold-Sponsor---Conavi-Medical" transform="translate(-831.000000, -2081.000000)" fill="#FFFFFF">
            <g id="Group-2" transform="translate(831.000000, 2081.000000)">
                <g id="conavi-logo_horizontal-orange-(1)" fill-rule="nonzero">
                    <path d="M919.425495,92.7281586 C960.51217,118.516627 1083.92202,211.43629 986.813635,254.541468 C943.132227,273.929809 910.66742,236.744647 878.563561,213.228707 C833.009314,179.859922 782.538015,155.66161 728.736469,139.011609 C488.870104,64.7795279 231.146394,207.566113 143.495502,438.48214 C19.826177,764.290714 313.094322,1118.54506 653.822922,1076.6834 C731.814734,1067.1016 808.396809,1037.03503 871.753238,990.617418 C904.381493,966.713983 942.478436,922.039759 987.229064,944.622035 C1020.00715,961.163756 1028.64263,1000.59421 1009.71675,1030.93318 C981.964685,1075.41672 923.811342,1107.13815 878.563561,1130.93262 C806.789573,1168.68098 727.313111,1189.11807 647.0126,1195.0088 C542.22217,1202.69059 437.486222,1188.61413 340.548093,1144.60729 C18.1235964,998.217484 -88.2025616,596.183514 77.0682985,295.470141 C119.299108,218.629793 181.288705,156.593912 252.013903,105.843721 C329.823879,50.0097934 423.511441,19.0279463 517.616475,5.55212998 C655.014729,-14.122235 802.465018,19.3194184 919.425495,92.7281586 Z M790.02937,341.676636 C840.337221,378.062975 882.445444,428.743704 926.235817,472.532616 C956.916319,503.212094 1034.47908,556.126534 1038.83769,601.924424 C1042.64466,641.892873 978.464179,685.899708 953.477107,710.885947 C865.24257,799.117541 783.014738,901.36431 653.822922,924.613975 C605.163169,933.371757 551.797483,931.035895 503.99583,918.743673 C235.483207,849.696118 184.93427,474.677796 415.46164,328.67957 C448.355497,307.845446 485.989338,291.943192 524.426797,285.013239 C615.903047,268.521232 714.516515,287.068526 790.02937,341.676636 Z M545.749146,402.281219 C518.916196,408.082956 492.77197,420.693063 470.746449,436.928405 C296.965764,564.974718 419.876358,854.748707 634.396757,809.096584 C716.559454,791.609754 768.561506,727.55259 825.330072,670.813912 C841.757156,654.394928 876.738867,629.358357 873.602105,602.798236 C869.98801,572.23199 825.227786,541.482103 804.872931,521.179423 C731.2545,447.749699 658.590735,377.870393 545.749146,402.281219 Z" id="Shape"></path>
                    <path d="M1470.17193,427.731866 C1329.97671,450.098838 1271.84649,640.559063 1369.42514,744.517751 C1405.33752,782.773456 1454.07234,793.125 1504.23793,792.963242 C1530.08721,792.879509 1555.40507,791.583861 1579.05368,779.875297 C1595.35767,771.801365 1631.05203,735.025426 1597.44933,722.784964 C1568.98377,712.419781 1529.14699,746.167997 1497.42473,744.490474 C1407.51093,739.744311 1362.70732,639.843047 1387.03045,561.115396 C1403.70916,507.127798 1460.55851,466.151232 1517.86433,479.059976 C1539.91866,484.024353 1580.51171,515.003973 1602.29351,499.258443 C1623.77553,483.737946 1600.48801,455.110949 1585.59436,445.802743 C1554.15144,426.136173 1505.92761,422.024196 1470.17193,427.731866 L1470.17193,427.731866 Z M2151.49196,527.019402 C2201.6848,596.902552 2256.77634,663.219261 2308.98589,731.595369 C2323.6479,750.798233 2350.08312,798.894043 2381.00142,788.112889 C2405.27004,779.650263 2396.76716,730.579308 2396.76716,711.137772 L2396.76716,527.019402 C2396.76716,503.956871 2403.21245,468.578867 2392.6588,447.384797 C2384.32626,430.664121 2361.40665,432.007503 2353.18312,448.148547 C2344.15563,465.885283 2349.07476,494.109948 2349.07476,513.381004 L2349.07476,581.572993 L2349.07476,690.680175 C2299.04543,621.022058 2245.50731,553.42334 2192.37116,486.111027 C2176.91201,466.526288 2150.89239,422.944788 2119.5653,435.962639 C2095.38525,446.014138 2103.79955,492.902949 2103.79955,513.381004 L2103.79955,697.499374 C2103.79955,720.561905 2097.35427,755.939909 2107.90791,777.133979 C2116.24046,793.854655 2139.16006,792.511273 2147.3836,776.370229 C2157.20142,757.071896 2151.49196,725.328525 2151.49196,704.318573 L2151.49196,636.126584 L2151.49196,527.019402 L2151.49196,527.019402 Z M2621.60277,520.200203 C2643.41864,558.61275 2656.18658,601.580522 2671.46858,642.945783 C2680.69366,667.931328 2690.08225,692.814585 2698.8849,717.956971 C2706.2636,739.014657 2713.4379,773.049279 2733.45508,785.930746 C2748.44412,795.566274 2772.18131,791.495212 2774.70901,771.501321 C2778.08154,744.845072 2756.55864,708.096409 2746.95884,683.860976 C2722.73792,622.726858 2700.47238,560.822171 2676.10837,499.742606 C2666.85605,476.536872 2655.28723,431.080092 2622.2364,434.728364 C2593.61414,437.892472 2583.87808,484.692634 2575.29345,506.561805 C2552.0945,565.650163 2529.33841,624.895363 2505.77837,683.860976 C2495.64714,709.214758 2474.9827,743.365306 2477.85106,771.501321 C2480.1948,794.475202 2507.18189,795.375336 2521.46235,782.030164 C2539.23799,765.418595 2545.5879,733.211519 2553.81143,711.137772 L2582.0317,636.126584 C2596.52338,597.993624 2612.39814,560.003867 2621.60277,520.200203 L2621.60277,520.200203 Z M2941.82318,704.318573 C2922.14666,667.338057 2910.23719,627.459382 2895.43892,588.392192 L2867.21864,513.381004 C2859.00873,491.341353 2852.65202,459.038808 2834.86275,442.488612 C2820.70492,429.327558 2791.81014,429.716252 2789.50046,453.017455 C2786.95914,478.712197 2805.87259,510.360099 2814.54579,533.838601 C2838.16034,597.761771 2863.77797,660.948468 2887.65824,724.77617 C2896.39958,748.131926 2908.24092,793.431864 2941.18955,789.790412 C2969.90038,786.619485 2979.41842,739.819323 2988.15294,717.956971 C3012.62596,656.734203 3035.92029,595.054549 3060.37287,533.838601 C3069.59113,510.755612 3089.62194,478.541717 3087.30545,453.017455 C3085.18654,429.641241 3056.02604,429.416208 3041.97041,442.488612 C3024.18115,459.038808 3017.82443,491.341353 3009.61452,513.381004 L2981.39425,588.392192 C2966.90257,626.525152 2951.02782,664.514909 2941.82318,704.318573 L2941.82318,704.318573 Z M1993.88219,499.749425 C2056.48188,597.973166 2019.49301,768.412224 1892.59035,790.724642 C1833.86056,801.055729 1760.81624,794.482021 1716.70758,750.770956 C1614.81617,649.792259 1667.10748,450.883046 1810.83194,427.731866 C1879.63164,416.650667 1955.16959,439.010821 1993.88219,499.749425 Z M3214.05141,472.499906 C3218.93648,549.134064 3214.35119,627.520755 3214.35119,704.318573 C3214.35119,727.278816 3222.23406,771.487682 3198.59226,785.657978 C3164.6012,806.026925 3159.99548,759.294955 3159.8524,738.407748 C3159.3346,663.410199 3159.84559,588.385373 3159.84559,513.381004 C3159.84559,493.23709 3152.50096,452.826518 3170.74671,438.58803 C3197.25006,417.912219 3212.7024,451.312655 3214.05141,472.499906 Z M1811.43277,475.198224 C1656.02525,512.856713 1712.00394,787.856498 1879.78282,744.165008 C2033.66613,704.097413 1976.7237,435.151104 1811.43277,475.198224 Z" id="Shape"></path>
                </g>
                <text id="TM" font-family="Arial-BoldMT, Arial" font-size="80" font-weight="bold">
                    <tspan x="3330.24609" y="481">TM</tspan>
                </text>
            </g>
        </g>
    </g>
</svg>