<svg width="41" height="41" viewBox="0 0 41 41" fill="none" xmlns="http://www.w3.org/2000/svg">
<path d="M41 4.39286V36.6071C41 39.0324 39.0324 41 36.6071 41H28.8007V24.783H34.3466L35.1429 18.5964H28.8007V14.6429C28.8007 12.8491 29.2949 11.6319 31.8665 11.6319H35.1429V6.10424C34.5754 6.03103 32.6353 5.85714 30.3656 5.85714C25.6433 5.85714 22.4036 8.73995 22.4036 14.0388V18.6056H16.8393V24.7922H22.4127V41H4.39286C1.96763 41 0 39.0324 0 36.6071V4.39286C0 1.96763 1.96763 0 4.39286 0H36.6071C39.0324 0 41 1.96763 41 4.39286Z" fill="white"/>
</svg>
