<svg width="457" height="337" viewBox="0 0 457 337" fill="none" xmlns="http://www.w3.org/2000/svg">
<g clip-path="url(#clip0)">
<path d="M0 76.5559C0.450783 76.7108 0.487581 76.2824 0.643975 76.0728C2.05152 74.1589 3.40387 72.2268 4.82062 70.3038L48.9145 9.24139L55.0047 0.783786C55.1979 0.546828 55.4739 0.364552 55.3819 0H56.8538C56.8538 0.410121 57.1574 0.647079 57.3598 0.911379C64.7686 11.2039 72.1436 21.5146 79.485 31.8436C80.0093 32.5818 80.5153 33.3383 81.0581 34.1312C80.4535 34.4307 79.7923 34.6015 79.117 34.6324C69.4892 35.9712 60.1032 38.6625 51.242 42.6252C46.9195 44.4454 42.7377 46.5776 38.7305 49.0049C34.4959 51.6457 30.4674 54.5977 26.679 57.8361C26.0573 58.4645 25.1922 58.7967 24.3055 58.7475C22.8979 58.6655 21.4812 58.7475 20.0736 58.7475H19.0249C19.4665 59.4402 19.8068 60.0052 20.1564 60.5703C20.3496 60.8801 20.552 61.1809 20.736 61.4816C21.5272 62.794 21.656 62.393 20.5336 63.4502C16.2449 67.74 12.3475 72.3971 8.88686 77.367C8.48208 77.9412 8.04049 78.4971 7.66331 79.0804C7.43428 79.4779 6.99178 79.706 6.53175 79.6637C4.35143 79.6637 2.18032 79.6637 0 79.6637L0 76.5559Z" fill="white"/>
<path d="M56.1236 109.112L26.204 62.5296C26.9743 62.3292 85.5663 62.2836 86.6482 62.4567C86.4649 63.1036 57.4073 107.554 56.1236 109.112Z" fill="white"/>
<path d="M113.551 79.6683H80.3822L93.9942 58.8779C93.9693 58.8117 93.9386 58.7478 93.9026 58.6868C93.8753 58.6819 93.8474 58.6819 93.8202 58.6868H93.7285H93.4537H30.1662H30.0746C29.9738 58.4503 30.1753 58.3593 30.3036 58.2592C35.1293 54.3714 40.2878 50.9098 45.7201 47.914C48.796 46.1732 52.0024 44.6705 55.3108 43.4193C58.8877 42.1402 62.5641 41.1542 66.303 40.4713C68.4863 40.0365 70.7083 39.8231 72.935 39.8344C74.2815 39.8799 75.6281 39.8344 76.9655 39.8344C80.295 39.9643 83.565 40.7531 86.5836 42.1546C87.0494 42.3756 87.443 42.7225 87.7195 43.1554C91.3835 48.3689 94.9285 53.6007 98.5926 58.7778C103.072 65.0923 107.625 71.3521 112.14 77.6393C112.608 78.2671 113.02 78.904 113.551 79.6683Z" fill="white"/>
<path d="M165.016 45.3114C165.321 45.1355 165.578 44.8895 165.766 44.5942C166.424 43.8012 167.143 43.0606 167.917 42.379C169.92 40.5203 172.504 39.3988 175.239 39.2014C177.647 38.9944 180.071 39.3264 182.332 40.1728C185.24 41.306 187.542 43.5888 188.684 46.4735C189.481 48.3436 189.919 50.3451 189.974 52.3748C190.148 57.4862 190.02 62.5976 190.048 67.709C190.048 71.1862 190.048 74.6725 190.048 78.1497C190.048 78.9396 190.048 78.9487 189.251 78.9487H179.641C178.799 78.9487 178.79 78.9487 178.79 78.1134C178.79 71.3345 178.79 64.5556 178.79 57.7767C178.817 56.555 178.687 55.3348 178.406 54.1452C177.637 50.973 174.572 48.8935 171.313 49.3334C167.652 49.7147 165.373 52.2023 165.053 55.9791C164.998 56.6419 165.007 57.3046 165.007 57.9674V78.186C165.007 78.9668 165.007 78.9759 164.192 78.9759H154.582C153.74 78.9759 153.731 78.9759 153.731 78.1316V41.0807C153.731 40.8628 153.731 40.654 153.731 40.4452C153.731 40.0911 153.878 39.9458 154.216 39.9458H164.375C164.833 39.9458 165.025 40.0911 165.016 40.5723C165.016 41.7798 165.016 42.9873 165.016 44.2038V45.3114Z" fill="white"/>
<path d="M230.828 64.1587C230.698 64.4482 230.698 64.7787 230.828 65.0681C231.598 68.5569 234.489 71.1883 238.052 71.6429C241.999 72.4008 246.073 71.2461 249.026 68.5329C249.767 67.8963 249.766 67.8872 250.471 68.5329C252.19 70.0333 253.918 71.5247 255.628 73.0252C256.15 73.4799 256.15 73.5072 255.683 74.0164C254.126 75.768 252.303 77.2655 250.279 78.4542C249.008 79.1135 247.636 79.5562 246.218 79.7637C242.065 80.6784 237.748 80.5408 233.663 79.3635C229.119 78.0263 225.237 75.0574 222.771 71.0336C218.409 64.1406 218.738 53.8919 224.125 47.017C227.543 42.5118 232.889 39.8623 238.564 39.8602C241.771 39.6942 244.969 40.319 247.874 41.6789C251.647 43.5567 254.596 46.7476 256.159 50.6454C257.481 53.6198 258.175 56.8326 258.198 60.0847C258.198 61.2306 258.198 62.3855 258.198 63.5404C258.198 64.1678 258.116 64.1951 257.485 64.2042H230.828V64.1587ZM230.992 56.7928C231.221 56.7928 231.312 56.7928 231.395 56.7928H246.941C247.636 56.7928 247.691 56.7382 247.563 56.0744C247.264 54.3994 246.606 52.8082 245.633 51.4093C245.085 50.6029 244.359 49.9311 243.512 49.445C240.647 47.939 237.168 48.2044 234.568 50.1271C232.59 51.8343 231.317 54.2084 230.992 56.7928Z" fill="white"/>
<path d="M217.966 68.8184C218.13 69.0188 218.057 69.2375 218.057 69.4289C218.057 71.9257 218.057 74.4135 218.057 76.9012C218.101 77.3531 217.846 77.7811 217.427 77.9582C215.753 78.837 213.921 79.3759 212.038 79.5438C209.859 79.7537 207.663 79.6986 205.497 79.3798C202.949 79.0326 200.716 77.5013 199.478 75.2518C198.536 73.7168 198.008 71.9654 197.943 70.167C197.943 69.192 197.888 68.226 197.879 67.251V50.6753C197.879 50.4657 197.879 50.247 197.879 50.0374C197.879 49.6091 197.724 49.4451 197.295 49.4542C196.171 49.4542 195.039 49.4542 193.915 49.4542C193.23 49.4542 193.212 49.4542 193.212 48.7343V40.533C193.212 39.8769 193.212 39.8678 193.869 39.8587C194.965 39.8587 196.062 39.8587 197.158 39.8587C197.861 39.8587 197.879 39.8587 197.879 39.1388C197.879 36.405 197.879 33.6166 197.879 30.8555C197.879 30.6459 197.879 30.4272 197.879 30.2176C197.879 30.008 198.025 29.7802 198.327 29.7893C198.418 29.7893 198.51 29.7893 198.601 29.7893H208.375C209.069 29.7893 209.078 29.7893 209.078 30.5001C209.078 33.2339 209.078 36.0314 209.078 38.7925C209.078 39.0021 209.078 39.2117 209.078 39.4304C209.078 39.6491 209.224 39.8587 209.526 39.8587C209.827 39.8587 209.946 39.8587 210.165 39.8587H217.555C218.359 39.8587 218.368 39.8587 218.368 40.6606C218.368 43.3336 218.368 46.0066 218.368 48.6796C218.368 49.4451 218.368 49.4542 217.546 49.4542H209.882C209.087 49.4542 209.078 49.4542 209.078 50.247V66.1939C209.07 66.6814 209.123 67.168 209.233 67.6428C209.448 69.0197 210.632 70.0383 212.028 70.0485C213.768 70.1685 215.51 69.8554 217.098 69.1373C217.409 69.0188 217.637 68.791 217.966 68.8184Z" fill="white"/>
<path d="M263.798 52.6691V27.0816C263.798 25.9798 263.616 25.9707 264.85 25.9798H274.016C274.924 25.9798 274.969 25.9798 274.969 26.8904V78.0926C274.969 78.302 274.969 78.5206 274.969 78.73C274.969 79.1489 274.851 79.3219 274.406 79.3219H264.333C263.952 79.3219 263.762 79.1944 263.798 78.7937C263.798 78.557 263.798 78.3111 263.798 78.0653V52.6691Z" fill="white"/>
<path d="M293.826 52.588V78.0835C293.812 78.2927 293.812 78.5026 293.826 78.7118C293.89 79.2126 293.644 79.3219 293.198 79.3219C289.892 79.3219 286.578 79.3219 283.272 79.3219C282.799 79.3219 282.617 79.158 282.662 78.6936C282.662 78.5115 282.662 78.3294 282.662 78.1473C282.662 61.1502 282.662 44.132 282.662 27.0925C282.662 25.8632 282.507 25.9816 283.791 25.9816H292.979C293.808 25.9816 293.817 25.9816 293.817 26.8375L293.826 52.588Z" fill="white"/>
<path d="M373.495 60.4443C373.578 72.4128 363.469 80.4162 353.35 80.3614C342.262 80.3311 333.296 71.4006 333.316 60.4079C333.336 49.4152 342.336 40.5173 353.424 40.5274C364.512 40.5374 373.495 49.4516 373.495 60.4443ZM353.608 75.172L355.544 75.0806C355.727 75.0704 355.908 75.0459 356.087 75.0075C360.096 74.3479 363.572 71.8897 365.506 68.3472C366.973 65.758 367.66 62.8061 367.487 59.8413C367.443 56.7689 366.381 53.7961 364.464 51.3812C360.621 46.5846 355.599 44.7574 349.591 46.1095C344.66 47.2242 341.785 50.6777 340.043 55.2458C339.344 57.2705 339.08 59.4179 339.269 61.5498C339.453 65.1332 340.97 68.5218 343.527 71.0607C346.13 73.8115 349.806 75.3108 353.608 75.172Z" fill="white"/>
<path d="M401.607 47.5984C401.899 47.338 402.144 47.0304 402.332 46.6887C403.522 45.029 405.013 43.6036 406.73 42.4856C408.018 41.6619 409.461 41.1048 410.971 40.848C413.231 40.4205 415.552 40.4205 417.811 40.848C423.371 41.7498 427.73 46.0658 428.645 51.5741C428.921 52.9735 429.057 54.3967 429.049 55.8227V78.0754C429.049 78.221 429.049 78.3757 429.049 78.5303C429.049 78.8214 428.948 78.9761 428.626 78.9761H423.852C423.485 78.9761 423.384 78.7851 423.393 78.4575C423.402 78.13 423.393 77.9754 423.393 77.7297C423.393 70.9672 423.393 64.2076 423.393 57.4511C423.446 55.8135 423.241 54.1777 422.787 52.6021C421.869 49.8728 420.336 47.5893 417.508 46.443C415.759 45.7606 413.87 45.5018 412 45.6879C406.757 45.9629 402.438 49.8653 401.68 55.013C401.535 56.0343 401.476 57.066 401.506 58.0971C401.506 64.611 401.506 71.1279 401.506 77.6479C401.506 77.8571 401.506 78.0663 401.506 78.2847C401.506 78.9579 401.506 78.9761 400.79 78.9761H396.566C395.878 78.9761 395.878 78.9761 395.859 78.2574V42.4219C395.859 41.1937 395.749 41.3302 397.007 41.3211H400.404C401.616 41.3211 401.506 41.2028 401.506 42.3764C401.506 43.8593 401.506 45.3422 401.506 46.8342C401.46 47.0932 401.495 47.3598 401.607 47.5984Z" fill="white"/>
<path d="M135.572 59.4136V40.8367C135.572 39.8522 135.4 39.834 136.52 39.834H145.84C146.743 39.834 146.743 39.834 146.743 40.6726V78.1182C146.743 78.9659 146.743 78.975 145.912 78.975H136.61C135.518 78.975 135.626 79.0297 135.626 78.0088L135.572 59.4136Z" fill="white"/>
<path d="M301.209 59.3321V41.0358C301.209 40.7991 301.209 40.5533 301.209 40.3076C301.209 40.0618 301.382 39.8251 301.71 39.8342H311.443C312.353 39.834 312.353 39.834 312.353 40.7445V78.1563C312.353 78.9664 312.353 78.9755 311.489 78.9755H302.001C301.182 78.9755 301.173 78.9755 301.173 78.1199L301.209 59.3321Z" fill="white"/>
<path d="M456.899 73.8924C456.899 75.2809 456.899 76.6329 456.899 78.0214C456.941 78.3276 456.766 78.6225 456.476 78.7339C455.062 79.4963 453.49 79.9246 451.882 79.9854C449.742 80.1045 447.596 79.8668 445.534 79.282C442.892 78.485 440.824 76.4287 440.022 73.801C439.555 72.3478 439.313 70.8323 439.305 69.3066V47.3826C439.305 46.5605 439.305 46.5605 438.387 46.5605H434.712C433.949 46.5605 433.94 46.5605 433.94 45.8114C433.94 44.6238 433.94 43.4363 433.94 42.2487C433.94 41.5728 433.94 41.5636 434.666 41.5545H438.341C439.26 41.5545 439.26 41.5545 439.26 40.641V31.2137C439.26 31.0036 439.26 30.7843 439.26 30.5742C439.26 30.3641 439.388 30.1357 439.701 30.1357C440.215 30.1357 440.739 30.1357 441.262 30.1357H444.202C444.9 30.1357 444.919 30.1357 444.919 30.8391V37.6904C444.919 38.7226 444.919 39.764 444.919 40.7963C444.919 41.4723 444.919 41.4905 445.644 41.4905H455.75C455.961 41.4905 456.173 41.4905 456.393 41.4905C456.807 41.4905 457.009 41.6093 457 42.0569C457 43.3358 457 44.6147 457 45.8936C457 46.3869 456.788 46.5148 456.329 46.5057C454.767 46.5057 453.205 46.5057 451.653 46.5057H445.773C444.919 46.5057 444.91 46.5057 444.91 47.3369V68.5301C444.889 69.4143 444.994 70.2969 445.222 71.1519C445.797 73.2411 447.642 74.7377 449.815 74.8789C451.953 75.1507 454.124 74.8544 456.108 74.0203C456.338 73.8598 456.629 73.8127 456.899 73.8924Z" fill="white"/>
<path d="M313.761 86.1452C314.659 86.2848 315.57 86.3276 316.478 86.2727C318.681 86.3066 320.553 84.7067 320.815 82.567C320.922 81.8465 320.969 81.1187 320.955 80.3909V42.4321C320.955 41.0754 320.769 41.2302 322.193 41.2211H325.823C326.651 41.2211 326.651 41.2211 326.669 42.0132V42.3774C326.669 54.9363 326.669 67.4951 326.669 80.054C326.708 81.3883 326.621 82.7233 326.409 84.042C325.881 87.9737 322.495 90.9377 318.442 91.0164C317.052 91.1636 315.648 91.1145 314.273 90.8707C313.91 90.7888 313.742 90.634 313.751 90.2607C313.77 88.9314 313.761 87.602 313.761 86.1452Z" fill="white"/>
<path d="M380.484 60.125V42.3366C380.484 42.1278 380.484 41.9189 380.484 41.701C380.484 41.4831 380.628 41.2197 380.994 41.2197H385.902C386.258 41.2197 386.441 41.3378 386.422 41.6919C386.422 41.8735 386.422 42.0551 386.422 42.2367V78.1767C386.422 78.9667 386.422 78.9667 385.575 78.9757H381.34C380.493 78.9757 380.484 78.9757 380.484 78.1857V60.125Z" fill="white"/>
<path d="M31.7941 79.3226H10.5388C10.3752 79.0333 10.6024 78.8977 10.7115 78.735C12.5289 76.0865 14.5281 73.5465 16.6182 71.0878C18.2993 69.1082 20.0714 67.219 21.8797 65.3569C22.007 65.2303 22.1433 65.1038 22.2614 64.9772C22.5522 64.6518 22.743 64.7422 22.952 65.0766C24.0789 66.8845 25.2239 68.6291 26.3507 70.4098C28.0712 73.1035 29.7826 75.8153 31.485 78.5452C31.6866 78.7539 31.7975 79.0332 31.7941 79.3226Z" fill="white"/>
<path d="M219.18 95.6869C219.18 94.7753 219.18 94.0369 219.18 93.2529C219.18 92.4689 219.18 92.5965 219.842 92.5783C219.989 92.5783 220.146 92.5783 220.302 92.5783C220.716 92.5783 220.845 92.7606 220.808 93.1253C220.808 93.2438 220.808 93.3714 220.808 93.4899C220.808 97.9204 220.808 102.36 220.808 106.791C220.817 107.339 220.789 107.887 220.725 108.432C220.32 111.648 217.833 114.22 214.609 114.758C211.291 115.41 207.848 114.732 205.035 112.871C204.253 112.361 204.327 112.461 204.869 111.732L204.934 111.659C205.329 111.157 205.329 111.148 205.853 111.495C206.687 112.066 207.593 112.526 208.548 112.862C210.47 113.612 212.584 113.734 214.581 113.208C217.176 112.655 219.02 110.369 218.996 107.739C219.06 106.752 219.06 105.762 218.996 104.776C218.591 104.931 218.453 105.241 218.242 105.478C216.441 107.588 213.697 108.667 210.926 108.356C208.156 108.045 205.725 106.384 204.446 103.928C203.753 102.423 203.532 100.746 203.812 99.1147C204.225 95.8966 206.175 93.8728 209.109 92.7333C210.742 92.075 212.546 91.9598 214.25 92.4051C215.661 92.8315 216.948 93.5882 218.003 94.6112C218.334 94.9394 218.692 95.2402 219.18 95.6869ZM219.18 101.075C219.18 98.3398 218.573 96.8812 217.166 95.7599C215.191 93.9823 212.401 93.4033 209.872 94.2466C207.606 94.8248 205.914 96.6995 205.587 98.9962C205.494 99.628 205.494 100.27 205.587 100.901C205.797 103.323 207.377 105.415 209.661 106.298C211.884 107.234 214.443 106.917 216.366 105.469C217.944 104.52 218.985 102.895 219.18 101.075Z" fill="white"/>
<path d="M141.092 36.0237H136.009C135.222 36.0237 135.213 36.0237 135.213 35.2871C135.213 32.439 135.213 29.5909 135.213 26.7427C135.213 25.9877 135.213 25.9785 135.991 25.9785H146.342C147.064 25.9785 147.083 25.9785 147.092 26.6783V35.3147C147.092 36.0053 147.092 36.0145 146.361 36.0237H141.092Z" fill="white"/>
<path d="M307.071 36.0237H301.887C301.191 36.0237 301.173 36.0237 301.173 35.3068V26.6678C301.173 25.9877 301.173 25.9785 301.915 25.9785H312.282C313.033 25.9785 313.043 25.9785 313.052 26.7413V35.1782C313.052 35.9961 313.052 36.0053 312.125 36.0053L307.071 36.0237Z" fill="white"/>
<path d="M283.988 107.138C282.957 108.394 281.584 109.319 280.039 109.798C278.071 110.39 275.957 110.233 274.096 109.358C271.876 108.34 271.057 106.515 271.13 104.167C271.113 102.244 272.233 100.495 273.978 99.7184C275.918 98.8223 278.071 98.5041 280.184 98.8013C281.332 98.9021 282.47 99.0953 283.588 99.3791C283.833 99.4433 284.124 99.5717 284.188 99.1131C284.502 97.1506 283.569 95.199 281.849 94.2247C280.97 93.8 280.004 93.5865 279.028 93.601C277.296 93.5666 275.578 93.9304 274.005 94.6649C273.751 94.775 273.459 95.1235 273.195 94.8667C272.92 94.547 272.737 94.1566 272.668 93.7386C272.668 93.5643 272.813 93.4818 272.95 93.4268C275.68 92.2895 278.51 91.6658 281.458 92.5738C284.032 93.2295 285.819 95.5851 285.771 98.2602C285.835 101.865 285.771 105.478 285.771 109.083C285.771 109.55 285.644 109.77 285.153 109.706H284.789C284.325 109.77 284.124 109.587 284.152 109.101C284.152 108.468 284.152 107.844 284.152 107.212L283.988 107.138ZM278.783 100.342C277.689 100.278 276.594 100.45 275.571 100.847C274.426 101.215 273.505 102.079 273.059 103.204C272.487 104.83 273.179 106.634 274.688 107.45C277 108.814 279.888 108.7 282.086 107.157C283.561 106.339 284.442 104.742 284.352 103.048C284.352 102.589 284.352 102.131 284.352 101.672C284.352 101.213 284.188 101.103 283.797 101.012C282.153 100.615 280.473 100.391 278.783 100.342Z" fill="white"/>
<path d="M172.708 106.452C172.444 106.596 172.228 106.81 172.084 107.069C170.703 108.913 168.45 109.94 166.112 109.79C165.588 109.776 165.065 109.722 164.55 109.627C161.554 109.037 160.196 106.969 159.517 104.302C159.378 103.683 159.312 103.05 159.322 102.416C159.322 99.2772 159.322 96.1297 159.322 92.9913C159.322 92.8371 159.322 92.6829 159.322 92.5378C159.322 92.3926 159.424 92.1387 159.694 92.1387H160.252C160.95 92.1387 160.959 92.1387 160.968 92.8552V102.289C160.952 103.219 161.122 104.143 161.471 105.01C162.113 106.761 163.746 107.985 165.647 108.139C167.454 108.373 169.275 107.824 170.632 106.639C171.99 105.453 172.748 103.748 172.708 101.971C172.652 98.9778 172.708 95.9846 172.708 92.9913C172.708 92.7555 172.549 92.3836 172.949 92.311C173.374 92.2155 173.818 92.2343 174.233 92.3654C174.345 92.3654 174.345 92.565 174.345 92.6829C174.345 92.8008 174.345 93.1727 174.345 93.4085C174.345 98.3671 174.345 103.326 174.345 108.284C174.345 109.373 174.261 109.436 173.126 109.327C172.81 109.327 172.689 109.164 172.698 108.874C172.708 108.583 172.698 108.148 172.698 107.785L172.708 106.452Z" fill="white"/>
<path d="M262.041 105.919C259.804 109.136 255.575 110.336 251.952 108.783C250.431 108.135 249.1 107.119 248.082 105.828L247.055 104.55C246.558 103.929 246.241 103.187 246.137 102.402C245.373 98.5435 247.262 94.6466 250.783 92.8159C254.304 90.9852 258.623 91.6545 261.408 94.4623C261.692 94.7161 261.747 94.9246 261.463 95.2055C261.179 95.4865 260.968 95.7312 260.739 95.985C260.418 95.985 260.308 95.7131 260.142 95.559C258.892 94.2522 257.204 93.4403 255.392 93.275C251.942 93.031 248.87 95.4162 248.293 98.7857C248.034 100.032 248.056 101.319 248.357 102.556C248.895 104.778 250.515 106.59 252.679 107.391C254.843 108.193 257.269 107.879 259.152 106.553C259.653 106.207 260.125 105.822 260.564 105.402C261.014 104.967 261.023 104.976 261.482 105.402C261.604 105.494 261.721 105.594 261.83 105.701C261.931 105.783 261.977 105.855 262.041 105.919Z" fill="white"/>
<path d="M141.912 109.804C139.736 109.813 137.62 109.099 135.904 107.778C135.525 107.504 135.432 107.267 135.774 106.866C135.919 106.705 136.052 106.534 136.172 106.354C136.329 106.135 136.495 106.135 136.717 106.281C136.939 106.427 137.225 106.619 137.484 106.783C138.789 107.605 140.27 108.115 141.81 108.271C143.126 108.468 144.466 108.114 145.507 107.295C146.207 106.729 146.591 105.867 146.539 104.975C146.488 104.084 146.008 103.27 145.248 102.786C144.248 102.255 143.195 101.827 142.106 101.508C141.015 101.18 139.924 100.879 138.861 100.468C138.372 100.285 137.909 100.04 137.484 99.7379C136.484 99.0181 135.882 97.8774 135.859 96.6553C135.835 95.4332 136.392 94.2706 137.364 93.5137C138.51 92.5663 139.975 92.0778 141.468 92.1448C143.415 92.1184 145.332 92.6169 147.013 93.5867C147.744 94.0157 147.734 94.0339 147.318 94.764C146.829 95.6767 146.847 95.4759 146.163 95.0926C145.021 94.4446 143.768 94.0114 142.466 93.8149C141.301 93.6531 140.114 93.8374 139.056 94.3442C137.947 94.8483 137.332 96.0364 137.567 97.219C137.67 97.7003 137.976 98.1153 138.409 98.3598C139.483 99.0142 140.666 99.4775 141.902 99.7287C143.348 100.023 144.736 100.544 146.015 101.271C147.058 101.814 147.803 102.785 148.051 103.923C148.299 105.061 148.024 106.248 147.3 107.167C146.202 108.754 144.394 109.719 142.448 109.759L141.912 109.804Z" fill="white"/>
<path d="M187.817 96.3266C188.161 96.3266 188.17 96.1184 188.252 95.9736C188.82 95.0147 189.545 94.158 190.396 93.4393C191.591 92.4014 193.113 91.8181 194.695 91.792C195.274 91.792 195.283 91.792 195.301 92.3984C195.301 92.5794 195.301 92.7605 195.301 92.9415C195.347 93.4031 195.166 93.5479 194.695 93.5841C193.338 93.6906 192.035 94.1595 190.921 94.9418C188.731 96.408 188.053 98.6527 187.763 101.069C187.642 102.813 187.612 104.563 187.672 106.31C187.672 107.034 187.672 107.758 187.672 108.482C187.672 109.206 187.672 109.107 187.003 109.107H186.641C186.324 109.107 186.215 108.953 186.224 108.663C186.224 108.509 186.224 108.355 186.224 108.211V93.0229C186.224 92.8781 186.224 92.7242 186.224 92.5704C186.224 92.2174 186.378 92.0997 186.722 92.0997C188.062 92.0997 187.817 92.0997 187.826 93.1225C187.835 94.1453 187.817 95.2676 187.817 96.3266Z" fill="white"/>
<path d="M383.379 32.9068C382.504 32.9068 381.63 32.9068 380.746 32.9068C380.323 32.9068 380.125 32.7892 380.135 32.3458C380.135 30.6536 380.135 28.9704 380.135 27.2782C380.135 26.871 380.248 26.6719 380.708 26.6719C382.589 26.6719 384.403 26.6719 386.256 26.6719C386.604 26.6719 386.773 26.7895 386.773 27.1424C386.773 28.8859 386.773 30.6324 386.773 32.382C386.773 32.7801 386.594 32.8978 386.199 32.8978C385.259 32.8978 384.319 32.9068 383.379 32.9068Z" fill="white"/>
<path d="M323.789 26.6719C324.669 26.6719 325.55 26.6719 326.431 26.6719C326.876 26.6719 327.037 26.8169 327.027 27.2519C327.027 28.9375 327.027 30.6231 327.027 32.3087C327.027 32.8071 326.819 32.9068 326.355 32.9068C324.594 32.9068 322.832 32.9068 321.071 32.9068C320.408 32.9068 320.389 32.9068 320.389 32.2453C320.389 30.6231 320.389 28.9919 320.389 27.3697C320.389 26.6991 320.389 26.69 321.147 26.6809C321.904 26.6719 322.908 26.6809 323.789 26.6809V26.6719Z" fill="white"/>
<path d="M298.028 97.0589V86.09C298.043 85.8769 298.043 85.6632 298.028 85.4501C298.028 85.0205 298.175 84.8285 298.643 84.8743C298.805 84.8925 298.968 84.8925 299.13 84.8743C299.657 84.8103 299.793 85.0571 299.774 85.5141C299.774 86.3276 299.774 87.1503 299.774 87.973V108.32C299.774 109.435 299.598 109.563 298.428 109.399C298.145 109.399 298.038 109.243 298.038 108.997V97.0589H298.028Z" fill="white"/>
<path d="M233.418 100.798C233.418 98.1709 233.418 95.5434 233.418 92.9159C233.418 92.6679 233.271 92.2912 233.671 92.2177C234.113 92.1123 234.576 92.1123 235.017 92.2177C235.085 92.2177 235.124 92.429 235.134 92.5393C235.144 92.6495 235.134 92.971 235.134 93.1823V108.396C235.134 108.616 235.134 108.828 235.134 109.039C235.134 109.25 234.978 109.388 234.715 109.416C233.486 109.535 233.408 109.471 233.408 108.286L233.418 100.798Z" fill="white"/>
<path d="M310.952 88.8552C311.004 90.2406 310.379 91.5615 309.285 92.3782C308.19 93.1949 306.771 93.4003 305.498 92.926C304.033 92.3577 303.037 90.9528 302.964 89.3503C302.762 87.9489 303.261 86.5374 304.292 85.5926C305.323 84.6479 306.748 84.2961 308.086 84.6562C309.845 85.252 311.011 86.9604 310.952 88.8552ZM310.46 88.7727C310.46 88.6719 310.46 88.4518 310.46 88.241C310.349 87.05 309.657 85.9972 308.622 85.4422C307.587 84.8873 306.347 84.9055 305.328 85.4905C304.212 86.1836 303.514 87.4074 303.472 88.7431C303.43 90.0788 304.051 91.3455 305.122 92.11C305.832 92.636 306.729 92.8262 307.585 92.6326C309.357 92.2721 310.589 90.6174 310.46 88.7727Z" fill="white"/>
<path d="M235.136 86.8288C235.136 88.1161 235.253 87.972 234.004 87.9816C233.883 87.972 233.762 87.972 233.642 87.9816C233.225 87.9816 233.008 87.8759 233.053 87.3956C233.053 87.2707 233.053 87.1362 233.053 87.0113C233.053 85.3302 232.827 85.58 234.447 85.5608C235.099 85.5608 235.099 85.5608 235.127 86.2428L235.136 86.8288Z" fill="white"/>
<path d="M308.002 89.4266C308.234 89.9932 308.69 90.3118 308.85 90.843C308.59 90.974 308.285 90.9868 308.014 90.8782C307.744 90.7695 307.534 90.5501 307.439 90.2764C307.321 90.0396 307.164 89.8241 306.974 89.6391C306.706 89.4 306.393 89.5417 306.357 89.8958C306.34 90.1315 306.34 90.3682 306.357 90.604C306.357 91.0023 306.179 91.0997 305.812 91.0997C305.446 91.0997 305.366 90.9138 305.366 90.5951C305.366 89.4532 305.366 88.3023 305.366 87.1515C305.366 86.7266 305.535 86.5761 305.946 86.6027C306.357 86.6292 306.894 86.6027 307.376 86.6027C307.983 86.5446 308.548 86.9131 308.734 87.4879C309.016 88.1188 308.81 88.8589 308.243 89.2584C308.171 89.3115 308.1 89.3558 308.002 89.4266ZM306.947 88.7627C307.066 88.7714 307.186 88.7714 307.305 88.7627C307.68 88.7184 307.993 88.5679 308.01 88.1253C308.028 87.6827 307.787 87.5941 307.269 87.5499C307.15 87.541 307.03 87.541 306.911 87.5499C306.375 87.5499 306.348 87.5499 306.357 88.1784C306.366 88.8069 306.375 88.7627 306.947 88.7627Z" fill="white"/>
</g>
<path d="M48.0028 264.752C48.8869 262.741 48.7508 260.463 49.2949 258.318C50.8134 251.906 53.4108 245.79 56.9792 240.224C64.7315 228.027 75.884 220.655 89.7566 216.567C97.8921 214.074 106.556 213.773 114.85 215.696C128.926 218.979 140.895 225.949 149.259 237.945C158.916 251.817 161.84 267.03 158.168 283.516C156.263 291.893 152.319 299.265 146.947 305.967C137.427 317.829 124.846 324.396 109.817 325.871C91.0486 327.747 74.932 321.716 62.3514 307.843C54.5836 299.399 49.7274 288.749 48.4788 277.418C48.4108 277.083 48.6148 276.614 48.0708 276.412V274.737C48.3428 274.094 48.3428 273.37 48.0708 272.727V268.37C48.3428 267.727 48.3428 267.003 48.0708 266.36C48.0142 265.826 47.9915 265.289 48.0028 264.752ZM127.362 233.656C127.444 231.936 126.32 230.384 124.642 229.903C122.958 229.416 121.161 230.175 120.358 231.712C118.726 234.594 117.162 237.543 115.598 240.492C111.518 247.93 107.233 255.235 103.221 262.741C98.937 270.716 94.2448 278.49 90.0286 286.465C86.2204 293.636 81.8683 300.538 78.2641 307.776C77.2441 309.854 77.8561 311.931 79.8282 312.869C81.8003 313.808 83.7723 313.137 84.9284 311.06C86.0164 309.184 86.9685 307.24 87.9885 305.364C92.0007 298.059 96.2169 290.888 100.161 283.516C104.445 275.541 109.069 267.767 113.354 259.792C117.706 251.683 122.466 243.775 126.75 235.599C127.098 235.004 127.307 234.34 127.362 233.656ZM106.145 292.764C107.619 292.885 109 292.042 109.545 290.687C111.042 287.939 112.538 285.125 114.034 282.377C118.862 273.598 123.69 264.886 128.518 256.106C129.013 255.3 129.25 254.366 129.198 253.426C129.015 251.827 127.806 250.528 126.206 250.209C124.574 249.807 123.01 250.544 122.058 252.287C118.59 258.519 115.19 264.752 111.79 270.984L103.017 287.068C101.521 289.883 103.153 292.764 106.145 292.764ZM79.4882 292.764C81.4602 292.831 82.4803 291.759 83.2283 290.352C86.6965 283.985 90.2326 277.619 93.7008 271.252C96.4889 266.092 99.277 260.999 102.065 255.905C102.86 254.648 102.834 253.048 101.997 251.817C101.257 250.662 99.9041 250.035 98.529 250.209C97.1432 250.351 95.9452 251.224 95.4008 252.488C93.1567 256.643 90.9126 260.731 88.6685 264.886C84.6564 272.324 80.3722 279.562 76.496 287.068C75.068 289.883 76.564 292.764 79.4882 292.764ZM139.263 259.323C139.337 257.613 138.166 256.093 136.475 255.704C134.859 255.161 133.081 255.839 132.258 257.313C131.238 259.189 130.354 261.066 129.402 262.942C126.206 268.974 122.942 275.005 119.746 281.037C119.501 281.464 119.296 281.913 119.134 282.377C118.485 284.244 119.363 286.293 121.174 287.135C123.073 287.951 125.287 287.155 126.206 285.326C126.682 284.521 126.954 283.717 127.362 282.913C130.898 276.278 134.434 269.644 137.971 262.942C138.65 261.836 139.09 260.604 139.263 259.323ZM65.8876 283.449C65.8876 285.326 66.8396 286.8 68.5397 287.202C70.3376 287.762 72.2797 286.934 73.0959 285.259C73.7759 283.918 74.3879 282.578 75.068 281.238C78.6041 274.469 82.4803 267.834 85.7444 260.932C86.6965 258.787 86.0844 256.844 84.2484 255.905C82.2763 254.9 80.1682 255.57 79.0121 257.648C78.0601 259.39 77.2441 261.267 76.292 263.009C73.0959 269.041 69.8317 275.072 66.6356 281.104C66.1557 281.795 65.8953 282.612 65.8876 283.449Z" fill="white"/>
<path d="M385.373 336.51C385.239 336.049 384.77 336.049 384.501 335.852C382.357 334.471 381.687 332.433 382.692 329.737C383.459 327.911 385.39 326.829 387.383 327.107C389.661 327.37 391.135 329.014 391.403 331.447C391.671 333.748 390.465 335.457 388.12 336.247C387.45 336.575 386.713 336.115 386.043 336.51H385.373Z" fill="white"/>
<path d="M386.162 336.971C386.728 336.198 387.419 336.628 388.111 336.628C388.061 336.729 388.039 336.85 388.048 336.971H386.162Z" fill="#F9B95E"/>
<path d="M48 272.963C48.6399 273.529 48.6399 274.374 48 274.94V272.963Z" fill="#F9B556"/>
<path d="M48 266.584C48.6399 267.15 48.6399 267.995 48 268.561V266.584Z" fill="#F9B350"/>
<path d="M169.64 243.211V207.748C169.64 205.469 169.776 205.402 172.025 205.402C182.245 205.402 192.396 205.268 202.616 205.536C210.315 205.737 217.265 208.15 221.966 214.385C227.212 221.356 228.098 229.2 225.372 237.378C223.647 242.662 219.774 247.006 214.676 249.378C213.585 249.914 213.585 250.384 214.062 251.389C218.604 260.439 223.169 269.511 227.757 278.606C228.915 280.885 228.711 281.154 226.19 281.154C221.761 281.154 217.265 281.086 212.836 281.154C211.357 281.355 209.946 280.477 209.497 279.075C205.546 270.562 201.526 262.115 197.574 253.668C197.097 252.663 196.62 252.261 195.462 252.328C193.009 252.395 190.489 252.462 188.036 252.328C186.605 252.261 186.196 252.73 186.196 254.071C186.264 262.316 186.196 270.562 186.196 278.874C186.196 281.019 186.06 281.154 183.88 281.154H171.888C169.776 281.154 169.64 281.019 169.64 279.008V243.211ZM186.128 228.999C186.128 231.68 186.196 234.362 186.128 236.976C186.128 237.714 186.264 238.25 187.218 238.25C192.328 238.183 197.438 238.652 202.548 237.982C207.181 237.378 210.179 233.892 210.247 229.334C210.315 224.306 207.59 220.753 202.889 220.083C197.642 219.278 192.328 219.882 187.014 219.748C186.06 219.748 186.128 220.418 186.128 221.021V228.999Z" fill="white"/>
<path d="M266.984 258.792C261.864 258.792 256.675 258.859 251.555 258.792C249.985 258.792 249.78 259.329 250.053 260.671C251.282 266.511 254.969 269.531 261.045 269.732C265.755 269.867 269.988 268.591 273.47 265.504C274.494 264.564 275.245 264.564 276.269 265.571C278.248 267.585 280.296 269.397 282.413 271.276C283.573 272.283 283.642 273.021 282.481 274.095C276.678 279.599 269.647 281.948 261.796 282.351C258.304 282.556 254.802 282.216 251.419 281.344C243.773 279.263 238.448 274.699 236.127 267.182C233.244 258.269 233.412 248.674 236.605 239.864C238.482 234.41 242.776 230.089 248.278 228.118C255.201 225.335 262.945 225.263 269.92 227.917C278.453 231.004 282.481 237.582 283.778 246.039C284.232 249.67 284.483 253.322 284.529 256.98C284.529 258.456 283.983 258.926 282.549 258.926C277.361 258.792 272.172 258.792 266.984 258.792ZM259.338 248.59C262.069 248.59 264.868 248.59 267.598 248.522C268.486 248.522 268.964 248.388 269.032 247.381C269.169 243.69 266.711 239.663 263.229 238.454C256.675 236.172 250.19 240.267 249.917 246.844C249.849 248.254 250.327 248.657 251.692 248.59C254.286 248.522 256.812 248.59 259.338 248.59Z" fill="white"/>
<path d="M354.502 276.834C348.515 282.675 341.438 283.212 334.09 281.668C324.904 279.788 320.958 272.403 321.842 263.609C322.795 254.143 330.007 250.182 337.9 249.041C342.663 248.302 347.426 248.772 352.257 248.638C354.434 248.571 354.502 248.571 354.434 246.355C354.298 242.126 353.141 240.649 349.331 239.373C343.139 237.292 337.492 238.769 332.049 241.79C330.62 242.596 330.007 242.462 329.327 241.119C327.966 238.568 326.605 236.017 325.176 233.533C324.428 232.257 324.768 231.519 325.925 230.847C329.671 228.561 333.871 227.096 338.24 226.551C344.491 225.574 350.878 225.848 357.02 227.356C364.436 229.236 368.246 233.868 369.063 241.387C369.289 243.865 369.38 246.352 369.335 248.839V278.848C369.335 281.064 369.199 281.198 366.954 281.198H357.02C354.774 281.198 354.638 281.064 354.638 278.848C354.515 278.184 354.47 277.509 354.502 276.834ZM348.242 258.842C348.237 258.791 348.213 258.743 348.174 258.708C346.269 258.775 344.364 258.909 342.459 259.044C341.734 259.127 341.025 259.308 340.35 259.581C337.696 260.588 336.471 262.535 336.607 265.421C336.743 267.973 338.172 269.651 340.894 270.322C342.989 270.825 345.167 270.893 347.29 270.524C352.529 269.785 354.434 267.503 354.434 262.266V260.118C354.502 259.178 354.094 258.842 353.141 258.842H348.242Z" fill="white"/>
<path d="M402.968 258.809C404.529 254.124 406.09 249.373 407.582 244.688C409.279 239.401 410.975 234.181 412.604 228.894C413.011 227.556 413.622 227.021 415.115 227.088C419.186 227.154 423.325 227.088 427.397 227.154C429.093 227.154 429.297 227.422 428.686 229.028C424.75 239.334 420.747 249.708 416.879 260.014C413.554 268.781 410.297 277.614 406.904 286.381C405.716 289.721 403.973 292.842 401.747 295.617C398.557 299.498 394.147 300.703 389.329 300.904C387.904 300.971 386.411 300.904 384.918 300.904C383.765 300.971 383.154 300.502 383.222 299.297C383.29 296.018 383.29 292.739 383.222 289.527C383.222 288.389 383.629 287.921 384.783 287.987C386.288 288.09 387.8 287.954 389.261 287.586C390.946 287.015 392.335 285.813 393.129 284.24C395.436 280.224 394.961 276.611 393.129 272.461C388.515 261.754 384.308 250.845 379.965 240.004C378.54 236.39 377.115 232.709 375.69 229.028C375.079 227.422 375.215 227.221 376.979 227.154H389.94C391.161 227.154 391.704 227.623 392.111 228.761C395.572 238.866 399.1 248.904 402.561 259.01C402.765 258.876 402.9 258.876 402.968 258.809Z" fill="white"/>
<path d="M293.735 236.789V207.414C293.735 205.072 293.803 205.005 296.243 205.005C299.97 205.005 303.765 205.072 307.492 205.005C309.051 204.938 309.525 205.54 309.458 207.012C309.39 224.678 309.458 242.343 309.458 260.008V262.484C309.458 267.636 310.542 269.108 315.76 268.841C317.183 268.774 317.793 269.309 317.793 270.714C317.726 273.837 317.726 276.982 317.793 280.149C317.793 281.554 317.251 282.157 315.828 282.023C312.643 281.822 309.458 282.223 306.273 281.755C298.615 280.618 294.549 276.402 294.006 268.774C293.6 263.555 293.871 258.268 293.803 252.982C293.735 247.696 293.735 242.209 293.735 236.789Z" fill="white"/>
<path d="M189.703 317.486C193.114 309.704 196.456 302.123 199.731 294.475C200.208 293.267 200.89 292.731 202.255 292.798C204.003 292.932 205.759 292.932 207.507 292.798C208.94 292.731 209.281 293.267 209.281 294.609C209.213 304.471 209.281 314.333 209.281 324.262C209.281 327.415 209.213 330.568 209.281 333.721C209.349 335.063 208.803 335.465 207.507 335.398C205.802 335.331 204.096 335.331 202.459 335.398C201.163 335.465 200.822 334.929 200.822 333.721C200.89 326.61 200.822 319.499 200.822 312.387V311.314C200.686 311.314 200.617 311.247 200.481 311.247C199.594 313.327 198.639 315.339 197.752 317.419C196.252 320.84 194.683 324.195 193.25 327.616C192.773 328.824 192.09 329.36 190.726 329.293C185.542 329.159 186.838 329.964 184.723 325.469C182.54 320.773 180.494 316.077 178.174 310.844C178.106 311.784 178.038 312.253 178.038 312.656C178.038 319.566 177.97 326.543 178.038 333.453C178.038 334.929 177.56 335.398 176.128 335.331C174.562 335.197 172.987 335.197 171.421 335.331C169.988 335.398 169.647 334.862 169.647 333.52C169.715 321.914 169.647 310.308 169.647 298.702C169.647 297.159 169.715 295.616 169.647 294.073C169.579 293.066 169.988 292.664 171.012 292.731C172.875 292.831 174.742 292.831 176.605 292.731C178.106 292.597 178.788 293.267 179.334 294.542C182.472 301.72 185.678 308.832 188.816 316.01C188.923 316.59 189.238 317.114 189.703 317.486Z" fill="white"/>
<path d="M266.384 332.49C263.722 335.297 260.583 336.033 257.103 335.698C252.463 335.231 249.392 332.891 248.164 328.413C246.663 322.731 246.458 317.05 248.232 311.435C250.552 303.949 257.581 302.813 263.45 305.086C264.625 305.621 265.654 306.423 266.452 307.425V302.412C266.452 299.738 266.52 297.131 266.452 294.458C266.384 293.188 266.725 292.653 268.158 292.72C269.907 292.854 271.664 292.854 273.413 292.72C274.914 292.653 275.323 293.121 275.323 294.592C275.255 305.821 275.323 317.05 275.323 328.279C275.323 330.084 275.255 331.955 275.323 333.76C275.323 334.83 274.982 335.297 273.822 335.231C272.184 335.164 270.546 335.231 268.909 335.231C266.52 335.097 266.52 335.097 266.384 332.49ZM256.08 319.991C255.982 321.385 256.12 322.785 256.489 324.135C256.805 326.432 258.832 328.13 261.198 328.079C263.498 328.249 265.559 326.692 265.974 324.469C266.737 321.347 266.713 318.09 265.906 314.978C265.36 312.772 263.791 311.636 261.471 311.569C259.303 311.394 257.308 312.734 256.694 314.777C256.143 316.459 255.934 318.23 256.08 319.991Z" fill="white"/>
<path d="M343.863 333C339.863 336.365 335.728 336.769 331.39 335.423C327.391 334.212 325.628 331.183 325.425 327.213C325.222 323.579 326.442 320.55 329.763 318.666C332.136 317.32 334.712 316.984 337.355 316.916C338.982 316.849 340.609 316.849 342.236 316.916C343.32 316.916 343.591 316.513 343.524 315.503C343.456 313.215 342.575 312.206 340.27 311.735C337.231 311.034 334.039 311.491 331.322 313.013C330.441 313.484 329.899 313.417 329.424 312.542C328.882 311.465 328.204 310.389 327.594 309.379C326.713 307.831 326.848 307.293 328.475 306.351C330.908 305.076 333.591 304.341 336.338 304.197C339.017 304.005 341.709 304.186 344.337 304.736C349.014 305.611 351.522 309.446 351.658 313.484C351.861 320.416 351.726 327.28 351.794 334.212C351.794 335.289 351.319 335.558 350.37 335.49C348.879 335.423 347.32 335.423 345.828 335.49C344.337 335.558 343.32 335.356 343.863 333ZM338.236 329.164H338.914C342.371 329.03 343.93 327.28 343.591 323.915C343.524 323.512 343.524 322.906 342.981 322.906C340.27 322.906 337.559 322.3 335.05 323.646C333.152 324.656 333.288 327.549 335.118 328.626C336.088 329.087 337.167 329.273 338.236 329.164Z" fill="white"/>
<path d="M232.857 322.829C230.143 322.829 227.362 322.896 224.648 322.829C223.36 322.829 223.088 323.232 223.495 324.443C224.05 326.664 225.948 328.304 228.244 328.545C231.025 328.882 233.603 328.478 235.841 326.662C236.859 325.855 237.605 325.922 238.419 326.797C239.233 327.671 240.251 328.478 241.065 329.353C241.743 330.025 242.014 330.765 241.2 331.639C235.909 337.423 223.563 337.692 218.204 332.11C215.626 329.42 214.812 325.855 214.541 322.29C214.202 317.515 214.609 312.942 217.729 308.839C222.613 302.45 232.992 303.458 236.927 306.552C240.386 309.243 242.014 312.942 242.286 317.246C242.354 318.659 242.286 320.004 242.421 321.416C242.489 322.56 242.014 322.829 240.929 322.829C238.283 322.761 235.57 322.829 232.857 322.829ZM228.515 317.044H232.517C233.399 317.044 233.806 316.708 233.738 315.699C233.467 313.009 231.364 311.193 228.447 311.193C225.742 311.058 223.423 313.088 223.224 315.767C223.156 316.641 223.427 317.044 224.309 317.044H228.515Z" fill="white"/>
<path d="M305.65 320.128C305.636 321.524 305.728 322.92 305.923 324.303C306.334 326.189 307.293 327.737 309.348 328.209C311.539 328.748 313.525 328.344 314.895 326.593C315.854 325.38 316.607 325.515 317.634 326.323C318.661 327.131 319.894 327.805 321.058 328.546C322.428 329.421 322.565 330.162 321.538 331.374C318.25 335.213 313.936 336.425 309.074 336.088C308.22 336.019 307.372 335.884 306.54 335.684C301.609 334.539 298.527 331.441 297.363 326.66C296.313 322.483 296.29 318.12 297.295 313.932C300.034 303.224 312.087 302.214 318.73 306.457C319.894 307.198 320.716 308.343 321.675 309.42C322.428 310.228 322.359 310.969 321.332 311.642C319.962 312.45 318.661 313.259 317.36 314.201C316.47 314.875 315.853 314.875 315.169 313.932C314.551 313.112 313.689 312.5 312.703 312.181C309.279 311.104 306.334 312.922 305.855 316.558C305.718 317.703 305.718 318.915 305.65 320.128Z" fill="white"/>
<path d="M358.913 310.064V295.207C358.913 292.72 358.913 292.72 361.468 292.72C362.948 292.72 364.361 292.787 365.773 292.72C367.185 292.653 367.656 293.123 367.656 294.602C367.589 304.216 367.656 313.829 367.656 323.443V325.123C367.791 327.409 368.194 327.88 370.481 327.88C371.759 327.88 372.23 328.35 372.163 329.627C372.062 331.239 372.062 332.856 372.163 334.468C372.163 335.14 372.095 335.745 371.221 335.745C368.867 335.745 366.58 335.947 364.293 335.274C361.065 334.333 359.518 332.182 359.182 328.283C358.778 323.98 359.047 319.745 358.98 315.443C358.912 313.627 358.913 311.812 358.913 310.064Z" fill="white"/>
<path d="M282.074 320.063V306.655C282.074 305.454 282.414 304.92 283.706 304.987C285.609 305.054 287.513 305.054 289.416 304.987C290.504 304.987 290.912 305.254 290.912 306.388C290.844 315.593 290.912 324.799 290.912 334.004C290.912 334.938 290.64 335.405 289.62 335.405C287.581 335.339 285.609 335.339 283.57 335.405C282.414 335.405 282.142 334.938 282.142 333.938C282.142 329.335 282.074 324.732 282.074 320.063Z" fill="white"/>
<path d="M286.433 300.197C282.089 300.197 282.089 300.197 282.089 295.784C282.089 292.321 281.682 292.729 285.143 292.729H289.69C290.505 292.729 290.912 293 290.912 293.883C290.844 295.648 290.844 297.346 290.912 299.111C290.912 299.926 290.64 300.197 289.826 300.197C288.672 300.129 287.586 300.197 286.433 300.197Z" fill="white"/>
<defs>
<clipPath id="clip0">
<rect width="457" height="115" fill="white"/>
</clipPath>
</defs>
</svg>
