<?xml version="1.0" encoding="UTF-8"?>
<svg width="3371px" height="887px" viewBox="0 0 3371 887" version="1.1" xmlns="http://www.w3.org/2000/svg" xmlns:xlink="http://www.w3.org/1999/xlink">
    <!-- Generator: Sketch 57 (83077) - https://sketch.com -->
    <title>Intellijoint</title>
    <desc>Created with Sketch.</desc>
    <g id="Social-Media-2019" stroke="none" stroke-width="1" fill="none" fill-rule="evenodd">
        <g id="Diamond-Sponsor---Intellijoint" transform="translate(-875.000000, -2117.000000)" fill="#FFFFFF" fill-rule="nonzero">
            <g id="Intellijoint" transform="translate(875.000000, 2117.000000)">
                <path d="M0,590.970685 C3.32561571,592.166697 3.59709454,588.860076 4.75087958,587.241942 C15.134945,572.467675 25.1117921,557.5527 35.5637272,542.708079 L360.863239,71.3386042 L405.792986,6.05041416 C407.21825,4.22121918 409.254341,2.81414612 408.575644,0 L419.434797,0 C419.434797,3.16591439 421.674498,4.99510936 423.167631,7.0353653 C477.82537,86.4880908 532.234253,166.081524 586.39428,245.815664 C590.262853,251.51431 593.995687,257.353663 598,263.474431 C593.539634,265.786974 588.661328,267.105109 583.679492,267.343881 C512.65138,277.678533 443.406723,298.454148 378.034275,329.044035 C346.144748,343.094607 315.294115,359.554761 285.731472,378.291592 C254.490955,398.677341 224.770991,421.465615 196.822154,446.464282 C192.235997,451.31533 185.853848,453.879565 179.311769,453.499647 C168.927704,452.866464 158.475769,453.499647 148.091704,453.499647 L140.354557,453.499647 C143.612303,458.846525 146.123482,463.208451 148.702531,467.570378 C150.127795,469.962402 151.620928,472.284073 152.978323,474.605743 C158.815117,484.736669 159.765293,481.641109 151.485189,489.802132 C119.845733,522.917131 91.0927651,558.867113 65.5621382,597.23216 C62.5758711,601.664441 59.3181251,605.956013 56.535467,610.458647 C54.845857,613.527141 51.5813113,615.287934 48.1874929,614.961281 C32.102372,614.961281 16.0851209,614.961281 0,614.961281 L0,590.970685 Z" id="Shape"></path>
                <path d="M413.767294,842 L193,483.385782 C198.683252,481.842752 631.016383,481.492064 639,482.824681 C637.646845,487.804459 423.239381,830.006448 413.767294,842 Z" id="Shape"></path>
                <path d="M837,614 L592.315761,614 L692.730226,453.769864 C692.546537,453.259609 692.32044,452.766895 692.05449,452.297289 C691.853438,452.259111 691.647379,452.259111 691.446327,452.297289 L690.77059,452.297289 L688.74338,452.297289 L221.876932,452.297289 L221.201196,452.297289 C220.457885,450.474102 221.944506,449.772876 222.890537,449.001527 C258.489317,419.038584 296.542846,392.360673 336.617015,369.272134 C359.307291,355.855619 382.960591,344.274446 407.366641,334.63157 C433.752982,324.773493 460.873124,317.174846 488.455039,311.911849 C504.560616,308.561062 520.952508,306.916429 537.378372,307.003267 C547.3117,307.35388 557.245029,307.003267 567.110784,307.003267 C591.672629,308.004294 615.794774,314.083507 638.063132,324.884529 C641.498833,326.588049 644.402736,329.261262 646.442266,332.598015 C673.471732,372.778264 699.62274,413.098757 726.652206,452.998515 C759.695728,501.663598 793.279839,549.907946 826.593656,598.362661 C830.039913,603.20112 833.080727,608.109702 837,614 Z" id="Shape"></path>
                <path d="M1217.23146,349.550537 C1219.47761,348.194915 1221.37613,346.299013 1222.76672,344.022892 C1227.61637,337.911437 1232.92034,332.203074 1238.62998,326.950166 C1253.39909,312.625489 1272.45943,303.981838 1292.63255,302.4606 C1310.39169,300.865854 1328.26966,303.424376 1344.94754,309.94741 C1366.39608,318.680627 1383.36946,336.274322 1391.79477,358.506722 C1397.67611,372.91896 1400.90429,388.344518 1401.31272,403.987345 C1402.59528,443.380561 1401.65024,482.773778 1401.85275,522.166995 C1401.85275,548.965577 1401.85275,575.83413 1401.85275,602.632713 C1401.85275,608.720119 1401.85275,608.790089 1395.97997,608.790089 L1325.10159,608.790089 C1318.8913,608.790089 1318.8238,608.790089 1318.8238,602.352832 C1318.8238,550.108424 1318.8238,497.864016 1318.8238,445.619607 C1319.01825,436.203776 1318.06569,426.800141 1315.98866,417.631532 C1310.31895,393.18335 1287.71021,377.156831 1263.67367,380.547331 C1236.67239,383.486079 1219.86409,402.657911 1217.50147,431.76551 C1217.09645,436.873334 1217.16396,441.981158 1217.16396,447.088981 L1217.16396,602.912594 C1217.16396,608.93003 1217.16396,609 1211.15617,609 L1140.2778,609 C1134.0675,609 1134,609 1134,602.492772 L1134,316.944429 C1134,315.265144 1134,313.65583 1134,312.046516 C1134,309.317678 1135.08005,308.198155 1137.57767,308.198155 L1212.50624,308.198155 C1215.8814,308.198155 1217.29896,309.317678 1217.23146,313.026098 C1217.23146,322.332134 1217.23146,331.638169 1217.23146,341.014174 L1217.23146,349.550537 Z" id="Shape"></path>
                <path d="M1702.74769,495.265521 C1701.79072,497.493849 1701.79072,500.038083 1702.74769,502.266412 C1708.43967,529.125072 1729.80543,549.383051 1756.13203,552.882854 C1785.29931,558.717546 1815.40615,549.828061 1837.22216,528.939806 C1842.69575,524.039183 1842.69575,523.969174 1847.89903,528.939806 C1860.60315,540.491277 1873.37485,551.972738 1886.01139,563.524208 C1889.86317,567.024653 1889.86317,567.23468 1886.41684,571.155179 C1874.91386,584.64003 1861.43723,596.168722 1846.47995,605.319527 C1837.09383,610.395708 1826.95178,613.803489 1816.4766,615.40081 C1785.78903,622.443111 1753.88536,621.383883 1723.69597,612.320418 C1690.12022,602.025328 1661.43596,579.169661 1643.21401,548.192257 C1610.98069,495.125503 1613.41339,416.225461 1653.21513,363.298725 C1678.47566,328.615596 1717.97782,308.217951 1759.91623,308.201713 C1783.61015,306.923701 1807.24158,311.733631 1828.7077,322.203495 C1856.59355,336.659164 1878.38143,361.224918 1889.93075,391.23228 C1899.70274,414.131166 1904.83176,438.865101 1905,463.901529 C1905,472.722652 1905,481.613783 1905,490.504915 C1905,495.335529 1904.39182,495.545556 1899.72914,495.615565 L1702.74769,495.615565 L1702.74769,495.265521 Z M1703.96404,438.558303 C1705.65342,438.558303 1706.32917,438.558303 1706.93735,438.558303 L1821.81504,438.558303 C1826.95075,438.558303 1827.3562,438.13825 1826.41014,433.027599 C1824.2067,420.132754 1819.34322,407.882398 1812.1518,397.113029 C1808.10173,390.904818 1802.74041,385.733473 1796.47437,381.991104 C1775.30964,370.39704 1749.59678,372.439904 1730.38591,387.241772 C1715.77064,400.385457 1706.3604,418.662008 1703.96404,438.558303 L1703.96404,438.558303 Z" id="Shape"></path>
                <path d="M1608.0443,531.2514 C1609.25345,532.798793 1608.71605,534.486859 1608.71605,535.963916 C1608.71605,555.235997 1608.71605,574.437742 1608.71605,593.639487 C1609.03986,597.127483 1607.16282,600.431581 1604.08097,601.798471 C1591.77253,608.581306 1578.30161,612.741031 1564.44771,614.036945 C1548.4255,615.657004 1532.27462,615.23187 1516.3504,612.770896 C1497.6075,610.090905 1481.18566,598.27125 1472.08206,580.90866 C1465.15888,569.060254 1461.27185,555.542226 1460.79666,541.661137 C1460.79666,534.135178 1460.39361,526.679556 1460.32643,519.153597 L1460.32643,391.212299 C1460.32643,389.594569 1460.32643,387.906504 1460.32643,386.288774 C1460.32643,382.982979 1459.18446,381.71693 1456.02723,381.787266 C1447.76471,381.787266 1439.435,381.787266 1431.17248,381.787266 C1426.13435,381.787266 1426,381.787266 1426,376.230717 L1426,312.928261 C1426,307.864065 1426,307.793728 1430.8366,307.723392 C1438.8976,307.723392 1446.95861,307.723392 1455.01961,307.723392 C1460.19208,307.723392 1460.32643,307.723392 1460.32643,302.166843 C1460.32643,281.066025 1460.32643,259.543189 1460.32643,238.231362 C1460.32643,236.613633 1460.32643,234.925568 1460.32643,233.307838 C1460.32643,231.690109 1461.40123,229.931707 1463.61801,230 C1464.28976,230 1464.96151,230 1465.63326,230 L1537.51053,230 C1542.61583,230 1542.68301,230 1542.68301,235.488256 C1542.68301,256.589075 1542.68301,278.182246 1542.68301,299.494073 C1542.68301,301.111803 1542.68301,302.729532 1542.68301,304.417597 C1542.68301,306.105663 1543.75781,307.723392 1545.97458,307.723392 C1548.19136,307.723392 1549.06463,307.723392 1550.67683,307.723392 L1605.02142,307.723392 C1610.93282,307.723392 1611,307.723392 1611,313.912966 C1611,334.544878 1611,355.176789 1611,375.808701 C1611,381.71693 1611,381.787266 1604.95425,381.787266 L1548.59441,381.787266 C1542.75018,381.787266 1542.68301,381.787266 1542.68301,387.906504 L1542.68301,510.994614 C1542.62669,514.757237 1543.0102,518.512943 1543.82498,522.178048 C1545.40505,532.805658 1554.10858,540.667932 1564.38054,540.746768 C1577.17253,541.672543 1589.98375,539.255591 1601.66267,533.713162 C1603.94662,532.798793 1605.626,531.040391 1608.0443,531.2514 Z" id="Shape"></path>
                <path d="M1945.0696,406.145637 L1945.0696,208.519822 C1945.0696,200.009956 1943.72223,199.939626 1952.88432,200.009956 L2020.92633,200.009956 C2027.66316,200.009956 2028,200.009956 2028,207.042903 L2028,602.505521 C2028,604.123099 2028,605.811007 2028,607.428584 C2028,610.66374 2027.12421,612 2023.82316,612 L1949.04433,612 C1946.21486,612 1944.80012,611.015387 1945.0696,607.920891 C1945.0696,606.092324 1945.0696,604.193429 1945.0696,602.294533 L1945.0696,406.145637 Z" id="Shape"></path>
                <path d="M2166.92602,405.519632 L2166.92602,602.435514 C2166.82471,604.05132 2166.82471,605.672278 2166.92602,607.288084 C2167.39921,611.156075 2165.57405,612 2162.26173,612 C2137.72346,612 2113.1176,612 2088.57934,612 C2085.06421,612 2083.71224,610.734112 2084.05024,607.14743 C2084.05024,605.740888 2084.05024,604.334346 2084.05024,602.927804 C2084.05024,471.650549 2084.05024,340.209197 2084.05024,208.603749 C2084.05024,199.109591 2082.90106,200.023843 2092.43245,200.023843 L2160.63936,200.023843 C2166.79083,200.023843 2166.85843,200.023843 2166.85843,206.63459 L2166.92602,405.519632 Z" id="Shape"></path>
                <path d="M2755.99625,466.498632 C2756.60932,558.738984 2681.88343,620.420318 2607.08942,620 C2525.12975,619.764668 2458.84997,550.937822 2459,466.217757 C2459.15054,381.497692 2525.67405,312.922555 2607.63399,313 C2689.59393,313.077577 2755.99594,381.778424 2755.99625,466.498632 L2755.99625,466.498632 Z M2608.99673,580.003553 L2623.3016,579.299428 C2624.65343,579.220317 2625.99719,579.031975 2627.32059,578.736129 C2656.94789,573.652294 2682.64214,554.707158 2696.9376,527.405429 C2707.78201,507.450767 2712.86462,484.700683 2711.58305,461.851408 C2711.25636,438.172418 2703.40547,415.261577 2689.24022,396.649449 C2660.83484,359.682896 2623.71031,345.600399 2579.29711,356.021447 C2542.85376,364.61177 2521.60082,391.227688 2508.72644,426.433929 C2503.55749,442.037996 2501.60832,458.588326 2503.0045,475.018542 C2504.35965,502.635042 2515.57255,528.751358 2534.4752,548.317936 C2553.71668,569.51853 2580.89304,581.073572 2608.99673,580.003553 Z" id="Shape"></path>
                <path d="M2962.44052,366.621087 C2964.59573,364.609668 2966.406,362.2334 2967.79415,359.593574 C2976.5743,346.773008 2987.58261,335.762492 3000.25477,327.126466 C3009.76162,320.763713 3020.41137,316.460922 3031.56335,314.476943 C3048.2416,311.174352 3065.37187,311.174352 3082.05013,314.476943 C3123.08663,321.443299 3155.26319,354.782237 3162.01576,397.331317 C3164.05773,408.141051 3165.05658,419.134788 3164.99753,430.149802 L3164.99753,602.042762 C3164.99753,603.167164 3164.99753,604.361842 3164.99753,605.556519 C3164.99753,607.805323 3164.25208,609 3161.88022,609 L3126.64113,609 C3123.93043,609 3123.18499,607.524222 3123.25276,604.994318 C3123.32052,602.464413 3123.25276,601.269736 3123.25276,599.372308 C3123.25276,547.134463 3123.25276,494.920044 3123.25276,442.729049 C3123.6391,430.078757 3122.13027,417.442896 3118.7801,405.272407 C3112.00335,384.189869 3100.68618,366.550812 3079.8138,357.696146 C3066.9008,352.425026 3052.96127,350.425371 3039.15331,351.86331 C3000.45611,353.987002 2968.57974,384.131407 2962.98266,423.895315 C2961.90855,431.784763 2961.47783,439.754081 2961.69507,447.718583 C2961.69507,498.035574 2961.69507,548.37599 2961.69507,598.739831 C2961.69507,600.356159 2961.69507,601.972487 2961.69507,603.65909 C2961.69507,608.85945 2961.69507,609 2956.40921,609 L2925.23617,609 C2920.15361,609 2920.15361,609 2920.01807,603.448265 L2920.01807,326.63454 C2920.01807,317.147398 2919.20486,318.201524 2928.48901,318.131249 L2953.56298,318.131249 C2962.50828,318.131249 2961.69507,317.217673 2961.69507,326.283164 C2961.69507,337.73801 2961.69507,349.192855 2961.69507,360.717976 C2961.35856,362.718499 2961.61862,364.777874 2962.44052,366.621087 L2962.44052,366.621087 Z" id="Shape"></path>
                <path d="M1000.07009,458.068354 L1000.07009,314.736275 C1000.07009,307.14066 998.796304,307 1007.10941,307 L1076.29588,307 C1083,307 1083,307 1083,313.470339 L1083,602.385049 C1083,608.925718 1083,608.996048 1076.83221,608.996048 L1007.77982,608.996048 C999.667839,608.996048 1000.47233,609.418027 1000.47233,601.541092 L1000.07009,458.068354 Z" id="Shape"></path>
                <path d="M2221.27014,457.439125 L2221.27014,316.2726 C2221.27014,314.446565 2221.27014,312.550299 2221.27014,310.654032 C2221.27014,308.757765 2222.5533,306.931731 2224.98454,307 L2297.24654,307 C2304,307 2304,307 2304,314.025173 L2304,602.679111 C2304,608.929768 2304,609 2297.58421,609 L2227.14565,609 C2221.06753,609 2221,609 2221,602.398182 L2221.27014,457.439125 Z" id="Shape"></path>
                <path d="M3370.25278,569.739793 C3370.25278,580.457215 3370.25278,590.892599 3370.25278,601.61002 C3370.56388,603.973355 3369.27446,606.249558 3367.13728,607.109749 C3356.71166,612.994491 3345.12402,616.29988 3333.27318,616.769531 C3317.49147,617.688817 3301.6732,615.853763 3286.47299,611.34031 C3266.99115,605.188079 3251.74564,589.316535 3245.83607,569.0347 C3242.39174,557.817905 3240.61034,546.119949 3240.55327,534.344099 L3240.55327,365.121655 C3240.55327,358.775814 3240.55327,358.775814 3233.78045,358.775814 L3206.68917,358.775814 C3201.06773,358.775814 3201,358.775814 3201,352.994047 C3201,343.827831 3201,334.661616 3201,325.4954 C3201,320.277708 3201,320.207199 3206.35053,320.136689 L3233.44181,320.136689 C3240.21463,320.136689 3240.21463,320.136689 3240.21463,313.085754 L3240.21463,240.320103 C3240.21463,238.698388 3240.21463,237.006164 3240.21463,235.384449 C3240.21463,233.762734 3241.16282,232 3243.46558,232 C3247.25836,232 3251.11887,232 3254.97938,232 L3276.6524,232 C3281.79975,232 3281.9352,232 3281.9352,237.42922 L3281.9352,290.311234 C3281.9352,298.27879 3281.9352,306.316856 3281.9352,314.284413 C3281.9352,319.502105 3281.9352,319.643124 3287.28573,319.643124 L3361.78676,319.643124 C3363.3445,319.643124 3364.90225,319.643124 3366.52773,319.643124 C3369.5755,319.643124 3371.06552,320.559745 3370.99779,324.014704 C3370.99779,333.886013 3370.99779,343.757322 3370.99779,353.628631 C3370.99779,357.436136 3369.44004,358.423267 3366.05363,358.352758 C3354.53984,358.352758 3343.02604,358.352758 3331.57998,358.352758 L3288.23393,358.352758 C3281.9352,358.352758 3281.86748,358.352758 3281.86748,364.769109 L3281.86748,528.350804 C3281.71771,535.175344 3282.49293,541.987783 3284.17023,548.586988 C3288.41095,564.712852 3302.00872,576.264265 3318.03434,577.354803 C3333.78982,579.452289 3349.79782,577.165365 3364.42816,570.726924 C3366.12269,569.488299 3368.26837,569.12466 3370.25278,569.739793 L3370.25278,569.739793 Z" id="Shape"></path>
                <path d="M2314.07184,664.761675 C2320.74333,665.83929 2327.51097,666.169228 2334.25325,665.745565 C2350.60953,666.007622 2364.51518,653.65811 2366.46056,637.142456 C2367.25297,631.581443 2367.59968,625.964153 2367.49728,620.346035 L2367.49728,327.357426 C2367.49728,316.886017 2366.11499,318.080742 2376.6895,318.010464 L2403.64412,318.010464 C2409.7953,318.010464 2409.7953,318.010464 2409.93353,324.124642 L2409.93353,326.935759 C2409.93353,423.872423 2409.93353,520.809088 2409.93353,617.745752 C2410.22144,628.045021 2409.57363,638.349324 2407.99832,648.527477 C2404.07497,678.874879 2378.93221,701.75288 2348.83639,702.360357 C2338.51565,703.496412 2328.08788,703.117722 2317.87313,701.23591 C2315.17767,700.603409 2313.93361,699.408685 2314.00273,696.52729 C2314.14095,686.266715 2314.07184,676.00614 2314.07184,664.761675 Z" id="Shape"></path>
                <path d="M2807,464.210678 L2807,326.637807 C2807,325.022607 2807,323.407407 2807,321.721982 C2807,320.036556 2808.06944,318 2810.7787,318 L2847.13979,318 C2849.77776,318 2851.13238,318.912939 2850.98979,321.651756 C2850.98979,323.056277 2850.98979,324.460798 2850.98979,325.86532 L2850.98979,603.820106 C2850.98979,609.929774 2850.98979,609.929774 2844.71572,610 L2813.34537,610 C2807.0713,610 2807,610 2807,603.890332 L2807,464.210678 L2807,464.210678 Z" id="Shape"></path>
                <path d="M235,612 L77.4252599,612 C76.2126376,609.773131 77.8968353,608.729286 78.7052502,607.476672 C92.1788318,587.086901 106.999772,567.532206 122.49439,548.603819 C134.957454,533.363683 148.094196,518.819444 161.500409,504.483973 C162.44356,503.509718 163.454079,502.535463 164.329861,501.561208 C166.485635,499.05598 167.900361,499.751876 169.449823,502.326694 C177.803443,516.244626 186.2918,529.675431 194.64542,543.384594 C207.400411,564.122313 220.088033,584.999211 232.708288,606.015289 C234.202506,607.622398 235.025177,609.771898 235,612 Z" id="Shape"></path>
                <path d="M1615.97507,737.471816 C1615.97507,730.413709 1615.97507,724.696643 1615.97507,718.626672 C1615.97507,712.5567 1615.97507,713.544835 1620.84867,713.403673 C1621.9317,713.403673 1623.08241,713.403673 1624.23312,713.403673 C1627.27912,713.403673 1628.22677,714.815294 1627.95601,717.638537 C1627.95601,718.556091 1627.95601,719.544226 1627.95601,720.461779 C1627.95601,754.764177 1627.95601,789.137155 1627.95601,823.439553 C1628.02497,827.683845 1627.82145,831.928193 1627.34681,836.144144 C1624.363,861.045579 1606.06571,880.956664 1582.33365,885.127403 C1557.91685,890.175711 1532.57659,884.921579 1511.86942,870.517123 C1506.11586,866.564583 1506.65737,867.340975 1510.65102,861.69449 L1511.12484,861.129841 C1514.03547,857.247883 1514.03547,857.177302 1517.89374,859.859382 C1524.02741,864.286025 1530.69636,867.846035 1537.72661,870.446542 C1551.87465,876.256485 1567.4338,877.196286 1582.13058,873.128622 C1601.22677,868.841408 1614.80187,851.147517 1614.62129,830.779983 C1615.09445,823.14166 1615.09445,815.47946 1614.62129,807.841137 C1611.64297,809.041016 1610.62764,811.440772 1609.07079,813.275879 C1595.8165,829.609751 1575.61909,837.969085 1555.22998,835.559589 C1534.84088,833.150093 1516.94983,820.289633 1507.53733,801.277098 C1502.43566,789.623094 1500.80852,776.639951 1502.86679,764.010296 C1505.91279,739.09518 1520.26286,723.426184 1541.85564,714.603551 C1553.87182,709.507 1567.14991,708.615345 1579.69378,712.062633 C1590.08007,715.364057 1599.55226,721.222417 1607.31088,729.14325 C1609.74768,731.684169 1612.38755,734.013344 1615.97507,737.471816 Z M1615.97507,779.185225 C1615.97507,758.010906 1611.50759,746.717935 1601.15118,738.036464 C1586.61832,724.274007 1566.08027,719.791051 1547.47382,726.320008 C1530.79432,730.796738 1518.34432,745.310879 1515.93076,763.092742 C1515.25315,767.984508 1515.25315,772.952419 1515.93076,777.844185 C1517.48076,796.589597 1529.10691,812.789944 1545.91698,819.628175 C1562.27946,826.872091 1581.10963,824.421119 1595.26224,813.205298 C1606.88089,805.858398 1614.54223,793.274925 1615.97507,779.185225 Z" id="Shape"></path>
                <path d="M1040.55417,277 L1002.89867,277 C997.068589,277 997,277 997,271.353804 C997,249.521845 997,227.689887 997,205.857929 C997,200.070577 997,200 1002.7615,200 L1079.44427,200 C1084.79423,200 1084.93141,200 1085,205.363886 L1085,271.565536 C1085,276.858845 1085,276.929423 1079.58145,277 L1040.55417,277 Z" id="Shape"></path>
                <path d="M2264.69087,277 L2226.28962,277 C2221.13739,277 2221,277 2221,271.505032 L2221,205.283623 C2221,200.070448 2221,200 2226.49571,200 L2303.2982,200 C2308.86261,200 2308.9313,200 2309,205.84721 L2309,270.518756 C2309,276.788655 2309,276.859103 2302.13037,276.859103 L2264.69087,277 Z" id="Shape"></path>
                <path d="M2094.66499,825.752055 C2087.07807,835.443511 2076.97456,842.578211 2065.59883,846.277421 C2051.11945,850.844265 2035.55752,849.635376 2021.86566,842.880119 C2005.52431,835.023859 1999.49677,820.939211 2000.03255,802.820267 C1999.90689,787.980821 2008.14821,774.485317 2020.99501,768.493361 C2035.26958,761.577959 2051.11812,759.122119 2066.6704,761.415649 C2075.11879,762.19394 2083.49475,763.685012 2091.71819,765.874608 C2093.52645,766.370048 2095.66958,767.360927 2096.13839,763.822071 C2098.45074,748.67766 2091.57901,733.616632 2078.9264,726.097864 C2072.45056,722.820384 2065.34424,721.173031 2058.16486,721.285019 C2045.41181,721.01931 2032.76904,723.827047 2021.19593,729.495166 C2019.32069,730.344491 2017.17757,733.034022 2015.23536,731.052263 C2013.20426,728.585459 2011.85971,725.572105 2011.35094,722.346676 C2011.35094,721.001911 2012.4225,720.364917 2013.42709,719.940254 C2033.51891,711.16389 2054.34742,706.351046 2076.04658,713.357981 C2094.98809,718.417868 2108.13852,736.59596 2107.79164,757.239799 C2108.26045,785.055209 2107.79164,812.941396 2107.79164,840.756806 C2107.79164,844.366439 2106.85402,846.06509 2103.2375,845.56965 L2100.55859,845.56965 C2097.14298,846.06509 2095.66958,844.649548 2095.8705,840.89836 C2095.8705,836.014738 2095.8705,831.201894 2095.8705,826.318272 L2094.66499,825.752055 Z M2056.3566,773.306206 C2048.30388,772.812681 2040.24417,774.139778 2032.71523,777.198948 C2024.29248,780.040631 2017.51261,786.712391 2014.23077,795.388669 C2010.02134,807.941736 2015.11391,821.862423 2026.21888,828.158477 C2043.23398,838.687096 2064.48829,837.802995 2080.66769,825.893609 C2091.52399,819.58238 2098.00406,807.261181 2097.3439,794.185458 C2097.3439,790.646601 2097.3439,787.107745 2097.3439,783.568889 C2097.3439,780.030033 2096.13839,779.180707 2093.25856,778.472936 C2081.15885,775.413705 2068.79269,773.68229 2056.3566,773.306206 Z" id="Shape"></path>
                <path d="M1273.90416,821.001339 C1271.95675,822.116052 1270.35962,823.775152 1269.29949,825.784667 C1259.09484,840.090378 1242.44539,848.053508 1225.17716,846.887583 C1221.30156,846.782754 1217.44045,846.359333 1213.63113,845.621408 C1191.50123,841.04911 1181.46718,825.010893 1176.45016,804.330036 C1175.41969,799.526157 1174.93539,794.616433 1175.0069,789.69868 C1175.0069,765.359984 1175.0069,740.950944 1175.0069,716.612247 C1175.0069,715.416415 1175.0069,714.220583 1175.0069,713.095094 C1175.0069,711.969606 1175.76289,710 1177.75596,710 L1181.87954,710 C1187.03402,710 1187.10275,710 1187.17147,715.557101 L1187.17147,788.713878 C1187.0495,795.928807 1188.31034,803.098253 1190.8827,809.816794 C1195.63072,823.398736 1207.69586,832.88735 1221.74084,834.085147 C1235.08886,835.895916 1248.54338,831.64523 1258.572,822.449087 C1268.60061,813.252944 1274.20149,800.029998 1273.90416,786.251871 C1273.4918,763.038663 1273.90416,739.825455 1273.90416,716.612247 C1273.90416,714.783328 1272.73581,711.899262 1275.69104,711.336518 C1278.83149,710.595844 1282.10949,710.741718 1285.17528,711.758576 C1286,711.758576 1286,713.306124 1286,714.220583 C1286,715.135043 1286,718.019108 1286,719.848028 C1286,758.30223 1286,796.756433 1286,835.210636 C1286,843.651803 1285.38146,844.144204 1276.99684,843.300088 C1274.66015,843.300088 1273.76671,842.033913 1273.83543,839.782935 C1273.90416,837.531957 1273.83543,834.155491 1273.83543,831.341768 L1273.90416,821.001339 Z" id="Shape"></path>
                <path d="M1933,817.555671 C1916.57952,842.503636 1885.52968,851.814423 1858.92787,839.767377 C1847.76075,834.744297 1837.98725,826.863174 1830.5111,816.852769 L1822.96921,806.94185 C1819.32325,802.126398 1816.99611,796.36929 1816.23538,790.283071 C1810.62546,760.359061 1824.48991,730.13808 1850.34134,715.940737 C1876.19277,701.743394 1907.90564,706.933773 1928.35366,728.708849 C1930.44114,730.676975 1930.84517,732.29365 1928.75769,734.472646 C1926.6702,736.651643 1925.12142,738.549478 1923.43796,740.517604 C1921.08112,740.517604 1920.27306,738.408898 1919.06097,737.213965 C1909.88345,727.079568 1897.48311,720.782519 1884.17973,719.500832 C1858.85494,717.6087 1836.29606,736.106191 1832.05988,762.237278 C1830.16077,771.902325 1830.3217,781.885124 1832.53125,791.478005 C1836.4797,808.705978 1848.37267,822.758993 1864.26403,828.974202 C1880.15538,835.189412 1897.96682,832.753978 1911.78843,822.475986 C1915.46723,819.793207 1918.93495,816.808103 1922.15853,813.54913 C1925.45811,810.1752 1925.52545,810.24549 1928.89236,813.54913 C1929.79227,814.264007 1930.647,815.038812 1931.45122,815.868706 C1932.19194,816.501318 1932.52863,817.06364 1933,817.555671 Z" id="Shape"></path>
                <path d="M1046.94452,847 C1030.8556,847.06759 1015.21135,841.533919 1002.52412,831.287029 C999.722215,829.163738 999.038824,827.323553 1001.56737,824.209394 C1002.6382,822.96361 1003.62031,821.638972 1004.50595,820.245919 C1005.66771,818.547287 1006.89782,818.547287 1008.53796,819.679708 C1010.17809,820.81213 1012.29661,822.298433 1014.2101,823.572407 C1023.85796,829.94514 1034.80984,833.895618 1046.19279,835.108951 C1055.92546,836.638819 1065.83313,833.893998 1073.52842,827.535882 C1078.70363,823.149606 1081.54116,816.464508 1081.16273,809.549817 C1080.7843,802.635126 1077.23555,796.324913 1071.61493,792.572369 C1064.21879,788.45219 1056.43263,785.13178 1048.37964,782.663681 C1040.31563,780.115733 1032.25162,777.780113 1024.39262,774.595178 C1020.7742,773.176593 1017.35087,771.273016 1014.2101,768.93307 C1006.8123,763.351145 1002.36405,754.504526 1002.18961,745.026869 C1002.01518,735.549213 1006.13466,726.533455 1013.32169,720.663604 C1021.79616,713.315982 1032.62349,709.527648 1043.66425,710.047153 C1058.05978,709.842528 1072.2365,713.708872 1084.6677,721.229815 C1090.06648,724.556303 1089.99814,724.697856 1086.92288,730.359963 C1083.30091,737.437598 1083.43759,735.880518 1078.3805,732.907912 C1069.93868,727.882708 1060.66999,724.522973 1051.04487,722.999224 C1042.43206,721.744497 1033.65356,723.173527 1025.82774,727.104251 C1017.62999,731.013591 1013.08272,740.227729 1014.82515,749.3988 C1015.58529,753.131242 1017.84789,756.350042 1021.04401,758.245842 C1028.98968,763.320569 1037.73268,766.913746 1046.87618,768.862294 C1057.56326,771.147529 1067.82947,775.185428 1077.28707,780.823496 C1084.99541,785.034322 1090.5075,792.564294 1092.34073,801.388048 C1094.17396,810.211803 1092.1401,819.423346 1086.78621,826.545014 C1078.66422,838.854163 1065.30054,846.341096 1050.90819,846.645495 L1046.94452,847 Z" id="Shape"></path>
                <path d="M1384.75117,743.822363 C1387.28753,743.822363 1387.35428,742.223732 1387.95499,741.11164 C1392.14471,733.748133 1397.49201,727.169474 1403.77388,721.65004 C1412.58359,713.680207 1423.81011,709.20085 1435.47839,709 C1439.75016,709 1439.81691,709 1439.9504,713.656883 C1439.9504,715.046997 1439.9504,716.437111 1439.9504,717.827226 C1440.28413,721.372017 1438.9492,722.484109 1435.47839,722.762131 C1425.47171,723.580318 1415.85944,727.180912 1407.64517,733.187989 C1391.49255,744.447914 1386.48658,761.685332 1384.35069,780.243358 C1383.46054,793.636937 1383.23775,807.069565 1383.68323,820.487166 C1383.68323,826.047623 1383.68323,831.608081 1383.68323,837.168538 C1383.68323,842.728995 1383.68323,841.964432 1378.744,841.964432 L1376.07415,841.964432 C1373.73802,841.964432 1372.93707,840.782835 1373.00381,838.558652 C1373.00381,837.377055 1373.00381,836.195458 1373.00381,835.083366 L1373.00381,718.452777 C1373.00381,717.340686 1373.00381,716.159089 1373.00381,714.977491 C1373.00381,712.266769 1374.1385,711.363194 1376.67486,711.363194 C1386.55332,711.363194 1384.75117,711.363194 1384.81792,719.21734 C1384.88466,727.071486 1384.75117,735.690194 1384.75117,743.822363 Z" id="Shape"></path>
                <path d="M2827.94597,253 C2821.49161,253 2815.03724,253 2808.51348,253 C2805.3904,253 2803.93296,252.09434 2804.00236,248.680697 C2804.00236,235.65312 2804.00236,222.69521 2804.00236,209.667634 C2804.00236,206.532656 2804.83519,205 2808.23587,205 C2822.11622,205 2835.51076,205 2849.1829,205 C2851.75077,205 2853,205.90566 2853,208.622642 C2853,222.044993 2853,235.490566 2853,248.959361 C2853,252.024673 2851.68137,252.930334 2848.76649,252.930334 C2841.82632,252.930334 2834.88614,253 2827.94597,253 Z" id="Shape"></path>
                <path d="M2388.09267,205 C2394.593,205 2401.09333,205 2407.59366,205 C2410.87877,205 2412.067,206.116279 2411.99711,209.465116 C2411.99711,222.44186 2411.99711,235.418605 2411.99711,248.395349 C2411.99711,252.232558 2410.45939,253 2407.03449,253 C2394.03383,253 2381.03317,253 2368.03251,253 C2363.13979,253 2363,253 2363,247.906977 C2363,235.418605 2363,222.860465 2363,210.372093 C2363,205.209302 2363,205.139535 2368.59168,205.069767 C2374.18336,205 2381.59234,205.069767 2388.09267,205.069767 L2388.09267,205 Z" id="Shape"></path>
                <path d="M2199,748.211473 L2199,663.469441 C2199.10947,661.823382 2199.10947,660.172215 2199,658.526156 C2199,655.207093 2200.09473,653.724108 2203.59788,654.077199 C2204.80987,654.218493 2206.035,654.218493 2207.24699,654.077199 C2211.18803,653.582871 2212.20978,655.489567 2212.06382,659.020485 C2212.06382,665.305519 2212.06382,671.661171 2212.06382,678.016823 L2212.06382,835.213293 C2212.06382,843.828733 2210.75014,844.81739 2201.99227,843.546259 C2199.87579,843.546259 2199.07298,842.345747 2199.07298,840.439052 L2199.07298,748.211473 L2199,748.211473 Z" id="Shape"></path>
                <path d="M1722.19551,777.500129 C1722.19551,757.32299 1722.19551,737.14585 1722.19551,716.96871 C1722.19551,715.063876 1721.10042,712.171349 1724.09368,711.606953 C1727.39977,710.797682 1730.86249,710.797682 1734.16858,711.606953 C1734.67962,711.606953 1734.97165,713.22959 1735.04465,714.076183 C1735.11766,714.922777 1735.04465,717.392007 1735.04465,719.014644 L1735.04465,835.844515 C1735.04465,837.537702 1735.04465,839.160339 1735.04465,840.782976 C1735.04465,842.405613 1733.87655,843.463855 1731.90537,843.675503 C1722.70656,844.592646 1722.12251,844.0988 1722.12251,834.997922 L1722.19551,777.500129 Z" id="Shape"></path>
                <path d="M2292.97801,685.560686 C2293.35909,696.279183 2288.76835,706.498849 2280.73387,712.817952 C2272.69939,719.137054 2262.27585,720.726084 2252.93286,717.056113 C2242.17359,712.659121 2234.86208,701.789432 2234.32403,689.391211 C2232.8419,678.548586 2236.50454,667.627491 2244.07447,660.31783 C2251.64439,653.008169 2262.11035,650.286413 2271.93622,653.072161 C2284.84401,657.682008 2293.40492,670.900055 2292.97801,685.560686 L2292.97801,685.560686 Z M2289.36145,684.922266 C2289.36145,684.141974 2289.36145,682.439518 2289.36145,680.807998 C2288.54554,671.5935 2283.46932,663.447512 2275.86767,659.154063 C2268.26602,654.860614 2259.16819,655.001023 2251.6835,659.527304 C2243.489,664.890446 2238.3625,674.358312 2238.05732,684.692789 C2237.75215,695.027266 2242.30966,704.827927 2250.17113,710.742841 C2255.38756,714.812917 2261.96764,716.284231 2268.25391,714.786173 C2281.26345,711.996978 2290.31224,699.19434 2289.36145,684.922266 Z" id="Shape"></path>
                <path d="M1735.11314,669.080995 C1735.11314,678.276726 1736.01919,677.247353 1726.40114,677.315978 C1725.47317,677.247342 1724.54128,677.247342 1723.6133,677.315978 C1720.40729,677.315978 1718.73458,676.561105 1719.08306,673.129862 C1719.08306,672.237739 1719.08306,671.27699 1719.08306,670.384867 C1719.08306,658.375517 1717.34066,660.159763 1729.81625,660.022514 C1734.83436,660.022514 1734.83436,660.022514 1735.04345,664.894879 L1735.11314,669.080995 Z" id="Shape"></path>
                <path d="M2272.61537,689.995684 C2274.34418,694.399262 2277.73531,696.876274 2278.93218,701.004629 C2276.99407,702.022643 2274.7249,702.122318 2272.71039,701.277926 C2270.69588,700.433535 2269.13342,698.727818 2268.42632,696.601051 C2267.55131,694.760189 2266.38236,693.08533 2264.9687,691.647025 C2262.97392,689.789266 2260.64667,690.89016 2260.3807,693.642397 C2260.24769,695.47464 2260.24769,697.314626 2260.3807,699.146869 C2260.3807,702.243135 2259.05084,703 2256.32464,703 C2253.59843,703 2253,701.555076 2253,699.078063 C2253,690.202101 2253,681.257333 2253,672.312565 C2253,669.009882 2254.26336,667.840181 2257.32203,668.046599 C2260.3807,668.253017 2264.37026,668.046599 2267.96087,668.046599 C2272.47427,667.595441 2276.68155,670.459679 2278.06777,674.92719 C2280.16281,679.830792 2278.63418,685.582818 2274.41067,688.688371 C2273.87873,689.101207 2273.34679,689.445236 2272.61537,689.995684 Z M2264.76922,684.835241 C2265.65458,684.903039 2266.54357,684.903039 2267.42893,684.835241 C2270.22163,684.491211 2272.54887,683.321511 2272.68186,679.881215 C2272.81485,676.44092 2271.01954,675.752861 2267.16296,675.408831 C2266.27764,675.340015 2265.38857,675.340015 2264.50325,675.408831 C2260.51368,675.408831 2260.3142,675.408831 2260.3807,680.294051 C2260.44719,685.17927 2260.51368,684.835241 2264.76922,684.835241 Z" id="Shape"></path>
            </g>
        </g>
    </g>
</svg>