<?xml version="1.0" encoding="utf-8"?>
<!-- Generator: Adobe Illustrator 19.2.1, SVG Export Plug-In . SVG Version: 6.00 Build 0)  -->
<svg version="1.1" xmlns="http://www.w3.org/2000/svg" xmlns:xlink="http://www.w3.org/1999/xlink" x="0px" y="0px" width="258.9px"
	 height="63.4px" viewBox="0 0 258.9 63.4" style="enable-background:new 0 0 258.9 63.4;" xml:space="preserve">
<style type="text/css">
	.st0{display:none;}
	.st1{display:inline;fill:#072B49;stroke:#000000;stroke-miterlimit:10;}
	.st2{fill:#FFFFFF;}
	.st3{opacity:0.6;}
</style>
<g id="Layer_2" class="st0">
	<rect x="1171.7" y="-171.6" class="st1" width="521.8" height="340.6"/>
</g>
<g id="Layer_1">
	<g>
		<rect x="146.3" y="15.2" class="st2" width="19.9" height="10.5"/>
		<rect y="23.4" class="st2" width="19.9" height="18.7"/>
		<polygon class="st2" points="111.7,18.1 100.5,36.2 104.2,42.2 104.2,42.2 119.2,42.2 119.2,42.2 122.9,36.2 		"/>
		<polygon class="st2" points="244,18.1 232.8,0 221.6,18.1 232.8,36.1 		"/>
		<path class="st2" d="M188.1,0h-5.3H172v25.8h24.6c2.3,0,4.5-0.6,6.4-1.7L188.1,0z"/>
		<path class="st2" d="M59.6,42.1c9.8-0.6,17.6-8.7,17.6-18.7H59.6V42.1z"/>
	</g>
	<g class="st3">
		<g>
			<g>
				<rect x="146.3" y="25.8" class="st2" width="19.9" height="16.4"/>
			</g>
			<g>
				<rect x="146.3" y="0" class="st2" width="19.9" height="15.2"/>
			</g>
			<g>
				<rect x="0" y="0" class="st2" width="19.9" height="23.4"/>
			</g>
			<g>
				<rect x="19.9" y="23.4" class="st2" width="15.3" height="18.7"/>
			</g>
			<g>
				<polygon class="st2" points="100.5,36.2 111.7,18.1 100.5,0 100.5,0 100.5,0 83,0 83,42.2 96.8,42.2 100.5,36.2 				"/>
			</g>
			<g>
				<polygon class="st2" points="122.9,0 122.9,0 122.9,0 111.7,18.1 122.9,36.2 122.9,36.2 126.6,42.2 140.4,42.2 140.4,0 				"/>
			</g>
			<g>
				<path class="st2" d="M209.4,11.3C208.6,4.8,202.8,0,196.2,0l-8.1,0L203,24.1C207.3,21.6,210,16.8,209.4,11.3z"/>
			</g>
			<g>
				<path class="st2" d="M229.1,42.2l3.7-6l-11.2-18.1l-8.5,13.7l-2.7,4.4l-2.7-4.4l-4.7-7.7c-1.9,1.1-4.1,1.7-6.4,1.7H172v16.4
					l17.6,0v-5.9l3.5,5.9L229.1,42.2z"/>
			</g>
			<g>
				<path class="st2" d="M57.2,23.4V0H39.7v23.4c0,10.4,8.4,18.7,18.7,18.7c0.4,0,0.8,0,1.2,0V23.4H57.2z"/>
			</g>
			<g>
				<rect x="59.6" y="0" class="st2" width="17.6" height="23.4"/>
			</g>
			<g>
				<polygon class="st2" points="232.8,36.1 236.5,42.2 258.9,42.2 244,18.1 				"/>
			</g>
		</g>
	</g>
	<g>
		<path class="st2" d="M146.3,50.8h1.3l4.5,11.2l4.5-11.2h1.3l-5.2,12.6h-1.3L146.3,50.8z"/>
		<path class="st2" d="M162.3,50.8h8.4v1.1h-7.2v4.5h6.4v1.1h-6.4v4.7h7.4v1.1h-8.7V50.8z"/>
		<path class="st2" d="M185.5,50.8h1.2v12.6h-1.3l-7.8-10.7v10.7h-1.2V50.8h1.3l7.8,10.7V50.8z"/>
		<path class="st2" d="M191.3,50.8h9.6v1.1h-4.2v11.5h-1.2V51.9h-4.2V50.8z"/>
		<path class="st2" d="M207.4,61.3c0.7,0.7,1.7,1.1,2.9,1.1c1.2,0,2.2-0.4,2.9-1.1c0.7-0.7,1-1.7,1-3v-7.5h1.2v7.5
			c0,1.6-0.5,2.9-1.4,3.8c-0.9,0.9-2.2,1.4-3.8,1.4c-1.6,0-2.9-0.5-3.8-1.4c-0.9-0.9-1.4-2.2-1.4-3.8v-7.5h1.2v7.5
			C206.3,59.6,206.7,60.6,207.4,61.3z"/>
		<path class="st2" d="M229.8,63.4l-2.7-4.1c-0.4,0-0.7,0-0.9,0h-3.5v4.1h-1.2V50.8h4.7c1.6,0,2.8,0.4,3.6,1.1
			c0.9,0.7,1.3,1.8,1.3,3.1c0,1-0.3,1.9-0.8,2.6c-0.5,0.7-1.2,1.2-2.2,1.5l3,4.3H229.8z M226.2,58.2c1.2,0,2.1-0.3,2.8-0.8
			s1-1.3,1-2.4c0-1-0.3-1.8-1-2.3s-1.6-0.8-2.8-0.8h-3.5v6.3H226.2z"/>
		<path class="st2" d="M236.9,50.8h8.4v1.1h-7.2v4.5h6.4v1.1h-6.4v4.7h7.4v1.1h-8.7V50.8z"/>
		<path class="st2" d="M256.3,52.1c-0.6-0.2-1.2-0.3-1.7-0.3c-0.9,0-1.6,0.2-2.1,0.5c-0.5,0.3-0.8,0.8-0.8,1.4
			c0,0.5,0.1,0.9,0.4,1.3s0.6,0.6,1.1,0.8c0.4,0.2,1,0.4,1.7,0.6c0.9,0.3,1.5,0.5,2.1,0.7c0.5,0.2,1,0.6,1.3,1.1s0.5,1.1,0.5,1.9
			c0,0.7-0.2,1.3-0.6,1.8c-0.4,0.5-0.9,0.9-1.6,1.2c-0.7,0.3-1.5,0.4-2.4,0.4c-0.9,0-1.7-0.2-2.6-0.5c-0.8-0.3-1.6-0.8-2.2-1.4
			l0.6-1c0.6,0.6,1.2,1,2,1.3c0.7,0.3,1.5,0.5,2.2,0.5c1,0,1.7-0.2,2.3-0.6s0.8-0.9,0.8-1.6c0-0.5-0.1-1-0.4-1.3s-0.6-0.6-1.1-0.8
			c-0.4-0.2-1-0.4-1.8-0.6c-0.9-0.3-1.5-0.5-2.1-0.7c-0.5-0.2-1-0.6-1.3-1c-0.4-0.5-0.5-1.1-0.5-1.8c0-0.6,0.2-1.2,0.5-1.7
			c0.4-0.5,0.9-0.8,1.5-1.1c0.6-0.3,1.4-0.4,2.3-0.4c0.7,0,1.4,0.1,2.1,0.3c0.7,0.2,1.3,0.5,1.8,0.8l-0.5,1.1
			C257.4,52.5,256.9,52.3,256.3,52.1z"/>
	</g>
</g>
</svg>
