<svg width="53" height="41" viewBox="0 0 53 41" fill="none" xmlns="http://www.w3.org/2000/svg">
<path d="M51.9959 13.5385C52.3996 13.2076 53 13.5172 53 14.0404V35.875C53 38.7044 50.7744 41 48.0312 41H4.96875C2.22559 41 0 38.7044 0 35.875V14.051C0 13.5172 0.590039 13.2182 1.0041 13.5492C3.32285 15.407 6.39727 17.7667 16.9559 25.6784C19.14 27.3227 22.8252 30.782 26.5 30.7607C30.1955 30.7927 33.9531 27.2586 36.0545 25.6784C46.6131 17.7667 49.6771 15.3964 51.9959 13.5385ZM26.5 27.3333C28.9016 27.376 32.359 24.2156 34.098 22.913C47.8346 12.631 48.8801 11.7341 52.0477 9.17161C52.648 8.69114 53 7.94375 53 7.15365V5.125C53 2.29557 50.7744 0 48.0312 0H4.96875C2.22559 0 0 2.29557 0 5.125V7.15365C0 7.94375 0.351953 8.68047 0.952344 9.17161C4.11992 11.7234 5.16543 12.631 18.902 22.913C20.641 24.2156 24.0984 27.376 26.5 27.3333Z" fill="white"/>
</svg>
