<svg width="1339" height="310" viewBox="0 0 1339 310" fill="none" xmlns="http://www.w3.org/2000/svg">
<g clip-path="url(#clip0)">
<path fill-rule="evenodd" clip-rule="evenodd" d="M157.68 309.66H163.452V272.318H157.68V309.66Z" fill="white"/>
<path fill-rule="evenodd" clip-rule="evenodd" d="M264.462 299.82L240.558 272.318H235.608V309.66H241.393V281.518L265.837 309.66H270.241V272.318H264.462V299.82Z" fill="white"/>
<path fill-rule="evenodd" clip-rule="evenodd" d="M340.946 277.345H354.514V309.66H360.558V277.345H374.136V272.318H340.946V277.345Z" fill="white"/>
<path fill-rule="evenodd" clip-rule="evenodd" d="M450.725 293.379H472.439V288.35H450.725V277.345H474.875V272.318H444.842V309.66H475.145V304.633H450.725V293.379Z" fill="white"/>
<path fill-rule="evenodd" clip-rule="evenodd" d="M551.841 277.345H563.448C566.597 277.345 569.013 277.929 570.653 279.08C572.212 280.177 572.966 281.653 572.966 283.69C572.966 284.731 572.736 285.65 572.284 286.428C571.81 287.236 571.183 287.901 570.366 288.461C569.524 289.034 568.502 289.482 567.32 289.793C566.098 290.117 564.739 290.279 563.283 290.279H551.841V277.345ZM571.199 293.693C572.742 293.117 574.098 292.358 575.23 291.428C576.393 290.485 577.313 289.347 577.964 288.036C578.616 286.734 578.952 285.244 578.952 283.515C578.952 282.096 578.653 280.737 578.064 279.472C577.478 278.21 576.642 277.091 575.592 276.145C574.257 274.948 572.552 273.999 570.513 273.323C568.502 272.656 566.182 272.318 563.619 272.318H545.854V309.66H551.841V295.309H562.114L574.404 309.66H581.93L568.814 294.409C569.64 294.212 570.438 293.974 571.199 293.693Z" fill="white"/>
<path fill-rule="evenodd" clip-rule="evenodd" d="M659.244 295.031L667.01 279.798L674.735 295.031H659.244ZM664.688 272.318L645.423 309.66H651.795L656.674 300.024H677.299L682.178 309.66H688.714L669.449 272.318H664.688Z" fill="white"/>
<path fill-rule="evenodd" clip-rule="evenodd" d="M788.901 299.634C787.115 301.271 785.264 302.535 783.405 303.388C781.619 304.208 779.457 304.624 776.98 304.624C774.943 304.624 773.035 304.259 771.304 303.536C769.548 302.808 768.013 301.799 766.735 300.538C765.444 299.263 764.404 297.736 763.646 295.999C762.887 294.258 762.505 292.364 762.505 290.266C762.505 288.264 762.881 286.372 763.621 284.653C764.364 282.937 765.389 281.419 766.68 280.144C767.958 278.883 769.493 277.884 771.239 277.172C774.056 276.025 777.652 275.846 780.472 276.463C781.561 276.701 782.588 277.026 783.518 277.429C784.445 277.835 785.329 278.328 786.136 278.891C786.989 279.484 787.812 280.133 788.601 280.821L789.714 281.795L793.827 277.925L792.736 276.999C791.714 276.133 790.656 275.34 789.595 274.634C788.488 273.911 787.295 273.275 786.038 272.739C784.766 272.2 783.368 271.786 781.894 271.499C780.423 271.215 778.769 271.072 776.98 271.072C774.028 271.072 771.267 271.586 768.765 272.606C766.285 273.624 764.111 275.034 762.309 276.793C760.505 278.553 759.083 280.618 758.067 282.937C757.046 285.262 756.532 287.763 756.532 290.464C756.532 293.097 757.04 295.609 758.037 297.934C759.034 300.259 760.456 302.316 762.26 304.045C764.065 305.772 766.239 307.152 768.722 308.148C771.221 309.15 773.955 309.659 776.87 309.659C778.637 309.659 780.304 309.493 781.818 309.174C783.329 308.855 784.754 308.403 786.057 307.832C787.347 307.269 788.583 306.579 789.736 305.772C790.855 304.987 791.941 304.129 792.974 303.214L794.051 302.259L789.986 298.64L788.901 299.634Z" fill="white"/>
<path fill-rule="evenodd" clip-rule="evenodd" d="M860.433 277.345H874.007V309.66H880.051V277.345H893.622V272.318H860.433V277.345Z" fill="white"/>
<path fill-rule="evenodd" clip-rule="evenodd" d="M962.884 309.66H968.656V272.318H962.884V309.66Z" fill="white"/>
<path fill-rule="evenodd" clip-rule="evenodd" d="M1058.18 301.788L1044.39 272.318H1037.92L1055.86 309.66H1060.38L1078.32 272.318H1072.02L1058.18 301.788Z" fill="white"/>
<path fill-rule="evenodd" clip-rule="evenodd" d="M1154.91 304.633V293.379H1176.63V288.35H1154.91V277.345H1179.07V272.318H1149.03V309.66H1179.33V304.633H1154.91Z" fill="white"/>
<path fill-rule="evenodd" clip-rule="evenodd" d="M710.993 92.1216H793.311C822.094 92.1216 851.138 103.812 851.138 129.926V130.411C851.138 154.129 828.316 167.733 788.526 167.733H710.993V92.1216ZM710.993 84.6246V10.9484H783.74C818.891 10.9484 840.727 24.9707 840.727 47.5469V48.0288C840.727 75.0111 813.758 84.6246 788.526 84.6246H710.993ZM817.207 87.396C837.613 81.3526 850.019 66.6115 850.019 47.7892V47.3046C850.019 35.5586 845.609 25.812 836.897 18.3389C825.559 8.60296 807.273 3.4541 784.016 3.4541H701.698V175.228H788.526C834.221 175.228 860.43 158.804 860.43 130.168V129.684C860.43 109.139 843.326 92.6913 817.207 87.396Z" fill="white"/>
<path fill-rule="evenodd" clip-rule="evenodd" d="M93.6075 107.319L8.64839 3.44971H0.393555V175.223H9.67714V17.9357L92.0581 118.853L92.7956 119.417H94.4131L177.259 17.9357V175.223H186.542V3.44971H178.567L93.6075 107.319Z" fill="white"/>
<path fill-rule="evenodd" clip-rule="evenodd" d="M512.023 89.9632V90.4463C512.023 136.627 473.34 171.451 422.037 171.451C365.361 171.451 331.492 130.017 331.492 89.9632V89.4775C331.492 43.2964 370.175 8.47299 421.472 8.47299C478.154 8.47299 512.023 49.9066 512.023 89.9632ZM421.758 0.963379C364.992 0.963379 322.187 39.1199 322.187 89.7177V90.2034C322.187 140.801 364.992 178.96 421.758 178.96C478.518 178.96 521.323 140.801 521.323 90.2034V89.7177C521.323 39.1199 478.518 0.963379 421.758 0.963379Z" fill="white"/>
<path fill-rule="evenodd" clip-rule="evenodd" d="M669.142 92.1243H751.46C780.246 92.1243 809.29 103.812 809.29 129.927V130.409C809.29 154.131 786.464 167.736 746.675 167.736H669.142V92.1243ZM669.142 84.6244V10.946H741.889C777.04 10.946 798.876 24.9714 798.876 47.5429V48.0275C798.876 75.0106 771.91 84.6244 746.675 84.6244H669.142ZM775.356 87.396C795.765 81.3524 808.171 66.6108 808.171 47.7879V47.306C808.171 35.557 803.754 25.8074 795.049 18.3367C783.704 8.5978 765.422 3.4541 742.168 3.4541H659.85V175.228H746.675C792.372 175.228 818.582 158.803 818.582 130.172V129.688C818.582 109.14 801.475 92.6887 775.356 87.396Z" fill="white"/>
<path fill-rule="evenodd" clip-rule="evenodd" d="M988.861 175.228H997.519V3.4541H988.861V175.228Z" fill="white"/>
<path fill-rule="evenodd" clip-rule="evenodd" d="M1328.77 89.9632V90.4463C1328.77 136.627 1290.08 171.451 1238.78 171.451C1182.11 171.451 1148.24 130.017 1148.24 89.9632V89.4775C1148.24 43.2964 1186.92 8.47299 1238.22 8.47299C1294.9 8.47299 1328.77 49.9066 1328.77 89.9632ZM1238.5 0.963379C1181.74 0.963379 1138.93 39.1199 1138.93 89.7177V90.2034C1138.93 140.801 1181.74 178.96 1238.5 178.96C1295.26 178.96 1338.07 140.801 1338.07 90.2034V89.7177C1338.07 39.1199 1295.26 0.963379 1238.5 0.963379Z" fill="white"/>
</g>
<defs>
<clipPath id="clip0">
<rect width="1337.67" height="308.694" fill="white" transform="translate(0.393555 0.970215)"/>
</clipPath>
</defs>
</svg>
