<?xml version="1.0" encoding="UTF-8"?>
<svg width="927px" height="248px" viewBox="0 0 927 248" version="1.1" xmlns="http://www.w3.org/2000/svg" xmlns:xlink="http://www.w3.org/1999/xlink">
    <!-- Generator: Sketch 52.6 (67491) - http://www.bohemiancoding.com/sketch -->
    <title>MI_Logo_Black&amp;Red_EPS</title>
    <desc>Created with Sketch.</desc>
    <g id="Banner" stroke="none" stroke-width="1" fill="none" fill-rule="evenodd">
        <g id="Artboard" transform="translate(-290.000000, -5389.000000)" fill="#FFFFFF">
            <g id="MI_Logo_Black&amp;Red_EPS" transform="translate(290.000000, 5389.000000)">
                <polygon id="Fill-1" points="109 248 113 248 113 218 109 218"></polygon>
                <polyline id="Fill-2" points="182.995392 240.094521 166.430394 218 163 218 163 248 167.008861 248 167.008861 225.390895 183.948161 248 187 248 187 218 182.995392 218 182.995392 240.094521"></polyline>
                <polyline id="Fill-3" points="236 222.038503 245.402447 222.038503 245.402447 248 249.591008 248 249.591008 222.038503 259 222.038503 259 218 236 218 236 222.038503"></polyline>
                <polyline id="Fill-4" points="312.077258 234.92046 327.124886 234.92046 327.124886 230.879786 312.077258 230.879786 312.077258 222.038503 328.813126 222.038503 328.813126 218 308 218 308 248 329 248 329 243.961497 312.077258 243.961497 312.077258 234.92046"></polyline>
                <path d="M382.148302,222.038503 L390.192118,222.038503 C392.374298,222.038503 394.048743,222.507491 395.185204,223.432438 C396.265491,224.313961 396.78835,225.499457 396.78835,227.136571 C396.78835,227.972498 396.628468,228.710719 396.315185,229.336035 C395.986777,229.985236 395.552502,230.51936 394.986432,230.968807 C394.403077,231.429109 393.694408,231.789535 392.875551,232.039227 C392.028606,232.299776 391.086596,232.43005 390.077608,232.43005 L382.148302,232.43005 L382.148302,222.038503 Z M395.563305,235.172324 C396.632789,234.70985 397.572638,234.099732 398.356927,233.352826 C399.162821,232.595064 399.80019,231.680973 400.25175,230.627922 C400.70331,229.581385 400.936652,228.385033 400.936652,226.99544 C400.936652,225.85554 400.729237,224.763407 400.320888,223.747268 C399.914701,222.7333 399.335667,221.834407 398.607553,221.074473 C397.682828,220.112615 396.500994,219.35051 395.087979,218.807701 C393.694408,218.271405 392.086941,218 390.31095,218 L378,218 L378,248 L382.148302,248 L382.148302,236.470724 L389.267393,236.470724 L397.784375,248 L403,248 L393.910466,235.747702 C394.483018,235.589202 395.036125,235.398133 395.563305,235.172324 Z" id="Fill-5"></path>
                <path d="M456.577717,236.247178 L461.959134,224.009059 L467.31259,236.247178 L456.577717,236.247178 Z M460.350301,218 L447,248 L451.415687,248 L454.796817,240.258969 L469.089188,240.258969 L472.470318,248 L477,248 L463.649699,218 L460.350301,218 Z" id="Fill-6"></path>
                <path d="M546.43104,239.946132 C545.193349,241.261626 543.911151,242.277057 542.622595,242.961984 C541.384904,243.620818 539.886534,243.955671 538.169873,243.955671 C536.758396,243.955671 535.435931,243.662131 534.236387,243.081574 C533.019889,242.496668 531.955983,241.685628 531.070101,240.672371 C530.175742,239.648243 529.455168,238.421898 528.929573,237.025952 C528.403978,235.627832 528.139061,234.105773 528.139061,232.420635 C528.139061,230.811601 528.399739,229.291716 528.912618,227.910991 C529.427617,226.53244 530.137594,225.312618 531.031953,224.28849 C531.917835,223.275233 532.981741,222.472891 534.191881,221.901031 C536.143789,220.979098 538.636127,220.83559 540.590153,221.331346 C541.344636,221.522691 542.056733,221.783615 542.701011,222.107596 C543.343169,222.433752 543.955657,222.829487 544.515161,223.281756 C545.106456,223.757943 545.676557,224.279792 546.223345,224.832082 L546.994783,225.614856 L549.845289,222.505506 L549.088686,221.761871 C548.380828,221.066073 547.647538,220.428982 546.912129,219.861472 C546.14493,219.280915 545.318389,218.769938 544.447343,218.339412 C543.565699,217.906712 542.597163,217.574034 541.575644,217.343551 C540.556244,217.115242 539.409684,217 538.169873,217 C536.124715,217 534.210955,217.41313 532.477339,218.232868 C530.758559,219.050431 529.251712,220.183278 528.003424,221.596619 C526.753016,223.00996 525.767525,224.669005 525.063906,226.53244 C524.356048,228.400224 524,230.409343 524,232.579365 C524,234.695027 524.35181,236.712843 525.042713,238.580627 C525.733616,240.448411 526.719107,242.100933 527.969514,243.490356 C529.219922,244.877604 530.726769,245.986533 532.447669,246.786701 C534.179165,247.591218 536.073851,248 538.093577,248 C539.318552,248 540.47359,247.867363 541.522661,247.610788 C542.569612,247.354212 543.557222,246.991092 544.460059,246.5323 C545.354418,246.080031 546.210629,245.525566 547.009619,244.877604 C547.785295,244.247037 548.537659,243.557761 549.253994,242.822824 L550,242.055271 L547.183404,239.148138 L546.43104,239.946132" id="Fill-7"></path>
                <polyline id="Fill-8" points="596 222.038503 605.40681 222.038503 605.40681 248 609.595371 248 609.595371 222.038503 619 222.038503 619 218 596 218 596 222.038503"></polyline>
                <polygon id="Fill-9" points="667 248 671 248 671 218 667 218"></polygon>
                <polyline id="Fill-10" points="733.041342 241.676037 723.483986 218 719 218 731.434315 248 734.565685 248 747 218 742.630499 218 733.041342 241.676037"></polyline>
                <polyline id="Fill-11" points="800.07767 243.961497 800.07767 234.92046 815.12682 234.92046 815.12682 230.879786 800.07767 230.879786 800.07767 222.038503 816.815231 222.038503 816.815231 218 796 218 796 248 817 248 817 243.961497 800.07767 243.961497"></polyline>
                <path d="M492.441132,73.2340168 L549.487163,73.2340168 C569.433824,73.2340168 589.561018,82.6256568 589.561018,103.605524 L589.561018,103.994792 C589.561018,123.049705 573.745106,133.97917 546.170959,133.97917 L492.441132,133.97917 L492.441132,73.2340168 Z M492.441132,67.2110476 L492.441132,8.02083043 L542.854754,8.02083043 C567.213708,8.02083043 582.346176,19.2860929 582.346176,37.4234435 L582.346176,37.8105733 C582.346176,59.4877017 563.656793,67.2110476 546.170959,67.2110476 L492.441132,67.2110476 Z M566.046696,69.4375785 C580.188387,64.582415 588.785159,52.7396662 588.785159,37.6180778 L588.785159,37.2288092 C588.785159,27.7922537 585.729006,19.9619659 579.691923,13.9582462 C571.834473,6.13651369 559.162831,2 543.046032,2 L486,2 L486,140 L546.170959,140 C577.837169,140 596,126.805505 596,103.800158 L596,103.410889 C596,86.9054726 584.1472,73.6917283 566.046696,69.4375785 Z" id="Fill-12"></path>
                <polyline id="Fill-13" points="64.5966308 85.4472326 5.72054466 2 0 2 0 140 6.43346539 140 6.43346539 13.6377811 63.522955 94.7129683 64.0340247 95.1664161 65.1549422 95.1664161 122.566535 13.6377811 122.566535 140 129 140 129 2 123.472717 2 64.5966308 85.4472326"></polyline>
                <path d="M354.555784,71.501072 L354.555784,71.8891288 C354.555784,108.99036 327.748621,136.966896 292.195736,136.966896 C252.919574,136.966896 229.448518,103.67977 229.448518,71.501072 L229.448518,71.1108712 C229.448518,34.0096403 256.255681,6.03310394 291.804264,6.03310394 C331.084728,6.03310394 354.555784,39.3202297 354.555784,71.501072 Z M292.002151,0 C252.663612,0 223,30.6543426 223,71.3038276 L223,71.6940284 C223,112.343513 252.663612,143 292.002151,143 C331.336388,143 361,112.343513 361,71.6940284 L361,71.3038276 C361,30.6543426 331.336388,0 292.002151,0 Z" id="Fill-14"></path>
                <path d="M463.438982,73.236225 L520.485014,73.236225 C540.433824,73.236225 560.561018,82.6260171 560.561018,103.606535 L560.561018,103.993676 C560.561018,123.051318 544.742957,133.981122 517.168809,133.981122 L463.438982,133.981122 L463.438982,73.236225 Z M463.438982,67.2109301 L463.438982,8.01887816 L513.852604,8.01887816 C538.211559,8.01887816 553.344027,19.2866287 553.344027,37.4202638 L553.344027,37.8095445 C553.344027,59.4873448 534.656793,67.2109301 517.168809,67.2109301 L463.438982,67.2109301 Z M537.044547,69.43753 C551.188387,64.5822161 559.785159,52.7391001 559.785159,37.617043 L559.785159,37.2299013 C559.785159,27.7909143 556.724708,19.9582449 550.691923,13.9564779 C542.830175,6.13236411 530.160681,2 514.046032,2 L457,2 L457,140 L517.168809,140 C548.837169,140 567,126.805096 567,103.803314 L567,103.414033 C567,86.9059657 555.145051,73.6896728 537.044547,69.43753 Z" id="Fill-15"></path>
                <polygon id="Fill-16" points="685 140 691 140 691 2 685 2"></polygon>
                <path d="M920.555784,71.501072 L920.555784,71.8891288 C920.555784,108.99036 893.744319,136.966896 858.195736,136.966896 C818.919574,136.966896 795.448518,103.67977 795.448518,71.501072 L795.448518,71.1108712 C795.448518,34.0096403 822.255681,6.03310394 857.804264,6.03310394 C897.084728,6.03310394 920.555784,39.3202297 920.555784,71.501072 Z M858.002151,0 C818.663612,0 789,30.6543426 789,71.3038276 L789,71.6940284 C789,112.343513 818.663612,143 858.002151,143 C897.336388,143 927,112.343513 927,71.6940284 L927,71.3038276 C927,30.6543426 897.336388,0 858.002151,0 Z" id="Fill-17"></path>
            </g>
        </g>
    </g>
</svg>