<svg width="1236" height="569" viewBox="0 0 1236 569" fill="none" xmlns="http://www.w3.org/2000/svg">
<path d="M3.91406 13.5234H10.875C14.6406 13.5234 17.3516 13.875 19.0078 14.5781C20.6797 15.2656 21.9922 16.3906 22.9453 17.9531C23.9141 19.5 24.3984 21.3594 24.3984 23.5312C24.3984 25.9375 23.7656 27.9375 22.5 29.5312C21.25 31.125 19.5469 32.2344 17.3906 32.8594C16.125 33.2188 13.8203 33.3984 10.4766 33.3984V48H3.91406V13.5234ZM10.4766 27H12.5625C14.2031 27 15.3438 26.8828 15.9844 26.6484C16.625 26.4141 17.125 26.0312 17.4844 25.5C17.8594 24.9531 18.0469 24.2969 18.0469 23.5312C18.0469 22.2031 17.5312 21.2344 16.5 20.625C15.75 20.1719 14.3594 19.9453 12.3281 19.9453H10.4766V27ZM30.8438 13.5234H37.4062V41.7422H46.9688V48H30.8438V13.5234ZM62.4844 13.5234H69.1406L82.4062 48H75.5859L72.8906 40.8984H58.8281L56.0156 48H49.1953L62.4844 13.5234ZM65.8594 22.6641L61.2656 34.5H70.4297L65.8594 22.6641ZM84.1172 13.5234H103.172V19.9922H96.8906V48H90.2344V19.9922H84.1172V13.5234ZM107.203 13.5234H113.719V48H107.203V13.5234ZM121.148 13.5234H127.43L142.219 36.2109V13.5234H148.781V48H142.477L127.711 25.3828V48H121.148V13.5234ZM156.422 13.5234H163.008V35.8359C163.008 37.7578 163.172 39.1172 163.5 39.9141C163.844 40.7109 164.398 41.3516 165.164 41.8359C165.945 42.3047 166.883 42.5391 167.977 42.5391C169.133 42.5391 170.125 42.2734 170.953 41.7422C171.797 41.2109 172.375 40.5391 172.688 39.7266C173.016 38.8984 173.18 37.3281 173.18 35.0156V13.5234H179.766V34.0781C179.766 37.5469 179.57 39.9531 179.18 41.2969C178.789 42.6406 178.039 43.9375 176.93 45.1875C175.836 46.4375 174.57 47.3672 173.133 47.9766C171.695 48.5703 170.023 48.8672 168.117 48.8672C165.617 48.8672 163.438 48.2969 161.578 47.1562C159.734 46 158.414 44.5625 157.617 42.8438C156.82 41.1094 156.422 38.1875 156.422 34.0781V13.5234ZM190.734 13.5234H197.156L205.125 37.5703L213.211 13.5234H219.539L225.352 48H219.023L215.32 26.2266L207.984 48H202.195L194.953 26.2266L191.18 48H184.781L190.734 13.5234Z" fill="white" fill-opacity="0.644"/>
<line x1="247" y1="31.5" x2="1236" y2="31.509" stroke="white" stroke-opacity="0.43" stroke-width="5"/>
<line x1="1" y1="566.5" x2="1236" y2="566.5" stroke="white" stroke-opacity="0.43" stroke-width="5"/>
<path d="M3.5 564.101L3.5 76.9995" stroke="white" stroke-opacity="0.43" stroke-width="5"/>
<line x1="1233.5" y1="564.101" x2="1233.5" y2="33.9998" stroke="white" stroke-opacity="0.43" stroke-width="5"/>
</svg>
