<?xml version="1.0" encoding="UTF-8"?>
<svg width="3104px" height="1076px" viewBox="0 0 3104 1076" version="1.1" xmlns="http://www.w3.org/2000/svg" xmlns:xlink="http://www.w3.org/1999/xlink">
    <!-- Generator: Sketch 57 (83077) - https://sketch.com -->
    <title>Relay</title>
    <desc>Created with Sketch.</desc>
    <g id="Social-Media-2019" stroke="none" stroke-width="1" fill="none" fill-rule="evenodd">
        <g id="Diamond-Sponsor---Relay" transform="translate(-1008.000000, -2021.000000)" fill-rule="nonzero">
            <g id="Relay" transform="translate(1008.000000, 2021.000000)">
                <path d="M544.62298,87.1832559 C659.304782,113.951254 756.812014,170.764965 824.956273,268.550102 C903.626881,381.631239 927.449671,505.638089 897.532679,640.024366 C882.020165,708.310077 849.887099,768.401502 806.119649,823.03007 C728.557077,919.722636 626.06368,973.258633 503.625621,985.276918 C350.716552,1000.57292 219.4142,951.407205 116.920802,838.326069 C53.6362159,769.494576 14.073154,682.676284 3.90105533,590.312369 C3.34703696,587.580941 5.00909206,583.756941 0.576945135,582.118084 L0.576945135,568.460942 C2.7930186,563.216599 2.7930186,557.316714 0.576945135,552.072372 L0.576945135,516.563802 C2.7930186,511.31946 2.7930186,505.419574 0.576945135,500.175232 C0.115940841,495.820559 -0.0690913413,491.441769 0.0229267699,487.064375 C7.22516552,470.675805 6.11712879,452.102092 10.5492757,434.62095 C22.920721,382.353998 44.0813759,332.498842 73.153351,287.123816 C136.311445,187.699821 227.170457,127.608396 340.190203,94.2849697 C406.469613,73.9649436 477.057665,71.5128116 544.62298,87.1832559 Z M589.498468,217.745534 C576.202027,241.235818 563.459604,265.272388 550.717182,289.308958 C517.47608,349.946669 482.572923,409.491808 449.88584,470.675805 C414.982683,535.683801 376.755415,599.05294 342.406277,664.060936 C311.381248,722.513504 275.924073,778.78093 246.561099,837.779783 C238.250824,854.71464 243.236989,871.649496 259.303522,879.297495 C275.370054,886.945495 291.436587,881.482638 300.854899,864.547782 C309.719193,849.251783 317.47545,833.409498 325.785726,818.113499 C358.472809,758.568359 392.821948,700.115791 424.955013,640.024366 C459.85817,575.01637 497.531419,511.647231 532.434576,446.639235 C567.891751,380.538667 606.673037,316.076957 641.576194,249.430104 C644.407222,244.578459 646.110271,239.16745 646.562359,233.587819 C647.232001,219.566283 638.070167,206.918742 624.401625,202.995821 C610.685469,199.022869 596.040197,205.21181 589.498468,217.745534 Z M603.348927,385.455238 C577.448568,432.026093 552.013739,478.596947 526.617704,525.167802 L519.692154,537.868944 L448.223784,668.977508 C436.03538,691.921506 449.331821,715.411791 473.708629,715.411791 C485.716105,716.394707 496.963048,709.518928 501.409548,698.476934 C513.597952,676.079221 525.786356,653.135223 537.97476,630.73751 C577.310064,559.174085 616.645368,488.156947 655.980672,416.593522 C660.010357,410.023344 661.940846,402.409166 661.520855,394.742095 C660.028576,381.710864 650.180346,371.117293 637.144047,368.520382 C623.847606,365.242668 611.105184,371.251811 603.348927,385.455238 Z M411.658572,368.520382 C400.369092,369.67825 390.608623,376.791818 386.173728,387.094095 C367.891121,420.963808 349.608515,454.287234 331.325909,488.156947 C298.638826,548.794657 263.735669,607.793511 232.156622,668.977508 C220.522236,691.921506 232.71064,715.411791 256.53343,715.411791 C272.599963,715.958076 280.910238,707.217505 287.00444,695.745506 C315.259377,643.848366 344.068332,591.951226 372.323268,540.054087 C395.038021,497.990089 417.752774,456.472377 440.467527,414.954665 C446.945471,404.706124 446.728655,391.664902 439.913509,381.631239 C433.883978,372.212997 422.861598,367.098392 411.658572,368.520382 Z M686.451682,426.426665 C678.141406,441.722664 670.939167,457.018663 663.18291,472.314662 C637.144047,521.480373 610.551166,570.646085 584.512302,619.811796 C582.519615,623.298038 580.850763,626.954836 579.526137,630.73751 C574.239248,645.95332 581.396667,662.656116 596.146688,669.523793 C611.614792,676.176771 629.655655,669.686168 637.144047,654.77408 C641.022176,648.218652 643.238249,641.663223 646.562359,635.107795 C675.371314,581.025513 704.180269,526.94323 732.989224,472.314662 C738.521127,463.301374 742.104815,453.258316 743.515573,442.815235 C744.124639,428.875059 734.582209,416.482399 720.80082,413.315808 C707.64149,408.885295 693.155945,414.414339 686.451682,426.426665 Z M295.314716,414.954665 C279.248183,406.76038 262.073614,412.223237 252.655301,429.158093 C244.899044,443.361521 238.250824,458.65752 230.494567,472.860948 C204.455704,522.026659 177.862822,571.19237 151.823959,620.358082 C147.913852,625.99413 145.792482,632.649733 145.729757,639.478081 C145.729757,654.77408 153.486014,666.792365 167.336473,670.070079 C181.983832,674.635581 197.806381,667.882604 204.455704,654.227794 C209.995887,643.30208 214.982053,632.376367 220.522236,621.450653 C249.331191,566.275799 280.910238,512.193517 307.50312,455.926091 C315.259377,438.44495 310.273211,422.602665 295.314716,414.954665 Z" id="Combined-Shape" fill="#FFFFFF"></path>
                <path d="M2748.56726,1072 C2747.47542,1068.24808 2743.65397,1068.24808 2741.47029,1066.64011 C2724.00082,1055.38434 2718.54161,1038.76868 2726.73042,1016.79313 C2732.98026,1001.91116 2748.71292,993.084622 2764.94489,995.353573 C2783.5062,997.497529 2795.51646,1010.89725 2797.70014,1030.72885 C2799.88383,1049.48846 2790.05725,1063.42418 2770.95002,1069.85604 C2765.49081,1072.53599 2759.48568,1068.78407 2754.02647,1072 L2748.56726,1072 Z" id="Shape" fill="#FFFFFF"></path>
                <path d="M2755,1075.77112 C2759.60947,1069.46846 2765.24326,1072.96994 2770.87705,1072.96994 C2770.46969,1073.79162 2770.28825,1074.78398 2770.36489,1075.77112 L2755,1075.77112 Z" id="Shape" fill="#F9B95E"></path>
                <path d="M0,554 C5.21344995,558.614732 5.21344995,565.498717 0,570.113448 L0,554 Z" id="Shape" fill="#F9B556"></path>
                <path d="M0,502 C5.21344995,506.614732 5.21344995,513.498717 0,518.113448 L0,502 Z" id="Shape" fill="#F9B350"></path>
                <path d="M1259.65543,4.36613331 C1322.3787,6.00549329 1378.99617,25.677813 1417.29622,76.4979723 C1460.03685,133.329118 1467.25281,197.264157 1445.04988,263.931463 C1430.99127,306.9979 1399.44253,342.408906 1357.90338,361.746608 C1349.02221,366.118235 1349.02221,369.943408 1352.90773,378.140208 C1389.91261,451.911407 1427.10251,525.864757 1464.47744,600.000258 C1473.91368,618.579672 1472.24846,620.765485 1451.71076,620.765485 C1415.631,620.765485 1378.99617,620.219032 1342.91641,620.765485 C1330.86554,622.411216 1319.36882,615.250734 1315.71782,603.825432 C1283.52358,534.425859 1250.77426,465.57274 1218.58001,396.719621 C1214.6945,388.522821 1210.80899,385.244101 1201.37274,385.790555 C1181.39011,386.337008 1160.8524,386.883461 1140.86976,385.790555 C1129.21323,385.244101 1125.88279,389.069275 1125.88279,399.998341 C1126.43786,467.2121 1125.88279,534.425859 1125.88279,602.186072 C1125.88279,619.497713 1124.79473,620.741987 1107.53819,620.765142 L1009.31742,620.765485 C992.282219,620.765485 991.023813,619.694327 991.000348,603.76621 L991,22.3990931 C991,3.81967999 992.110146,3.27322666 1010.42756,3.27322666 C1093.68854,3.27322666 1176.39445,2.18032001 1259.65543,4.36613331 Z M1261.87572,122.946505 C1219.13509,116.389065 1175.83938,121.307145 1132.54367,120.214238 C1124.77264,120.214238 1125.32771,125.678772 1125.32771,130.596852 L1125.32771,195.624797 C1125.32771,217.48293 1125.88279,239.341063 1125.32771,260.652743 C1125.32771,266.66373 1126.43786,271.035356 1134.20889,271.035356 C1175.83938,270.488903 1217.46987,274.314076 1259.10036,268.849543 C1296.84533,263.931463 1321.26855,235.51589 1321.82363,198.357064 C1322.3787,157.373065 1300.17577,128.411038 1261.87572,122.946505 Z" id="Combined-Shape" fill="#FFFFFF"></path>
                <path d="M1807.97648,186.806442 C1877.49956,211.974401 1910.31446,265.593097 1920.88197,334.53142 C1924.58073,364.126076 1926.62316,393.898351 1927,423.713536 C1927,435.750386 1922.55052,439.580293 1910.87064,439.580293 C1868.60061,438.486034 1826.33057,438.486034 1784.06054,438.486034 C1742.34668,438.486034 1700.07665,439.033163 1658.3628,438.486034 C1645.57055,438.486034 1643.902,442.86307 1646.12673,453.805661 C1656.13806,501.405932 1686.17203,526.026762 1735.67247,527.66815 C1774.04921,528.762409 1808.53266,518.366948 1836.89808,493.198989 C1845.24085,485.539175 1851.35888,485.539175 1859.70165,493.746118 C1875.83101,510.160005 1892.51655,524.932502 1909.75827,540.25213 C1919.21341,548.459073 1919.7696,554.477498 1910.31446,563.231571 C1863.03876,608.096194 1805.75174,627.245728 1741.7905,630.528505 C1713.3468,632.197856 1684.81377,629.427938 1657.25043,622.321562 C1594.95774,605.360546 1551.57534,568.155737 1532.66506,506.877227 C1509.18222,434.227121 1510.54977,356.008263 1536.55835,284.195501 C1551.85164,239.737815 1586.83809,204.515901 1631.66593,188.44783 C1688.06521,165.765286 1751.15092,165.17798 1807.97648,186.806442 Z M1753.47038,272.705781 C1700.07665,254.103376 1647.2391,287.478279 1645.01436,341.096974 C1644.45818,352.586695 1648.35147,355.869472 1659.47517,355.322343 C1680.61018,354.775213 1701.18902,355.322343 1721.76785,355.322343 C1744.01524,355.322343 1766.81881,355.322343 1789.0662,354.775213 C1796.2966,354.775213 1800.18989,353.680954 1800.74608,345.474011 C1801.85845,315.381886 1781.8358,282.554113 1753.47038,272.705781 Z" id="Combined-Shape" fill="#FFFFFF"></path>
                <path d="M2517.57484,182.238797 C2577.99664,197.561713 2609.03903,235.321756 2615.69097,296.61342 C2617.53622,316.80745 2618.2764,337.085064 2617.90828,357.357837 L2617.90828,601.977245 C2617.90828,619.855804 2616.82169,621.107303 2599.05044,621.130546 L2517.57484,621.13089 C2499.28201,621.13089 2498.17335,620.036396 2498.17335,601.977245 C2497.17354,596.564087 2496.80159,591.056111 2497.06469,585.559835 C2448.28379,633.170324 2390.63364,637.5483 2330.76617,624.961619 C2255.93183,609.638703 2223.78079,549.441533 2230.98706,477.752176 C2238.74765,400.590349 2297.50646,368.302777 2361.80856,358.999578 C2400.61155,352.979861 2439.41454,356.81059 2478.77185,355.716096 C2496.51036,355.168849 2497.06469,355.168849 2496.51036,337.109698 C2495.40171,302.633137 2485.97812,290.593703 2454.93573,280.19601 C2404.49185,263.231353 2358.48259,275.270787 2314.13632,299.896902 C2302.49542,306.463866 2297.50646,305.369372 2291.96318,294.424432 C2280.87661,273.629046 2269.79004,252.83366 2258.14915,232.585521 C2252.05154,222.187828 2254.82318,216.168111 2264.24676,210.695641 C2294.76276,192.05835 2328.97998,180.114005 2364.5802,175.671833 C2415.50844,167.709197 2467.53883,169.942489 2517.57484,182.238797 Z M2445.51215,437.803145 C2429.99095,438.350392 2414.46976,439.444886 2398.94856,440.53938 C2393.04577,441.221898 2387.2646,442.694754 2381.76438,444.917356 C2360.14558,453.126061 2350.16766,468.996224 2351.27632,492.527845 C2352.38498,513.323231 2364.02587,527.004406 2386.19901,532.476876 C2403.2665,536.572469 2421.00859,537.131472 2438.30588,534.118617 C2480.98917,528.0989 2496.51036,509.492502 2496.51036,466.807236 L2496.51036,466.807236 L2496.51036,449.295332 C2497.06469,441.633874 2493.73872,438.897639 2485.97812,438.897639 L2485.97812,438.897639 L2446.06648,438.897639 C2446.02606,438.477432 2445.82841,438.087192 2445.51215,437.803145 Z" id="Combined-Shape" fill="#FFFFFF"></path>
                <path d="M2891.91942,438.623297 C2904.6344,400.436656 2917.34939,361.704491 2929.51155,323.51785 C2943.33219,280.421498 2957.15283,237.870669 2970.42064,194.774317 C2973.73759,183.863848 2978.71302,179.49966 2990.87519,180.045183 C3024.04472,180.590707 3057.76707,180.045183 3090.9366,180.590707 C3104.75724,180.590707 3106.41572,182.772801 3101.44029,195.865363 C3069.37641,279.875974 3036.7597,364.432108 3005.24865,448.442719 C2978.1602,519.906291 2951.62457,591.915386 2923.9833,663.378957 C2914.30749,690.599235 2900.10863,716.040825 2881.96856,738.661193 C2855.98576,770.301553 2820.0521,780.120975 2780.80149,781.757545 C2769.19215,782.303069 2757.02999,781.757545 2744.86783,781.757545 C2735.4698,782.303069 2730.49437,778.484404 2731.04719,768.664982 C2731.60002,741.934334 2731.60002,715.203685 2731.04719,689.018559 C2731.04719,679.744661 2734.36415,675.925996 2743.76218,676.47152 C2756.02339,677.306064 2768.34096,676.201075 2780.24866,673.198379 C2793.97357,668.540648 2805.29174,658.743566 2811.75972,645.922207 C2830.55579,613.1908 2826.68601,583.732534 2811.75972,549.91008 C2774.16758,462.626329 2739.8924,373.706007 2704.51157,285.331209 C2692.90223,255.872943 2681.2929,225.869153 2669.68356,195.865363 C2664.70813,182.772801 2665.81378,181.13623 2680.18724,180.590707 L2785.77692,180.590707 C2795.72778,180.590707 2800.15038,184.409371 2803.46734,193.68327 C2831.66144,276.05731 2860.40836,357.885827 2888.60246,440.259868 C2890.26094,439.168821 2891.36659,439.168821 2891.91942,438.623297 Z" id="Shape" fill="#FFFFFF"></path>
                <path d="M2002,259.128628 L2002,19.6768435 C2002,0.586154599 2002.55211,0.0407063433 2022.42817,0.0407063433 C2052.79437,0.0407063433 2083.71268,0.586154599 2114.07887,0.0407063433 C2126.77746,-0.504741912 2130.64225,4.40429239 2130.09014,16.404154 C2129.53803,160.402494 2130.09014,304.400833 2130.09014,448.399173 L2130.09014,468.580758 C2130.09014,510.580274 2138.92394,522.580135 2181.43662,520.398342 C2193.03099,519.852894 2198,524.21648 2198,535.670893 C2197.44789,561.125145 2197.44789,586.761213 2198,612.579098 C2198,624.033511 2193.5831,628.942545 2181.98873,627.851649 C2156.03944,626.215304 2130.09014,629.487993 2104.14085,625.669856 C2041.75211,616.397235 2008.62535,582.033995 2004.20845,519.852894 C2000.89577,477.30793 2003.10423,434.217518 2002.55211,391.127106 C2002,348.036693 2002,303.309937 2002,259.128628 Z" id="Shape" fill="#FFFFFF"></path>
                <path d="M1154.45166,916.930234 C1182.2395,853.494093 1209.47159,791.698541 1236.14792,729.356126 C1240.03821,719.512587 1245.59578,715.13768 1256.71092,715.684544 C1270.95369,716.778344 1285.26143,716.778344 1299.5042,715.684544 C1311.17509,715.13768 1313.95388,719.512587 1313.95388,730.449853 C1313.39812,810.838756 1313.95388,891.22766 1313.95388,972.163427 C1313.95388,997.866001 1313.39812,1023.56858 1313.95388,1049.27115 C1314.50963,1060.20842 1310.06358,1063.4896 1299.5042,1062.94273 C1285.61028,1062.39587 1271.71636,1062.39587 1258.37819,1062.94273 C1247.81881,1063.4896 1245.04003,1059.11469 1245.04003,1049.27115 C1245.59578,991.303642 1245.04003,933.336133 1245.04003,875.368624 L1245.04003,866.618812 C1243.92851,866.618812 1243.37276,866.071948 1242.26124,866.071948 C1235.0364,883.02471 1227.25581,899.430609 1220.03097,916.383371 C1207.80432,944.273399 1195.02191,971.616563 1183.35102,999.506591 C1179.46072,1009.35013 1173.90315,1013.72504 1162.78801,1013.17817 C1120.55049,1012.08445 1131.10987,1018.64681 1113.88141,982.006966 C1096.09719,943.726536 1079.42449,905.446105 1060.52875,862.790769 C1059.973,870.446855 1059.41724,874.274898 1059.41724,877.556077 C1059.41724,933.882996 1058.86148,990.756778 1059.41724,1047.0837 C1059.41724,1059.11469 1055.52694,1062.94273 1043.85605,1062.39587 C1031.0978,1061.30214 1018.26707,1061.30214 1005.50882,1062.39587 C993.837931,1062.94273 991.059146,1058.56783 991.059146,1047.63056 C991.614903,953.023211 991.059146,858.415862 991.059146,763.808513 C991.059146,751.230658 991.614903,738.652802 991.059146,726.074946 C990.50339,717.871997 993.837931,714.590817 1002.17428,715.13768 C1017.35353,715.957946 1032.56709,715.957946 1047.74635,715.13768 C1059.973,714.043954 1065.53056,719.512587 1069.97662,729.902989 C1095.54143,788.417361 1121.66201,846.38487 1147.22682,904.899242 C1148.102,909.628305 1150.66401,913.894636 1154.45166,916.930234 L1154.45166,916.930234 Z" id="Shape" fill="#FFFFFF"></path>
                <path d="M1852,730.306026 C1851.44405,821.841074 1852,913.376122 1852,1004.91117 C1852,1019.62216 1851.44405,1034.878 1852,1049.58899 C1852,1058.30661 1849.22027,1062.12057 1839.76918,1061.57572 C1826.42647,1061.03087 1813.08376,1061.57572 1799.74105,1061.57572 C1780.28293,1060.48602 1780.28293,1060.48602 1779.17104,1039.23681 C1757.48914,1062.12057 1731.91561,1068.11394 1703.56235,1065.38968 C1665.75801,1061.57572 1640.74043,1042.50592 1630.7334,1006.00087 C1618.50258,959.688497 1616.83474,913.376122 1631.28934,867.608598 C1650.19151,806.585233 1707.45398,797.322758 1755.26535,815.847708 C1764.84505,820.216186 1773.22903,826.752164 1779.72699,834.917509 L1779.72699,794.053649 C1779.72699,772.25959 1780.28293,751.010382 1779.72699,729.216323 C1779.17104,718.864145 1781.95077,714.505333 1793.62564,715.050185 C1807.87327,716.139961 1822.18588,716.139961 1836.43351,715.050185 C1848.66432,714.505333 1852,718.319294 1852,730.306026 Z M1739.14291,868.698301 C1721.48397,867.268324 1705.22911,878.192076 1700.22668,894.851172 C1695.73576,908.559618 1694.03575,922.999025 1695.22316,937.349587 C1694.42515,948.713101 1695.55228,960.127699 1698.55884,971.130378 C1701.1301,989.854326 1717.64639,1003.69511 1736.91913,1003.27661 C1755.65944,1004.6649 1772.44851,991.971797 1775.83537,973.854635 C1782.04509,948.401334 1781.85431,921.850791 1775.27942,896.485726 C1770.83185,878.505627 1758.04509,869.243152 1739.14291,868.698301 Z" id="Combined-Shape" fill="#FFFFFF"></path>
                <path d="M2414.25272,812.993877 C2452.35783,820.125317 2472.79101,851.39394 2473.8955,884.308279 C2475.55225,940.811229 2474.44775,996.765607 2475,1053.26856 C2475,1062.04571 2471.13426,1064.24 2463.40279,1063.69143 C2451.25334,1063.14286 2438.55163,1063.14286 2426.40218,1063.69143 C2414.25272,1064.24 2405.96901,1062.59429 2410.38699,1043.39425 C2377.80436,1070.82287 2344.11723,1074.11431 2308.77337,1063.14286 C2276.19074,1053.26856 2261.83229,1028.5828 2260.17555,996.217034 C2258.5188,966.594129 2268.45926,941.908374 2295.51941,926.548349 C2314.84809,915.576902 2335.83352,912.83404 2357.37119,912.285468 C2370.62514,911.736896 2383.87909,911.736896 2397.13304,912.285468 C2405.96901,912.285468 2408.178,908.994034 2407.62575,900.765449 C2407.0735,882.11399 2399.89428,873.885405 2381.11785,870.045399 C2356.36199,864.337146 2330.35127,868.056195 2308.22112,880.468273 C2301.04189,884.308279 2296.62391,883.759707 2292.75817,876.628267 C2288.34019,867.851109 2282.81771,859.073952 2277.84748,850.845367 C2270.66826,838.228204 2271.77275,833.839625 2285.0267,826.159612 C2304.8472,815.765539 2326.70549,809.775798 2349.08747,808.605298 C2370.90895,807.038987 2392.84375,808.516194 2414.25272,812.993877 Z M2403.20777,961.108405 C2381.11785,961.108405 2359.02793,956.171254 2338.59476,967.142701 C2323.13181,975.371286 2324.23631,998.959896 2339.147,1007.73705 C2347.04801,1011.49075 2355.83752,1013.00919 2364.55041,1012.12563 L2364.55041,1012.12563 L2370.07289,1012.12563 C2398.23753,1011.02849 2410.93924,996.765607 2408.178,969.33699 C2407.62575,966.045556 2407.62575,961.108405 2403.20777,961.108405 Z" id="Combined-Shape" fill="#FFFFFF"></path>
                <path d="M1539.18345,827.801766 C1567.36874,849.731764 1580.63241,879.885511 1582.84302,914.973508 C1583.39567,926.486757 1582.84302,937.451756 1583.94832,948.965004 C1584.50098,958.285254 1580.63241,960.478253 1571.78996,960.478253 C1550.23651,959.930003 1528.1304,960.478253 1506.02429,960.478253 C1483.91818,960.478253 1461.25942,961.026503 1439.15331,960.478253 C1428.65291,960.478253 1426.4423,963.767753 1429.75821,973.636252 C1434.27962,991.746123 1449.74178,1005.11295 1468.4439,1007.0795 C1491.10267,1009.82075 1512.10347,1006.53125 1530.34101,991.7285 C1538.6308,985.149501 1544.70998,985.697751 1551.34181,992.825 C1557.97365,999.95225 1566.26344,1006.53125 1572.89527,1013.6585 C1578.4218,1019.141 1580.63241,1025.17175 1574.00057,1032.299 C1530.89366,1079.44849 1430.31087,1081.64149 1386.6513,1036.13675 C1365.6505,1014.20675 1359.01867,985.149501 1356.80805,956.092254 C1354.04479,917.166508 1357.36071,879.885511 1382.78273,846.442264 C1422.57373,794.358519 1507.12959,802.582268 1539.18345,827.801766 Z M1470.10186,865.631012 C1448.06443,864.529342 1429.17079,881.08171 1427.5476,902.912009 C1426.99495,910.039258 1429.20556,913.328758 1436.39005,913.328758 L1436.39005,913.328758 L1503.26103,913.328758 C1510.44551,913.328758 1513.76143,910.587508 1513.20877,902.363759 C1510.99816,880.433761 1493.86593,865.631012 1470.10186,865.631012 Z" id="Combined-Shape" fill="#FFFFFF"></path>
                <path d="M2099.06889,938.461637 C2098.96042,949.845217 2099.70635,961.221142 2101.30061,972.496637 C2104.64819,987.867282 2112.45921,1000.49317 2129.19712,1004.33583 C2147.05089,1008.72744 2163.23087,1005.43373 2174.38948,991.160992 C2182.2005,981.279863 2188.33774,982.377766 2196.70669,988.965185 C2205.07565,995.552605 2215.11839,1001.04212 2224.60321,1007.08059 C2235.76182,1014.21696 2236.87768,1020.25543 2228.50872,1030.13656 C2201.72807,1061.4268 2166.57845,1071.30793 2126.9654,1068.56317 C2120.00684,1068.00186 2113.10423,1066.90053 2106.32198,1065.26946 C2066.151,1055.93728 2041.04413,1030.68551 2031.55932,991.709943 C2023.00637,957.659775 2022.81512,922.095399 2031.00139,887.958088 C2053.3186,800.674782 2151.51434,792.440508 2205.63358,827.024459 C2215.11839,833.062927 2221.81356,842.395105 2229.62458,851.17833 C2235.76182,857.76575 2235.20388,863.804217 2226.83493,869.293734 C2215.67632,875.881153 2205.07565,882.468572 2194.47497,890.153895 C2187.22188,895.643411 2182.2005,895.643411 2176.6212,887.958088 C2171.58704,881.271533 2164.56976,876.285054 2156.53571,873.685347 C2128.63919,864.902121 2104.64819,879.723814 2100.74268,909.367201 C2099.62682,918.699379 2099.62682,928.580508 2099.06889,938.461637 Z" id="Shape" fill="#FFFFFF"></path>
                <path d="M2533,856.433805 L2533,735.326379 C2533,715.050475 2533,715.050475 2553.82268,715.050475 C2565.87791,715.050475 2577.38518,715.598472 2588.89245,715.050475 C2600.39972,714.502477 2604.23548,718.338459 2604.23548,730.394402 C2603.68752,808.758031 2604.23548,887.12166 2604.23548,965.485289 L2604.23548,979.185224 C2605.33141,997.817135 2608.6192,1001.65312 2627.25002,1001.65312 C2637.66136,1001.65312 2641.49712,1005.4891 2640.94915,1015.90105 C2640.12726,1029.04015 2640.12726,1042.21777 2640.94915,1055.35686 C2640.94915,1060.83684 2640.40119,1065.76881 2633.27764,1065.76881 C2614.09885,1065.76881 2595.46804,1067.41281 2576.83722,1061.93283 C2550.53489,1054.26087 2537.93169,1036.72495 2535.19186,1004.9411 C2531.90407,969.869268 2534.09593,935.345431 2533.54797,900.273597 C2533,885.477667 2533,870.681738 2533,856.433805 Z" id="Shape" fill="#FFFFFF"></path>
                <path d="M1907,937.935089 L1907,828.639233 C1907,818.851544 1909.76923,814.50146 1920.29231,815.045221 C1935.8,815.588981 1951.30769,815.588981 1966.81538,815.045221 C1975.67692,815.045221 1979,817.220262 1979,826.464191 C1978.44615,901.503137 1979,976.542083 1979,1051.58103 C1979,1059.19368 1976.78462,1063 1968.47692,1063 C1951.86154,1062.45624 1935.8,1062.45624 1919.18462,1063 C1909.76923,1063 1907.55385,1059.19368 1907.55385,1051.03727 C1907.55385,1013.5178 1907,975.998323 1907,937.935089 Z" id="Shape" fill="#FFFFFF"></path>
                <path d="M1942.50726,776 C1907.12036,776 1907.12036,776 1907.12036,740.025738 C1907.12036,711.799778 1903.80284,715.120479 1932.00178,715.120479 L1969.04743,715.120479 C1975.68248,715.120479 1979,717.33428 1979,724.529132 C1978.44708,738.918837 1978.44708,752.755092 1979,767.144797 C1979,773.786199 1976.78832,776 1970.15328,776 C1960.75363,775.44655 1951.90691,776 1942.50726,776 Z" id="Shape" fill="#FFFFFF"></path>
            </g>
        </g>
    </g>
</svg>