<?xml version="1.0" encoding="UTF-8"?>
<svg width="2773px" height="1536px" viewBox="0 0 2773 1536" version="1.1" xmlns="http://www.w3.org/2000/svg" xmlns:xlink="http://www.w3.org/1999/xlink">
    <!-- Generator: Sketch 57 (83077) - https://sketch.com -->
    <title>g10</title>
    <desc>Created with Sketch.</desc>
    <g id="Social-Media-2019" stroke="none" stroke-width="1" fill="none" fill-rule="evenodd">
        <g id="Gold-Sponsor---Starfish" transform="translate(-1174.000000, -1828.000000)" fill="#FFFFFF" fill-rule="nonzero">
            <g id="g10" transform="translate(2560.500000, 2596.000000) scale(-1, 1) rotate(-180.000000) translate(-2560.500000, -2596.000000) translate(1174.000000, 1828.000000)">
                <g id="g12" transform="translate(0.000000, -0.000000)">
                    <path d="M1150.97091,1257.44107 C1144.52742,1198.26049 1175.20761,1103.32637 1185.22421,1075.80974 C1157.95049,1101.3489 1056.50822,1203.59531 1006.28959,1211.73604 C949.208932,1191.81768 909.36473,1167.97899 846.531699,1103.65211 C857.69283,1144.35446 865.908662,1170.17191 875.545471,1193.69127 C885.410929,1216.52968 896.300782,1237.48423 912.130468,1267.95554 C868.062088,1293.44981 840.930465,1309.69793 772.227507,1329.83174 C809.231046,1337.57748 842.166715,1343.05337 876.27792,1346.78517 C910.439505,1350.54263 945.847675,1352.41495 988.376232,1353.05615 C1022.39701,1385.14201 1086.10459,1433.23232 1168.89977,1459.40627 C1146.91466,1422.16513 1141.70226,1383.66724 1139.37057,1347.51615 C1206.71068,1347.51615 1309.67598,1311.13422 1351.89193,1285.31935 C1244.79287,1294.78352 1192.04619,1279.04709 1150.97091,1257.44107 L1150.97091,1257.44107 Z M1511.29974,1253.62462 C1456.37251,1289.84625 1407.47797,1318.08488 1360.59864,1339.21897 C1313.20259,1360.76342 1266.93557,1374.76732 1217.07477,1382.11552 C1219.62865,1428.73106 1229.78089,1468.48572 1257.43311,1526.1428 C1261.26846,1536.29947 1259.24033,1537.01762 1247.61932,1534.22197 C1209.46092,1524.09094 1145.68875,1507.35551 1074.86595,1472.19188 C1036.26446,1453.00705 995.491453,1428.33352 955.652418,1395.65775 C807.928914,1381.65386 733.987717,1357.69847 627.464803,1323.88136 C621.071697,1321.90645 617.892583,1319.73918 617.237642,1318.08488 L617.237642,1316.68705 C617.892583,1314.55825 622.469422,1312.5064 630.508278,1310.33913 C697.555152,1295.3606 764.895264,1277.31327 832.160452,1240.80054 C814.311686,1197.2538 801.030716,1148.49151 790.444435,1095.58704 C779.629506,1043.06857 770.779402,986.63748 762.726336,926.781074 C761.419037,913.926213 771.142397,913.926213 777.087249,924.731786 C810.467296,987.359476 854.579598,1041.67075 897.042273,1081.64598 C939.480405,1122.13289 979.80774,1148.20682 1004.33768,1155.07924 C1020.81327,1146.08187 1041.56212,1133.90925 1074.86595,1109.56401 C1081.10792,1104.98068 1087.78393,1100.19602 1095.10067,1094.5406 C1140.31358,1060.51189 1205.25741,1006.87645 1303.06198,920.227968 C1311.40699,913.209347 1315.97996,914.677705 1310.32188,927.496658 C1280.64542,995.710519 1258.79596,1060.07587 1244.50609,1112.29426 C1230.50301,1165.52831 1224.11378,1206.01522 1225.62776,1224.37417 C1249.66295,1241.45201 1301.69267,1249.00539 1356.68449,1250.05312 C1411.09501,1251.53045 1468.91586,1246.99714 1505.07327,1240.07855 C1514.12877,1238.63584 1519.05052,1239.35783 1519.72226,1242.48819 L1519.72226,1243.49488 C1519.42514,1245.99045 1516.59611,1249.48116 1511.29974,1253.62462 L1511.29974,1253.62462 Z" id="path14"></path>
                    <path d="M2034.01268,487.425433 C2061.59256,472.767506 2108.16186,456.096199 2152.85805,456.096199 C2216.91829,456.096199 2254.58711,484.695186 2254.58711,522.541619 C2254.58711,561.334469 2221.99505,582.583974 2156.92721,604.736295 C2067.53483,634.371468 2025.95186,677.702761 2025.95186,731.253566 C2025.95186,803.283874 2090.96803,862.349035 2195.44862,862.349035 C2245.29908,862.349035 2288.96184,850.286703 2315.30159,834.692618 L2293.98693,776.493083 C2274.82957,786.681817 2239.12429,802.277184 2193.56259,802.277184 C2140.59889,802.277184 2107.73556,774.729772 2107.73556,741.342272 C2107.73556,703.48558 2140.59889,686.91943 2204.65913,664.697859 C2288.96184,636.039881 2333.67095,597.311151 2333.67095,529.929573 C2333.67095,450.551065 2265.76115,395.126662 2150.81701,395.126662 C2096.98781,395.126662 2047.15026,408.09181 2012.6076,426.605938 L2034.01268,487.425433" id="path16"></path>
                    <path d="M671.734703,456.096199 L671.734703,400.131901 C644.096695,396.895103 621.592291,395.126662 603.965714,395.126662 C516.531692,395.126662 472.919316,441.153577 472.919316,533.316413 L472.919316,983.221145 L542.367642,983.221145 L542.367642,875.569382 L656.722724,875.569382 L656.722724,807.822317 L542.367642,807.822317 L542.367642,521.609308 C542.367642,475.116878 567.028056,451.848862 616.227456,451.848862 C631.678646,451.848862 650.263737,453.286442 671.734703,456.096199" id="path18"></path>
                    <polyline id="path20" points="1922.47888 407.550633 1850.79704 407.550633 1850.79704 832.819019 1922.47888 832.819019 1922.47888 407.550633"></polyline>
                    <path d="M2772.57207,407.550633 L2700.96773,407.550633 L2700.96773,683.789071 C2700.96773,723.147463 2697.84158,750.669227 2691.52469,766.223557 C2685.44033,781.241841 2675.05428,793.41959 2660.53447,802.752957 C2645.963,812.074783 2629.63468,816.644004 2611.92413,816.644004 C2577.75609,816.644004 2547.92848,802.101494 2522.46715,773.001085 C2497.35461,744.077649 2484.81126,703.992131 2484.81126,652.635527 L2484.81126,407.550633 L2413.41361,407.550633 L2413.41361,1022.94118 L2484.81126,1022.94118 L2484.81126,778.827066 C2500.84246,808.327586 2517.15787,830.1888 2533.79622,844.340175 C2559.18004,865.054916 2589.74397,875.42447 2625.34591,875.42447 C2678.16751,875.42447 2718.22615,855.471479 2745.30222,815.461623 C2756.47627,798.604367 2763.94286,781.85355 2767.2757,765.11171 C2770.67313,748.475027 2772.57207,721.454684 2772.57207,683.789071 L2772.57207,407.550633" id="path22"></path>
                    <path d="M22.7073457,503.129805 C61.1586028,480.122118 116.377779,462.544148 175.594035,462.544148 C263.153362,462.544148 319.754761,505.008533 319.754761,568.682669 C319.754761,626.051203 278.988216,660.195323 189.28838,691.528405 C80.9644421,728.518189 19.3012633,782.003591 19.3012633,868.802113 C19.3012633,965.682929 99.5340313,1037.81839 228.698539,1037.81839 C295.675656,1037.81839 346.019588,1022.94118 374.536018,1007.24193 L350.965881,941.728825 C330.200236,953.725754 285.961339,971.224215 225.720945,971.224215 C134.957961,971.224215 100.558427,920.553699 100.558427,878.053407 C100.558427,819.850024 140.977737,791.185635 232.624311,757.903293 C345.076576,716.41995 401.31498,666.531703 401.31498,575.235775 C401.31498,479.110298 326.27963,395.126662 169.574259,395.126662 C105.422819,395.126662 35.6152448,413.602318 3.78956116e-15,435.748227 L22.7073457,503.129805" id="path24"></path>
                    <path d="M1379.17469,869.874207 C1341.58338,869.874207 1311.17447,856.553832 1288.18952,829.683531 C1275.4834,814.734498 1262.20243,792.659122 1248.64372,764.280709 L1248.64372,863.07616 L1241.75585,863.07616 L1179.27032,863.07616 L1179.27032,407.550633 L1248.64372,407.550633 L1250.67184,407.550633 L1250.67184,641.935112 C1251.98431,673.815782 1258.29215,700.78611 1269.75686,722.757611 C1296.60299,774.729772 1336.73914,800.68828 1389.76743,800.68828 C1394.0562,800.68828 1399.05545,800.513872 1405.13982,800.227895 L1405.13982,867.864673 C1393.82367,869.227873 1385.25906,869.874207 1379.17469,869.874207" id="path26"></path>
                    <path d="M994.911436,501.842267 C966.830342,467.122345 929.538731,449.725194 882.660692,449.725194 C851.021987,449.725194 826.715525,458.074955 809.88082,474.716767 C794.142851,489.919717 786.305516,508.75573 786.305516,531.082458 C786.305516,558.849162 796.096049,580.925821 815.759791,597.602258 C847.0355,624.327646 898.177763,637.758308 969.362265,637.758308 C981.186088,637.758308 1001.37042,636.89653 1029.95661,635.062686 L1031.18253,606.284162 C1031.18253,566.774445 1018.99054,531.983991 994.911436,501.842267 L994.911436,501.842267 Z M1097.29672,729.093991 C1097.29672,801.014012 1017.83567,862.349035 912.988222,862.349035 C863.082209,862.349035 792.840719,844.124731 766.499676,828.490891 L787.829837,770.256732 C807.131875,780.41597 869.1627,802.277184 914.94142,802.277184 C979.309106,802.277184 1029.14924,769.429578 1029.14924,736.157495 C1029.14924,719.761906 1029.95661,726.318859 1029.95661,689.154667 C1005.43183,690.381932 985.68671,690.923108 970.614017,690.923108 C889.841794,690.923108 828.330272,679.862337 786.018737,657.639484 C762.655287,645.537397 744.070196,628.285158 730.143327,605.78274 C716.216458,583.230308 709.403518,559.035111 709.403518,533.135594 C709.403518,499.748094 719.914875,470.538681 741.03318,445.616358 C769.543151,411.908257 812.132423,395.126662 869.027061,395.126662 C912.776367,395.126662 948.749052,405.065326 976.921864,424.983691 C995.642593,437.947557 1013.05215,458.976488 1029.14924,487.976868 L1029.14924,407.550633 L1098.59369,407.550633 L1098.59369,495.711073 L1098.59369,536.813541 L1098.59369,689.154667 C1098.59369,703.701024 1097.29672,716.997033 1097.29672,729.093991 L1097.29672,729.093991 Z" id="path28"></path>
                    <path d="M1820.24603,962.331996 L1615.43154,962.331996 C1580.37215,962.331996 1562.73911,945.796624 1562.73911,912.623287 L1562.73911,762.155758 L1743.64244,762.155758 L1743.64244,694.449731 L1562.73911,694.449731 L1562.73911,407.550633 L1487.20771,407.550633 L1487.20771,926.710541 C1487.20771,992.363433 1518.18502,1025.28029 1580.59176,1025.28029 L1820.24603,1025.28029 L1820.24603,963.012955" id="path30"></path>
                    <path d="M1680.66731,230.323092 L1680.66731,262.843683 L1546.86292,262.843683 C1536.41228,262.843683 1527.97684,254.337469 1527.97684,244.043578 L1527.97684,23.2236445 C1527.97684,12.8240828 1536.41228,4.35818759 1546.86292,4.35818759 L1680.66731,4.35818759 L1680.66731,37.0996868 L1565.20645,37.0996868 L1565.20645,122.099246 L1652.85491,122.099246 L1652.85491,154.719994 L1565.20645,154.719994 L1565.20645,230.323092 L1680.66731,230.323092" id="path32"></path>
                    <path d="M2042.28019,4.35818759 L2042.28019,249.443799 C2042.28019,256.757373 2036.24749,262.843683 2028.79382,262.843683 L2018.70488,262.843683 C2011.14787,262.843683 2004.90848,256.757373 2004.90848,249.443799 L2004.90848,4.35818759 L2042.28019,4.35818759" id="path34"></path>
                    <path d="M2286.28782,220.238233 C2269.8174,229.887073 2251.60305,234.756377 2232.4457,234.756377 C2172.4417,234.756377 2132.53808,191.78544 2132.53808,133.575646 C2132.53808,72.9669792 2176.51086,32.6362648 2230.72761,32.6362648 C2249.27782,32.6362648 2274.32577,37.3801495 2287.24375,45.1648807 L2289.62065,9.22232372 C2269.8174,1.11709816 2245.44118,0 2230.41757,0 C2147.78129,0 2092.99616,52.5787394 2092.99616,134.808041 C2092.99616,214.367368 2151.17871,267.347501 2230.72761,267.347501 C2250.73755,267.347501 2270.4633,264.38642 2289.19436,256.140535 L2286.28782,220.238233" id="path36"></path>
                    <path d="M2444.0938,228.048099 L2392.29272,99.9376924 L2495.92072,99.9376924 L2444.0938,228.048099 Z M2425.81486,262.843683 L2464.99508,262.843683 L2574.99164,4.35818759 L2534.36461,4.35818759 L2507.80525,69.5856533 L2380.33067,69.5856533 L2353.77132,4.35818759 L2314.65569,4.35818759 L2425.81486,262.843683 L2425.81486,262.843683 Z" id="path38"></path>
                    <path d="M2612.29875,23.2236445 L2612.29875,262.843683 L2649.65754,262.843683 L2649.65754,37.0996868 L2769.74303,37.0996868 L2769.74303,4.35818759 L2631.159,4.35818759 C2620.78586,4.35818759 2612.29875,12.8240828 2612.29875,23.2236445" id="path40"></path>
                    <path d="M1421.70066,203.95293 L1352.89953,27.0858735 C1349.6442,15.8748038 1339.33565,7.7846158 1326.77938,7.7846158 C1315.68284,7.7846158 1306.03311,14.5573858 1301.82185,24.0952974 L1231.58812,203.95293 C1231.15924,206.081728 1229.20087,207.634724 1226.95573,207.634724 C1224.3308,207.634724 1222.22775,205.531575 1222.22775,202.875707 L1222.22775,4.35818759 L1183.40794,4.35818759 L1183.40794,241.618544 C1183.40794,253.199973 1193.07059,262.843683 1204.8182,262.843683 L1232.83341,262.843683 C1239.72256,262.843683 1245.8121,258.875912 1248.77936,253.005047 L1326.77938,48.1153174 L1404.55851,253.005047 C1407.47797,258.875912 1413.63985,262.843683 1420.60264,262.843683 L1447.08448,262.843683 C1458.85276,262.843683 1468.42498,253.199973 1468.42498,241.618544 L1468.42498,4.35818759 L1431.13079,4.35818759 L1431.13079,202.875707 C1431.13079,205.531575 1429.01224,207.634724 1426.40281,207.634724 C1424.15508,207.634724 1422.20446,206.081728 1421.70066,203.95293" id="path42"></path>
                    <path d="M1812.34023,37.0996868 L1773.09542,37.0996868 L1773.09542,230.323092 L1816.69359,230.323092 C1870.47112,230.323092 1911.82156,194.736262 1911.82156,134.487439 C1911.82156,67.7873322 1876.41339,37.0996868 1812.34023,37.0996868 Z M1812.48233,262.843683 L1754.80357,262.843683 C1744.28834,262.843683 1735.78831,254.337469 1735.78831,244.043578 L1735.78831,23.2236445 C1735.78831,12.8240828 1744.28834,4.35818759 1754.80357,4.35818759 L1812.48233,4.35818759 C1898.32227,4.35818759 1951.36348,49.092256 1951.36348,135.819861 C1951.36348,215.404836 1889.83516,262.843683 1812.48233,262.843683 L1812.48233,262.843683 Z" id="path44"></path>
                </g>
            </g>
        </g>
    </g>
</svg>