<svg width="110" height="110" viewBox="0 0 110 110" fill="none" xmlns="http://www.w3.org/2000/svg">
<g clip-path="url(#clip0)">
<path d="M58.6868 21.2903C42.9568 21.2903 29.3523 31.4139 24.8334 46.4786L23.5577 50.726C22.2076 55.2307 19.7361 59.3699 16.4113 62.6947L14.7134 64.3926C14.3798 64.7226 14.1935 65.1732 14.1935 65.6452C14.1935 66.1153 14.3798 66.5678 14.7134 66.8995C20.0981 72.286 23.0645 79.4466 23.0645 87.0615C23.0645 92.8613 27.7821 97.5807 33.5837 97.5807C36.2823 97.5807 38.9613 96.9047 41.3334 95.6255L44.3548 94.0003V108.226C44.3548 109.205 45.1479 110 46.129 110H76.2903C77.2714 110 78.0645 109.205 78.0645 108.226V95.1837C78.0645 89.1941 80.3958 83.5628 84.6326 79.326C90.6932 73.2653 94.0323 65.207 94.0323 56.6358C94.0323 37.1463 78.1763 21.2903 58.6868 21.2903ZM67.4193 106.452H47.9032V92.0895L61.1635 84.9502L59.4816 81.8258L39.6497 92.5029C37.7939 93.5036 35.695 94.0323 33.5837 94.0323C29.7408 94.0323 26.6129 90.9061 26.6129 87.0615C26.6129 79.0918 23.7245 71.5657 18.4445 65.6789L18.9218 65.2016C22.66 61.4616 25.4402 56.8079 26.9589 51.7444L28.2345 47.497C32.2974 33.9439 44.5376 24.8387 58.6868 24.8387C61.7171 24.8387 64.641 25.2912 67.4193 26.0878V37.2581H65.3045L63.6598 41.6386L59.4 39.7029L53.8964 45.2065L55.8339 49.4663L51.4516 51.1092V58.8908L55.8339 60.5337L53.8964 64.7936L59.4 70.2971L63.6598 68.3615L65.3045 72.742H67.4193V106.452ZM67.7618 69.1936L66.2874 65.2637L65.5263 64.9816C65.2584 64.8823 64.9905 64.7741 64.7314 64.6534L63.9934 64.3128L60.17 66.0497L58.1456 64.0253L59.8826 60.202L59.5402 59.4621C59.4195 59.2031 59.3131 58.9387 59.2137 58.6691L58.9316 57.9062L55 56.4318V53.5682L58.9316 52.0939L59.2137 51.331C59.3131 51.0613 59.4177 50.797 59.5402 50.5379L59.8826 49.7981L58.1456 45.9747L60.17 43.9503L63.9934 45.6873L64.7314 45.3466C64.9905 45.226 65.2584 45.1178 65.5263 45.0184L66.2874 44.7363L67.76 40.8065H70.6253L72.0997 44.7363L72.8608 45.0184C73.1287 45.1178 73.3966 45.226 73.6556 45.3466L74.3937 45.6873L78.2171 43.9503L80.2414 45.9747L78.5045 49.7981L78.8469 50.5379C78.9676 50.797 79.074 51.0613 79.1734 51.331L79.4555 52.0939L83.3871 53.5682V56.4318L79.4555 57.9062L79.1734 58.6691C79.074 58.9387 78.9694 59.2031 78.8469 59.4621L78.5045 60.202L80.2414 64.0253L78.2171 66.0497L74.3937 64.3128L73.6556 64.6534C73.3966 64.7741 73.1287 64.8823 72.8608 64.9816L72.0997 65.2637L70.6271 69.1936H67.7618V69.1936ZM82.1239 76.8191C77.2164 81.7229 74.5161 88.2449 74.5161 95.1837V106.452H70.9677V72.742H73.0826L74.7273 68.3615L78.9871 70.2971L84.4906 64.7936L82.5532 60.5337L86.9355 58.8908V51.1092L82.5532 49.4663L84.4906 45.2065L78.9871 39.7029L74.7273 41.6386L73.0826 37.2581H70.9677V27.3102C82.4202 32.1236 90.4839 43.4536 90.4839 56.6358C90.4839 64.2595 87.5139 71.4273 82.1239 76.8191Z" fill="white"/>
<path d="M90.9026 0H8.87097C3.97952 0 0 3.97952 0 8.87097C0 13.7624 3.97952 17.7419 8.87097 17.7419H90.9026L108.645 8.87097L90.9026 0ZM15.9677 14.1935H8.87097C5.93645 14.1935 3.54839 11.8055 3.54839 8.87097C3.54839 5.93645 5.93645 3.54839 8.87097 3.54839H15.9677V14.1935ZM88.7097 7.09677H26.6129V10.6452H88.7097V14.1935H19.5161V10.6452H23.0645V7.09677H19.5161V3.54839H88.7097V7.09677ZM92.2581 4.64484L100.71 8.87097L92.2581 13.0971V4.64484Z" fill="white"/>
<path d="M69.1935 47.9032C65.2797 47.9032 62.0968 51.0861 62.0968 55C62.0968 58.9138 65.2797 62.0967 69.1935 62.0967C73.1074 62.0967 76.2903 58.9138 76.2903 55C76.2903 51.0861 73.1074 47.9032 69.1935 47.9032ZM69.1935 58.5484C67.2366 58.5484 65.6452 56.9569 65.6452 55C65.6452 53.043 67.2366 51.4516 69.1935 51.4516C71.1505 51.4516 72.7419 53.043 72.7419 55C72.7419 56.9569 71.1505 58.5484 69.1935 58.5484Z" fill="white"/>
<path d="M104.677 99.3549C101.743 99.3549 99.3548 101.743 99.3548 104.677C99.3548 107.612 101.743 110 104.677 110C107.612 110 110 107.612 110 104.677C110 101.743 107.612 99.3549 104.677 99.3549ZM104.677 106.452C103.698 106.452 102.903 105.655 102.903 104.677C102.903 103.7 103.698 102.903 104.677 102.903C105.657 102.903 106.452 103.7 106.452 104.677C106.452 105.655 105.657 106.452 104.677 106.452Z" fill="white"/>
<path d="M5.32258 67.4194C2.38806 67.4194 0 69.8074 0 72.742C0 75.6765 2.38806 78.0645 5.32258 78.0645C8.2571 78.0645 10.6452 75.6765 10.6452 72.742C10.6452 69.8074 8.2571 67.4194 5.32258 67.4194ZM5.32258 74.5161C4.34323 74.5161 3.54839 73.7195 3.54839 72.742C3.54839 71.7644 4.34323 70.9678 5.32258 70.9678C6.30193 70.9678 7.09677 71.7644 7.09677 72.742C7.09677 73.7195 6.30193 74.5161 5.32258 74.5161Z" fill="white"/>
<path d="M7.09679 85.1613H3.5484V88.7096H7.09679V85.1613Z" fill="white"/>
<path d="M7.09679 95.8065H3.5484V99.3548H7.09679V95.8065Z" fill="white"/>
<path d="M7.09679 106.452H3.5484V110H7.09679V106.452Z" fill="white"/>
<path d="M106.452 67.4194H102.903V70.9678H106.452V67.4194Z" fill="white"/>
<path d="M106.452 78.0645H102.903V81.6129H106.452V78.0645Z" fill="white"/>
<path d="M106.452 88.7097H102.903V92.258H106.452V88.7097Z" fill="white"/>
</g>
<defs>
<clipPath id="clip0">
<rect width="110" height="110" fill="white"/>
</clipPath>
</defs>
</svg>
