<svg width="1530" height="398" viewBox="0 0 1530 398" fill="none" xmlns="http://www.w3.org/2000/svg">
<path d="M179.135 15.5516V20.3836C179.135 21.8373 178.886 22.8342 178.698 23.6049C178.545 24.2048 178.453 24.5879 178.453 25.2478L176.85 369.437C176.85 377.162 179.589 382.53 185.215 385.862C190.116 388.737 197.122 390.154 206.648 390.154C215.402 390.154 224.653 388.963 232.808 387.906C235.533 387.569 238.119 387.232 240.482 386.978C243.915 386.074 263.488 368.869 299.261 332.466C325.399 305.883 324.888 267.675 324.346 227.22C324.097 208.903 323.839 189.958 326.307 172.264C331.344 135.87 309.989 99.8405 295.854 76.0085C292.749 70.7797 289.971 66.0908 287.852 62.0804C278.444 44.2294 217.498 8.92446 190.168 8.92446C180.489 8.92446 180.489 13.5579 180.489 15.5516H179.135ZM206.648 396.402C196.065 396.402 188.098 394.741 182.275 391.307C174.71 386.835 170.871 379.47 170.871 369.409L172.465 25.2201C172.465 23.8079 172.701 22.8342 172.902 22.0311C173.055 21.4404 173.146 21.0343 173.146 20.3836V12.8565L174.055 11.2458L175.409 9.86593L175.557 10.0228C177.187 6.20621 181.122 2.66187 190.168 2.66187C217.529 2.66187 281.969 37.9668 293.085 59.0437C295.168 62.9941 297.89 67.5953 300.934 72.7134C315.523 97.3253 337.577 134.513 332.217 173.146C329.832 190.374 330.081 209.06 330.321 227.128C330.859 267.122 331.413 308.486 303.441 336.928C267.314 373.706 246.348 392.623 241.107 393.199C238.779 393.444 236.228 393.776 233.533 394.127C225.208 395.179 215.773 396.402 206.648 396.402Z" fill="#FFFFFE"/>
<path d="M293.183 267.999C299.045 267.528 309.842 262.502 310.877 256.457L304.998 255.358C304.526 257.273 296.874 261.787 292.353 261.787C289.811 261.787 287.95 263.997 280.664 275.733C279.201 278.11 278 280.081 277.541 280.612C274.545 283.547 268.469 288.748 265.254 290.635C264.708 290.986 263.193 291.443 261.983 291.826C259.345 292.62 256.619 293.446 254.854 295.158L258.934 299.732C259.65 299.039 262.053 298.306 263.638 297.83C265.455 297.267 267.172 296.755 268.294 296.03C271.942 293.889 277.694 288.882 280.717 286.03H294.471C296.144 286.03 297.175 286.325 298.734 286.763C299.385 286.934 300.075 287.137 300.888 287.34L302.233 281.248L300.285 280.727C298.56 280.229 296.935 279.776 294.471 279.776H285.277L285.679 279.139C287.627 275.992 291.558 269.66 293.183 267.999ZM205.169 343.33L212.411 342.679C213.359 343.713 214.517 344.701 216.01 345.582C219.457 347.576 224.091 348.969 228.394 348.969C231.189 348.969 233.836 348.379 235.946 347.008C237.876 345.697 239.536 345.637 241.283 345.582C246.52 345.402 249.351 343.496 249.351 334.017C249.351 329.365 248.931 324.071 248.495 318.464C246.892 297.978 245.079 274.76 261.096 266.919C273.798 260.725 268.474 242.298 264.949 230.119C264.127 227.285 263.315 224.433 262.992 222.541C264.049 222.347 264.931 222.227 265.503 222.227C270.657 222.227 275.1 215.715 281.914 205.087C285.613 199.336 291.811 189.686 294.563 189.686V183.419C288.627 183.419 283.215 191.86 276.956 201.598C273.741 206.605 267.766 215.909 265.503 215.969C261.729 215.969 231.368 223.768 228.839 228.679C225.982 234.263 220.868 237.595 215.919 240.821C213.053 242.681 210.363 244.434 208.17 246.567C206.288 248.413 205.366 250.572 204.553 252.492C203.536 254.901 202.793 256.646 200.439 257.79C199.845 258.072 199.242 258.335 198.639 258.598C194.778 260.259 189.502 262.535 189.502 271.709H195.477C195.477 266.711 197.412 265.89 200.919 264.385C201.609 264.09 202.304 263.785 202.964 263.453C207.358 261.316 208.83 257.827 210.022 255.026C210.69 253.452 211.249 252.105 212.25 251.14C214.019 249.428 216.473 247.826 219.064 246.128C224.432 242.648 230.499 238.693 233.744 232.158C235.627 230.506 248.281 226.256 257.257 223.888C257.641 226.122 258.283 228.679 259.227 231.932C263.101 245.334 265.966 257.647 258.571 261.256C238.78 270.92 240.86 297.567 242.532 318.976C242.965 324.445 243.367 329.623 243.367 334.017C243.367 338.299 242.795 339.162 242.808 339.162C242.576 339.273 241.72 339.296 241.091 339.319C239.069 339.389 236.02 339.49 232.731 341.728C230.202 343.385 224.423 342.873 219.846 340.607C217.876 339.647 216.867 338.706 216.391 338.092C216.867 337.686 217.456 337.201 217.919 336.818C220.453 334.695 223.078 332.512 223.65 330.232C225.257 325.557 225.257 320.347 225.257 315.317H219.273C219.273 320.029 219.273 324.459 217.985 328.262C217.618 329.069 215.307 330.98 214.198 331.912C213.018 332.895 212.079 333.698 211.381 334.483C210.647 334.594 209.782 334.797 208.607 335.175L205.248 336.421C204.117 336.421 202.697 336.421 201.614 337.109L191.314 339.186H181.141V345.448H193.669L205.169 343.33ZM186.047 315.455C187.226 314.804 191.41 315.395 193.852 316.101C194.097 319.761 194.94 321.528 197.263 321.528C198.137 321.528 200.19 321.159 200.378 317.73C200.413 317.084 200.439 316.092 200.439 314.638C200.439 313.766 200.155 313.064 199.736 312.506L199.718 310.785C199.67 304.31 199.836 302.224 204.007 300.987C207.288 299.925 221.331 286.593 221.492 286.422C222.501 285.425 226.664 277.026 226.664 275.161C226.664 273.32 228.236 267.657 229.145 264.87C229.617 263.951 230.307 263.365 231.189 262.641C233.172 260.97 235.885 258.718 235.885 252.317H229.9C229.9 255.709 229.084 256.387 227.459 257.744C226.328 258.709 224.93 259.862 223.689 262.355C223.659 262.438 220.684 271.257 220.767 274.483C220.422 275.65 217.801 281.225 217.391 281.885C214.595 284.608 203.99 294.152 202.317 295.01C194.162 297.387 193.712 303.756 193.734 309.663C190.166 308.837 184.23 308.039 181.958 311.172C181.967 311.149 181.211 311.218 178.87 309.723L178.438 309.543C178.35 307.48 177.726 304.573 173.345 304.573L173.755 310.854C173.214 310.752 172.541 310.014 172.458 309.428C172.497 309.714 172.475 310.051 172.475 310.471C172.475 311.772 172.475 313.72 173.917 314.934C174.917 315.746 175.996 315.746 176.656 315.598C182.159 318.898 184.981 317.163 186.047 315.455ZM186.754 81.4685L188.034 80.9285L188.488 79.5809L188.672 79.1148C189.362 78.7318 190.349 78.178 191.354 77.5734C192.546 76.8811 193.76 76.1797 194.075 75.9905C194.114 75.9905 195.385 75.5151 195.874 75.4551L197.189 75.1274C198.683 74.3706 202.876 71.3431 203.702 70.7339L203.903 70.5078L204.401 70.7801L207.034 68.1034V63.5991C207.602 62.9945 208.41 61.9792 208.568 60.1886C208.803 59.4733 209.074 58.6472 209.074 57.7842C209.074 55.5782 209.389 53.3491 209.725 50.9539C210.079 48.4664 210.441 45.8959 210.441 43.2422V32.8584H204.457V43.2422C204.457 45.439 204.143 47.6819 203.807 50.0402C203.461 52.5553 203.09 55.1351 202.915 58.1395C202.78 58.5549 202.636 58.9887 202.535 59.4502C201.963 60.0409 201.05 61.0608 201.05 62.6207V64.3329C200.504 64.7621 200.081 65.3667 199.718 66.0081C197.897 67.3327 195.896 68.7172 194.94 69.3079C194.201 69.4417 193.21 69.7232 191.86 70.1894C191.109 70.5724 189.764 71.3431 188.449 72.1C187.527 72.6353 186.632 73.1661 186.003 73.5214C185.134 73.8029 184.186 74.5367 183.395 76.1243C180.447 77.4257 179.752 78.1411 179.49 78.3903C178.888 78.9994 177.778 80.144 177.494 80.2824V86.5219C180.089 86.5219 181.989 84.5744 183.496 83.0238C183.867 82.7376 185.387 82.0269 186.754 81.4685ZM319.355 192.312C318.801 193.286 318.263 194.251 317.687 195.067C314.166 200.047 311.668 201.704 307.208 203.596C305.937 203.933 305.216 204.994 304.797 205.788C296.603 208.963 280.228 241.425 280.228 249.557H286.212C286.212 242.773 301.709 214.174 306.584 211.769C308.331 211.511 309.287 210.195 309.811 209.254C314.848 207.071 318.285 204.741 322.487 198.806C323.182 197.818 323.837 196.673 324.501 195.506C325.383 193.941 327.021 191.066 327.917 191.066V184.799C323.618 184.799 321.255 188.957 319.355 192.312ZM305.863 290.815C300.333 295.2 294.795 298.592 290.344 301.328C284.818 304.716 282.298 306.257 281.459 308.399L280.599 310.665C277.69 318.353 276.087 322.59 266.923 322.59V328.839C280.149 328.839 283.211 320.762 286.155 312.986L286.814 311.126C287.422 310.365 290.58 308.431 293.366 306.719C297.297 304.31 302.556 301.093 307.82 297.083C304.229 302.371 299.215 309.211 295.087 314.832C288.522 323.781 281.748 333.034 278.454 338.636C275.781 343.228 271.265 344.894 266.027 346.828C261.511 348.503 256.383 350.405 252.124 354.577C250.6 356.049 245.787 356.695 241.912 357.216C236.885 357.881 232.543 358.458 230.145 360.802C227.861 362.981 211.014 372.428 207.371 372.428C202.086 372.428 198.727 371.565 197.373 369.889C195.577 367.646 196.425 362.644 197.556 356.026L198.181 352.343H189.104L189.1 351.323H183.116C183.116 353.271 183.116 357.193 185.981 357.83L186.981 358.315L191.061 358.596C190.052 364.951 189.724 370.069 192.786 373.909C195.398 377.163 200.028 378.676 207.371 378.676C213.337 378.676 231.822 367.711 234.216 365.367C235.207 364.407 239.702 363.807 242.668 363.41C247.883 362.718 253.273 362.007 256.2 359.15C259.55 355.869 263.673 354.351 268.024 352.726C273.798 350.589 279.773 348.369 283.56 341.899C286.683 336.578 293.362 327.463 299.831 318.635C318.377 293.368 320.347 289.786 317.429 286.717C314.891 284.031 311.03 286.717 305.863 290.815ZM309.091 226.893L307.811 228.125V229.643L307.938 230.515C308.418 232.26 309.366 237.821 307.427 240.53C307.121 240.959 306.186 242.275 303.072 242.275V248.523C308.112 248.523 310.825 246.239 312.218 244.277C314.752 240.747 314.787 235.938 314.393 232.601C316.158 232.975 318.39 233.515 319.967 233.912C323.531 234.807 325.789 235.375 327.17 235.375V229.112C326.418 229.112 323.501 228.379 321.373 227.857C313.607 225.873 310.934 225.374 309.091 226.893ZM185.243 204.75V207.445C183.832 209.157 183.867 210.242 183.924 210.071C183.753 210.491 182.972 211.635 182.666 211.94L186.719 216.527C186.741 216.513 189.165 213.98 189.694 211.635L190.275 210.989L191.227 210.071V206.268C202.815 206.051 224.331 204.044 225.869 192.095C226.546 191.472 227.371 190.365 227.371 188.62H221.4C221.4 188.062 219.981 188.731 219.981 190.715C219.981 196.761 203.986 200.038 189.41 200.107C187.527 199.424 181.106 193.138 180.565 191.112L177.599 191.394H174.603C174.603 195.077 180.643 201.745 185.243 204.75ZM231.032 70.1663C232.713 70.1663 234.164 69.3863 235.103 67.9788C235.574 67.3004 235.885 66.4835 236.077 65.5651C239.195 66.8158 243.917 69.6448 243.917 73.0184H249.897C249.897 63.4145 236.824 58.6149 233.744 58.6149L230.307 58.8041V63.313L230.302 63.6222C228.533 62.5884 225.572 59.021 225.681 56.5612C225.76 54.8536 229.132 54.6829 230.582 54.6829C232.814 54.6829 233.88 53.6076 234.447 53.0168C234.718 52.7492 234.801 52.6661 235.373 52.5092L233.967 46.4404C231.975 46.9481 231.027 47.788 230.582 48.4203C227.157 48.4203 224.576 49.1125 222.698 50.5017C220.772 51.9415 219.697 54.1291 219.697 56.6535C219.697 62.5976 226.052 70.1663 231.032 70.1663ZM269.068 114.872L266.901 114.784L264.333 115.574V117.752C263.656 119.164 263.656 120.784 263.656 122.178H269.635L270.544 121.144L270.636 120.964C273.741 120.239 276.642 117.263 279.472 111.914C280.022 110.875 280.171 109.459 280.367 107.248C280.407 106.74 280.437 106.311 280.481 106.048L274.58 105.042C274.527 105.393 274.471 105.993 274.41 106.671C274.34 107.543 274.274 108.623 274.235 108.891C271.732 113.617 269.849 114.872 269.103 114.872H269.068ZM288.348 99.2871C289.457 105.051 291.72 116.81 291.082 119.889C289.23 121.361 287.78 124.148 285.67 128.353C284.076 131.569 281.66 136.392 280.009 137.176C279.28 137.444 276.532 137.426 274.903 137.389C270.95 137.31 268.36 137.264 266.779 138.898L265.709 141.556C265.709 141.556 270.832 143.633 270.365 143.767C271.003 143.573 273.291 143.596 274.798 143.642C278.428 143.688 280.717 143.674 282.412 142.895C285.989 141.252 288.522 136.166 290.977 131.251C292.126 128.953 293.864 125.464 294.698 124.864C298.271 122.685 297.708 116.266 294.214 98.0641C293.541 94.5752 292.781 90.6109 292.781 89.6232C292.781 78.8748 290.317 73.5214 286.268 65.9528L281.053 68.9987C285.045 76.452 286.797 80.6655 286.797 89.6232C286.797 91.1647 287.325 93.9983 288.348 99.2871ZM284.709 162.725C282.163 164.447 280.28 165.31 277.415 166.588C274.558 167.866 270.994 169.468 265.307 172.601C262.324 174.244 258.213 179.016 252.518 185.597C243.638 195.866 231.477 209.923 218.946 217.026C214.805 219.384 211.049 221.738 207.484 223.981C196.979 230.585 188.689 235.795 176.621 237.267L177.319 243.484C190.663 241.855 199.88 236.044 210.559 229.339C214.054 227.151 217.74 224.83 221.798 222.531C235.225 214.921 247.783 200.384 256.951 189.774C261.625 184.374 266.049 179.252 268.098 178.13C273.571 175.13 277.017 173.566 279.782 172.329C282.687 171.018 284.989 169.985 287.959 167.973C297.887 161.221 303.443 153.768 308.798 146.563C310.222 144.648 311.65 142.724 313.197 140.785C314.734 138.829 315.835 138.51 317.097 138.136C322.229 136.687 323.409 133.563 323.409 121.476C323.409 116.252 320.902 112.491 318.897 109.482C317.709 107.7 316.604 106.039 316.604 104.857H310.62C310.62 107.986 312.34 110.557 313.987 113.049C315.756 115.712 317.42 118.213 317.42 121.476C317.42 129.991 316.669 131.546 316.459 131.795L315.525 132.1C313.852 132.589 311.318 133.323 308.58 136.803C307.007 138.783 305.535 140.762 304.081 142.724C298.787 149.836 293.79 156.541 284.709 162.725ZM205.982 97.6119C204.68 98.1564 203.92 98.0549 203.461 97.7918C203.763 93.3291 203.453 91.4046 201.299 90.597L198.792 90.0201L196.962 92.8076V93.7814C196.962 94.2152 196.931 94.6444 196.896 95.0413C196.809 96.3289 196.691 97.9165 197.325 99.5594C197.263 100.293 197.207 100.976 197.163 101.452C197.045 102.767 196.962 103.796 196.962 104.17C196.962 116.99 201.675 131.514 205.182 142.211C205.322 143.245 205.803 143.924 206.222 144.321L206.615 144.584C206.93 145.894 207.899 147.426 209.66 150.122L211.328 149.042L214.595 146.6C213.792 145.373 212.569 143.854 212.477 143.633C212.477 142.553 212.346 141.002 211.197 139.904L210.586 139.429C207.248 129.234 202.946 115.666 202.946 104.179V104.114C205.121 104.544 207.646 103.944 210.171 102.411C214.726 99.6286 218.496 94.1783 216.897 89.8863L211.293 92.0277C211.354 92.9784 209.114 96.3289 205.982 97.6119ZM209.891 168.536C208.838 168.323 207.974 168.199 207.445 168.199L207.423 174.447C207.751 174.461 208.227 174.586 208.808 174.697C210.223 174.951 212.114 175.32 214.154 175.32C215.084 175.32 216.041 175.241 217.002 175.052C220.06 174.267 221.977 172.458 223.681 170.839C225.707 168.914 227.175 167.53 230.582 167.53C233.369 167.53 235.413 166.542 237.046 165.748C238.217 165.194 239.139 164.756 240.1 164.756C245.254 164.756 248.543 156.324 248.543 151.931C248.543 148.557 248.355 144.796 248.171 141.288C248.014 138.298 247.866 135.474 247.866 133.244C247.866 127.919 246.931 124.024 246.031 120.253C245.45 117.84 245 115.426 244.73 112.8C245.918 112.823 247.106 112.823 248.281 112.823C262.284 112.823 270.317 107.894 270.317 99.3194V78.5518C270.317 75.9443 266.359 59.1548 260.126 57.5626C259.406 55.9843 258.751 51.2954 258.751 47.4004H252.771C252.771 53.4368 253.592 63.5206 258.388 63.5206H258.497C260.55 64.9328 264.333 75.8751 264.333 78.5518V99.3194C264.333 106.039 252.046 106.57 248.281 106.57C245.503 106.57 237.068 106.57 235.002 106.071C230.28 104.271 229.477 102.333 229.477 98.641H223.501C223.501 105.439 226.328 109.422 233.277 112.062C234.474 112.357 236.457 112.528 238.732 112.629C239.008 116.017 239.558 119.016 240.231 121.781C241.082 125.339 241.882 128.703 241.882 133.244C241.882 135.566 242.035 138.501 242.196 141.616C242.371 145.036 242.563 148.673 242.563 151.931C242.563 154.298 240.715 158.06 240.1 158.493C237.828 158.493 236.09 159.338 234.552 160.067C233.22 160.713 232.063 161.267 230.582 161.267C224.882 161.267 221.99 163.994 219.662 166.205C218.273 167.53 217.168 168.573 215.731 168.937C213.927 169.306 211.595 168.868 209.891 168.536ZM212.206 148.479L211.328 149.042L209.729 150.246L212.206 148.479ZM205.13 182.381H211.11C211.11 180.95 211.765 180.576 212.114 180.396L213.84 179.446L214.084 174.438L210.773 172.786L209.673 173.612C206.951 175.107 205.13 179.016 205.13 182.381Z" fill="#FFFFFE"/>
<path d="M150.802 131.566L151.885 172.622L135.09 172.599L125.97 208.951C126.966 210.16 127.612 211.711 127.612 213.455C127.612 217.203 124.817 220.263 121.388 220.263C117.955 220.263 115.155 217.203 115.155 213.455C115.155 209.819 117.819 206.879 121.126 206.717L131.067 167.13L146.508 167.153L145.599 132.203C143.171 131.271 141.402 128.816 141.402 125.858C141.402 122.105 144.197 119.06 147.63 119.06C151.068 119.06 153.859 122.105 153.859 125.858C153.859 128.313 152.597 130.376 150.802 131.566ZM149.334 304.076V343.179H92.1884L60.5254 312.12L47.3037 320.547L83.1643 360.089L79.3686 363.859L39.0571 319.393L61.2024 305.29L94.2588 337.72H144.101V303.296C142.389 302.087 141.188 300.079 141.188 297.703C141.188 295.317 142.389 293.309 144.101 292.096V291.823H144.472C145.363 291.283 146.342 290.896 147.434 290.896C150.858 290.896 153.658 293.955 153.658 297.703C153.658 300.707 151.824 303.185 149.334 304.076ZM152.588 270.746C152.588 274.48 149.793 277.54 146.364 277.54C144.219 277.54 142.415 276.275 141.293 274.471H131.701V316.121H101.89C101.012 318.72 98.7665 320.603 96.0846 320.603C92.6602 320.603 89.856 317.557 89.856 313.809C89.856 310.057 92.6602 307.011 96.0846 307.011C98.4564 307.011 100.453 308.516 101.505 310.648H126.477V269.002H140.454C141.175 266.122 143.494 263.948 146.364 263.948C149.793 263.948 152.588 267.008 152.588 270.746ZM31.8981 305.133C31.8981 304.099 32.147 303.144 32.527 302.267L22.2013 280.909L21.3932 245.285L56.0439 247.694L59.1233 286.35H104.484V243.97H144.071L143.573 202.975C141.69 201.802 140.362 199.684 140.362 197.155C140.362 193.422 143.162 190.362 146.6 190.362C150.033 190.362 152.824 193.422 152.824 197.155C152.824 200.049 151.147 202.481 148.81 203.464L149.364 249.439H109.717V291.837H54.3098L51.2086 252.84L26.7614 251.137L27.4035 280.147L36.6023 298.672C37.1046 298.533 37.5895 298.335 38.1311 298.335C41.5643 298.335 44.3554 301.381 44.3554 305.133C44.3554 308.871 41.5643 311.926 38.1311 311.926C34.6935 311.926 31.8981 308.871 31.8981 305.133ZM18.4929 189.896C18.4929 186.158 21.284 183.098 24.7172 183.098C28.1548 183.098 30.9502 186.158 30.9502 189.896C30.9502 193.043 28.941 195.577 26.2722 196.347L28.0368 206.376L27.1458 225.39L67.6626 217.457L81.2861 257.234C84.6494 257.326 87.3706 260.316 87.3706 263.995C87.3706 267.742 84.5708 270.802 81.1332 270.802C77.6957 270.802 74.8958 267.742 74.8958 263.995C74.8958 262.269 75.5423 260.727 76.5251 259.523L64.2425 223.692L21.5941 232.054L22.8565 206.713L20.7293 195.005C19.3883 193.758 18.4929 191.968 18.4929 189.896ZM13.8061 159.94C13.8061 157.364 15.182 155.186 17.1389 154.037L18.4536 137.409L29.0021 111.832L62.8448 129.693L45.4473 162.575L52.3792 164.882C53.5062 163.655 55.0611 162.893 56.7777 162.893C60.2153 162.893 63.0151 165.953 63.0151 169.691C63.0151 173.438 60.2153 176.498 56.7777 176.498C53.4494 176.498 50.7806 173.609 50.6102 170.028L37.7948 165.745L55.629 132.005L31.601 119.332L23.433 139.153L22.3585 153.668C24.6473 154.678 26.2722 157.106 26.2722 159.94C26.2722 163.701 23.4724 166.747 20.0348 166.747C16.5929 166.747 13.8061 163.701 13.8061 159.94ZM94.5646 217.687C96.5651 218.827 97.9759 221.043 97.9759 223.659C97.9759 227.411 95.1673 230.466 91.7298 230.466C88.301 230.466 85.5055 227.411 85.5055 223.659C85.5055 220.844 87.0867 218.421 89.3274 217.387L88.9169 206.708L72.594 197.234C71.467 198.47 69.9077 199.236 68.1867 199.236C64.7535 199.236 61.9537 196.181 61.9537 192.434C61.9537 188.687 64.7535 185.641 68.1867 185.641C71.3578 185.641 73.8825 188.271 74.2669 191.617L91.6119 200.727L105.034 188.23C104.956 187.791 104.79 187.39 104.79 186.928C104.79 183.19 107.59 180.135 111.036 180.135C114.469 180.135 117.26 183.19 117.26 186.928C117.26 190.666 114.469 193.726 111.036 193.726C109.922 193.726 108.935 193.32 108.026 192.762L94.1147 205.698L94.5646 217.687ZM46.4214 79.7211L56.4501 64.7315C56.092 63.8684 55.8648 62.927 55.8648 61.9163C55.8648 58.192 58.6559 55.1322 62.0935 55.1322C65.531 55.1322 68.3265 58.192 68.3265 61.9163C68.3265 65.6775 65.531 68.7373 62.0935 68.7373C61.4951 68.7373 60.9491 68.5342 60.3944 68.3635L50.9029 82.4993L43.2852 98.7719L87.7288 117.62L75.4506 152.606L109.079 155.703L114.631 139.984C113.124 138.743 112.084 136.874 112.084 134.658C112.084 130.906 114.88 127.86 118.317 127.86C121.75 127.86 124.537 130.906 124.537 134.658C124.537 137.829 122.506 140.367 119.811 141.115L112.6 161.532L68.1867 157.424L81.0808 120.703L36.1175 101.619L46.4214 79.7211ZM80.6309 41.8455L109.817 22.7393L134.199 17.1413L135.322 22.4809L111.394 27.9727L85.6715 44.9745L83.4307 79.5411H112.006V63.9607C111.543 63.0147 111.215 61.9855 111.215 60.841C111.215 57.0797 114.006 54.0338 117.444 54.0338C120.881 54.0338 123.685 57.0797 123.685 60.841C123.685 64.5792 120.881 67.6251 117.444 67.6251L117.234 67.5789V85.0099H77.8354L80.6309 41.8455ZM138.121 42.2978L152.492 50.8494L151.819 101.052L111.621 111.819C111.145 115.045 108.677 117.578 105.58 117.578C102.143 117.578 99.3562 114.518 99.3562 110.78C99.3562 107.042 102.143 103.982 105.58 103.982C107.511 103.982 109.171 105.007 110.315 106.516L146.648 96.7921L147.224 54.0154L135.531 47.0467L138.121 42.2978ZM164.39 25.6929C164.39 24.2576 164.15 23.2839 163.953 22.4901C163.809 21.8901 163.709 21.4932 163.709 20.8471V12.5908L161.018 9.87259C159.253 6.30517 155.266 3.11157 146.687 3.11157C119.331 3.11157 54.8908 38.4165 43.7744 59.4934C41.6953 63.4254 38.9697 68.0127 35.9384 73.1308C21.3364 97.7428 -0.721544 134.94 4.63352 173.6C7.01841 190.828 6.76943 209.514 6.5292 227.568C5.99194 267.571 5.44159 308.927 33.4094 337.392C69.5583 374.146 90.5243 393.072 95.757 393.649C98.0895 393.908 100.649 394.235 103.357 394.577C111.669 395.652 121.091 396.857 130.189 396.857C153.938 396.857 165.98 387.784 165.98 369.84L164.39 25.6929Z" fill="#FFFFFE"/>
<path d="M492.284 27.1173V130.854H456.258V27.1173H416.837V5.02515H531.443V27.1173H492.284Z" fill="#FFFFFE"/>
<path d="M629.599 130.854V79.5809H581.303V130.854H545.538V5.02515H581.303V56.1089H629.599V5.02515H665.363V130.854H629.599Z" fill="#FFFFFE"/>
<path d="M757.519 27.1169C747.77 27.1169 739.414 30.9335 732.461 38.5576C725.498 46.1816 722.017 55.9101 722.017 67.743C722.017 79.5806 725.498 89.3367 732.461 97.03C739.414 104.719 747.77 108.563 757.519 108.563C767.085 108.563 775.406 104.756 782.451 97.1315C789.497 89.5075 793.026 79.7144 793.026 67.743C793.026 55.9101 789.545 46.1816 782.582 38.5576C775.615 30.9335 767.264 27.1169 757.519 27.1169ZM757.519 133.216C737.331 133.216 720.226 127.171 706.222 115.075C692.21 102.979 685.204 87.2046 685.204 67.743C685.204 48.4106 692.167 32.738 706.087 20.702C720.012 8.67063 737.16 2.66187 757.519 2.66187C777.708 2.66187 794.808 8.67063 808.82 20.702C822.824 32.738 829.834 48.4106 829.834 67.743C829.834 87.2046 822.872 102.979 808.951 115.075C795.022 127.171 777.882 133.216 757.519 133.216Z" fill="#FFFFFE"/>
<path d="M896.664 26.7204H884.394V57.8764H896.664C901.189 57.8764 905.107 56.5242 908.418 53.8152C911.715 51.1016 913.375 47.2942 913.375 42.4023C913.375 37.5011 911.715 33.666 908.418 30.8878C905.107 28.1141 901.189 26.7204 896.664 26.7204ZM930.34 130.854L894.838 79.9686H884.394V130.854H849.678V5.02515H901.368C914.419 5.02515 925.514 8.49103 934.651 15.4136C943.789 22.3361 948.358 31.3308 948.358 42.4069C948.358 49.0018 946.397 55.0705 942.483 60.6132C938.569 66.142 933.564 70.1663 927.471 72.6768L969.499 130.854H930.34Z" fill="#FFFFFE"/>
<path d="M1084.88 131.842L1035.8 81.1547C1026.75 71.5554 1018.92 62.8792 1012.31 55.1213L1012.57 80.564V130.854H977.592V5.02515H1005.78L1049.12 51.1754C1052.24 54.5998 1055.82 58.5041 1059.83 62.9068C1063.82 67.3142 1067.21 71.2278 1070 74.6429L1069.74 51.5723V5.02515H1104.99V131.842H1084.88Z" fill="#FFFFFE"/>
<path d="M1212.8 130.854V79.5809H1164.51V130.854H1128.74V5.02515H1164.51V56.1089H1212.8V5.02515H1248.57V130.854H1212.8Z" fill="#FFFFFE"/>
<path d="M1274.42 130.854H1310.44V5.02515H1274.42V130.854Z" fill="#FFFFFE"/>
<path d="M1336.29 130.854V5.02515H1372.05V107.386H1425.31V130.854H1336.29Z" fill="#FFFFFE"/>
<path d="M1439.4 130.854V5.02515H1475.17V107.386H1528.42V130.854H1439.4Z" fill="#FFFFFE"/>
<path d="M595.961 324.552L590.34 264.805C590.34 261.981 590.104 256.577 589.641 248.616C589.165 240.646 588.933 236.054 588.933 234.812C583.543 246.138 578.402 256.314 573.48 265.341L541.17 324.552H517.99L484.977 265.341C479.823 256.143 475.018 245.958 470.576 234.812C469.873 244.901 469.174 254.902 468.471 264.805L462.146 324.552H416.837L432.994 155.152H471.978L511.32 228.707C513.425 232.597 516.461 238.527 520.449 246.493C524.428 254.454 527.354 260.92 529.228 265.881C532.74 258.266 535.837 251.713 538.541 246.225C541.223 240.747 544.21 234.905 547.491 228.707L586.828 155.152H625.816L642.318 324.552H595.961Z" fill="#FFFFFE"/>
<path d="M663.041 324.552V155.152H772.623V185.685H711.162V224.189H761.03V254.985H711.162V294.019H779.996V324.552H663.041Z" fill="#FFFFFE"/>
<path d="M860.427 186.747H848.135V292.957H860.427C875.885 292.957 888.705 288.439 898.886 279.412C909.072 270.385 914.165 257.209 914.165 239.852C914.165 222.504 909.072 209.319 898.886 200.292C888.705 191.265 875.885 186.747 860.427 186.747ZM865.345 324.552H801.425V155.152H865.345C893.444 155.152 916.738 162.587 935.241 177.457C953.735 192.326 962.986 213.126 962.986 239.852C962.986 266.411 953.678 287.161 935.057 302.118C916.45 317.08 893.204 324.552 865.345 324.552Z" fill="#FFFFFE"/>
<path d="M985.45 324.547H1033.93V155.152H985.45V324.547Z" fill="#FFFFFE"/>
<path d="M1200.4 193.918C1195.48 190.914 1189.92 188.565 1183.72 186.885C1177.51 185.205 1169.84 184.36 1160.72 184.36C1144.56 184.36 1131.33 189.497 1121.03 199.761C1110.72 210.034 1105.57 223.394 1105.57 239.852C1105.57 256.313 1110.78 269.642 1121.21 279.813C1131.62 289.989 1145.13 295.08 1161.77 295.08C1171.13 295.08 1179.15 294.281 1185.82 292.689C1192.5 291.102 1198.3 288.702 1203.21 285.522L1199.7 319.77C1194.55 322.258 1188.34 324.201 1181.08 325.613C1173.82 327.03 1164.81 327.736 1154.04 327.736C1126.87 327.736 1103.75 319.909 1084.67 304.24C1065.58 288.577 1056.05 267.113 1056.05 239.852C1056.05 212.6 1065.58 191.131 1084.67 175.472C1103.75 159.808 1126.87 151.972 1154.04 151.972C1165.04 151.972 1174.52 152.817 1182.49 154.497C1190.44 156.172 1197.47 158.433 1203.56 161.262L1200.4 193.918Z" fill="#FFFFFE"/>
<path d="M1306.51 226.31C1304.65 221.889 1302.89 216.309 1301.27 209.585C1299.61 215.612 1297.59 221.178 1295.23 226.319L1283.42 259.534L1318.75 259.506L1306.51 226.31ZM1342.29 324.55L1328.59 287.376H1273.45L1259.75 324.55H1214.44L1284.33 154.357H1320.51L1390.05 324.55H1342.29Z" fill="#FFFFFE"/>
<path d="M1408.67 324.552V155.152H1456.78V292.957H1528.43V324.552H1408.67Z" fill="#FFFFFE"/>
<path d="M416.837 395.913H424.787V352.97H416.837V395.913Z" fill="#FFFFFE"/>
<path d="M502.179 396.855L464.947 372.598L446.383 360.239C446.309 361.005 446.274 361.831 446.274 362.727C446.274 363.622 446.274 364.319 446.274 364.813C446.274 366.072 446.274 367.314 446.274 368.546C446.274 369.787 446.274 371.006 446.274 372.224V395.913H438.438V352.97L444.064 352.947L479.134 375.796C482.855 378.173 485.922 380.171 488.337 381.782C490.757 383.397 493.43 385.229 496.361 387.292C496.44 386.531 496.483 385.728 496.483 384.869C496.483 384.02 496.483 383.37 496.483 382.917V381.237C496.483 380.25 496.483 379.354 496.483 378.542C496.483 377.739 496.483 377.042 496.483 376.461V352.97H504.315V396.855H502.179Z" fill="#FFFFFE"/>
<path d="M535.537 396.655C531.418 396.655 527.618 396.337 524.137 395.714C520.652 395.077 517.769 394.297 515.476 393.355L513.222 388.039C516.62 389.516 520.202 390.66 523.962 391.472C527.719 392.276 531.698 392.677 535.891 392.677C540.639 392.677 544.513 391.962 547.523 390.526C550.528 389.091 552.031 387.181 552.031 384.799C552.031 382.607 550.808 380.766 548.357 379.284C545.902 377.807 540.023 376.146 530.728 374.305C521.429 372.468 516.782 368.716 516.782 363.062C516.782 360.15 518.721 357.607 522.6 355.457C526.47 353.306 532.012 352.222 539.211 352.222C542.539 352.222 545.584 352.462 548.357 352.923C551.122 353.38 553.415 353.971 555.237 354.668L553.577 358.484C551.983 357.792 549.82 357.197 547.077 356.689C544.343 356.177 541.618 355.928 538.918 355.928C534.389 355.928 530.829 356.615 528.247 357.986C525.666 359.357 524.373 360.935 524.373 362.735C524.373 364.488 525.487 366.034 527.714 367.354C529.933 368.679 534.083 369.994 540.159 371.305C546.23 372.606 551.074 374.277 554.682 376.321C558.299 378.375 560.103 381.052 560.103 384.384C560.103 388.062 557.888 391.034 553.455 393.282C549.026 395.529 543.05 396.655 535.537 396.655Z" fill="#FFFFFE"/>
<path d="M590.607 356.875H578.735V372.354H591.079C595.272 372.354 598.81 371.657 601.702 370.263C604.589 368.878 606.035 366.991 606.035 364.614C606.035 362.274 604.55 360.405 601.584 358.993C598.618 357.581 594.958 356.875 590.607 356.875ZM592.385 376.258H578.735V395.913H570.781V352.97H591.909C598.002 352.97 603.226 354.018 607.581 356.132C611.932 358.241 614.107 361.07 614.107 364.614C614.107 368.112 611.949 370.928 607.638 373.06C603.322 375.192 598.238 376.258 592.385 376.258Z" fill="#FFFFFE"/>
<path d="M624.079 395.913H632.029V352.97H624.079V395.913Z" fill="#FFFFFE"/>
<path d="M665.983 356.875H653.639V372.354H666.459C670.652 372.354 674.194 371.657 677.082 370.263C679.973 368.878 681.415 366.991 681.415 364.614C681.415 362.274 679.934 360.405 676.959 358.993C673.993 357.581 670.333 356.875 665.983 356.875ZM691.946 395.927L666.673 376.267L653.639 376.258V395.913H645.685V352.97H667.289C673.382 352.97 678.602 354.018 682.956 356.132C687.307 358.241 689.482 361.07 689.482 364.614C689.482 367.3 688.102 369.631 685.328 371.583C682.563 373.535 678.999 374.869 674.649 375.579L701.236 395.913L691.946 395.927Z" fill="#FFFFFE"/>
<path d="M707.877 395.913H715.827V352.97H707.877V395.913Z" fill="#FFFFFE"/>
<path d="M793.215 396.855L755.987 372.598L737.424 360.239C737.345 361.005 737.31 361.831 737.31 362.727C737.31 363.622 737.31 364.319 737.31 364.813C737.31 366.072 737.31 367.314 737.31 368.546C737.31 369.787 737.31 371.006 737.31 372.224V395.913H729.474V352.97L735.1 352.947L770.17 375.796C773.892 378.173 776.962 380.171 779.378 381.782C781.793 383.397 784.466 385.229 787.402 387.292C787.476 386.531 787.52 385.728 787.52 384.869C787.52 384.02 787.52 383.37 787.52 382.917V381.237C787.52 380.25 787.52 379.354 787.52 378.542C787.52 377.739 787.52 377.042 787.52 376.461V352.97H795.356V396.855H793.215Z" fill="#FFFFFE"/>
<path d="M846.748 396.655C835.667 396.655 826.136 394.606 818.148 390.526C810.154 386.447 806.153 381.084 806.153 374.438C806.153 367.751 810.159 362.379 818.161 358.314C826.163 354.257 835.554 352.222 846.334 352.222C851.243 352.222 855.703 352.503 859.704 353.066C863.705 353.629 867.216 354.446 870.226 355.526L868.562 359.495C865.71 358.461 862.434 357.644 858.756 357.04C855.069 356.431 851.204 356.131 847.159 356.131C838.043 356.131 830.277 357.801 823.852 361.143C817.436 364.488 814.23 368.947 814.23 374.508C814.23 379.976 817.44 384.379 823.861 387.697C830.286 391.02 838.096 392.677 847.299 392.677C851.265 392.677 854.986 392.414 858.481 391.874C861.971 391.343 864.749 390.651 866.81 389.797V379.22H846.748V375.514H874.406V392.022C867.361 395.109 858.144 396.655 846.748 396.655Z" fill="#FFFFFE"/>
<path d="M919.752 395.913H927.702V352.97H919.752V395.913Z" fill="#FFFFFE"/>
<path d="M1005.09 396.855L967.86 372.598L949.296 360.239C949.222 361.005 949.187 361.831 949.187 362.727C949.187 363.622 949.187 364.319 949.187 364.813C949.187 366.072 949.187 367.314 949.187 368.546C949.187 369.787 949.187 371.006 949.187 372.224V395.913H941.351V352.97L946.977 352.947L982.047 375.796C985.768 378.173 988.835 380.171 991.254 381.782C993.666 383.397 996.347 385.229 999.283 387.292C999.357 386.531 999.396 385.728 999.396 384.869C999.396 384.02 999.396 383.37 999.396 382.917V381.237C999.396 380.25 999.396 379.354 999.396 378.542C999.396 377.739 999.396 377.042 999.396 376.461V352.97H1007.23V396.855H1005.09Z" fill="#FFFFFE"/>
<path d="M1084.97 396.855L1047.74 372.598L1029.19 360.239C1029.11 361.005 1029.07 361.831 1029.07 362.727C1029.07 363.622 1029.07 364.319 1029.07 364.813C1029.07 366.072 1029.07 367.314 1029.07 368.546C1029.07 369.787 1029.07 371.006 1029.07 372.224V395.913H1021.24V352.97L1026.86 352.947L1061.93 375.796C1065.65 378.173 1068.72 380.171 1071.14 381.782C1073.55 383.397 1076.23 385.229 1079.16 387.292C1079.24 386.531 1079.28 385.728 1079.28 384.869C1079.28 384.02 1079.28 383.37 1079.28 382.917V381.237C1079.28 380.25 1079.28 379.354 1079.28 378.542C1079.28 377.739 1079.28 377.042 1079.28 376.461V352.97H1087.11V396.855H1084.97Z" fill="#FFFFFE"/>
<path d="M1137.56 356.131C1129.01 356.131 1121.61 357.838 1115.37 361.249C1109.11 364.655 1105.98 369.03 1105.98 374.374C1105.98 379.713 1109.09 384.098 1115.31 387.527C1121.51 390.96 1128.94 392.677 1137.56 392.677C1146.11 392.677 1153.51 390.974 1159.76 387.564C1166 384.158 1169.13 379.76 1169.13 374.374C1169.13 369.03 1166 364.655 1159.76 361.249C1153.51 357.838 1146.11 356.131 1137.56 356.131ZM1137.56 396.655C1126.79 396.655 1117.5 394.565 1109.67 390.393C1101.83 386.216 1097.92 380.876 1097.92 374.374C1097.92 367.959 1101.83 362.656 1109.67 358.484C1117.5 354.317 1126.79 352.222 1137.56 352.222C1148.4 352.222 1157.71 354.298 1165.52 358.452C1173.31 362.601 1177.21 367.913 1177.21 374.374C1177.21 380.876 1173.31 386.216 1165.52 390.393C1157.71 394.565 1148.4 396.655 1137.56 396.655Z" fill="#FFFFFE"/>
<path d="M1211.85 396.583H1209.6L1179.33 352.971H1187.76L1203.72 375.977C1204.75 377.504 1205.98 379.392 1207.43 381.639C1208.88 383.882 1210.08 385.834 1211.03 387.5C1212.67 384.842 1214.03 382.654 1215.12 380.924C1216.21 379.193 1217.3 377.532 1218.39 375.963L1234.48 352.952L1242.12 352.971L1211.85 396.583Z" fill="#FFFFFE"/>
<path d="M1267.15 366.973C1265.73 365.039 1264.4 362.843 1263.13 360.369C1262.42 361.541 1261.81 362.515 1261.3 363.304C1260.78 364.084 1259.93 365.307 1258.74 366.973L1249.7 380.163H1276.07L1267.15 366.973ZM1287.59 395.914L1278.84 383.859H1246.79L1238.42 395.937L1230.49 395.914L1261.82 352.09H1264.32L1295.66 395.914H1287.59Z" fill="#FFFFFE"/>
<path d="M1321.66 356.875V395.913H1313.71V356.875H1287.71V352.97H1347.77V356.875H1321.66Z" fill="#FFFFFE"/>
<path d="M1354.06 395.913H1362.01V352.97H1354.06V395.913Z" fill="#FFFFFE"/>
<path d="M1412.09 356.131C1403.55 356.131 1396.15 357.838 1389.9 361.249C1383.65 364.655 1380.52 369.03 1380.52 374.374C1380.52 379.713 1383.63 384.098 1389.84 387.527C1396.05 390.96 1403.47 392.677 1412.09 392.677C1420.65 392.677 1428.04 390.974 1434.3 387.564C1440.54 384.158 1443.67 379.76 1443.67 374.374C1443.67 369.03 1440.54 364.655 1434.3 361.249C1428.04 357.838 1420.65 356.131 1412.09 356.131ZM1412.09 396.655C1401.33 396.655 1392.03 394.565 1384.2 390.393C1376.37 386.216 1372.45 380.876 1372.45 374.374C1372.45 367.959 1376.37 362.656 1384.2 358.484C1392.03 354.317 1401.33 352.222 1412.09 352.222C1422.94 352.222 1432.25 354.298 1440.05 358.452C1447.84 362.601 1451.74 367.913 1451.74 374.374C1451.74 380.876 1447.84 386.216 1440.05 390.393C1432.25 394.565 1422.94 396.655 1412.09 396.655Z" fill="#FFFFFE"/>
<path d="M1526.28 396.855L1489.05 372.598L1470.49 360.239C1470.42 361.005 1470.38 361.831 1470.38 362.727C1470.38 363.622 1470.38 364.319 1470.38 364.813C1470.38 366.072 1470.38 367.314 1470.38 368.546C1470.38 369.787 1470.38 371.006 1470.38 372.224V395.913H1462.55V352.97L1468.17 352.947L1503.23 375.796C1506.96 378.173 1510.03 380.171 1512.45 381.782C1514.86 383.397 1517.54 385.229 1520.47 387.292C1520.55 386.531 1520.59 385.728 1520.59 384.869C1520.59 384.02 1520.59 383.37 1520.59 382.917V381.237C1520.59 380.25 1520.59 379.354 1520.59 378.542C1520.59 377.739 1520.59 377.042 1520.59 376.461V352.97H1528.42V396.855H1526.28Z" fill="#FFFFFE"/>
</svg>
