<svg width="41" height="41" viewBox="0 0 41 41" fill="none" xmlns="http://www.w3.org/2000/svg">
<path d="M36.9 0H4.1C1.845 0 0 1.845 0 4.1V36.9C0 39.155 1.845 41 4.1 41H36.9C39.155 41 41 39.155 41 36.9V4.1C41 1.845 39.155 0 36.9 0ZM32.185 14.965C31.98 24.395 26.035 30.955 17.015 31.365C13.325 31.57 10.66 30.34 8.2 28.905C10.865 29.3151 14.35 28.2901 16.195 26.65C13.53 26.445 11.89 25.01 11.07 22.755C11.89 22.96 12.71 22.755 13.325 22.755C10.865 21.935 9.225 20.5 9.02 17.22C9.635 17.63 10.455 17.835 11.275 17.835C9.43 16.81 8.2 12.915 9.635 10.455C12.3 13.325 15.58 15.785 20.91 16.195C19.475 10.455 27.2651 7.38 30.3401 11.275C31.7751 11.07 32.8001 10.455 33.8251 10.045C33.4151 11.48 32.5951 12.3 31.5701 13.12C32.5951 12.915 33.6201 12.71 34.4401 12.3C34.235 13.325 33.21 14.145 32.185 14.965Z" fill="white"/>
</svg>
