<?xml version="1.0" encoding="UTF-8"?>
<svg width="882px" height="200px" viewBox="0 0 1557 353" version="1.1" xmlns="http://www.w3.org/2000/svg" xmlns:xlink="http://www.w3.org/1999/xlink">
    <!-- Generator: Sketch 52.6 (67491) - http://www.bohemiancoding.com/sketch -->
    <title>UniversityOfWaterloo_logo_horiz_bk</title>
    <desc>Created with Sketch.</desc>
    <g id="Banner" stroke="none" stroke-width="1" fill="none" fill-rule="evenodd">
        <g id="Artboard" transform="translate(-676.000000, -5963.000000)" fill="#FFFFFF">
            <g id="UniversityOfWaterloo_logo_horiz_bk" transform="translate(676.000000, 5963.000000)">
                <polyline id="Fill-1" points="354 109.410293 387.748696 109.410293 417.343113 205.935981 449.445531 109 476.390469 109 508.480026 205.935981 538.100166 109.410293 571 109.410293 522.143275 253 494.799629 253 462.538585 159.731012 430.226095 253 402.852438 253 354 109.410293"></polyline>
                <path d="M621.46885,110 L650.574135,110 L712,254 L679.04324,254 L665.932751,221.908106 L605.297814,221.908106 L592.174429,254 L560,254 L621.46885,110 Z M654.666327,194.139983 L635.636775,147.795501 L616.58573,194.139983 L654.666327,194.139983 Z" id="Fill-2"></path>
                <polyline id="Fill-3" points="745.321156 139.997782 702 139.997782 702 111 820 111 820 139.997782 776.700184 139.997782 776.700184 254 745.321156 254 745.321156 139.997782"></polyline>
                <polyline id="Fill-4" points="844 111 951.987244 111 951.987244 138.943317 875.28815 138.943317 875.28815 167.966818 942.80378 167.966818 942.80378 195.987291 875.28815 195.987291 875.28815 226.009532 953 226.009532 953 254 844 254 844 111"></polyline>
                <path d="M987,111 L1052.61695,111 C1070.83935,111 1084.9803,116.09658 1094.4205,125.513893 C1102.40275,133.465244 1106.70782,144.678577 1106.70782,158.155151 L1106.70782,158.592368 C1106.70782,181.683433 1094.22697,196.197326 1075.97447,202.931327 L1111,254 L1074.09503,254 L1043.36168,208.237943 L1018.5806,208.237943 L1018.5806,254 L987,254 L987,111 Z M1050.54828,180.45751 C1065.93646,180.45751 1074.74875,172.278978 1074.74875,160.234076 L1074.74875,159.83115 C1074.74875,146.341716 1065.28704,139.393393 1049.92467,139.393393 L1018.5806,139.393393 L1018.5806,180.45751 L1050.54828,180.45751 Z" id="Fill-5"></path>
                <polyline id="Fill-6" points="1141 111 1172.32192 111 1172.32192 225.400857 1239 225.400857 1239 254 1141 254 1141 111"></polyline>
                <path d="M1244,182.415995 L1244,181.987134 C1244,141.352535 1276.06022,108 1320.22285,108 C1364.31262,108 1396,140.919386 1396,181.592582 L1396,181.987134 C1396,222.686062 1363.91406,256 1319.80715,256 C1275.70024,256 1244,223.089192 1244,182.415995 M1363.08267,182.415995 L1363.08267,181.987134 C1363.08267,157.503448 1345.13048,137.025326 1319.80715,137.025326 C1294.47096,137.025326 1276.90448,157.070298 1276.90448,181.592582 L1276.90448,181.987134 C1276.90448,206.522283 1294.87809,226.983251 1320.22285,226.983251 C1345.52475,226.983251 1363.08267,206.96401 1363.08267,182.415995" id="Fill-7"></path>
                <path d="M1405,182.415995 L1405,181.987134 C1405,141.352535 1437.07265,108 1481.18218,108 C1525.33887,108 1557,140.919386 1557,181.592582 L1557,181.987134 C1557,222.686062 1524.93164,256 1480.7921,256 C1436.66542,256 1405,223.089192 1405,182.415995 M1524.12146,182.415995 L1524.12146,181.987134 C1524.12146,157.503448 1506.14758,137.025326 1480.7921,137.025326 C1455.48806,137.025326 1437.89568,157.070298 1437.89568,181.592582 L1437.89568,181.987134 C1437.89568,206.522283 1455.88243,226.983251 1481.18218,226.983251 C1506.5248,226.983251 1524.12146,206.96401 1524.12146,182.415995" id="Fill-8"></path>
                <path d="M434,38.6947416 L434,1 L448.390415,1 L448.390415,38.3213988 C448.390415,49.0582207 453.717677,54.6111574 462.5,54.6111574 C471.278068,54.6111574 476.60533,49.2470377 476.60533,38.7891501 L476.60533,1 L491,1 L491,38.2184077 C491,58.1986806 479.877426,68 462.317035,68 C444.743879,68 434,58.1042721 434,38.6947416" id="Fill-9"></path>
                <polyline id="Fill-10" points="530 1 543.472509 1 574.59016 41.6408171 574.59016 1 589 1 589 67 576.572809 67 544.414159 25.0452801 544.414159 67 530 67 530 1"></polyline>
                <polygon id="Fill-11" points="630 67 644 67 644 1 630 1"></polygon>
                <polyline id="Fill-12" points="680 1 695.979759 1 713.1884 47.1543828 730.401323 1 746 1 719.397042 67 706.60724 67 680 1"></polyline>
                <polyline id="Fill-13" points="781 1 830.53858 1 830.53858 13.9200442 795.355294 13.9200442 795.355294 27.3081127 826.313168 27.3081127 826.313168 40.2238631 795.355294 40.2238631 795.355294 54.0885434 831 54.0885434 831 67 781 67 781 1"></polyline>
                <path d="M898.210087,33.0618047 C905.263756,33.0618047 909.322619,29.2875545 909.322619,23.7227897 L909.322619,23.5338625 C909.322619,17.3121462 904.989161,14.1046776 897.922619,14.1046776 L883.510651,14.1046776 L883.510651,33.0618047 L898.210087,33.0618047 Z M869,1 L899.149718,1 C907.533459,1 914.037938,3.35300241 918.371396,7.69832802 C922.035529,11.369527 924.017764,16.5607312 924.017764,22.7824475 L924.017764,22.9713747 C924.017764,33.6242925 918.268423,40.3183267 909.884682,43.4313317 L926,67 L909.035152,67 L894.910651,45.8787977 L883.510651,45.8787977 L883.510651,67 L869,67 L869,1 Z" id="Fill-14"></path>
                <path d="M957,57.4243248 L965.544842,47.1325027 C971.46083,52.04402 977.65039,55.1578015 985.160789,55.1578015 C991.072503,55.1578015 994.63321,52.7966606 994.63321,48.9259376 L994.63321,48.7324015 C994.63321,45.0509139 992.384792,43.1628613 981.403453,40.328632 C968.173695,36.9266966 959.628853,33.245209 959.628853,20.1148567 L959.628853,19.9299222 C959.628853,7.93498197 969.203864,0 982.621702,0 C992.196712,0 1000.36539,3.02346468 1007.02515,8.40376953 L999.514755,19.3622162 C993.705631,15.3065587 987.973448,12.8464993 982.437896,12.8464993 C976.902343,12.8464993 973.98282,15.3968756 973.98282,18.6095756 L973.98282,18.798811 C973.98282,23.1426222 976.808303,24.5532857 988.165804,27.4821327 C1001.4896,30.9786857 1009,35.7955854 1009,47.3174372 L1009,47.5066726 C1009,60.6327241 999.044554,68 984.870119,68 C974.927497,68 964.878011,64.5077478 957,57.4243248" id="Fill-15"></path>
                <polygon id="Fill-16" points="1047 67 1061 67 1061 1 1047 1"></polygon>
                <polyline id="Fill-17" points="1118.20179 14.3923622 1098 14.3923622 1098 1 1153 1 1153 14.3923622 1132.79821 14.3923622 1132.79821 67 1118.20179 67 1118.20179 14.3923622"></polyline>
                <polyline id="Fill-18" points="1207.26589 40.9752781 1182 1 1198.91095 1 1214.59839 27.4927461 1230.56391 1 1247 1 1221.73838 40.6961811 1221.73838 67 1207.26589 67 1207.26589 40.9752781"></polyline>
                <path d="M1383.85433,34.1881998 L1383.85433,34 C1383.85433,22.7293999 1375.57241,13.3407976 1363.90146,13.3407976 C1352.24336,13.3407976 1344.14567,22.5412002 1344.14567,33.8118002 L1344.14567,34 C1344.14567,45.2663228 1352.42759,54.6634797 1364.09426,54.6634797 C1375.76093,54.6634797 1383.85433,45.4630771 1383.85433,34.1881998 Z M1329,34.1881998 L1329,34 C1329,15.3040634 1343.77721,0 1364.09426,0 C1384.41131,0 1399,15.1201409 1399,33.8118002 L1399,34 C1399,52.6916593 1384.22708,68 1363.90146,68 C1343.5844,68 1329,52.8841364 1329,34.1881998 Z" id="Fill-19"></path>
                <polyline id="Fill-20" points="1430 1 1480 1 1480 14.203435 1444.43827 14.203435 1444.43827 28.2484549 1475.77104 28.2484549 1475.77104 41.4475961 1444.43827 41.4475961 1444.43827 67 1430 67 1430 1"></polyline>
                <path d="M27.191724,20.1900927 C27.359724,20.3340927 27.295724,20.1980927 27.023724,20.0060927 C26.971724,19.9820927 26.995724,20.0260927 27.191724,20.1900927" id="Fill-21"></path>
                <path d="M212,130.015921 C212.184,130.271921 212,129.923921 212,130.015921" id="Fill-22"></path>
                <path d="M173.376,318 C173.296,318.08 173.212,318.156 173.128,318.236 C173.084,318.284 173.04,318.328 173,318.376 L173.376,318" id="Fill-23"></path>
                <path d="M239.037603,24.0529189 C239.033603,24.0569189 239.029603,24.0569189 239.025603,24.0609189 C238.893603,24.2089189 239.329603,23.8769189 239.037603,24.0529189" id="Fill-24"></path>
                <path d="M158.378666,201.694715 C158.395815,201.660384 158.348657,201.574557 158.292924,201.565974 C157.152553,201.325657 156.123647,201.239829 155.008999,201.123962 C154.173012,201.020969 153.551382,200.445925 152.715395,200.30431 C152.50104,200.252813 152.299546,200.278561 152.072329,200.351515 C151.750796,200.480256 151.639331,200.703407 151.377817,200.840731 C150.983403,201.020969 150.408931,201.020969 150.048814,201.342822 C149.675835,201.686132 149.358589,202.012277 149.247124,202.480037 C149.092788,203.042207 149.217114,203.848985 149.602954,204.316745 C149.903052,204.694386 150.348911,204.853167 150.764761,205.011948 C152.102339,205.505456 156.063627,203.321146 157.499809,202.514368 C157.851352,202.312673 158.095717,201.986528 158.378666,201.694715 Z M239.070631,24.1176349 C239.066344,24.1219262 239.062057,24.1219262 239.05777,24.1262176 C239.070631,24.1133435 239.062057,24.1176349 239.079205,24.096178 L239.070631,24.1176349 Z M274.893714,16.1056385 C267.485589,13.6380981 260.343266,20.5343371 259.545864,27.6193965 C258.799907,34.120829 260.819135,41.9139653 262.35392,47.2352697 C262.804066,48.7887473 262.533979,50.5653764 262.868373,51.9214508 C264.188803,46.5400671 264.338851,40.9269491 264.253109,35.2494605 C264.235961,33.8590552 265.329174,32.0051813 266.752494,31.5932094 C271.566917,30.1985126 274.049153,33.6788174 273.723333,36.3823834 C272.668704,44.900762 270.949573,51.4236513 268.917484,59.8733679 C266.593871,69.5332521 270.053568,79.1116001 271.065325,88.492545 C267.369837,86.3211094 263.344242,86.2138251 261.916635,91.9857239 C261.136381,95.0540567 263.901566,98.276879 264.750414,100.993319 C264.836156,97.2984456 268.317289,92.2646632 271.69553,94.5090521 C275.841165,97.2726973 275.991214,110.520171 275.078059,112.271052 C273.058831,116.10754 269.757757,118.85402 265.157689,117.493654 C262.572563,116.738372 263.618617,112.901884 262.070971,111.279744 C253.813999,102.735617 250.058491,92.5221457 249.355406,80.7208656 C249.243941,78.995733 250.144234,74.4683328 249.895581,74.3653398 C239.104928,69.9194758 234.140456,74.3524657 229.660427,80.7208656 C228.88446,78.7983298 224.773123,76.1033465 224.438728,76.6998476 C222.38949,80.5062969 222.985398,87.4025358 226.050681,90.0760622 C234.37196,97.2812801 242.611783,102.109077 247.284732,112.404084 C242.298824,113.056373 237.424381,114.502566 235.508044,119.725169 C233.514538,125.175215 234.196188,132.753782 239.953776,134.976714 C244.635299,136.779092 252.686489,134.757854 254.452778,134.985297 C259.430112,135.637586 265.00764,139.928961 264.235961,144.658055 C264.188803,144.88979 262.096693,155.897165 257.325141,153.172143 C254.744302,151.69591 256.201919,145.653654 252.27064,144.705261 C246.971773,143.426431 245.672779,150.833343 246.345855,150.19822 C248.030689,148.588955 249.20107,151.236733 252.476421,153.056276 C241.389957,150.640232 244.832506,160.815081 245.235494,159.703615 C245.809966,158.115806 247.816333,159.759403 251.786196,159.50192 C251.931958,159.493337 250.924487,160.330155 250.868755,160.415983 C250.247124,161.428747 249.938452,161.930838 249.492593,163.012265 C249.261089,163.514355 249.295386,164.067943 249.368267,164.604365 C249.419712,165.140786 249.608345,165.625712 249.904156,166.097763 C249.959888,166.196464 250.058491,166.290875 250.182818,166.346663 C250.229976,166.363828 250.384312,166.617019 250.418609,166.617019 C250.662974,166.642767 250.199966,165.835989 250.847319,165.784493 C250.997368,165.780201 251.464663,165.702956 251.588989,165.74587 C251.8848,165.853155 252.266353,166.054849 252.56645,166.140677 C252.849399,166.205047 253.153784,166.265126 253.466743,166.316623 C254.225561,166.415325 254.491362,166.441073 255.155864,166.196464 C255.657456,166.029101 256.150473,165.887486 256.634917,165.604255 C256.579184,165.660043 256.609194,165.660043 256.797827,165.52701 C256.746381,165.561341 256.690649,165.569924 256.634917,165.604255 C256.784965,165.449765 257.569506,164.84039 257.522348,164.939092 C258.208286,163.458568 258.636996,163.891996 258.782758,163.625931 C259.966,161.377251 260.986332,161.158391 263.588607,161.488827 C263.845834,161.510283 264.321703,162.042414 264.480326,162.265565 C264.660385,162.553087 265.204847,163.960658 265.110531,163.432819 C265.294877,164.479915 265.937943,165.132204 266.027972,166.140677 C265.916507,165.007754 268.763148,161.596111 268.836029,159.098531 C269.101829,150.614483 274.207776,146.619214 274.357825,137.555831 C274.392122,135.195575 264.608939,132.96406 264.175941,127.874489 C263.978734,125.34687 263.147035,121.686327 265.672142,121.750698 C268.917484,121.802194 272.107093,121.22715 274.400696,119.201621 C284.629738,110.176861 275.991214,97.8606157 274.760813,86.9862725 C274.482151,84.6002682 278.897873,79.4634928 278.760686,77.7726913 C278.0576,68.5419445 276.355618,60.1222676 279.630969,51.0631759 C277.058704,53.3633526 276.282737,57.1698019 274.130608,59.1180859 C273.075979,60.0879366 272.557239,57.9422493 272.634407,57.6075221 C273.92054,49.6341481 277.105862,42.6520817 280.784201,35.0692228 C285.152765,26.0873758 282.970627,18.7877476 274.893714,16.1056385 Z M276.557112,198.064212 L151.797954,98.9120024 L26.5329174,198.347443 C28.3720871,204.140799 30.3956025,209.925571 32.6077508,215.680305 L151.793667,121.115575 L270.477991,215.431405 C272.685853,209.663798 274.713655,203.879025 276.557112,198.064212 Z M260.407572,238.664907 L151.797954,152.343907 L42.7167537,238.930972 C45.2632964,244.170741 47.9984719,249.384761 50.9351416,254.581615 L151.793667,174.556062 L252.193472,254.337007 C255.134428,249.13157 257.86103,243.913258 260.407572,238.664907 Z M218.818328,250.702213 C217.150643,250.079963 215.011376,248.706724 213.146483,249.058616 C210.870028,249.453423 209.892568,252.53463 207.29458,253.015264 C211.380194,239.244243 203.487627,220.014593 188.336984,220.357903 C185.498918,220.417982 181.820578,222.696702 180.890275,225.816532 C180.015705,228.734666 179.569846,232.42954 181.674816,234.944285 C186.639289,240.879256 190.214737,247.363523 188.649943,255.208156 C192.191095,252.152697 195.453585,247.659628 195.329258,242.861871 C195.303536,241.664578 197.472813,242.535727 197.811495,242.033636 C201.952842,235.95705 195.17921,232.202097 191.586612,228.374191 C190.600577,227.348552 193.125684,225.739287 193.442931,225.859445 C206.441445,229.738848 207.667558,245.762841 202.098604,256.173715 C200.623838,254.319842 195.123477,254.924925 193.262872,254.298385 C199.333418,257.371009 197.764336,257.791564 197.50711,258.812911 C197.048389,260.649619 191.590899,259.847132 190.540558,261.177458 C188.709962,263.533423 187.342374,264.546187 187.205187,272.283536 C189.72172,269.567095 193.027081,265.434502 196.606817,267.279793 C204.255019,271.219275 196.225264,284.453874 189.014347,286.651058 C182.853771,288.50064 177.151916,286.548065 173.336389,281.166681 C167.814593,273.407876 171.82304,264.001183 167.904622,256.113636 C164.642133,256.928997 165.379515,261.186041 163.68182,260.422176 C157.679868,257.641365 154.267329,251.221469 149.911626,245.831503 C148.115327,246.466626 147.313638,248.144553 145.581646,248.067309 C143.000806,247.960024 138.152086,247.153246 137.114606,248.44495 C135.92279,249.955514 135.043932,260.894227 145.658814,264.833709 C152.861157,267.532984 158.575873,269.927571 163.111635,275.562146 C160.067787,275.811045 159.013158,274.330521 156.526635,274.236111 C154.074409,274.145992 152.53105,275.10726 150.679019,276.055654 C148.91273,276.961134 146.846343,280.44573 147.189312,283.213667 C148.856997,296.4311 164.376332,296.607047 171.510081,304.970936 C172.736194,306.395672 169.636614,312.154697 166.717093,314.467748 C164.221996,316.463237 158.250053,311.47666 159.21894,307.249656 C160.012055,303.880927 151.866548,301.627955 149.011333,305.481609 C150.147417,305.365742 150.430366,306.103859 150.323189,306.64028 C149.81731,309.738653 153.679995,309.875977 153.551382,311.442329 C153.379897,313.622347 151.493569,310.528266 149.997368,310.245035 C146.713443,309.579872 143.446666,310.738543 141.526041,313.377738 C140.942994,314.158769 139.652574,315.44189 140.22276,316.780799 C142.739293,315.557757 144.046861,319.480073 146.387623,318.265614 C147.810943,317.53608 148.977036,316.270125 150.696167,316.707845 C151.377817,316.883792 152.08519,317.819311 151.467847,318.2227 C146.893501,321.166583 143.228023,325.290594 146.541958,329.972484 C146.627701,328.882475 147.48941,328.105736 148.183921,327.912624 C149.525786,327.5264 151.292075,328.457629 152.595356,328.019909 C154.726049,327.30754 153.619975,325.196184 154.438813,323.672746 C155.707797,321.28245 160.03349,317.342969 162.464281,320.209607 C162.914428,320.737446 162.567172,322.664273 161.251029,322.690021 C162.601469,322.664273 163.797572,323.973142 164.937943,323.737117 C165.26805,323.672746 165.606732,323.672746 165.898255,323.526839 C166.159769,323.393807 166.447005,323.34231 166.644212,323.127742 C167.180101,322.582737 167.797445,322.020567 167.883187,321.166583 C168.864935,321.239537 170.108196,321.351112 170.75555,320.492838 C171.295726,319.771887 171.951653,319.196842 172.573284,318.617507 C172.526126,318.669003 172.478968,318.716208 172.436097,318.767705 L172.839085,318.364316 C172.753343,318.450143 172.663313,318.531679 172.573284,318.617507 C177.370559,313.78971 180.877414,307.408436 186.030519,302.743712 C180.324377,299.362109 173.242073,295.860347 172.491829,288.298945 C172.436097,287.788272 173.289231,287.208936 173.486438,287.311929 C181.426164,291.77925 192.139649,292.12256 197.871514,284.007571 C202.484443,277.437476 204.495097,266.794867 213.515175,266.181201 C210.514198,260.405011 213.883866,253.744797 218.818328,250.702213 Z M123.074324,298.121902 C130.632497,294.469942 137.830553,289.255922 146.696294,291.157001 C141.534615,285.75416 143.360924,274.145992 150.66187,272.721256 C150.679019,272.721256 145.954625,271.948808 145.45732,271.639829 C139.108112,267.597354 131.348444,263.752283 127.078484,272.197708 C124.956365,276.390381 128.853347,279.776276 131.768581,283.247998 C132.295895,283.865956 131.447048,284.260762 130.765398,284.436708 C123.824568,286.213337 111.036122,287.25185 110.461649,276.866724 C110.40163,275.819628 107.7179,274.939896 105.990195,274.999976 C100.845664,275.158756 100.931406,281.703103 101.51874,281.261091 C102.637676,280.398525 106.080224,280.707504 105.660087,283.320951 C105.278535,285.7842 100.485547,282.046413 98.5734963,284.513953 C96.9701176,286.573813 97.02585,289.959707 98.1576468,292.229845 C97.9347171,291.393027 98.8993166,290.775069 99.4137697,290.689241 C104.746933,289.809509 105.047031,291.663383 103.473662,296.825907 C103.349336,297.216422 105.042744,300.477867 106.165966,300.773971 C106.080224,300.748223 106.097373,300.035855 106.247421,299.791247 C106.39747,299.533764 106.663271,299.349235 106.929072,299.254825 C107.507831,299.070296 108.099452,299.096044 108.682499,298.954429 C108.965448,298.860018 109.17123,298.684072 109.43703,298.516708 C109.85288,298.259226 110.140116,297.89875 110.440214,297.512527 C111.683476,295.954758 112.776688,293.959269 114.86451,293.757574 C115.820536,293.663164 116.437879,294.092301 117.265291,294.628723 L117.286727,294.645888 C119.134471,292.388625 120.669256,293.59021 121.475232,293.615959 C123.404431,293.680329 123.271531,296.396769 123.074324,298.121902 Z M125.440808,211.024163 C129.517849,219.628369 137.157477,214.156867 143.433804,213.178433 C142.413473,211.994014 138.885182,209.689546 138.006325,209.839744 C131.742858,210.852508 130.199499,213.217056 125.440808,211.024163 Z M170.524046,196.849753 C168.277601,199.883755 164.504945,199.780762 161.040961,198.952527 C155.810688,197.729485 151.669341,196.429198 147.888111,199.029771 C148.021011,198.926778 145.007173,202.205389 145.157222,202.213971 C139.373912,201.89641 135.678424,205.818726 136.57443,208.178982 C138.717985,207.243462 140.758648,205.355258 143.082262,206.578299 C145.097203,207.64256 146.061802,213.049692 145.217242,215.264041 C144.604185,216.890472 142.494928,218.885962 139.794049,219.010411 C138.555074,219.070491 139.211002,220.795623 139.150983,221.7526 C146.867779,221.121768 155.287661,216.82181 162.022709,213.217056 C165.396664,211.414678 165.319496,207.9215 166.532748,204.424029 C167.325863,202.153892 171.621546,201.5531 170.524046,196.849753 Z M173.726516,214.088205 C173.696507,211.933935 172.877669,208.406425 170.301116,206.840073 C168.26474,216.302554 158.815951,220.735544 150.301753,223.12584 C141.976187,225.421725 137.217496,232.948796 134.683815,240.39004 C134.508044,240.887839 134.30655,241.462883 134.130778,243.342505 C134.045036,244.097787 138.915192,238.287266 142.302008,239.982359 C142.460631,240.724767 141.581773,244.256568 140.600025,245.127717 C144.912857,244.466845 150.730464,243.818848 153.559956,240.711893 C154.027251,240.205511 153.735727,243.720146 154.438813,245.35516 C156.256547,249.69374 160.209262,253.062469 163.947621,255.354063 C164.937943,255.929107 164.805043,253.384322 166.867142,251.766474 C168.513392,250.457604 171.510081,253.272746 172.92054,253.903578 C174.086634,254.431417 171.522942,250.019884 171.24428,248.612313 C168.727747,236.201658 173.910862,225.96673 173.726516,214.088205 Z M119.61034,225.387394 C115.923426,224.31455 115.41326,220.048924 112.056454,218.731472 C109.608515,217.78737 106.093085,219.688449 105.720107,223.40907 C106.547519,223.177336 107.404941,223.494898 107.563564,224.181518 C108.468144,227.927888 113.95993,225.696373 114.088544,228.331277 C114.191434,230.05641 109.977206,228.026589 108.318095,229.142347 C106.118808,230.609997 105.81871,234.841292 107.760771,237.291667 C109.758564,235.377714 112.249374,238.179982 114.191434,236.793868 C115.550448,235.824017 116.030604,234.442194 117.423914,233.819945 C121.646717,231.957489 122.885691,235.849765 121.951101,239.772082 C124.231843,238.716404 129.599304,237.592063 130.829704,237.248753 C133.054714,236.64367 133.14903,231.52406 135.871344,229.635855 C132.008659,229.614398 127.241394,227.927888 126.161042,224.15577 C126.058152,223.760963 126.336814,223.301786 126.371111,222.834026 C126.465427,221.400707 126.336814,220.00601 125.788064,218.69285 C125.732332,218.555526 125.590857,218.379579 125.487966,218.212216 C125.337918,218.00623 125.209304,217.778787 125.059255,217.551344 C124.677703,217.00634 124.111804,216.787479 123.558767,216.427004 C123.314402,216.268223 123.014305,216.216727 122.834246,215.984992 L122.885691,216.036489 C122.598455,215.714636 122.182605,215.581603 121.796766,215.422822 C121.402352,215.246876 120.990789,215.113843 120.536356,215.053764 C120.429178,215.036599 119.636063,214.852069 119.516024,214.800573 C119.486014,215.07093 119.854705,215.817629 119.644637,216.002158 C119.143045,216.469918 118.967274,216.362633 118.559998,216.954843 C118.414237,217.190869 118.259901,217.426894 118.195594,217.701542 C118.084129,218.25513 117.839764,218.868796 117.779744,219.50392 C117.758309,219.812899 117.886922,220.56818 117.959803,220.855703 C118.002674,221.014483 118.337069,221.692521 118.431385,221.868467 C118.431385,221.885632 119.190203,222.688119 119.151619,222.649497 C120.034764,223.559269 119.310242,223.031429 120.399168,224.112856 C120.952205,224.632112 120.146229,225.546175 119.61034,225.387394 Z M98.5563479,255.495678 C98.8050002,253.761963 99.3108791,250.869576 101.827412,251.916672 C104.116728,252.865066 104.592597,255.46993 104.056709,258.044755 C107.7179,256.851753 114.144276,253.0968 117.985526,255.873319 C123.142918,259.602524 131.614245,261.134544 137.650495,263.014166 C133.646335,260.229064 132.373063,252.97235 133.041852,248.234672 C123.537332,250.097129 113.556942,249.805315 104.746933,245.715635 C102.341865,244.582713 102.659111,241.79761 101.93459,239.501725 C101.111465,236.922609 97.8618362,234.540896 94.9165924,234.768339 C93.3303621,234.875623 89.5319835,238.20573 90.2522178,238.373094 C90.0035655,238.321597 90.0121397,238.875184 89.8878136,239.094044 C90.6037608,238.647742 91.5126279,239.094044 91.834161,239.862201 C92.0613778,240.407205 92.2885946,240.995123 92.7473153,241.437135 C93.2832039,241.964974 94.2135065,242.093715 94.5136041,242.673051 C96.198438,245.955952 87.8771595,240.694727 84.751857,245.552563 C83.7572478,247.114624 84.2931364,250.633551 84.2931364,252.62904 C86.205187,250.886742 88.1086634,254.178226 91.6841122,251.028357 C92.0742391,251.388833 92.50295,251.607693 91.9584872,252.152697 C90.6380576,253.500189 89.904962,255.143785 90.6037608,256.753051 C91.0324717,257.791564 94.0034382,259.885754 94.0248737,259.709808 C94.3249713,257.555538 97.9818753,259.709808 98.5563479,255.495678 Z M25.2124878,112.112271 C26.0956322,112.901884 27.1759837,113.678622 28.3206418,113.768741 C28.1534445,113.657165 28.0634153,113.262359 28.0076828,113.064956 C27.9005051,112.678732 28.0205442,112.309674 28.2263254,111.962073 C28.5607199,111.412777 29.2166476,111.670259 29.7611104,111.425651 C30.6228193,111.039427 31.5231122,110.708991 32.3933953,110.983639 L32.1790399,110.859189 C32.8478289,110.9536 33.5037565,111.816166 32.9464324,112.36117 C32.3719598,112.961963 31.4973895,113.236611 31.0643915,114.10776 C30.6228193,114.996074 30.8886201,116.601048 31.2744599,117.240463 C31.6645868,117.875587 32.380534,118.287559 32.9935906,118.755319 C33.0964812,118.828272 33.7781315,119.377568 33.8810221,119.467687 C33.8895963,119.218787 33.3837175,118.901225 33.9110319,118.257519 C34.0182096,118.111612 34.6141177,117.858421 34.7898892,117.974288 C35.7630629,118.613703 36.4404262,118.708113 37.5336389,118.4163 C38.3267541,118.210314 38.6654357,118.094447 39.2784923,117.506528 C40.3588438,116.433685 40.4274375,115.287888 41.3062948,114.17213 L43.1368904,112.901884 C44.658814,112.138019 50.6950635,115.609741 46.4036674,119.91399 C51.0251708,116.961524 59.3164396,112.614361 65.8971518,115.197769 C61.811537,108.687754 65.2969566,98.8090094 72.7565262,96.3285949 C64.4138121,88.3251813 57.4172503,88.7586102 54.257651,97.0752941 C52.6971433,101.195014 57.5287151,106.061432 52.684282,108.125584 C49.9834034,109.271381 47.2267923,108.559012 44.615943,107.623493 C39.6043126,105.851155 42.6695955,99.4269674 38.5925549,96.1440658 C35.8359438,93.9382993 29.2466573,94.3030661 29.2595187,99.8561048 C29.5424678,99.5685827 30.1983955,98.9120024 30.6957002,99.4784639 C31.7674774,102.379433 31.7546161,103.156172 34.6184049,103.855666 C35.2743325,104.018738 34.3654654,105.413435 33.8810221,105.284694 C32.9678679,105.031503 31.947536,105.074416 31.08154,104.705358 C29.9969014,104.224724 28.7579269,104.121731 27.6175559,104.469333 C26.8458763,104.696775 26.1856615,105.134496 25.5983276,105.700957 C25.3882593,105.902652 25.1996265,106.091472 25.0067066,106.331789 C24.7623414,106.623603 24.5994312,106.971204 24.4365211,107.310222 C24.080691,108.035465 24.0978395,108.859409 24.1278492,109.64473 C24.1364234,109.927961 24.080691,110.232649 24.2050172,110.498714 C24.3207691,110.756196 24.2993336,111.090923 24.4751051,111.284035 C24.74948,111.554392 24.9252515,111.850497 25.2124878,112.112271 Z M26.7344115,78.5751783 C29.469587,77.2276867 28.7107687,75.7214142 30.5370771,75.5154282 C33.3622819,75.1935751 33.8081413,75.6827918 34.3526041,77.3821762 C34.5883951,78.1288753 34.189694,79.3347516 34.0139225,79.7467236 C37.5122034,80.1629869 40.0758946,75.4510576 43.239781,76.7170131 C47.8312747,78.5408473 55.003608,80.7895276 57.3615179,78.8970314 C58.0989006,78.3048217 56.2468696,73.931911 57.9145549,68.7050168 C50.40354,72.3955989 41.9707967,70.0868394 34.8970669,66.7095276 C30.9357783,64.81274 31.5316864,58.9507223 27.1159642,56.5733008 C25.3496753,55.6206157 23.6605544,55.7150259 21.9371366,55.9553429 C21.2812089,56.0325876 20.7153105,56.9380677 20.9553886,57.766303 C21.6756229,56.9981469 22.7345388,58.122487 22.6487966,58.4143005 C21.9885819,60.5771533 21.6627616,60.8904237 24.4879664,62.7099665 C13.9931236,62.1306309 17.5514241,71.0695642 18.7518146,68.9624992 C19.2534063,68.065602 23.1289528,69.4946297 23.3390212,70.5545992 C23.4633473,71.2455105 23.1075173,71.9965011 21.3155058,75.2107406 C20.9296659,75.9274002 22.8502908,80.2187748 23.0046267,79.2575069 C23.3433083,77.2062298 25.65406,77.9314721 26.7344115,78.5751783 Z M24.2607496,29.022676 C22.2458084,31.0610789 19.9993633,29.4088997 18.3145295,33.1981835 C20.8567851,32.1081743 21.1397343,35.9789942 22.2200857,36.1206096 C27.0645189,36.7857726 30.7600068,37.6397562 33.4223015,42.5662542 C35.0471158,45.5702164 30.5070674,45.7075404 34.6141177,46.4070344 C36.6976527,46.7718013 38.0952502,47.8188967 39.149879,49.3037123 C40.2559531,50.8571899 40.406002,52.9385066 41.589244,54.3889912 C42.4466658,55.4275038 42.7724861,55.6334898 43.8142536,56.5003475 C44.2815485,56.8865712 45.7691753,57.2770863 46.3307865,57.422993 C46.8838236,57.5688997 47.2225052,57.8521304 47.7541067,58.0452423 C48.3200051,58.2512283 48.9202003,58.4486315 49.4003566,58.843438 C49.8033448,59.1781652 50.8279638,59.5300579 51.0680419,60.0064005 C51.4881786,60.826053 51.1537841,61.6671625 51.5953563,62.4953977 C51.7325438,62.7314233 52.3713231,62.521146 52.6414109,62.6112649 C52.8900632,62.7099665 53.4645358,62.7357147 53.6231589,62.7099665 C54.6006197,62.4782322 54.8449849,62.4138616 55.5780806,62.3323255 C56.697016,62.1992929 56.5684027,62.5468942 58.0217327,62.4782322 C58.3261174,62.4782322 58.4547307,62.7099665 58.8705802,62.7099665 C59.1492423,62.7099665 59.6379727,63.0060713 59.7194278,62.7528802 C60.1524258,61.375349 60.8812343,60.0407315 61.6957851,58.6889485 C62.5060486,57.3500396 62.4374549,57.217007 63.4663611,55.8137275 C63.3420349,55.8523499 64.7867906,54.8395855 64.6624645,54.82242 C49.614712,51.6253459 36.2260707,40.4291496 39.4542638,26.2204084 C39.4885606,26.0873758 38.8755041,22.5512831 37.5807971,22.0663578 C37.4779065,22.0191527 37.2635511,21.6200549 37.0449085,21.564267 C36.474723,21.4140689 35.9902797,21.1608778 35.5101235,20.8175678 C35.3386392,20.6888266 34.6398404,20.4570923 34.6398404,20.2039012 C34.3654654,20.7918196 34.425485,21.3282414 34.0182096,21.8474977 C33.8810221,22.0320268 33.6623796,22.332423 33.4523112,22.4439988 C33.1779362,22.5856141 33.1607878,22.8388052 32.9464324,23.0233343 C31.8232098,24.16484 32.4276922,25.8770984 32.5991765,27.1773849 C32.6506218,27.5078208 32.7878093,27.91121 32.3933953,27.979872 C31.908952,28.0656995 32.2990789,27.8554221 31.7374676,27.5078208 C31.6045673,27.4262847 31.4159345,27.2117159 31.2744599,27.1430539 C31.042956,27.0357696 30.099792,26.9113197 29.9454561,26.6752941 C29.7739717,26.4306858 29.8468526,26.3491496 29.6196358,26.147455 C29.0966085,25.6796952 29.0494503,24.7484669 28.6721847,23.787199 C28.603591,23.615544 28.4492551,22.7744346 28.4492551,22.5856141 C28.4492551,21.8346236 26.9787767,20.7446144 26.7687083,20.6716611 C26.5372045,20.5085888 26.164226,20.2983115 25.5854663,20.1524048 C24.7537671,19.9421274 23.7934547,19.9893325 22.8631521,20.109491 C22.6659451,20.1352393 22.4858865,20.2940201 22.3444119,20.3970131 C21.4355448,21.1093813 20.5738359,21.9376166 19.4077423,22.0449009 C19.3605841,22.0491923 19.3134259,22.0749406 19.2619806,22.0792319 C19.3134259,22.0749406 19.3605841,22.0491923 19.4077423,22.0449009 C19.5277813,22.0749406 19.6049493,22.2251387 19.6778301,22.3109662 C20.2651641,23.0705395 19.8364532,24.0146419 20.1879961,24.8600427 C20.539539,25.688278 21.1397343,26.3234014 21.8428202,26.8898628 C22.5287576,27.4262847 23.7205739,26.7182079 24.2478883,27.6537275 C24.2478883,27.6236879 25.3711108,27.9197927 24.2607496,29.022676 Z M48.0070461,34.9233161 C53.2801902,42.8451935 65.352689,36.378092 69.4340167,37.867199 C63.9036462,28.1601097 54.3776901,36.3909662 48.0070461,34.9233161 Z M60.9712636,28.9668881 C65.0440171,27.3747882 70.46721,25.2248095 73.0823464,29.8165803 C74.6600025,32.597391 74.0683815,35.0906797 72.8765652,38.4594087 C71.9033915,41.1930143 67.0975423,41.9826272 63.4835095,41.5191588 C64.0965661,41.9354221 64.7953648,43.4159464 64.2294664,44.4158366 C72.3792606,42.3645596 84.3017106,45.428601 89.7634874,36.1763974 C91.6198056,33.0308199 89.07755,29.9410302 89.9564073,26.7825785 C90.3722569,25.2333923 92.50295,24.2420847 93.3432234,22.5770314 C94.0205866,21.2509966 92.1985653,19.4915331 92.305743,18.2470344 C90.9038584,19.7361414 89.274757,21.1007985 87.0626088,21.1565864 C83.4785857,21.2509966 80.2889766,18.1697897 76.7821215,19.4915331 C72.7651004,20.9892228 68.8466828,22.8602621 64.5381383,23.9888936 C62.9947791,24.3879915 60.3324844,26.1217068 60.9712636,28.9668881 Z M94.4450104,28.2673941 C94.7665436,35.4683206 92.0570907,42.8580677 85.7078823,46.6344773 C76.8635766,51.8871198 65.8371323,55.1442731 62.8104334,66.1344834 C61.6957851,70.1383359 60.2596035,79.1588052 62.1973768,83.1240354 C62.8704529,81.0427187 64.1094274,79.1287656 66.4844858,79.0472295 C75.0372681,78.7296678 77.5323656,77.0217007 83.2856658,72.8848156 C85.3177554,71.4214569 90.7452354,77.3950503 90.6209092,76.5410667 C90.4622862,75.5411765 90.2222081,70.6833404 91.3325693,71.5802377 C93.3132136,73.1937946 96.6914555,74.1808107 99.542383,74.2280158 C92.5672567,66.3104297 101.167197,57.3414569 101.287236,49.0290643 C101.390127,41.9611704 98.9464748,33.9019689 94.4450104,28.2673941 Z M94.1234772,76.8500457 C87.5341908,82.536117 75.3502271,77.8413532 69.6912433,83.394392 C64.3066344,88.6684913 78.0811155,92.2432063 83.4400017,94.7322036 C85.4163589,95.6591405 87.3970033,97.6760866 87.0626088,100.177958 C78.6684494,95.2342944 68.5551594,100.834538 69.052464,109.820677 C69.4254425,116.523804 77.6309691,120.703603 84.4689078,121.270064 C87.3112611,121.497507 89.0261047,124.673124 85.5664077,126.840268 C79.4958615,130.646717 72.7265164,134.873721 66.1886752,128.007522 C65.0911753,126.866016 61.1770449,127.578385 60.4053653,129.663993 C60.0195254,130.676757 59.9037735,132.234526 60.0623965,133.255873 C60.4139395,132.637915 60.829789,131.762475 61.378539,131.822554 C62.0258924,131.921256 62.8104334,132.586419 62.7246912,133.075635 C62.1587928,136.435782 57.7430706,134.264346 56.3711957,136.869211 C56.3368988,136.937873 56.2725922,136.989369 56.2382953,137.045157 C56.1525532,137.264017 56.0325141,137.448546 55.9339106,137.641658 C55.0379048,139.418287 53.8117917,140.542627 56.0110786,141.92445 C55.9596333,141.598305 57.1042914,143.340603 57.0828558,143.641 C57.1943206,142.031734 58.8705802,142.057482 58.8705802,142.057482 L59.843754,142.169058 L60.8126406,142.593904 C61.888705,142.838513 61.0913027,143.726827 60.6668789,144.001475 C59.7837345,144.589393 59.1792521,145.310344 58.626215,146.190076 C58.1975041,146.842365 57.9016936,147.550442 58.0646038,148.361512 C58.1717815,148.94943 58.3732756,149.477269 58.5962053,150.022274 C58.7376799,150.357001 59.0463517,150.532947 59.295004,150.816178 C59.3978946,150.919171 59.7837345,151.404096 59.7965958,151.44701 C59.5522306,150.605901 60.7397598,149.769083 61.0098476,149.927863 C66.49306,153.112063 66.810306,146.666419 70.0899444,144.473526 C71.4875419,143.542298 74.638567,144.615142 73.8240163,147.473197 C77.0907933,145.730899 78.0553928,141.310783 80.6105098,138.555721 C86.2394838,132.444803 94.1363386,128.380872 101.630205,125.059348 C98.9207522,122.175544 94.9251666,119.763792 92.9059383,116.463724 C91.9027548,114.833002 90.7066514,111.627345 92.9230867,112.215264 C102.131797,114.622725 107.30205,108.996733 108.322382,101.735727 C121.96825,103.499482 125.513689,90.5910271 127.357146,80.8367327 C128.244577,76.1033465 130.833991,75.6913746 128.004499,67.619299 C126.834119,64.2505699 134.057897,63.1433953 132.827497,57.3242914 C132.484528,55.7150259 130.499597,54.0928863 129.324929,53.9040658 C130.443864,57.0410607 125.187869,57.8349649 124.613396,59.1180859 C123.730252,61.1264493 122.431258,62.7357147 122.255486,64.847071 C117.809754,58.6889485 121.410926,51.2734532 125.582283,45.5101372 C131.678552,37.1119171 144.299801,41.5277415 149.620103,46.9391649 C149.718706,44.2227248 147.609449,40.7681682 145.877457,39.0988235 C150.850503,38.4637001 156.243686,41.4977019 163.025892,37.90153 C166.935736,35.8116306 170.897024,34.0307101 172.731907,29.400317 C164.406342,30.5504054 153.122671,24.130509 145.628804,22.8259311 C131.639968,20.3970131 122.255486,29.9410302 117.248143,41.3303383 C112.266522,52.6981896 115.464706,61.1908199 120.87075,69.6920329 C122.234051,71.8334288 116.073475,70.425858 113.642684,71.6832307 C111.271913,72.9105639 110.303026,75.8329899 110.838915,78.4163974 C113.831317,75.2107406 121.732459,77.1847729 122.439832,82.6691496 C123.417293,90.0760622 115.966297,100.847412 108.759667,97.6160073 C101.051445,94.152868 96.6828813,86.0121304 94.1234772,76.8500457 Z M237.861666,110.794819 C239.05777,107.687863 232.764294,101.538324 228.027038,103.250582 C221.982215,105.413435 224.494461,113.056373 223.362664,118.399134 C222.728172,121.355891 219.071268,123.518744 216.031708,122.467358 C211.032939,120.742225 209.026572,116.081792 207.796171,110.850607 C206.955898,107.361719 200.182266,106.945456 198.720362,109.794928 C194.566153,117.892752 201.198311,108.859409 200.765313,115.000366 C200.688145,116.047461 195.908018,115.26214 194.836241,118.909808 C194.107432,121.390222 196.452481,123.050984 199.414873,123.922133 C199.959336,124.085206 198.844688,122.6948 199.590645,122.390113 C200.122246,122.175544 202.291523,123.342798 202.034297,123.492996 C199.191944,125.22242 198.454561,129.273478 203.551933,131.041524 C203.590517,131.050107 203.183242,129.578165 203.569082,129.303517 C207.543232,126.321012 211.69744,129.526669 211.710302,129.427967 L211.633134,129.427967 C211.808905,129.698324 211.916083,129.848522 211.98039,129.934349 C211.98039,130.020177 212.08328,130.333447 212.511991,131.329046 C218.243856,128.930168 224.172928,126.183688 230.513562,128.762804 C227.705505,115.858641 237.115709,112.725937 237.861666,110.794819 Z M173.705081,70.7906248 C176.800374,69.211399 177.254807,73.5027735 179.226877,72.3312283 C180.946008,71.3184639 182.399338,70.1211704 184.139904,70.9236574 C185.190246,71.4128741 184.877287,73.3482841 184.028439,73.6658458 C175.124114,76.8285888 182.29216,82.6863151 180.86884,83.9050655 C182.103527,82.8365133 185.803302,82.8622615 189.30587,77.5795794 C190.034679,76.4852789 194.313214,76.3779945 195.912305,76.8500457 C198.347383,77.5924535 195.745108,81.3002012 196.834034,81.1156721 C199.496328,80.6650777 204.996689,83.7119537 207.363173,85.9520512 C212.644892,90.9686681 216.704784,90.269174 222.801053,93.5864066 C218.612547,89.7585005 218.595399,83.0596647 219.902967,77.7726913 C214.484061,77.8671015 209.172333,76.2277964 203.886328,74.9189272 C193.747315,72.4127644 194.368946,61.9847242 192.546925,57.7448461 L191.933868,57.0410607 C191.457999,55.2815971 189.258712,54.4876928 187.513859,54.2602499 C187.338087,54.2387931 187.153742,54.1915879 186.969396,54.1529656 C186.510675,54.0456812 186.039093,54.0585553 185.588947,54.0285157 C186.137697,54.2044621 186.124836,54.8610424 185.833312,55.234392 C185.803302,55.268723 185.794728,55.4060469 185.691838,55.3631332 C185.77758,55.5390795 185.533214,55.5390795 185.490343,55.6764035 C185.456047,55.8008534 185.241691,55.865224 185.164523,56.0111308 C185.1388,56.0755014 185.151662,56.1613289 185.095929,56.208534 C183.668322,57.2599208 183.432531,59.1395428 183.886965,60.7144773 C183.981281,61.0492045 184.088459,61.375349 184.315676,61.615666 C184.461437,61.7744468 184.585763,61.9503932 184.731525,62.1048827 C185.190246,62.521146 185.417463,63.5553673 186.086252,63.9887961 L187.226623,65.9799939 C187.792521,66.473502 186.42922,66.9841756 186.086252,66.5550381 C181.228957,60.8432185 173.070589,61.6285401 173.705081,70.7906248 Z M184.199924,33.6659433 C184.594338,33.6273209 185.841886,33.7260226 186.051955,34.052167 C186.416359,34.6186285 186.424933,35.266626 186.853644,35.7944651 C187.380958,36.4725023 187.822531,36.4939592 188.598497,36.8115209 C189.790314,37.3221945 190.862091,37.5539287 192.186808,37.4380616 L192.474044,37.5968424 C193.069952,37.9787748 192.43546,39.047327 191.75381,39.2490216 C190.956407,39.4678817 189.833185,39.1331545 189.130099,39.3992198 C185.996222,40.5535995 185.987648,48.2780738 186.416359,47.3854678 C186.887941,46.3941603 189.207267,47.0421579 190.699181,47.3339714 C193.121397,47.8274794 194.947706,42.9052728 196.54251,43.0468881 C200.302305,43.3901981 203.834883,48.0763792 205.266777,51.1532947 C205.524004,51.7240475 203.693408,51.7455044 203.569082,53.642292 C208.700751,53.1530753 213.035018,56.4917647 216.743368,59.5386407 C218.552528,56.3973545 220.374549,54.4533618 222.428074,52.3977934 C214.706991,44.8835965 199.363428,42.5576714 201.729912,28.8596038 C202.042871,27.0958488 200.05794,25.550954 199.179082,24.6883877 C198.175899,23.7314112 195.908018,23.6756233 194.514708,23.3451874 C195.980899,26.3834806 193.331466,26.6752941 193.708731,31.4987991 C193.713018,31.6489973 193.275733,31.5502956 193.11711,31.4816336 C192.191095,31.0868272 191.406554,30.511783 190.523409,29.962487 C189.730294,29.4646876 188.992911,29.6020116 188.114054,29.7307528 C187.578165,29.7994148 187.089435,30.0483145 186.639289,30.3701676 C185.91048,30.8937153 185.533214,31.5631698 185.031623,32.3055776 C184.933019,32.4386102 184.830129,32.597391 184.714377,32.7175495 C184.555754,32.8892045 184.221359,33.4084608 184.199924,33.6659433 Z M207.800458,31.382932 C211.56454,37.2749893 218.732586,38.8928375 224.627361,34.1251204 C225.227556,33.6444864 226.372214,33.81185 227.353962,34.2839012 C222.025086,28.0184944 217.253534,31.7219506 212.43911,32.0824261 C211.191562,32.1768363 209.330956,31.1426151 207.800458,31.382932 Z M218.192411,28.5506248 C222.089393,28.7523194 227.752664,24.336495 230.119148,28.851021 C230.522136,29.6105943 230.91655,30.374459 230.989431,31.1898202 C231.002292,31.3443097 231.028015,31.520256 231.053737,31.6833283 C231.250944,32.7390064 231.173776,33.8075587 231.07946,34.8374886 C230.989431,36.2278939 230.320642,37.2792807 229.437497,38.3564157 C229.158835,38.7040171 228.734411,38.8585066 228.42574,39.1546114 C228.275691,39.2962268 228.108494,39.4163852 227.962732,39.5451265 C227.542595,39.8841451 227.036716,40.0171777 226.565134,40.2403292 C226.205017,40.4162755 225.857761,40.4978116 225.454773,40.5535995 C225.227556,40.5922219 224.957468,40.5965133 224.7474,40.605096 C224.700242,40.605096 223.401248,40.4892289 223.362664,40.4978116 C222.4195,40.5836391 222.2866,40.0815483 221.652107,40.639427 C221.154803,41.051399 221.086209,41.7208534 221.009041,42.3431027 C221.604949,42.3559768 222.205145,42.4675526 222.766756,42.6520817 C223.607029,42.9396038 224.455877,43.1799208 225.35617,43.3172447 C226.903816,43.5618531 227.169617,43.4588601 228.717263,43.4888997 C229.368904,43.5017738 231.379558,43.445986 232.031198,43.445986 C232.687126,43.445986 232.995798,43.4159464 233.651725,43.3172447 C234.744938,43.1799208 234.491999,43.3172447 235.670954,43.0125571 C236.103952,42.9052728 237.27862,42.3860165 237.664459,42.1414081 C238.504733,41.6393173 239.233541,41.0385248 240.039518,40.4763548 C241.364234,39.5708747 243.306295,39.6052057 244.468101,38.5924413 L243.940787,39.0215788 C247.383335,37.3779823 247.593404,32.7862115 248.905259,29.5204755 C249.809839,27.3018348 252.37353,27.4262847 253.303833,24.9458702 C253.582495,24.2292106 253.586782,20.6888266 253.046606,20.9205608 C250.825884,21.873246 247.460503,23.3537702 245.124029,22.7014813 C237.304342,20.5343371 235.315124,16.534776 227.834119,22.0792319 C225.617683,23.7228284 221.326287,21.9633648 218.548241,25.5423712 C218.115243,26.1045413 218.192411,27.6880585 218.192411,28.5506248 Z M254.654272,35.6485584 C254.564243,35.3782018 253.093765,30.6019019 252.46356,32.5201463 C249.20107,42.3516855 241.201324,45.5745078 233.278747,49.5826516 C227.825544,52.3634624 213.163632,64.7869918 218.243856,69.4860469 C217.626512,68.9195855 226.187869,71.5072844 229.163122,74.5241207 C229.776179,75.1377873 232.352731,68.524779 243.229127,68.8380494 C246.290123,68.9324596 249.428286,70.1082963 252.21062,71.811972 C250.495777,59.5686803 258.847065,47.6558244 254.654272,35.6485584 Z M303,1 L302.927119,3.96104846 C302.764209,10.7285462 302.622734,17.4788784 302.48126,24.2206279 C300.654951,111.67455 298.927246,194.274928 247.267584,273.622444 C225.990662,306.322719 193.322891,333.577239 152.788276,352.429247 L151.575024,353 L150.361773,352.43783 C109.771425,333.620152 77.0522093,306.369924 55.7281294,273.622444 C4.05560508,194.257763 2.33647438,111.618763 0.514453075,24.1348004 C0.377265589,17.4230905 0.235790993,10.6985066 0.0685937434,3.96104846 L0,1 L303,1 Z M73.1595144,25.2677233 C74.7285963,21.4054861 78.4455198,20.9763487 81.5279511,25.3020543 C81.5708222,25.3535507 81.3907636,25.6067418 81.0349336,25.7612313 C78.2997581,27.0357696 72.0920243,27.8725876 73.1595144,25.2677233 Z" id="Fill-25"></path>
                <path d="M257.175398,165 C257.127398,165.032 257.075398,165.04 257.023398,165.072 C256.971398,165.124 256.999398,165.124 257.175398,165" id="Fill-26"></path>
                <path d="M239.893144,23.8976081 C236.348624,22.3416003 231.745702,20.2998337 230.119816,24.4544536 C228.939811,27.487484 236.79,25.3667322 239.870625,23.9252529 C239.721998,24.0713755 240.212916,23.743587 239.884136,23.9173544" id="Fill-27"></path>
            </g>
        </g>
    </g>
</svg>