<svg width="693" height="249" viewBox="0 0 693 249" fill="none" xmlns="http://www.w3.org/2000/svg">
<path d="M234.602 145.54V39.5088H244.375V82.1885C248.5 77.126 253.117 73.3525 258.227 70.8682C263.336 68.3369 268.938 67.0713 275.031 67.0713C285.859 67.0713 295.094 71.0088 302.734 78.8838C310.422 86.7119 314.266 96.2275 314.266 107.431C314.266 118.493 310.398 127.938 302.664 135.767C294.93 143.595 285.625 147.509 274.75 147.509C268.516 147.509 262.867 146.173 257.805 143.501C252.742 140.829 248.266 136.821 244.375 131.478V145.54H234.602ZM273.977 138.017C279.461 138.017 284.523 136.681 289.164 134.009C293.805 131.29 297.484 127.493 300.203 122.618C302.969 117.743 304.352 112.587 304.352 107.149C304.352 101.712 302.969 96.5322 300.203 91.6104C297.438 86.6885 293.711 82.8682 289.023 80.1494C284.383 77.3838 279.414 76.001 274.117 76.001C268.727 76.001 263.594 77.3838 258.719 80.1494C253.891 82.8682 250.164 86.5479 247.539 91.1885C244.961 95.8291 243.672 101.056 243.672 106.868C243.672 115.728 246.578 123.134 252.391 129.087C258.25 135.04 265.445 138.017 273.977 138.017ZM335.711 37.54C337.961 37.54 339.883 38.3369 341.477 39.9307C343.07 41.5244 343.867 43.4463 343.867 45.6963C343.867 47.8994 343.07 49.7979 341.477 51.3916C339.883 52.9854 337.961 53.7822 335.711 53.7822C333.508 53.7822 331.609 52.9854 330.016 51.3916C328.422 49.7979 327.625 47.8994 327.625 45.6963C327.625 43.4463 328.422 41.5244 330.016 39.9307C331.609 38.3369 333.508 37.54 335.711 37.54ZM330.789 69.04H340.703V145.54H330.789V69.04ZM397.305 67.0713C409.07 67.0713 418.82 71.3369 426.555 79.8682C433.586 87.6494 437.102 96.8604 437.102 107.501C437.102 118.188 433.375 127.54 425.922 135.556C418.516 143.524 408.977 147.509 397.305 147.509C385.586 147.509 376 143.524 368.547 135.556C361.141 127.54 357.438 118.188 357.438 107.501C357.438 96.9072 360.953 87.7197 367.984 79.9385C375.719 71.3604 385.492 67.0713 397.305 67.0713ZM397.305 76.7041C389.148 76.7041 382.141 79.7275 376.281 85.7744C370.422 91.8213 367.492 99.1338 367.492 107.712C367.492 113.243 368.828 118.399 371.5 123.181C374.172 127.962 377.781 131.665 382.328 134.29C386.875 136.868 391.867 138.157 397.305 138.157C402.742 138.157 407.734 136.868 412.281 134.29C416.828 131.665 420.438 127.962 423.109 123.181C425.781 118.399 427.117 113.243 427.117 107.712C427.117 99.1338 424.164 91.8213 418.258 85.7744C412.398 79.7275 405.414 76.7041 397.305 76.7041ZM446.102 42.1104H503.266V61.5166H484.422V145.54H464.453V61.5166H446.102V42.1104ZM516.836 42.1104H573.297V61.376H536.383V80.0791H573.297V98.9932H536.383V126.204H573.297V145.54H516.836V42.1104Z" fill="white"/>
<path d="M1 200.239L98.2174 200.554L116.93 131.499L142.154 246.605L174.209 53.54L199.966 200.554H450.596" stroke="white" stroke-width="17"/>
<path d="M450 200.672H593.218L627.793 127.54" stroke="white" stroke-width="17"/>
<path fill-rule="evenodd" clip-rule="evenodd" d="M691.934 123.534C682.47 139.43 665.114 150.08 645.27 150.08C615.298 150.08 591 125.783 591 95.81C591 65.8375 615.298 41.54 645.27 41.54C665.271 41.54 682.745 52.3602 692.158 68.4664L669.493 76.566L662.972 65.2714H627.657L610 95.855L627.658 126.439H662.972L669.316 115.451L691.934 123.534Z" fill="white"/>
</svg>
