<svg width="793" height="249" viewBox="0 0 793 249" fill="none" xmlns="http://www.w3.org/2000/svg">
<path d="M234.602 145.54V39.5088H244.375V82.1885C248.5 77.126 253.117 73.3525 258.227 70.8682C263.336 68.3369 268.938 67.0713 275.031 67.0713C285.859 67.0713 295.094 71.0088 302.734 78.8838C310.422 86.7119 314.266 96.2275 314.266 107.431C314.266 118.493 310.398 127.938 302.664 135.767C294.93 143.595 285.625 147.509 274.75 147.509C268.516 147.509 262.867 146.173 257.805 143.501C252.742 140.829 248.266 136.821 244.375 131.478V145.54H234.602ZM273.977 138.017C279.461 138.017 284.523 136.681 289.164 134.009C293.805 131.29 297.484 127.493 300.203 122.618C302.969 117.743 304.352 112.587 304.352 107.149C304.352 101.712 302.969 96.5322 300.203 91.6104C297.438 86.6885 293.711 82.8682 289.023 80.1494C284.383 77.3838 279.414 76.001 274.117 76.001C268.727 76.001 263.594 77.3838 258.719 80.1494C253.891 82.8682 250.164 86.5479 247.539 91.1885C244.961 95.8291 243.672 101.056 243.672 106.868C243.672 115.728 246.578 123.134 252.391 129.087C258.25 135.04 265.445 138.017 273.977 138.017ZM335.711 37.54C337.961 37.54 339.883 38.3369 341.477 39.9307C343.07 41.5244 343.867 43.4463 343.867 45.6963C343.867 47.8994 343.07 49.7979 341.477 51.3916C339.883 52.9854 337.961 53.7822 335.711 53.7822C333.508 53.7822 331.609 52.9854 330.016 51.3916C328.422 49.7979 327.625 47.8994 327.625 45.6963C327.625 43.4463 328.422 41.5244 330.016 39.9307C331.609 38.3369 333.508 37.54 335.711 37.54ZM330.789 69.04H340.703V145.54H330.789V69.04ZM397.305 67.0713C409.07 67.0713 418.82 71.3369 426.555 79.8682C433.586 87.6494 437.102 96.8604 437.102 107.501C437.102 118.188 433.375 127.54 425.922 135.556C418.516 143.524 408.977 147.509 397.305 147.509C385.586 147.509 376 143.524 368.547 135.556C361.141 127.54 357.438 118.188 357.438 107.501C357.438 96.9072 360.953 87.7197 367.984 79.9385C375.719 71.3604 385.492 67.0713 397.305 67.0713ZM397.305 76.7041C389.148 76.7041 382.141 79.7275 376.281 85.7744C370.422 91.8213 367.492 99.1338 367.492 107.712C367.492 113.243 368.828 118.399 371.5 123.181C374.172 127.962 377.781 131.665 382.328 134.29C386.875 136.868 391.867 138.157 397.305 138.157C402.742 138.157 407.734 136.868 412.281 134.29C416.828 131.665 420.438 127.962 423.109 123.181C425.781 118.399 427.117 113.243 427.117 107.712C427.117 99.1338 424.164 91.8213 418.258 85.7744C412.398 79.7275 405.414 76.7041 397.305 76.7041ZM446.102 42.1104H503.266V61.5166H484.422V145.54H464.453V61.5166H446.102V42.1104ZM516.836 42.1104H573.297V61.376H536.383V80.0791H573.297V98.9932H536.383V126.204H573.297V145.54H516.836V42.1104Z" fill="white"/>
<path d="M1 200.239L98.2174 200.554L116.93 131.499L142.154 246.605L174.209 53.54L199.966 200.554H450.596" stroke="white" stroke-width="17"/>
<path d="M450 200.672H593.218L627.793 127.54" stroke="white" stroke-width="17"/>
<path fill-rule="evenodd" clip-rule="evenodd" d="M691.934 123.534C682.47 139.43 665.114 150.08 645.27 150.08C615.298 150.08 591 125.783 591 95.81C591 65.8375 615.298 41.54 645.27 41.54C665.271 41.54 682.745 52.3602 692.158 68.4664L669.493 76.566L662.972 65.2714H627.657L610 95.855L627.658 126.439H662.972L669.316 115.451L691.934 123.534Z" fill="white"/>
<path d="M673.488 206.504C674.235 206.504 674.821 206.728 675.248 207.176C675.675 207.603 675.888 208.157 675.888 208.84V213H644.72V210.664C644.72 210.195 644.816 209.704 645.008 209.192C645.2 208.68 645.509 208.211 645.936 207.784L660.272 193.416C661.488 192.2 662.565 191.037 663.504 189.928C664.464 188.819 665.275 187.709 665.936 186.6C666.619 185.491 667.131 184.371 667.472 183.24C667.835 182.088 668.016 180.883 668.016 179.624C668.016 178.408 667.824 177.341 667.44 176.424C667.077 175.485 666.565 174.717 665.904 174.12C665.264 173.501 664.485 173.043 663.568 172.744C662.672 172.424 661.68 172.264 660.592 172.264C659.547 172.264 658.576 172.413 657.68 172.712C656.805 173.011 656.016 173.427 655.312 173.96C654.629 174.493 654.053 175.133 653.584 175.88C653.136 176.605 652.805 177.405 652.592 178.28C652.272 179.155 651.856 179.741 651.344 180.04C650.853 180.339 650.128 180.403 649.168 180.232L645.552 179.592C645.872 177.416 646.469 175.507 647.344 173.864C648.24 172.221 649.36 170.856 650.704 169.768C652.048 168.659 653.584 167.827 655.312 167.272C657.061 166.696 658.949 166.408 660.976 166.408C663.024 166.408 664.901 166.717 666.608 167.336C668.336 167.933 669.819 168.797 671.056 169.928C672.315 171.037 673.296 172.392 674 173.992C674.704 175.592 675.056 177.395 675.056 179.4C675.056 181.107 674.8 182.685 674.288 184.136C673.797 185.587 673.125 186.973 672.272 188.296C671.419 189.619 670.416 190.909 669.264 192.168C668.133 193.405 666.939 194.664 665.68 195.944L654.544 207.336C655.461 207.08 656.379 206.877 657.296 206.728C658.235 206.579 659.12 206.504 659.952 206.504H673.488ZM714.485 189.96C714.485 193.992 714.048 197.48 713.173 200.424C712.32 203.368 711.136 205.811 709.621 207.752C708.106 209.693 706.325 211.133 704.277 212.072C702.229 213.011 700.021 213.48 697.653 213.48C695.285 213.48 693.077 213.011 691.029 212.072C688.981 211.133 687.2 209.693 685.685 207.752C684.192 205.811 683.018 203.368 682.165 200.424C681.312 197.48 680.885 193.992 680.885 189.96C680.885 185.928 681.312 182.44 682.165 179.496C683.018 176.531 684.192 174.088 685.685 172.168C687.2 170.227 688.981 168.787 691.029 167.848C693.077 166.888 695.285 166.408 697.653 166.408C700.021 166.408 702.229 166.888 704.277 167.848C706.325 168.787 708.106 170.227 709.621 172.168C711.136 174.088 712.32 176.531 713.173 179.496C714.048 182.44 714.485 185.928 714.485 189.96ZM707.381 189.96C707.381 186.547 707.104 183.709 706.549 181.448C706.016 179.165 705.301 177.341 704.405 175.976C703.509 174.611 702.474 173.64 701.301 173.064C700.128 172.488 698.912 172.2 697.653 172.2C696.373 172.2 695.146 172.488 693.973 173.064C692.821 173.64 691.797 174.611 690.901 175.976C690.005 177.341 689.29 179.165 688.757 181.448C688.224 183.709 687.957 186.547 687.957 189.96C687.957 193.373 688.224 196.221 688.757 198.504C689.29 200.765 690.005 202.579 690.901 203.944C691.797 205.309 692.821 206.28 693.973 206.856C695.146 207.432 696.373 207.72 697.653 207.72C698.912 207.72 700.128 207.432 701.301 206.856C702.474 206.28 703.509 205.309 704.405 203.944C705.301 202.579 706.016 200.765 706.549 198.504C707.104 196.221 707.381 193.373 707.381 189.96ZM749.114 207.784V213H723.994V207.784H733.594V178.92C733.594 177.896 733.626 176.851 733.69 175.784L726.298 182.024C725.978 182.28 725.647 182.451 725.306 182.536C724.986 182.6 724.677 182.6 724.378 182.536C724.101 182.472 723.845 182.376 723.61 182.248C723.397 182.099 723.226 181.939 723.098 181.768L720.954 178.76L734.842 166.824H740.442V207.784H749.114ZM763.231 180.616C763.231 183.347 763.956 185.448 765.407 186.92C766.879 188.371 768.927 189.096 771.551 189.096C772.959 189.096 774.196 188.872 775.263 188.424C776.351 187.976 777.268 187.379 778.015 186.632C778.762 185.864 779.327 184.979 779.711 183.976C780.095 182.952 780.287 181.864 780.287 180.712C780.287 179.368 780.074 178.173 779.647 177.128C779.242 176.061 778.655 175.155 777.887 174.408C777.14 173.661 776.244 173.096 775.199 172.712C774.154 172.307 773.012 172.104 771.775 172.104C770.474 172.104 769.3 172.317 768.255 172.744C767.21 173.171 766.314 173.768 765.567 174.536C764.82 175.283 764.244 176.179 763.839 177.224C763.434 178.248 763.231 179.379 763.231 180.616ZM775.039 194.92C775.466 194.387 775.86 193.885 776.223 193.416C776.586 192.925 776.927 192.435 777.247 191.944C776.138 192.733 774.9 193.341 773.535 193.768C772.17 194.173 770.719 194.376 769.183 194.376C767.519 194.376 765.919 194.099 764.383 193.544C762.847 192.968 761.482 192.125 760.287 191.016C759.092 189.885 758.132 188.499 757.407 186.856C756.703 185.192 756.351 183.283 756.351 181.128C756.351 179.101 756.724 177.192 757.471 175.4C758.239 173.608 759.306 172.051 760.671 170.728C762.036 169.384 763.668 168.328 765.567 167.56C767.466 166.792 769.567 166.408 771.871 166.408C774.154 166.408 776.223 166.781 778.079 167.528C779.935 168.253 781.514 169.288 782.815 170.632C784.116 171.955 785.119 173.544 785.823 175.4C786.527 177.235 786.879 179.261 786.879 181.48C786.879 182.867 786.751 184.179 786.495 185.416C786.26 186.653 785.908 187.859 785.439 189.032C784.991 190.184 784.436 191.325 783.775 192.456C783.135 193.565 782.41 194.696 781.599 195.848L770.751 211.4C770.431 211.869 769.951 212.253 769.311 212.552C768.692 212.851 767.988 213 767.199 213H760.895L775.039 194.92Z" fill="white"/>
</svg>
