<svg width="600" height="160" viewBox="0 0 840 224" fill="none" xmlns="http://www.w3.org/2000/svg">
<path d="M70.9573 221.85C59.0146 217.997 55.3547 212.026 47.6497 183.325C44.7604 172.153 38.2111 147.882 33.2029 129.39C28.1946 110.898 20.8749 83.5452 16.8298 68.7131C12.9773 53.881 7.5838 34.4259 5.07968 25.3725C-2.62531 -1.40233 -4.16631 0.331297 27.0389 0.331297H53.4285L58.822 24.0241C61.904 36.93 66.7196 58.3113 69.8016 71.6024C80.396 117.062 85.2116 140.369 85.2116 145.763C85.2116 155.394 87.1378 149.615 93.8797 120.529C104.667 73.1434 117.958 20.9421 120.847 14.2003C129.323 -4.48432 163.032 -4.48432 170.93 14.3929C174.589 23.061 200.209 126.308 201.75 138.828C203.483 151.349 205.217 149.038 208.299 130.353C209.647 123.033 213.114 106.853 216.004 94.7174C219.086 82.5821 225.25 56.3851 229.873 36.3521L238.156 0.138672L265.316 0.716546C287.853 1.29442 292.283 1.67967 292.091 4.18379C291.898 5.72479 288.623 18.438 284.963 32.1144C268.398 92.7912 255.492 140.562 247.209 171.96C234.688 218.768 231.606 222.813 207.336 222.813C196.163 222.813 192.311 222.042 187.881 218.768C177.671 211.255 175.938 206.247 155.327 125.73C150.511 107.238 146.466 91.6354 145.888 91.2502C145.118 90.4797 143.769 95.1027 137.605 120.722C135.487 129.197 131.056 146.148 127.782 158.284C114.298 208.944 112.564 213.182 103.511 219.153C97.9248 222.813 78.855 224.354 70.9573 221.85Z" fill="white"/>
<path d="M459.483 222.427C454.667 220.501 457.171 214.722 466.225 206.247C471.233 201.624 496.082 177.738 521.508 153.467C572.939 103.963 578.718 100.11 598.173 99.9177C627.066 99.9177 649.026 120.914 651.145 150.771C652.878 175.041 646.714 187.369 621.866 209.906L606.648 223.775L534.221 223.583C494.348 223.583 460.639 223.005 459.483 222.427Z" fill="white"/>
<path d="M350.069 219.924C326.183 215.109 305.187 201.047 297.29 184.481C290.933 171.383 287.851 152.506 286.31 118.026C285.154 87.2058 285.154 85.2795 290.163 67.7507C292.859 57.7342 298.06 38.6643 301.72 25.3732L308.077 1.29515L315.782 0.717281C321.946 0.332031 324.835 1.29515 329.651 5.34027C340.438 14.3936 340.438 13.8158 341.401 84.1238C342.364 147.305 342.556 150.001 346.794 158.477C359.7 184.674 406.123 183.326 418.065 156.358C420.569 150.772 421.34 137.866 422.303 84.1238C423.266 13.8158 423.266 14.3936 434.053 5.34027C439.447 0.717281 441.373 0.332031 458.517 0.332031H477.009L466.222 11.3116C435.016 43.0947 433.861 88.7468 463.717 118.604C468.726 123.419 473.541 127.464 474.504 127.464C477.009 127.464 476.623 143.26 473.541 160.403C467.377 194.498 448.115 213.182 411.901 220.117C400.729 222.236 361.048 222.043 350.069 219.924Z" fill="white"/>
<path d="M639.775 212.99C662.312 192.764 670.98 162.329 662.312 132.665L659.23 122.071L675.218 74.2999C693.132 21.1355 693.325 20.7502 701.03 13.6231C711.046 4.18453 720.678 0.332031 734.354 0.332031C749.957 0.332031 759.78 4.56977 770.182 16.1273C777.695 24.2175 779.621 29.2257 809.285 119.181C826.621 171.19 840.298 215.301 839.912 217.227C839.334 220.502 836.83 220.887 814.293 221.465L789.252 222.043L784.436 203.166L779.428 184.289L735.702 183.711L691.977 183.326L690.05 188.334C688.895 191.223 686.39 199.699 684.464 207.211L680.997 220.887L655.378 221.465L629.759 222.043L639.775 212.99ZM765.174 138.829C765.174 135.555 743.985 74.1073 738.014 60.2383C735.124 53.1112 732.235 57.7342 723.76 82.1975C719.715 93.9476 713.551 111.476 710.083 121.493C706.423 131.317 704.112 140.178 704.69 141.141C705.268 142.104 719.137 142.874 735.51 142.874C764.211 142.874 765.174 142.682 765.174 138.829Z" fill="white"/>
<path d="M498.386 121.877C474.308 115.713 459.09 96.4502 457.357 70.4459C456.008 47.7162 459.668 39.4333 481.242 18.052L499.349 0.330518H574.473C663.465 0.330518 659.998 -0.82523 637.846 20.3635C629.949 27.8759 604.715 52.1466 581.6 74.1058C553.091 101.266 536.718 115.52 530.939 118.024C521.116 122.455 506.861 124.188 498.386 121.877Z" fill="white"/>
</svg>
